<svg id="Grupo_561003" data-name="Grupo 561003" xmlns="http://www.w3.org/2000/svg" width="505" height="390.794" viewBox="0 0 505 390.794">
  <g id="Landing_Objects" data-name="Landing Objects" transform="translate(0 100.206)">
    <g id="Circle_Landing" data-name="Circle Landing" transform="translate(0)" opacity="0.4">
      <g id="Grupo_560903" data-name="Grupo 560903">
        <path id="Trazado_199325" data-name="Trazado 199325" d="M2681.845,1236.216c25.957-14.986,67.912-14.986,93.7,0,.122.071.24.139.358.213,16.6,9.792,22.258,23.481,17,35.953-2.795,6.638-8.683,12.935-17.656,18.115-25.962,14.989-67.926,14.989-93.718,0s-25.648-39.292.314-54.28Z" transform="translate(-2476.043 -1119.027)" fill="#79dae1"/>
        <path id="Trazado_199326" data-name="Trazado 199326" d="M2641.926,1210.153c32.628-18.838,85.539-18.838,117.955,0,.87.505,1.719,1.018,2.539,1.538l-1.657.659c-.74-.469-1.5-.928-2.29-1.385-31.639-18.387-83.3-18.387-115.147,0s-32.023,48.316-.384,66.7,83.309,18.392,115.164,0c11.684-6.746,19.11-15.045,22.254-23.76l2,.071c-3.192,8.99-10.817,17.551-22.857,24.5-32.633,18.841-85.551,18.841-117.972,0s-32.24-49.488.393-68.329Z" transform="translate(-2448.211 -1099.988)" fill="#79dae1"/>
        <path id="Trazado_199327" data-name="Trazado 199327" d="M2597.784,1184.726c39.16-22.609,102.688-22.609,141.594,0q2.4,1.393,4.6,2.858l-4.412,1.749q-1.9-1.242-3.946-2.435c-36.846-21.413-97.009-21.413-134.1,0s-37.292,56.266-.446,77.678,97.017,21.418,134.114,0c14.091-8.135,22.851-18.208,26.283-28.75l5.329.2c-3.542,11.262-12.833,22.04-27.876,30.725-39.169,22.614-102.7,22.614-141.611,0s-38.7-59.407.47-82.021Z" transform="translate(-2415.85 -1081.408)" fill="#79dae1"/>
        <path id="Trazado_199328" data-name="Trazado 199328" d="M2503.268,1132.689c52.541-30.335,137.759-30.334,189.958,0s51.93,79.7-.611,110.036c-22.112,12.766-50.009,20.162-78.794,22.179l.277-6.592c25.8-2.008,50.729-8.741,70.578-20.2,48.132-27.79,48.387-73.014.559-100.809s-125.9-27.79-174.028,0c-31.187,18.005-42.279,43.321-33.226,66.475l-10.672,2.232c-10.432-25.479,1.578-53.472,35.959-73.321Z" transform="translate(-2345.437 -1043.378)" fill="#79dae1"/>
        <path id="Trazado_199329" data-name="Trazado 199329" d="M2672.5,1231.088c57.342-33.107,57.65-86.974.68-120.082s-149.971-33.108-207.313,0-57.642,86.974-.672,120.082,149.963,33.107,207.306,0ZM2464,1109.921c28.28-16.327,65.808-25.32,105.671-25.32s77.29,8.993,105.386,25.321,43.5,38.036,43.366,61.124-15.773,44.8-44.053,61.129-65.812,25.318-105.676,25.317-77.286-8.991-105.382-25.318-43.5-38.038-43.37-61.127,15.777-44.8,44.058-61.126Z" transform="translate(-2316.681 -1026.716)" fill="#79dae1"/>
        <path id="Trazado_199330" data-name="Trazado 199330" d="M2278.511,1073.934l4.567.786c-20.325,33.134-13.515,70.618,20.491,100.721l-3.816,1.575c-21.483-18.9-32.95-41.059-32.815-64.25.076-13.433,4.041-26.522,11.574-38.832Zm55.1-47.688c37.267-19.564,85.055-30.268,135.612-30.268,53.854,0,104.423,12.147,142.379,34.2s58.769,51.393,58.589,82.586-21.31,60.525-59.514,82.583-88.914,34.21-142.769,34.205c-32.249,0-63.309-4.353-91.2-12.586l2.324-2.389c73.779,21.63,166.512,14.585,228.372-21.131,77.056-44.488,77.463-116.876.9-161.368-74.23-43.138-193.979-44.45-271.426-3.933l-3.274-1.9Z" transform="translate(-2216.063 -968.437)" fill="#79dae1"/>
        <path id="Trazado_199331" data-name="Trazado 199331" d="M2248.3,984.871c22.154-12.791,47.974-22.7,76.714-29.44a391.181,391.181,0,0,1,174.146,0c28.665,6.744,54.373,16.65,76.383,29.441s39.029,27.714,50.582,44.342c11.155,16.059,16.76,33.029,16.658,50.436s-5.891,34.382-17.226,50.436q-1.1,1.564-2.269,3.107l-4.474-.855c36.508-48.091,21.044-106.277-46.563-145.566-88.121-51.21-231.983-51.211-320.681,0s-89.171,134.543-1.05,185.753c54.834,31.866,131.251,43.91,202.531,36.115l1.132,2.677a395.971,395.971,0,0,1-43.55,2.367,380.632,380.632,0,0,1-87.022-9.812c-28.668-6.746-54.364-16.65-76.383-29.446s-39.033-27.712-50.582-44.338c-11.151-16.061-16.752-33.029-16.654-50.438s5.89-34.377,17.226-50.436c11.731-16.623,28.918-31.546,51.081-44.342Z" transform="translate(-2158.889 -935.32)" fill="#79dae1"/>
        <path id="Trazado_199332" data-name="Trazado 199332" d="M2192.9,956.453c24.176-13.958,52.341-24.771,83.708-32.125a402.291,402.291,0,0,1,54.026-8.785l-.334.879c-49.948,4.789-97.916,18.315-136.467,40.573-98.254,56.727-98.774,149.031-1.167,205.754s256.969,56.729,355.224,0,98.765-149.026,1.15-205.754a269.149,269.149,0,0,0-37.6-17.962l.313-.837a272.009,272.009,0,0,1,38.222,18.257c24.028,13.963,42.6,30.242,55.2,48.387,12.172,17.522,18.283,36.041,18.18,55.035s-6.435,37.51-18.8,55.035c-12.8,18.142-31.557,34.423-55.733,48.382s-52.349,24.771-83.716,32.13a426.8,426.8,0,0,1-190.025,0c-31.28-7.357-59.326-18.167-83.354-32.13s-42.59-30.24-55.189-48.382c-12.167-17.524-18.287-36.043-18.18-55.035s6.431-37.513,18.8-55.035c12.8-18.147,31.557-34.423,55.742-48.386Z" transform="translate(-2118.357 -915.543)" fill="#79dae1"/>
      </g>
    </g>
  </g>
  <g id="Main_Objects" data-name="Main Objects" transform="translate(66.966)">
    <g id="Grupo_561002" data-name="Grupo 561002" transform="translate(0)">
      <g id="Grupo_560905" data-name="Grupo 560905" transform="translate(77.529)">
        <ellipse id="Elipse_5041" data-name="Elipse 5041" cx="39.55" cy="14.115" rx="39.55" ry="14.115" transform="translate(47.39 198.202)" opacity="0.1"/>
        <g id="Grupo_560904" data-name="Grupo 560904" transform="translate(0)">
          <path id="Trazado_199333" data-name="Trazado 199333" d="M2848.185,1170.292l-1.183,7.27s-.085,3.255,8.961,3.973a18.2,18.2,0,0,1,4.565,1.4c1.268.8,8.116,2.705,10.1.465s-3.17-4.861-4.607-5.326-9.68-4.649-9.68-7.354Z" transform="translate(-2760.062 -982.86)" fill="#3f3f3f"/>
          <path id="Trazado_199334" data-name="Trazado 199334" d="M2871.409,887.963c2.834,2.835,4.859,18.356-1.485,56.553s-8.368,41.571-8.368,41.571-5.669,1.485-9.313-1.35c0,0-.81-26.319,2.295-37.927,0,0-2.755-41.166-2.39-51.694Z" transform="translate(-2764.844 -797.201)" fill="#2b3364"/>
          <path id="Trazado_199335" data-name="Trazado 199335" d="M2935.919,1214.623c-.544,2.718-1.692,6.221-.363,9.664s2.9,6.886,3.383,10.087,2.96,7.731,9.362,6.825,3.322-7.309,1.027-12.262a42.577,42.577,0,0,1-3.383-14.919Z" transform="translate(-2871.211 -1011.615)" fill="#3f3f3f"/>
          <path id="Trazado_199336" data-name="Trazado 199336" d="M2893.388,899.809c-1.608-.528-6.445,16.846-5.345,53.384,0,0-4.169,15.787-3.421,21.446s1.138,28.926,0,34.271c0,0,4.993,4.716,11.91,0,0,0,8.175-39.616,10.69-47.319s14.92-46.847,11.862-60.524C2919.084,901.066,2900.561,902.164,2893.388,899.809Z" transform="translate(-2821.398 -804.983)" fill="#2b3364"/>
          <path id="Trazado_199337" data-name="Trazado 199337" d="M2873.367,703.815l-6.133,2.995s-3.153,4.234-14.339,8.871c0,0-4.538,4.109,1.161,14.029s10.647,22.794,12.235,30.6-2.116,9.287,0,11.4,31.982,9.392,38.947-8.126a14.128,14.128,0,0,0-1.688-5.7c-1.583-2.849-.317-49.64-7.809-56.69A42.532,42.532,0,0,0,2873.367,703.815Z" transform="translate(-2795.65 -674.06)" fill="#fff"/>
          <path id="Trazado_199338" data-name="Trazado 199338" d="M3008.117,743.879c-4.091,2.071-16.659,18.588-17.356,22.161,0,0-.233-10.149-2.675-17.01,0,0-3.34,2.674-6.5,2.093,0,0-2.69,26.28,6.613,28.257s25.667-16.506,27.46-22.988C3017.151,751.012,3012.163,741.83,3008.117,743.879Z" transform="translate(-2950.872 -702.258)" fill="#fff"/>
          <path id="Trazado_199339" data-name="Trazado 199339" d="M2742.963,697.1c4.224.6,27.549,14.865,27.549,14.865a106.351,106.351,0,0,1,13.476-17.49,7.622,7.622,0,0,0,6.35,4.411s-8.341,25.306-17.155,25.212-28.529-5.608-31.088-12.851S2740.42,696.733,2742.963,697.1Z" transform="translate(-2642.874 -669.96)" fill="#fff"/>
          <path id="Trazado_199340" data-name="Trazado 199340" d="M2713.808,661.458s-.363-6.452.765-8.71,3.747-5.6,4.74-4.966-.948,5.237-.948,5.237,2.844-2.934,3.3-4.153,1.9-5.011,3.3-4.56,5.463,6.772,4.108,10.383-5.939,10.44-8.906,11.179A6.775,6.775,0,0,1,2713.808,661.458Z" transform="translate(-2572.694 -636.947)" fill="#eac0ae"/>
          <path id="Trazado_199341" data-name="Trazado 199341" d="M3099.21,678.573s-2.034,15.881-8.223,25.045c0,0-18.669-4.821-27.786-3.318,0,0,9.119-17.807,8.418-23.791s-5.077-22.583-5.077-22.583,18.289-7.113,30.634-3.506C3097.176,650.419,3102.28,664.376,3099.21,678.573Z" transform="translate(-3063.2 -640.321)" fill="#f1f1f1"/>
          <path id="Trazado_199342" data-name="Trazado 199342" d="M2906.217,633.393c10.381-1.562,14.607,2.572,15.526,4.5s.735,19.017-2.756,20.762c0,0-15.526,3.032-17.271-10.2S2906.217,633.393,2906.217,633.393Z" transform="translate(-2829.824 -629.568)" fill="#eac0ae"/>
          <path id="Trazado_199343" data-name="Trazado 199343" d="M2903.3,643.368s3.68-2.257,3.827-7.9c0,0,11.627.785,17.024-6.034,0,0-9.911-11.137-22.028-4.366s-2.524,24.28.49,23.059Z" transform="translate(-2829.967 -622.885)" fill="#4a2a18"/>
          <path id="Trazado_199344" data-name="Trazado 199344" d="M2908.807,688.732l.274-4.513.2-6.449,17,2.777s-4.385,10.232-3.556,13.447C2922.732,693.994,2915.785,696.771,2908.807,688.732Z" transform="translate(-2836.432 -658.977)" fill="#eac0ae"/>
          <path id="Trazado_199345" data-name="Trazado 199345" d="M2929.231,709.786a4.055,4.055,0,0,0-1.725,3.577s5.419,7.173,11.052,8.289c0,0,.111-4.315,1.755-6.143C2940.313,715.509,2934.941,714.763,2929.231,709.786Z" transform="translate(-2856.856 -680.031)" fill="#f3f4f4"/>
          <path id="Trazado_199346" data-name="Trazado 199346" d="M2909.418,716.8s2.7,1.426,3.2,3.235c0,0,1.2-5.366-2.792-7.584A12.51,12.51,0,0,0,2909.418,716.8Z" transform="translate(-2823.118 -681.786)" fill="#f3f4f4"/>
          <path id="Trazado_199347" data-name="Trazado 199347" d="M2912.491,725.615l2.843-.461s2.207.926,2.848,2.46l-.456,2.709-3.76,1.1-3.091-1.258A8.584,8.584,0,0,1,2912.491,725.615Z" transform="translate(-2829.034 -690.137)" fill="#9e252e"/>
          <path id="Trazado_199348" data-name="Trazado 199348" d="M2886.723,741.347a113.115,113.115,0,0,1,5.65,42.406l3.6,3.689,3.231-5.316s-4-28.091-8.726-41.875Z" transform="translate(-2801.791 -700.064)" fill="#ab252f"/>
          <path id="Trazado_199349" data-name="Trazado 199349" d="M2955.933,677.028s-3.081-4.535-5.549-1.141c-1.666,2.291,2.9,6.171,6.379,5.445Z" transform="translate(-2881.021 -656.91)" fill="#eac0ae"/>
          <path id="Trazado_199350" data-name="Trazado 199350" d="M3066.815,732.593s1.87-7.215.848-9-6.576-6.129-8.172-4.725,3.575,4.916,3.7,5.81.309,9.71.309,9.71A5.285,5.285,0,0,0,3066.815,732.593Z" transform="translate(-3029.602 -685.821)" fill="#eac0ae"/>
        </g>
      </g>
      <g id="Grupo_560930" data-name="Grupo 560930" transform="translate(0 213.357)">
        <g id="Grupo_560907" data-name="Grupo 560907" transform="translate(0 20.083)">
          <g id="Grupo_560906" data-name="Grupo 560906">
            <path id="Trazado_199351" data-name="Trazado 199351" d="M3069.662,1347.335l14.113-8.148a6.927,6.927,0,0,1,4.366-.664l4.809.777,2.6.42.464.075a6.5,6.5,0,0,0,4.1-.624l37.991-22.09.729-.421a3.2,3.2,0,0,1,2.9,0l39.174,22.766a.955.955,0,0,1-.01,1.8l-60.934,35.337a3.446,3.446,0,0,1-3.115,0l-47.2-27.427a.955.955,0,0,1,.01-1.8Z" transform="translate(-3069.015 -1312.323)" opacity="0.1"/>
            <path id="Trazado_199352" data-name="Trazado 199352" d="M3091.992,1313.088l13.982-8.073a3.283,3.283,0,0,1,2.967,0l44.956,26.125a.91.91,0,0,1-.01,1.719L3094.746,1367a3.286,3.286,0,0,1-2.967,0,3.286,3.286,0,0,0,2.967,0l59.142-34.145a.91.91,0,0,0,.01-1.719l-37.313-21.684a3.047,3.047,0,0,0-2.763,0l-.694.4-1.716-1-39.919,23.047-2.476-.4,21.854-12.618c.953-.55,1.354-1.346,1.058-2.1l-.782-2.015c-.236-.606.083-1.242.846-1.682Z" transform="translate(-3041.973 -1304.661)" fill="#c9a557"/>
            <path id="Trazado_199353" data-name="Trazado 199353" d="M3189.86,1339.971l39.919-23.047,1.716,1-37.287,21.528a6.191,6.191,0,0,1-3.906.594l-.442-.072Z" transform="translate(-3160.342 -1312.725)" fill="#fff"/>
            <path id="Trazado_199354" data-name="Trazado 199354" d="M3069.631,1350.107l13.443-7.761a6.593,6.593,0,0,1,4.158-.632l4.581.74,2.476.4.442.072a6.192,6.192,0,0,0,3.906-.594l37.287-21.528.694-.4a3.047,3.047,0,0,1,2.763,0l37.313,21.684a.91.91,0,0,1-.009,1.719l-59.142,34.145a3.284,3.284,0,0,1-2.967,0l-44.955-26.125a.909.909,0,0,1,.01-1.718Z" transform="translate(-3064.772 -1314.795)" fill="#c9a557"/>
            <path id="Trazado_199355" data-name="Trazado 199355" d="M3069.631,1347.734l13.443-7.761a6.593,6.593,0,0,1,4.158-.632l4.581.74,2.476.4.442.072a6.189,6.189,0,0,0,3.906-.594l37.287-21.527.694-.4a3.047,3.047,0,0,1,2.763,0l37.313,21.684a.91.91,0,0,1-.009,1.719l-59.142,34.146a3.286,3.286,0,0,1-2.967,0l-44.955-26.125a.91.91,0,0,1,.01-1.719Z" transform="translate(-3064.772 -1313.234)" fill="#edc367"/>
          </g>
        </g>
        <g id="Grupo_560909" data-name="Grupo 560909" transform="translate(4.243 18.257)">
          <g id="Grupo_560908" data-name="Grupo 560908" transform="translate(0)">
            <path id="Trazado_199356" data-name="Trazado 199356" d="M3091.992,1307.756l13.982-8.073a3.286,3.286,0,0,1,2.967,0l44.956,26.125a.909.909,0,0,1-.01,1.719l-59.142,34.145a3.283,3.283,0,0,1-2.967,0,3.283,3.283,0,0,0,2.967,0l59.142-34.145a.909.909,0,0,0,.01-1.719l-37.313-21.684a3.047,3.047,0,0,0-2.763,0l-.694.4-1.716-1-39.919,23.047-2.476-.4,21.854-12.618c.953-.55,1.354-1.346,1.058-2.1l-.782-2.015c-.236-.606.083-1.241.846-1.682Z" transform="translate(-3046.217 -1299.329)" fill="#c9a557"/>
            <path id="Trazado_199357" data-name="Trazado 199357" d="M3189.86,1334.639l39.919-23.047,1.716,1-37.287,21.527a6.19,6.19,0,0,1-3.906.594l-.442-.072Z" transform="translate(-3164.585 -1307.393)" fill="#fff"/>
            <path id="Trazado_199358" data-name="Trazado 199358" d="M3069.631,1344.775l13.443-7.761a6.594,6.594,0,0,1,4.158-.632l4.581.74,2.476.4.442.072a6.191,6.191,0,0,0,3.906-.594l37.287-21.528.694-.4a3.047,3.047,0,0,1,2.763,0l37.313,21.684a.91.91,0,0,1-.009,1.719l-59.142,34.145a3.283,3.283,0,0,1-2.967,0l-44.955-26.125a.91.91,0,0,1,.01-1.719Z" transform="translate(-3069.015 -1309.463)" fill="#c9a557"/>
            <path id="Trazado_199359" data-name="Trazado 199359" d="M3069.631,1342.4l13.443-7.761a6.6,6.6,0,0,1,4.158-.632l4.581.74,2.476.4.442.072a6.193,6.193,0,0,0,3.906-.594l37.287-21.528.694-.4a3.047,3.047,0,0,1,2.763,0l37.313,21.684a.909.909,0,0,1-.009,1.719l-59.142,34.145a3.282,3.282,0,0,1-2.967,0l-44.955-26.125a.91.91,0,0,1,.01-1.719Z" transform="translate(-3069.015 -1307.902)" fill="#edc367"/>
          </g>
        </g>
        <g id="Grupo_560911" data-name="Grupo 560911" transform="translate(4.243 16.431)">
          <g id="Grupo_560910" data-name="Grupo 560910" transform="translate(0)">
            <path id="Trazado_199360" data-name="Trazado 199360" d="M3091.992,1302.424l13.982-8.073a3.285,3.285,0,0,1,2.967,0l44.956,26.125a.91.91,0,0,1-.01,1.719l-59.142,34.145a3.282,3.282,0,0,1-2.967,0,3.282,3.282,0,0,0,2.967,0l59.142-34.145a.91.91,0,0,0,.01-1.719l-37.313-21.684a3.047,3.047,0,0,0-2.763,0l-.694.4-1.716-1-39.919,23.047-2.476-.4,21.854-12.618c.953-.55,1.354-1.346,1.058-2.1l-.782-2.015c-.236-.606.083-1.242.846-1.682Z" transform="translate(-3046.217 -1293.997)" fill="#c9a557"/>
            <path id="Trazado_199361" data-name="Trazado 199361" d="M3189.86,1329.307l39.919-23.047,1.716,1-37.287,21.528a6.192,6.192,0,0,1-3.906.594l-.442-.072Z" transform="translate(-3164.585 -1302.061)" fill="#fff"/>
            <path id="Trazado_199362" data-name="Trazado 199362" d="M3069.631,1339.443l13.443-7.761a6.593,6.593,0,0,1,4.158-.632l4.581.74,2.476.4.442.072a6.193,6.193,0,0,0,3.906-.594l37.287-21.528.694-.4a3.047,3.047,0,0,1,2.763,0l37.313,21.684a.909.909,0,0,1-.009,1.719l-59.142,34.145a3.281,3.281,0,0,1-2.967,0l-44.955-26.125a.91.91,0,0,1,.01-1.719Z" transform="translate(-3069.015 -1304.131)" fill="#c9a557"/>
            <path id="Trazado_199363" data-name="Trazado 199363" d="M3069.631,1337.069l13.443-7.761a6.594,6.594,0,0,1,4.158-.632l4.581.74,2.476.4.442.072a6.192,6.192,0,0,0,3.906-.594l37.287-21.528.694-.4a3.045,3.045,0,0,1,2.763,0l37.313,21.684a.909.909,0,0,1-.009,1.719l-59.142,34.145a3.282,3.282,0,0,1-2.967,0l-44.955-26.125a.91.91,0,0,1,.01-1.719Z" transform="translate(-3069.015 -1302.57)" fill="#edc367"/>
          </g>
        </g>
        <g id="Grupo_560913" data-name="Grupo 560913" transform="translate(4.243 14.606)">
          <g id="Grupo_560912" data-name="Grupo 560912" transform="translate(0)">
            <path id="Trazado_199364" data-name="Trazado 199364" d="M3091.992,1297.092l13.982-8.073a3.284,3.284,0,0,1,2.967,0l44.956,26.125a.909.909,0,0,1-.01,1.719l-59.142,34.146a3.283,3.283,0,0,1-2.967,0,3.283,3.283,0,0,0,2.967,0l59.142-34.146a.909.909,0,0,0,.01-1.719l-37.313-21.684a3.047,3.047,0,0,0-2.763,0l-.694.4-1.716-1-39.919,23.047-2.476-.4,21.854-12.618c.953-.55,1.354-1.346,1.058-2.1l-.782-2.015c-.236-.606.083-1.242.846-1.682Z" transform="translate(-3046.217 -1288.665)" fill="#c9a557"/>
            <path id="Trazado_199365" data-name="Trazado 199365" d="M3189.86,1323.975l39.919-23.047,1.716,1-37.287,21.528a6.191,6.191,0,0,1-3.906.594l-.442-.072Z" transform="translate(-3164.585 -1296.729)" fill="#fff"/>
            <path id="Trazado_199366" data-name="Trazado 199366" d="M3069.631,1334.11l13.443-7.761a6.591,6.591,0,0,1,4.158-.632l4.581.74,2.476.4.442.072a6.192,6.192,0,0,0,3.906-.594l37.287-21.528.694-.4a3.046,3.046,0,0,1,2.763,0l37.313,21.684a.91.91,0,0,1-.009,1.719l-59.142,34.145a3.282,3.282,0,0,1-2.967,0l-44.955-26.125a.91.91,0,0,1,.01-1.719Z" transform="translate(-3069.015 -1298.798)" fill="#c9a557"/>
            <path id="Trazado_199367" data-name="Trazado 199367" d="M3069.631,1331.737l13.443-7.762a6.6,6.6,0,0,1,4.158-.632l4.581.74,2.476.4.442.072a6.193,6.193,0,0,0,3.906-.594l37.287-21.528.694-.4a3.046,3.046,0,0,1,2.763,0l37.313,21.685a.909.909,0,0,1-.009,1.719l-59.142,34.145a3.281,3.281,0,0,1-2.967,0l-44.955-26.125a.91.91,0,0,1,.01-1.719Z" transform="translate(-3069.015 -1297.238)" fill="#edc367"/>
          </g>
        </g>
        <g id="Grupo_560915" data-name="Grupo 560915" transform="translate(4.243 12.78)">
          <g id="Grupo_560914" data-name="Grupo 560914" transform="translate(0)">
            <path id="Trazado_199368" data-name="Trazado 199368" d="M3091.992,1291.76l13.982-8.073a3.283,3.283,0,0,1,2.967,0l44.956,26.125a.91.91,0,0,1-.01,1.719l-59.142,34.145a3.283,3.283,0,0,1-2.967,0,3.283,3.283,0,0,0,2.967,0l59.142-34.145a.91.91,0,0,0,.01-1.719l-37.313-21.684a3.046,3.046,0,0,0-2.763,0l-.694.4-1.716-1-39.919,23.048-2.476-.4,21.854-12.618c.953-.55,1.354-1.346,1.058-2.1l-.782-2.015c-.236-.606.083-1.242.846-1.682Z" transform="translate(-3046.217 -1283.332)" fill="#c9a557"/>
            <path id="Trazado_199369" data-name="Trazado 199369" d="M3189.86,1318.643l39.919-23.048,1.716,1-37.287,21.528a6.193,6.193,0,0,1-3.906.594l-.442-.072Z" transform="translate(-3164.585 -1291.396)" fill="#fff"/>
            <path id="Trazado_199370" data-name="Trazado 199370" d="M3069.631,1328.778l13.443-7.761a6.6,6.6,0,0,1,4.158-.632l4.581.74,2.476.4.442.071a6.191,6.191,0,0,0,3.906-.594l37.287-21.528.694-.4a3.045,3.045,0,0,1,2.763,0l37.313,21.684a.91.91,0,0,1-.009,1.719l-59.142,34.146a3.283,3.283,0,0,1-2.967,0l-44.955-26.125a.91.91,0,0,1,.01-1.719Z" transform="translate(-3069.015 -1293.466)" fill="#c9a557"/>
            <path id="Trazado_199371" data-name="Trazado 199371" d="M3069.631,1326.405l13.443-7.762a6.6,6.6,0,0,1,4.158-.632l4.581.74,2.476.4.442.072a6.193,6.193,0,0,0,3.906-.594l37.287-21.528.694-.4a3.046,3.046,0,0,1,2.763,0l37.313,21.684a.91.91,0,0,1-.009,1.719l-59.142,34.145a3.282,3.282,0,0,1-2.967,0l-44.955-26.125a.91.91,0,0,1,.01-1.719Z" transform="translate(-3069.015 -1291.905)" fill="#edc367"/>
          </g>
        </g>
        <g id="Grupo_560917" data-name="Grupo 560917" transform="translate(4.243 10.954)">
          <g id="Grupo_560916" data-name="Grupo 560916" transform="translate(0)">
            <path id="Trazado_199372" data-name="Trazado 199372" d="M3091.992,1286.427l13.982-8.073a3.283,3.283,0,0,1,2.967,0l44.956,26.125a.91.91,0,0,1-.01,1.719l-59.142,34.146a3.283,3.283,0,0,1-2.967,0,3.283,3.283,0,0,0,2.967,0l59.142-34.146a.91.91,0,0,0,.01-1.719l-37.313-21.684a3.047,3.047,0,0,0-2.763,0l-.694.4-1.716-1-39.919,23.048-2.476-.4,21.854-12.618c.953-.55,1.354-1.345,1.058-2.1l-.782-2.015c-.236-.606.083-1.242.846-1.682Z" transform="translate(-3046.217 -1278)" fill="#c9a557"/>
            <path id="Trazado_199373" data-name="Trazado 199373" d="M3189.86,1313.311l39.919-23.048,1.716,1-37.287,21.528a6.19,6.19,0,0,1-3.906.594l-.442-.071Z" transform="translate(-3164.585 -1286.064)" fill="#fff"/>
            <path id="Trazado_199374" data-name="Trazado 199374" d="M3069.631,1323.446l13.443-7.762a6.6,6.6,0,0,1,4.158-.632l4.581.74,2.476.4.442.071a6.193,6.193,0,0,0,3.906-.594l37.287-21.528.694-.4a3.046,3.046,0,0,1,2.763,0l37.313,21.684a.91.91,0,0,1-.009,1.719l-59.142,34.145a3.281,3.281,0,0,1-2.967,0l-44.955-26.125a.91.91,0,0,1,.01-1.719Z" transform="translate(-3069.015 -1288.134)" fill="#c9a557"/>
            <path id="Trazado_199375" data-name="Trazado 199375" d="M3069.631,1321.073l13.443-7.761a6.6,6.6,0,0,1,4.158-.632l4.581.74,2.476.4.442.071a6.191,6.191,0,0,0,3.906-.594l37.287-21.528.694-.4a3.045,3.045,0,0,1,2.763,0l37.313,21.684a.91.91,0,0,1-.009,1.719l-59.142,34.145a3.282,3.282,0,0,1-2.967,0l-44.955-26.125a.91.91,0,0,1,.01-1.719Z" transform="translate(-3069.015 -1286.573)" fill="#edc367"/>
          </g>
        </g>
        <g id="Grupo_560919" data-name="Grupo 560919" transform="translate(4.243 9.128)">
          <g id="Grupo_560918" data-name="Grupo 560918" transform="translate(0)">
            <path id="Trazado_199376" data-name="Trazado 199376" d="M3091.992,1281.1l13.982-8.073a3.283,3.283,0,0,1,2.967,0l44.956,26.125a.91.91,0,0,1-.01,1.719l-59.142,34.146a3.284,3.284,0,0,1-2.967,0,3.284,3.284,0,0,0,2.967,0l59.142-34.146a.91.91,0,0,0,.01-1.719l-37.313-21.684a3.046,3.046,0,0,0-2.763,0l-.694.4-1.716-1-39.919,23.047-2.476-.4,21.854-12.618c.953-.55,1.354-1.345,1.058-2.1l-.782-2.015c-.236-.606.083-1.242.846-1.682Z" transform="translate(-3046.217 -1272.668)" fill="#c9a557"/>
            <path id="Trazado_199377" data-name="Trazado 199377" d="M3189.86,1307.979l39.919-23.047,1.716,1-37.287,21.528a6.193,6.193,0,0,1-3.906.594l-.442-.071Z" transform="translate(-3164.585 -1280.732)" fill="#fff"/>
            <path id="Trazado_199378" data-name="Trazado 199378" d="M3069.631,1318.114l13.443-7.762a6.593,6.593,0,0,1,4.158-.632l4.581.74,2.476.4.442.071a6.19,6.19,0,0,0,3.906-.594l37.287-21.528.694-.4a3.046,3.046,0,0,1,2.763,0l37.313,21.684a.91.91,0,0,1-.009,1.719l-59.142,34.145a3.283,3.283,0,0,1-2.967,0l-44.955-26.125a.91.91,0,0,1,.01-1.719Z" transform="translate(-3069.015 -1282.802)" fill="#c9a557"/>
            <path id="Trazado_199379" data-name="Trazado 199379" d="M3069.631,1315.741l13.443-7.761a6.6,6.6,0,0,1,4.158-.632l4.581.74,2.476.4.442.071a6.2,6.2,0,0,0,3.906-.594l37.287-21.528.694-.4a3.046,3.046,0,0,1,2.763,0l37.313,21.684a.91.91,0,0,1-.009,1.719l-59.142,34.145a3.284,3.284,0,0,1-2.967,0l-44.955-26.125a.91.91,0,0,1,.01-1.719Z" transform="translate(-3069.015 -1281.242)" fill="#edc367"/>
          </g>
        </g>
        <g id="Grupo_560921" data-name="Grupo 560921" transform="translate(4.243 7.303)">
          <g id="Grupo_560920" data-name="Grupo 560920" transform="translate(0)">
            <path id="Trazado_199380" data-name="Trazado 199380" d="M3091.992,1275.763l13.982-8.073a3.283,3.283,0,0,1,2.967,0l44.956,26.125a.91.91,0,0,1-.01,1.719l-59.142,34.145a3.285,3.285,0,0,1-2.967,0,3.285,3.285,0,0,0,2.967,0l59.142-34.145a.91.91,0,0,0,.01-1.719l-37.313-21.684a3.046,3.046,0,0,0-2.763,0l-.694.4-1.716-1-39.919,23.047-2.476-.4,21.854-12.618c.953-.55,1.354-1.346,1.058-2.1l-.782-2.015c-.236-.606.083-1.241.846-1.682Z" transform="translate(-3046.217 -1267.336)" fill="#c9a557"/>
            <path id="Trazado_199381" data-name="Trazado 199381" d="M3189.86,1302.647l39.919-23.048,1.716,1-37.287,21.528a6.19,6.19,0,0,1-3.906.594l-.442-.071Z" transform="translate(-3164.585 -1275.4)" fill="#fff"/>
            <path id="Trazado_199382" data-name="Trazado 199382" d="M3069.631,1312.782l13.443-7.761a6.593,6.593,0,0,1,4.158-.632l4.581.74,2.476.4.442.072a6.191,6.191,0,0,0,3.906-.594l37.287-21.528.694-.4a3.045,3.045,0,0,1,2.763,0l37.313,21.684a.91.91,0,0,1-.009,1.719l-59.142,34.145a3.285,3.285,0,0,1-2.967,0l-44.955-26.125a.91.91,0,0,1,.01-1.719Z" transform="translate(-3069.015 -1277.47)" fill="#c9a557"/>
            <path id="Trazado_199383" data-name="Trazado 199383" d="M3069.631,1310.409l13.443-7.761a6.593,6.593,0,0,1,4.158-.632l4.581.74,2.476.4.442.071a6.192,6.192,0,0,0,3.906-.594l37.287-21.528.694-.4a3.046,3.046,0,0,1,2.763,0l37.313,21.684a.91.91,0,0,1-.009,1.719l-59.142,34.145a3.284,3.284,0,0,1-2.967,0l-44.955-26.125a.909.909,0,0,1,.01-1.718Z" transform="translate(-3069.015 -1275.91)" fill="#edc367"/>
          </g>
        </g>
        <g id="Grupo_560923" data-name="Grupo 560923" transform="translate(4.243 5.477)">
          <g id="Grupo_560922" data-name="Grupo 560922" transform="translate(0)">
            <path id="Trazado_199384" data-name="Trazado 199384" d="M3091.992,1270.431l13.982-8.073a3.283,3.283,0,0,1,2.967,0l44.956,26.125a.91.91,0,0,1-.01,1.719l-59.142,34.145a3.284,3.284,0,0,1-2.967,0,3.284,3.284,0,0,0,2.967,0l59.142-34.145a.91.91,0,0,0,.01-1.719l-37.313-21.684a3.046,3.046,0,0,0-2.763,0l-.694.4-1.716-1-39.919,23.047-2.476-.4,21.854-12.618c.953-.55,1.354-1.346,1.058-2.1l-.782-2.015c-.236-.606.083-1.241.846-1.682Z" transform="translate(-3046.217 -1262.004)" fill="#c9a557"/>
            <path id="Trazado_199385" data-name="Trazado 199385" d="M3189.86,1297.314l39.919-23.047,1.716,1-37.287,21.528a6.191,6.191,0,0,1-3.906.594l-.442-.072Z" transform="translate(-3164.585 -1270.068)" fill="#fff"/>
            <path id="Trazado_199386" data-name="Trazado 199386" d="M3069.631,1307.45l13.443-7.761a6.594,6.594,0,0,1,4.158-.632l4.581.74,2.476.4.442.072a6.191,6.191,0,0,0,3.906-.594l37.287-21.528.694-.4a3.048,3.048,0,0,1,2.763,0l37.313,21.684a.91.91,0,0,1-.009,1.719l-59.142,34.145a3.284,3.284,0,0,1-2.967,0l-44.955-26.125a.909.909,0,0,1,.01-1.719Z" transform="translate(-3069.015 -1272.138)" fill="#c9a557"/>
            <path id="Trazado_199387" data-name="Trazado 199387" d="M3069.631,1305.077l13.443-7.761a6.594,6.594,0,0,1,4.158-.632l4.581.74,2.476.4.442.072a6.191,6.191,0,0,0,3.906-.594l37.287-21.528.694-.4a3.047,3.047,0,0,1,2.763,0l37.313,21.684a.91.91,0,0,1-.009,1.719l-59.142,34.145a3.284,3.284,0,0,1-2.967,0l-44.955-26.125a.909.909,0,0,1,.01-1.719Z" transform="translate(-3069.015 -1270.578)" fill="#edc367"/>
          </g>
        </g>
        <g id="Grupo_560925" data-name="Grupo 560925" transform="translate(4.243 3.651)">
          <g id="Grupo_560924" data-name="Grupo 560924" transform="translate(0)">
            <path id="Trazado_199388" data-name="Trazado 199388" d="M3091.992,1265.1l13.982-8.073a3.283,3.283,0,0,1,2.967,0l44.956,26.125a.91.91,0,0,1-.01,1.719l-59.142,34.145a3.285,3.285,0,0,1-2.967,0,3.285,3.285,0,0,0,2.967,0l59.142-34.145a.91.91,0,0,0,.01-1.719l-37.313-21.685a3.047,3.047,0,0,0-2.763,0l-.694.4-1.716-1-39.919,23.047-2.476-.4,21.854-12.618c.953-.55,1.354-1.346,1.058-2.1l-.782-2.015c-.236-.606.083-1.242.846-1.682Z" transform="translate(-3046.217 -1256.672)" fill="#c9a557"/>
            <path id="Trazado_199389" data-name="Trazado 199389" d="M3189.86,1291.982l39.919-23.047,1.716,1-37.287,21.528a6.191,6.191,0,0,1-3.906.594l-.442-.072Z" transform="translate(-3164.585 -1264.736)" fill="#fff"/>
            <path id="Trazado_199390" data-name="Trazado 199390" d="M3069.631,1302.118l13.443-7.761a6.6,6.6,0,0,1,4.158-.632l4.581.74,2.476.4.442.072a6.192,6.192,0,0,0,3.906-.594l37.287-21.528.694-.4a3.048,3.048,0,0,1,2.763,0L3176.7,1294.1a.909.909,0,0,1-.009,1.719l-59.142,34.145a3.283,3.283,0,0,1-2.967,0l-44.955-26.125a.91.91,0,0,1,.01-1.719Z" transform="translate(-3069.015 -1266.806)" fill="#c9a557"/>
            <path id="Trazado_199391" data-name="Trazado 199391" d="M3069.631,1299.745l13.443-7.761a6.593,6.593,0,0,1,4.158-.632l4.581.74,2.476.4.442.072a6.191,6.191,0,0,0,3.906-.594l37.287-21.528.694-.4a3.047,3.047,0,0,1,2.763,0l37.313,21.684a.91.91,0,0,1-.009,1.719l-59.142,34.145a3.284,3.284,0,0,1-2.967,0l-44.955-26.125a.91.91,0,0,1,.01-1.719Z" transform="translate(-3069.015 -1265.245)" fill="#edc367"/>
          </g>
        </g>
        <g id="Grupo_560927" data-name="Grupo 560927" transform="translate(4.243 1.826)">
          <g id="Grupo_560926" data-name="Grupo 560926" transform="translate(0)">
            <path id="Trazado_199392" data-name="Trazado 199392" d="M3091.992,1259.767l13.982-8.073a3.285,3.285,0,0,1,2.967,0l44.956,26.125a.91.91,0,0,1-.01,1.719l-59.142,34.145a3.283,3.283,0,0,1-2.967,0,3.283,3.283,0,0,0,2.967,0l59.142-34.145a.91.91,0,0,0,.01-1.719l-37.313-21.684a3.047,3.047,0,0,0-2.763,0l-.694.4-1.716-1-39.919,23.047-2.476-.4,21.854-12.618c.953-.55,1.354-1.346,1.058-2.1l-.782-2.015c-.236-.606.083-1.242.846-1.682Z" transform="translate(-3046.217 -1251.34)" fill="#c9a557"/>
            <path id="Trazado_199393" data-name="Trazado 199393" d="M3189.86,1286.65l39.919-23.047,1.716,1-37.287,21.528a6.192,6.192,0,0,1-3.906.594l-.442-.072Z" transform="translate(-3164.585 -1259.404)" fill="#fff"/>
            <path id="Trazado_199394" data-name="Trazado 199394" d="M3069.631,1296.785l13.443-7.761a6.594,6.594,0,0,1,4.158-.632l4.581.74,2.476.4.442.072a6.192,6.192,0,0,0,3.906-.594l37.287-21.528.694-.4a3.045,3.045,0,0,1,2.763,0l37.313,21.684a.909.909,0,0,1-.009,1.719l-59.142,34.145a3.281,3.281,0,0,1-2.967,0l-44.955-26.125a.91.91,0,0,1,.01-1.719Z" transform="translate(-3069.015 -1261.473)" fill="#c9a557"/>
            <path id="Trazado_199395" data-name="Trazado 199395" d="M3069.631,1294.412l13.443-7.761a6.6,6.6,0,0,1,4.158-.632l4.581.74,2.476.4.442.072a6.194,6.194,0,0,0,3.906-.594l37.287-21.528.694-.4a3.047,3.047,0,0,1,2.763,0l37.313,21.684a.909.909,0,0,1-.009,1.719l-59.142,34.145a3.282,3.282,0,0,1-2.967,0l-44.955-26.125a.91.91,0,0,1,.01-1.719Z" transform="translate(-3069.015 -1259.913)" fill="#edc367"/>
          </g>
        </g>
        <g id="Grupo_560929" data-name="Grupo 560929" transform="translate(4.243)">
          <g id="Grupo_560928" data-name="Grupo 560928" transform="translate(0)">
            <path id="Trazado_199396" data-name="Trazado 199396" d="M3091.992,1254.435l13.982-8.073a3.285,3.285,0,0,1,2.967,0l44.956,26.125a.91.91,0,0,1-.01,1.719l-59.142,34.145a3.283,3.283,0,0,1-2.967,0,3.283,3.283,0,0,0,2.967,0l59.142-34.145a.91.91,0,0,0,.01-1.719l-37.313-21.684a3.047,3.047,0,0,0-2.763,0l-.694.4-1.716-1-39.919,23.047-2.476-.4,21.854-12.618c.953-.55,1.354-1.346,1.058-2.1l-.782-2.015c-.236-.606.083-1.242.846-1.682Z" transform="translate(-3046.217 -1246.008)" fill="#c9a557"/>
            <path id="Trazado_199397" data-name="Trazado 199397" d="M3189.86,1281.318l39.919-23.047,1.716,1-37.287,21.528a6.2,6.2,0,0,1-3.906.594l-.442-.072Z" transform="translate(-3164.585 -1254.072)" fill="#fff"/>
            <path id="Trazado_199398" data-name="Trazado 199398" d="M3069.631,1291.453l13.443-7.762a6.6,6.6,0,0,1,4.158-.632l4.581.74,2.476.4.442.072a6.192,6.192,0,0,0,3.906-.594l37.287-21.528.694-.4a3.045,3.045,0,0,1,2.763,0l37.313,21.684a.909.909,0,0,1-.009,1.719l-59.142,34.145a3.281,3.281,0,0,1-2.967,0l-44.955-26.125a.91.91,0,0,1,.01-1.719Z" transform="translate(-3069.015 -1256.141)" fill="#c9a557"/>
            <path id="Trazado_199399" data-name="Trazado 199399" d="M3069.631,1289.08l13.443-7.761a6.6,6.6,0,0,1,4.158-.633l4.581.74,2.476.4.442.072a6.2,6.2,0,0,0,3.906-.594l37.287-21.528.694-.4a3.045,3.045,0,0,1,2.763,0l37.313,21.685a.909.909,0,0,1-.009,1.718l-59.142,34.145a3.282,3.282,0,0,1-2.967,0l-44.955-26.125a.91.91,0,0,1,.01-1.719Z" transform="translate(-3069.015 -1254.581)" fill="#edc367"/>
          </g>
        </g>
      </g>
      <g id="Grupo_560952" data-name="Grupo 560952" transform="translate(97.484 279.597)">
        <g id="Grupo_560932" data-name="Grupo 560932" transform="translate(0 5.831)" opacity="0.1">
          <g id="Grupo_560931" data-name="Grupo 560931">
            <path id="Trazado_199400" data-name="Trazado 199400" d="M2686.718,1465.194a62.5,62.5,0,0,1,17-6.523,86.634,86.634,0,0,1,38.573,0,61.817,61.817,0,0,1,16.919,6.521,34.447,34.447,0,0,1,11.206,9.823,19.2,19.2,0,0,1,3.693,11.171,19.409,19.409,0,0,1-3.817,11.171,32.331,32.331,0,0,1-8.137,7.813l6.809,3.957.616-.355a3.6,3.6,0,0,1,3.256,0l49.216,28.6a1,1,0,0,1-.01,1.886l-7.89,4.556a3.6,3.6,0,0,1-3.256,0l-49.216-28.6a1,1,0,0,1,.01-1.886l.616-.356-6.809-3.957a65.683,65.683,0,0,1-13.513,4.687,86.618,86.618,0,0,1-38.575,0,61.84,61.84,0,0,1-16.922-6.523,34.431,34.431,0,0,1-11.2-9.821,19.211,19.211,0,0,1-3.691-11.172,19.4,19.4,0,0,1,3.817-11.173,34.982,34.982,0,0,1,11.314-9.822Z" transform="translate(-2671.587 -1456.498)"/>
          </g>
        </g>
        <g id="Grupo_560951" data-name="Grupo 560951" transform="translate(10.938)">
          <g id="Grupo_560933" data-name="Grupo 560933" transform="translate(49.059 3.893)">
            <path id="Trazado_199401" data-name="Trazado 199401" d="M2854.194,1467.653c7.71,4.481,11.571,10.357,11.588,16.242l-.029-10.089c-.018-5.885-3.878-11.762-11.588-16.242-7.164-4.163-16.42-6.4-25.846-6.724q.014,5.045.029,10.089C2837.775,1461.248,2847.031,1463.49,2854.194,1467.653Z" transform="translate(-2828.319 -1450.839)" fill="#b5b5b5"/>
          </g>
          <g id="Grupo_560934" data-name="Grupo 560934" transform="translate(6.653 3.854)">
            <path id="Trazado_199402" data-name="Trazado 199402" d="M2980.085,1460.852q-.015-5.045-.029-10.089c-11-.373-22.224,1.869-30.636,6.726-7.862,4.539-11.789,10.511-11.771,16.474l.028,10.09c-.018-5.963,3.908-11.935,11.771-16.474C2957.861,1462.721,2969.09,1460.479,2980.085,1460.852Z" transform="translate(-2937.65 -1450.723)" fill="#b5b5b5"/>
          </g>
          <g id="Grupo_560935" data-name="Grupo 560935" transform="translate(0 27.113)">
            <path id="Trazado_199403" data-name="Trazado 199403" d="M3071.136,1518.653l.028,10.089a17.5,17.5,0,0,0,3.354,10.016l-.028-10.09A17.492,17.492,0,0,1,3071.136,1518.653Z" transform="translate(-3071.136 -1518.653)" fill="#b5b5b5"/>
          </g>
          <g id="Grupo_560936" data-name="Grupo 560936" transform="translate(6.652 26.863)">
            <path id="Trazado_199404" data-name="Trazado 199404" d="M2828.319,1518.151l.029,10.09c.017,5.885,3.876,11.762,11.586,16.243,15.523,9.021,40.861,9.021,56.482,0,7.863-4.54,11.79-10.511,11.773-16.474l-.029-10.089c.017,5.963-3.91,11.934-11.772,16.474-15.621,9.019-40.959,9.019-56.482,0C2832.2,1529.913,2828.336,1524.036,2828.319,1518.151Z" transform="translate(-2828.319 -1517.922)" fill="#76c1ef" opacity="0.302"/>
          </g>
          <g id="Grupo_560937" data-name="Grupo 560937" transform="translate(6.652 8.316)" opacity="0.5">
            <path id="Trazado_199405" data-name="Trazado 199405" d="M2840.173,1470.521c-15.621,9.019-15.7,23.7-.184,32.715s40.861,9.021,56.482,0,15.708-23.7.184-32.719S2855.8,1461.5,2840.173,1470.521Z" transform="translate(-2828.403 -1463.755)" fill="#7ea9db"/>
          </g>
          <g id="Grupo_560938" data-name="Grupo 560938" transform="translate(3.354 26.849)">
            <path id="Trazado_199406" data-name="Trazado 199406" d="M2898.709,1527.97l-.028-10.089c0,.043,0,.086,0,.129a17.626,17.626,0,0,1-3.469,10.151,29.374,29.374,0,0,1-7.392,7.1q-1.366.945-2.89,1.825t-3.16,1.668a59.677,59.677,0,0,1-12.278,4.257,78.7,78.7,0,0,1-35.05,0,56.122,56.122,0,0,1-15.375-5.927,31.259,31.259,0,0,1-10.179-8.923l.028,10.089a31.273,31.273,0,0,0,10.179,8.923,56.137,56.137,0,0,0,15.375,5.927,78.7,78.7,0,0,0,35.049,0,59.7,59.7,0,0,0,12.279-4.257q1.635-.788,3.16-1.668t2.89-1.825a29.359,29.359,0,0,0,7.392-7.1,17.626,17.626,0,0,0,3.47-10.15Z" transform="translate(-2808.887 -1517.881)" fill="#b5b5b5"/>
          </g>
          <g id="Grupo_560942" data-name="Grupo 560942" transform="translate(77.59 45.899)">
            <g id="Grupo_560939" data-name="Grupo 560939" transform="translate(9.532 5.521)">
              <path id="Trazado_199407" data-name="Trazado 199407" d="M2812.736,1592.367l.022,7.86,4.714-2.721-.022-7.86Z" transform="translate(-2812.736 -1589.646)" fill="#4e4d4e"/>
            </g>
            <g id="Grupo_560940" data-name="Grupo 560940" transform="translate(0 2.721)">
              <path id="Trazado_199408" data-name="Trazado 199408" d="M2826.5,1581.467l.022,7.86,9.532,5.522-.022-7.861Z" transform="translate(-2826.502 -1581.467)" fill="#3d3d3d"/>
            </g>
            <g id="Grupo_560941" data-name="Grupo 560941" transform="translate(0)">
              <path id="Trazado_199409" data-name="Trazado 199409" d="M2812.8,1576.241l9.532,5.522,4.713-2.721-9.532-5.521q-1.064.736-2.252,1.422T2812.8,1576.241Z" transform="translate(-2812.801 -1573.52)" fill="#4e4d4e"/>
            </g>
          </g>
          <g id="Grupo_560943" data-name="Grupo 560943">
            <path id="Trazado_199410" data-name="Trazado 199410" d="M2812.324,1476.6a31.268,31.268,0,0,0,10.179,8.923,56.125,56.125,0,0,0,15.375,5.927,78.695,78.695,0,0,0,35.05,0,59.689,59.689,0,0,0,12.279-4.257q1.635-.788,3.16-1.668t2.89-1.825a29.362,29.362,0,0,0,7.392-7.1,16.8,16.8,0,0,0,.115-20.3,31.309,31.309,0,0,0-10.182-8.925,56.167,56.167,0,0,0-15.372-5.925,78.7,78.7,0,0,0-35.05,0,56.762,56.762,0,0,0-15.442,5.926,31.789,31.789,0,0,0-10.279,8.923,16.815,16.815,0,0,0-.114,20.3Zm71.368,6.208c-15.622,9.019-40.959,9.019-56.482,0s-15.437-23.7.184-32.715,40.962-9.021,56.482,0,15.441,23.7-.184,32.719Z" transform="translate(-2808.97 -1439.468)" fill="#e8e8e7"/>
          </g>
          <g id="Grupo_560950" data-name="Grupo 560950" transform="translate(85.588 49.557)" style="isolation: isolate">
            <g id="Grupo_560944" data-name="Grupo 560944" transform="translate(0 5.354)">
              <path id="Trazado_199411" data-name="Trazado 199411" d="M2829.2,1599.84l.029,10.089a1.036,1.036,0,0,0,.6.851l-.029-10.09A1.036,1.036,0,0,1,2829.2,1599.84Z" transform="translate(-2829.197 -1599.84)" fill="#d7ac3b"/>
            </g>
            <g id="Grupo_560945" data-name="Grupo 560945" transform="translate(55.449 27.191)">
              <path id="Trazado_199412" data-name="Trazado 199412" d="M2667.868,1673.706l-.028-10.089a1.046,1.046,0,0,1-.616.863l.029,10.089A1.044,1.044,0,0,0,2667.868,1673.706Z" transform="translate(-2667.224 -1663.617)" fill="#e5b83e"/>
            </g>
            <g id="Grupo_560946" data-name="Grupo 560946" transform="translate(0.605 6.205)">
              <path id="Trazado_199413" data-name="Trazado 199413" d="M2698.6,1602.325l.029,10.089,44.718,25.987-.029-10.089Z" transform="translate(-2698.596 -1602.325)" fill="#d7ac3b"/>
            </g>
            <g id="Grupo_560947" data-name="Grupo 560947" transform="translate(48.282 28.054)">
              <path id="Trazado_199414" data-name="Trazado 199414" d="M2669.022,1670.275l.029,10.089,7.167-4.138-.029-10.089Z" transform="translate(-2669.022 -1666.137)" fill="#e5b83e"/>
            </g>
            <g id="Grupo_560948" data-name="Grupo 560948" transform="translate(45.323 32.193)">
              <path id="Trazado_199415" data-name="Trazado 199415" d="M2689.955,1678.223l.029,10.09a3.272,3.272,0,0,0,2.958,0l-.029-10.09A3.271,3.271,0,0,1,2689.955,1678.223Z" transform="translate(-2689.955 -1678.223)" fill="#e5b83e"/>
            </g>
            <g id="Grupo_560949" data-name="Grupo 560949" transform="translate(0)">
              <path id="Trazado_199416" data-name="Trazado 199416" d="M2667.922,1588.694a.907.907,0,0,0-.01,1.714l44.718,25.987a3.273,3.273,0,0,0,2.958,0l7.167-4.138a.907.907,0,0,0,.01-1.714l-44.718-25.987a3.272,3.272,0,0,0-2.959,0l-.56.323-6.05,3.493Z" transform="translate(-2667.307 -1584.202)" fill="#efc249"/>
            </g>
          </g>
        </g>
      </g>
      <g id="Grupo_561001" data-name="Grupo 561001" transform="translate(209.175 54.126)">
        <g id="Grupo_560958" data-name="Grupo 560958" transform="translate(26.019)">
          <g id="Grupo_560957" data-name="Grupo 560957" style="isolation: isolate">
            <g id="Grupo_560953" data-name="Grupo 560953" transform="translate(0 186.454)" opacity="0.1">
              <path id="Trazado_199417" data-name="Trazado 199417" d="M2356.889,1411.535l68.414-39.758-80.221-46.261-68.415,39.758Z" transform="translate(-2276.668 -1325.516)"/>
            </g>
            <g id="Grupo_560954" data-name="Grupo 560954" transform="translate(85.572 42.702)">
              <path id="Trazado_199418" data-name="Trazado 199418" d="M2259.492,1132.339l68.414-39.758.53-186.9-68.414,39.758Z" transform="translate(-2259.492 -905.677)" fill="#6c6e8d"/>
            </g>
            <g id="Grupo_560955" data-name="Grupo 560955" transform="translate(12.14)">
              <path id="Trazado_199419" data-name="Trazado 199419" d="M2333.453,863.423l68.414-39.758-73.961-42.7-68.414,39.758Z" transform="translate(-2259.491 -780.964)" fill="#757799"/>
            </g>
            <g id="Grupo_560956" data-name="Grupo 560956" transform="translate(11.611 39.758)">
              <path id="Trazado_199420" data-name="Trazado 199420" d="M2459.83,897.079l-.53,186.9,73.962,42.7.53-186.9Z" transform="translate(-2459.3 -897.079)" fill="#636483"/>
            </g>
          </g>
        </g>
        <g id="Grupo_560961" data-name="Grupo 560961" transform="translate(41.04 47.282)">
          <g id="Grupo_560960" data-name="Grupo 560960" transform="translate(0)">
            <g id="Grupo_560959" data-name="Grupo 560959">
              <path id="Trazado_199421" data-name="Trazado 199421" d="M2517.151,962.528c.683.394,1.244.075,1.247-.708l.026-9a2.738,2.738,0,0,0-1.239-2.144l-22.948-13.249c-.683-.394-1.243-.076-1.245.709l-.026,9a2.738,2.738,0,0,0,1.237,2.143l22.948,13.249Zm-44.67-43.473,66.492,38.389-.115,40.763-66.493-38.389.116-40.763Z" transform="translate(-2472.366 -919.055)" fill="#edecec"/>
              <path id="Trazado_199422" data-name="Trazado 199422" d="M2555.992,995.881c.448.258.815.051.816-.465l.007-2.539-23.554-13.6-.007,2.539a1.792,1.792,0,0,0,.812,1.405l21.925,12.659Zm.827-4.343.011-3.726a1.792,1.792,0,0,0-.811-1.406l-21.926-12.659c-.448-.258-.816-.05-.818.466l-.01,3.726,23.554,13.6Zm-23.166-19.161,22.948,13.249a2.738,2.738,0,0,1,1.239,2.144l-.026,9c0,.783-.563,1.1-1.247.708l-22.948-13.249a2.738,2.738,0,0,1-1.237-2.143l.026-9c0-.785.562-1.1,1.245-.709Z" transform="translate(-2511.782 -954.008)" fill="#8d8fbb"/>
              <path id="Trazado_199423" data-name="Trazado 199423" d="M2536.162,976.491l21.926,12.659a1.793,1.793,0,0,1,.811,1.406l-.011,3.726-23.554-13.6.01-3.726c0-.516.37-.724.818-.466Z" transform="translate(-2513.851 -956.752)" fill="#f7f7fa"/>
              <path id="Trazado_199424" data-name="Trazado 199424" d="M2535.373,995.4a1.637,1.637,0,0,0,.211.752,1.7,1.7,0,0,0,.6.653l21.926,12.658c.449.26.815.051.818-.464l.007-2.541-20.382-11.765-3.171-1.832Z" transform="translate(-2513.901 -967.589)" fill="#6a6c89"/>
            </g>
          </g>
          <path id="Trazado_199425" data-name="Trazado 199425" d="M2594.9,995.4a1.634,1.634,0,0,0,.211.752,7.411,7.411,0,0,0,2.968-1.458l-3.172-1.832Z" transform="translate(-2573.429 -967.589)" fill="#5e5e79"/>
        </g>
        <g id="Grupo_560964" data-name="Grupo 560964" transform="translate(41.04 92.378)">
          <g id="Grupo_560963" data-name="Grupo 560963" transform="translate(0)">
            <g id="Grupo_560962" data-name="Grupo 560962">
              <path id="Trazado_199426" data-name="Trazado 199426" d="M2517.151,1094.233c.683.394,1.244.074,1.247-.709l.026-9a2.738,2.738,0,0,0-1.239-2.144l-22.948-13.249c-.683-.395-1.243-.076-1.245.709l-.026,9a2.737,2.737,0,0,0,1.237,2.142l22.948,13.249Zm-44.67-43.473,66.492,38.389-.115,40.763-66.493-38.389.116-40.763Z" transform="translate(-2472.366 -1050.76)" fill="#edecec"/>
              <path id="Trazado_199427" data-name="Trazado 199427" d="M2555.992,1127.587c.448.258.815.051.816-.465l.007-2.539-23.554-13.6-.007,2.539a1.794,1.794,0,0,0,.812,1.405l21.925,12.658Zm.827-4.343.011-3.726a1.793,1.793,0,0,0-.811-1.406l-21.926-12.658c-.448-.259-.816-.05-.818.466l-.01,3.726,23.554,13.6Zm-23.166-19.161,22.948,13.249a2.738,2.738,0,0,1,1.239,2.144l-.026,9c0,.783-.563,1.1-1.247.709l-22.948-13.249a2.737,2.737,0,0,1-1.237-2.142l.026-9c0-.785.562-1.1,1.245-.709Z" transform="translate(-2511.782 -1085.714)" fill="#8d8fbb"/>
              <path id="Trazado_199428" data-name="Trazado 199428" d="M2536.162,1108.2l21.926,12.658a1.794,1.794,0,0,1,.811,1.406l-.011,3.726-23.554-13.6.01-3.726c0-.516.37-.724.818-.466Z" transform="translate(-2513.851 -1088.457)" fill="#f7f7fa"/>
              <path id="Trazado_199429" data-name="Trazado 199429" d="M2535.373,1127.1a1.637,1.637,0,0,0,.211.752,1.7,1.7,0,0,0,.6.653l21.926,12.658c.449.26.815.051.818-.464l.007-2.541-20.382-11.765-3.171-1.833Z" transform="translate(-2513.901 -1099.294)" fill="#6a6c89"/>
            </g>
          </g>
          <path id="Trazado_199430" data-name="Trazado 199430" d="M2594.9,1127.1a1.634,1.634,0,0,0,.211.752,7.41,7.41,0,0,0,2.968-1.458l-3.172-1.833Z" transform="translate(-2573.429 -1099.294)" fill="#5e5e79"/>
        </g>
        <g id="Grupo_560967" data-name="Grupo 560967" transform="translate(41.04 182.57)">
          <g id="Grupo_560966" data-name="Grupo 560966" transform="translate(0)">
            <g id="Grupo_560965" data-name="Grupo 560965">
              <path id="Trazado_199431" data-name="Trazado 199431" d="M2517.151,1357.645c.683.395,1.244.075,1.247-.709l.026-9a2.737,2.737,0,0,0-1.239-2.144l-22.948-13.249c-.683-.395-1.243-.076-1.245.709l-.026,9a2.738,2.738,0,0,0,1.237,2.143l22.948,13.249Zm-44.67-43.473,66.492,38.389-.115,40.763-66.493-38.389.116-40.763Z" transform="translate(-2472.366 -1314.172)" fill="#edecec"/>
              <path id="Trazado_199432" data-name="Trazado 199432" d="M2555.992,1391c.448.259.815.051.816-.465l.007-2.539-23.554-13.6-.007,2.539a1.793,1.793,0,0,0,.812,1.405L2555.992,1391Zm.827-4.343.011-3.726a1.792,1.792,0,0,0-.811-1.406l-21.926-12.659c-.448-.259-.816-.05-.818.466l-.01,3.726,23.554,13.6Zm-23.166-19.161,22.948,13.249a2.737,2.737,0,0,1,1.239,2.143l-.026,9c0,.783-.563,1.1-1.247.709l-22.948-13.249a2.738,2.738,0,0,1-1.237-2.143l.026-9c0-.785.562-1.1,1.245-.71Z" transform="translate(-2511.782 -1349.125)" fill="#8d8fbb"/>
              <path id="Trazado_199433" data-name="Trazado 199433" d="M2536.162,1371.608l21.926,12.659a1.793,1.793,0,0,1,.811,1.406l-.011,3.726-23.554-13.6.01-3.726c0-.516.37-.725.818-.466Z" transform="translate(-2513.851 -1351.869)" fill="#f7f7fa"/>
              <path id="Trazado_199434" data-name="Trazado 199434" d="M2535.373,1390.515a1.636,1.636,0,0,0,.211.752,1.7,1.7,0,0,0,.6.653l21.926,12.658c.449.26.815.051.818-.464l.007-2.541-20.382-11.765-3.171-1.832Z" transform="translate(-2513.901 -1362.706)" fill="#6a6c89"/>
            </g>
          </g>
          <path id="Trazado_199435" data-name="Trazado 199435" d="M2594.9,1390.515a1.633,1.633,0,0,0,.211.752,7.414,7.414,0,0,0,2.968-1.458l-3.172-1.832Z" transform="translate(-2573.429 -1362.706)" fill="#5e5e79"/>
        </g>
        <path id="Trazado_199436" data-name="Trazado 199436" d="M2472.369,1223.531v.42l.349.2.1.057.253.145.04.023.855.494.352.2.344.2,2.284,1.321.353.2,1.878,1.085.355.2.344.2,20.375,11.763.355.2.344.2,1.194.691,3.324,1.918.162.1.19.108.341.2,1.193.688,3.327,1.921.352.2.094.054.25.142.864.5.04.023.287.165.676.392.04.023,2.612,1.506.355.207.344.2.029.02,1.156.668,3.33,1.921.355.2.344.2.313.179.872.506,3.333,1.924.355.2.341.2.591.344.594.341,3.333,1.927.352.2.344.2.872.5h0l.31.179,5.4,3.12.04.023v-.045l.082-29.536v-.045l0-1.114v-.045l.011-4.222.017-5.757-.321-.185-1.193-.69-.344-.2-.353-.2-3.324-1.921-16.559-9.558-8.45-4.879-.014-.009-4.714-2.722-18.6-10.74-.344-.2-.355-.208-1.509-.869h0l-.04-.023-.324-.187-.639-.372-.037-.023-9.365-5.4-.025,8.371-.006,2.458v.046l0,1.117v.045l-.005,1.489v.412l0,1.387,0,.494v.557l-.011,3.134v.421l0,1.386,0,.494v.557l-.011,3.128v.426l0,1.384v0l0,.495v.557l-.011,3.12v.435l0,1.387,0,.494,0,.554-.009,3.117v.441l-.006,1.384v.5Z" transform="translate(-2431.329 -1045.468)" fill="#4a4b63"/>
        <g id="Grupo_561000" data-name="Grupo 561000" transform="translate(0 143.018)">
          <g id="Grupo_560999" data-name="Grupo 560999" transform="translate(0)">
            <g id="Grupo_560969" data-name="Grupo 560969" transform="translate(0 15.449)">
              <g id="Grupo_560968" data-name="Grupo 560968">
                <path id="Trazado_199437" data-name="Trazado 199437" d="M2472.369,1287.441l12.865,6.529,19.025,9.655,20.02,12.849,13.579,8.711,0,0,1,.639v0h0l.824-.477h0l40.174-23.194.04-.023.083-29.536v-.046l0-1.114v-.045l.011-4.222.017-5.756-.321-.185-1.193-.691-.344-.2-.352-.2-3.324-1.921-16.559-9.558-8.45-4.879-.014-.008-1.321.75-.389.219-1.213.688-.435.244-.486.276h0l-2.722,1.543-.392.222-1.21.688-.435.245-.486.276-2.725,1.546-.389.219-1.213.688-.435.244-.486.279-2.725,1.543-.389.219-1.213.688-.435.244-.486.279-2.725,1.543-.389.219-.619.352-.344.193-.25.142-.105.06-.33.187-.486.276-1.062.6-.611.347-1.051.6-.389.219-.588.335-.344.193-.281.159-.074.043-.051.028-.307.176h0l-.486.276-1.032.582-.614.347-1.08.614-.389.222-.557.315-.344.193-.312.176-.04.023-.392.224-.489.276-.366.207-.634.358-.611.347-1.111.631-.918.52-.341.193-.355.2-.949.537-.776.44-.156.088-.614.347-2.023,1.148-.344.193-.355.2-.812.46-.776.438-.29.165-.619.352-.06.037h-.006l-1.955,1.108-.344.193-.355.2-1.426.807,0,0-.449.256-.619.349-.105.06-1.915,1.085-.344.2-.355.2-.116.065h0l-.042.023-.807.458-.909.514-.619.352-2.02,1.145-.344.193-.352.2-1.881,1.065-.623.352-12.865,7.288,0,0-.358.2-.369.21h0Z" transform="translate(-2472.369 -1243.775)" fill="#e3e2e1"/>
              </g>
            </g>
            <g id="Grupo_560974" data-name="Grupo 560974" transform="translate(0.104 0.108)">
              <g id="Grupo_560973" data-name="Grupo 560973" transform="translate(0)" style="isolation: isolate">
                <g id="Grupo_560970" data-name="Grupo 560970" transform="translate(0 29.107)">
                  <path id="Trazado_199438" data-name="Trazado 199438" d="M2784.287,1284.563l-1-.582.084,29.486,1,.582Z" transform="translate(-2783.285 -1283.981)" fill="#5e607e"/>
                </g>
                <g id="Grupo_560971" data-name="Grupo 560971" transform="translate(0.001)">
                  <path id="Trazado_199439" data-name="Trazado 199439" d="M2636.286,1228.079v0l.8.466.2.114,9.416-5.436.767-.443h0l1.233-.71,1.279-.739.881-.509,2.233-1.29.1-.057.245-.142.184-.105.3-.173.9-.52.355-.2.9-.52,2.23-1.29.077-.043.267-.156.165-.094.316-.182.884-.511.355-.2.923-.531,2.23-1.29.059-.034.284-.165.145-.082.338-.2.864-.5.352-.2.943-.543,2.23-1.29.04-.023.3-.176.125-.071.361-.207.841-.486.352-.2.96-.554,2.233-1.29.023-.011.318-.185.111-.065.381-.219.821-.474.346-.2.983-.565.358-.208,1.873-1.08,0,0,.341-.2.091-.054.4-.23.8-.463.347-.2,1-.58,1.452-.838,1.123-.648.074-.043.42-.242.781-.452.341-.2,1.026-.594.324-.188-.324-.187-.639-.372-.037-.023-1.7.98-1.389.8-1.455.841-2.355,1.358-2.5,1.443-.361.207-2.335,1.35-2.881,1.662-2.318,1.338-2.9,1.674-2.3,1.327-2.915,1.685-2.284,1.318-2.932,1.693-2.264,1.307-2.952,1.7-4.4,2.54-.77.443-8.6,4.967Z" transform="translate(-2636.286 -1198.973)" fill="#e3e2e1"/>
                </g>
                <g id="Grupo_560972" data-name="Grupo 560972" transform="translate(1.001 0.582)">
                  <path id="Trazado_199440" data-name="Trazado 199440" d="M2561.576,1229.78l.08,28.646,0,.469v.369l0,0,.318-.182,12.582-7.265.585-.338,1.881-1.085.352-.2.344-.2,2.054-1.188.585-.338,1.167-.673.71-.409.085-.048.1-.057h0l.17-.1.344-.2,2.051-1.185.372-.216h0l.213-.122.949-.548.929-.537.355-.2.344-.2,2.049-1.185.367-.21.224-.128.742-.429.77-.443.366-.21.355-.207.344-.2,2.048-1.185.588-.338.56-.324.768-.443.554-.321.355-.2.341-.2,1.29-.744.762-.44.588-.341.986-.568.361-.21h0l.48-.278.051-.029.353-.2.028-.017.315-.182.883-.511.387-.222.775-.449.594-.341,1.33-.77.483-.278.065-.037.241-.139.114-.066.009-.006.335-.193.867-.5.387-.224.792-.455.594-.344,1.313-.759.48-.278.085-.048.347-.2.008-.006.344-.2.849-.489.384-.222h0l2.7-1.56.483-.278.429-.247,1.2-.693.386-.225,2.7-1.557.483-.278.429-.247,1.2-.693h0l.384-.224,2.7-1.557.483-.278.429-.25,1.2-.691.389-.224,2.7-1.557.48-.278.429-.25h0l1.2-.693.383-.221,1.31-.756-.015-.008-4.713-2.722-18.6-10.74-.344-.2-.355-.207-1.509-.869h0l-.04-.023-.324.188-1.026.594-.341.2-.781.452-.421.242-.074.042-1.123.648-1.452.838-1,.58-.347.2h0l-.8.463-.4.23-.091.054-.341.2,0,0-1.872,1.08-.358.207-.983.565-.347.2-.821.474-.38.219-.111.065-.318.185-.022.011-2.234,1.29-.96.554-.353.2-.841.486-.358.207h0l-.125.071-.3.176-.04.023-2.23,1.29-.943.543-.353.2-.864.5-.338.2-.145.082-.284.165-.06.034-2.23,1.29-.923.531-.355.2-.883.512-.316.182-.165.094-.267.156-.077.043-2.23,1.29-.9.52-.355.2-.9.52-.3.173-.184.105-.245.142h0l-.094.057-2.233,1.29-.88.509-1.279.739-1.233.71h0l-.767.443Z" transform="translate(-2561.576 -1200.674)" fill="#d6d6d5"/>
                </g>
              </g>
            </g>
            <g id="Grupo_560976" data-name="Grupo 560976" transform="translate(49.033 0.503)">
              <g id="Grupo_560975" data-name="Grupo 560975" transform="translate(0)">
                <path id="Trazado_199441" data-name="Trazado 199441" d="M2473.307,1330.079v1.054l1.634.943a.168.168,0,0,0,.088.023.163.163,0,0,0,.156-.165l.014-27.774v0l0-1.156.006-10.337-1.194-.69-.344-.2-.353-.2v2.5l0,10.016v1.159Z" transform="translate(-2416.916 -1260.262)" fill="#c9a557"/>
                <path id="Trazado_199442" data-name="Trazado 199442" d="M2631.754,1234.526v5.157l1.878,1.086v-6.211l0-1.389v-12.437l0-3.125v-8.862l0-3.14v-4.4l-1.509-.87h0l-.04-.023-.324-.187v1.955l0,1.386v7.055l0,3.134v8.868l0,3.12v8.325Z" transform="translate(-2629.601 -1200.126)" fill="#c9a557"/>
                <path id="Trazado_199443" data-name="Trazado 199443" d="M2476.792,1236.42v6.546l17.051,9.845,3.324,1.918.355.2.341.2,1.191.691,3.327,1.921.338.193.014.009.344.2,1.191.688,1.679.969,1.006.58.642.372.355.2.264.153.08.045,1.188.685,3.327,1.921.355.208.344.2.2.119.983.565,3.33,1.924.355.2.341.2.483.278.7.406,3.336,1.923.353.2.341.2.767.443.417.241,3.333,1.924.355.2.344.2.006-22.313V1246.4l0-11.715-.344-.2-.352-.2-3.324-1.921-16.559-9.558-8.45-4.879-.014-.009-4.714-2.722-18.6-10.74v3.841l0,.554v12l0,3.122v11.99Z" transform="translate(-2472.062 -1202.974)" fill="#d4d4d3"/>
                <path id="Trazado_199444" data-name="Trazado 199444" d="M2477.8,1237.234v5.651l17.4,10.044,3.324,1.918.08.045.275.159.341.2,1.19.691,3.327,1.921.353.2.009.006.335.193,1.19.688,1.25.722h0l1,.58,1.071.619.355.2.287.168.057.031,1.188.685,3.327,1.924.355.2.344.2.227.131.96.554,3.33,1.924.355.2.341.2.509.292.676.392,3.333,1.926.355.2.341.2.79.455.4.23,3.333,1.924.355.2v-.5l.005-25.24v-4.45l0-8.82-.352-.2-3.324-1.921-16.56-9.558-8.45-4.879-.014-.008-4.714-2.722-18.6-10.74-.344-.2v4.4l0,3.14v8.862l0,3.123v12.442Z" transform="translate(-2473.41 -1202.598)" fill="#e8e8e8"/>
                <path id="Trazado_199445" data-name="Trazado 199445" d="M2478.825,1236.631v6.211l16.556,9.558,1.193.69,3.325,1.918.1.06.25.145.341.2,1.19.688,3.327,1.923.353.2.034.02.31.179,1.19.688.767.443,1,.579,1.558.9.355.2.315.182.028.017,1.188.685,3.327,1.921.355.208.344.2.252.148.932.537,3.333,1.924.355.2.341.2.534.307.651.378,3.333,1.924.355.2.341.2.815.472.37.213,3.333,1.923v-1.054l.008-24.83v-1.159l0-10.016v-2.5l-3.325-1.921-16.56-9.558-8.45-4.879-.014-.009-4.714-2.722-18.6-10.74-.344-.2-.355-.207v4.4l0,3.14v8.862l0,3.123v12.442Z" transform="translate(-2474.794 -1202.2)" fill="#fff"/>
                <path id="Trazado_199446" data-name="Trazado 199446" d="M2528.822,1233.892l-.8-.464-1.878-1.084-48.43-27.892-1.879-1.085-.8-.464c-.74-.427-1.347-.08-1.35.769l2.046,37.215a2.968,2.968,0,0,0,1.34,2.322l53.429,30.847c.74.427,1.347.081,1.349-.769l-1.682-37.073a2.963,2.963,0,0,0-1.34-2.321Z" transform="translate(-2473.68 -1201.832)" fill="#edc367"/>
              </g>
            </g>
            <g id="Grupo_560978" data-name="Grupo 560978" transform="translate(43.818)">
              <g id="Grupo_560977" data-name="Grupo 560977" transform="translate(0)">
                <path id="Trazado_199447" data-name="Trazado 199447" d="M2488.534,1236.549v5.157l1.878,1.085v-6.211l0-1.387v-12.439l0-3.123v-8.865l0-3.14v-6l.355.2.344.2.551.318.111.065,1.978,1.142,1.878,1.083.355.2.122.071.219.128,19.471,11.241h0l.051.031,7.925,4.574,15.618,9.019,3.381,1.952v4.1l0,10.038v1.159l0,18.81,0,.5v6.558l1.634.943a.161.161,0,0,0,.085.023.168.168,0,0,0,.159-.165l0-4.455v-2.316l.011-20.986v-1.156l.009-14.883v-1.477l-16.56-9.558-.531.662a.879.879,0,0,1-.415.293,1.423,1.423,0,0,1-1.139-.2l-8.058-4.654-.032-.017-21.605-12.474-.344-.2-.355-.2-1.875-1.083-1.367-.79-.358-.208-.648-.372-1.588-.918c-.69-.4-1.253-.077-1.256.716v4.563l0,1.384v7.055l0,3.134v8.868l0,3.12v8.325Z" transform="translate(-2486.382 -1198.656)" fill="#d3d65c"/>
                <path id="Trazado_199448" data-name="Trazado 199448" d="M2544.395,1235.662l-52.361-30.231-.009,41.165,52.361,30.231.009-41.164Z" transform="translate(-2487.296 -1203.112)" fill="#d4d5d3"/>
                <path id="Trazado_199449" data-name="Trazado 199449" d="M2545.4,1236.532l-52.361-30.231-.009,41.165,52.361,30.231.009-41.165Z" transform="translate(-2488.641 -1203.683)" fill="#e8e8e7"/>
                <path id="Trazado_199450" data-name="Trazado 199450" d="M2546.432,1237.562l-52.361-30.231-.009,41.165,52.361,30.231.009-41.164Z" transform="translate(-2490.031 -1204.361)" fill="#fff"/>
                <path id="Trazado_199451" data-name="Trazado 199451" d="M2544.056,1242.626l-.8-.464-1.878-1.084-48.429-27.892-1.88-1.085-.8-.464c-.739-.427-1.347-.081-1.349.769l2.046,37.215a2.967,2.967,0,0,0,1.34,2.322l53.429,30.847c.74.427,1.347.08,1.349-.769l-1.682-37.072a2.963,2.963,0,0,0-1.34-2.322Z" transform="translate(-2488.914 -1207.072)" fill="#f1eb70"/>
              </g>
            </g>
            <g id="Grupo_560980" data-name="Grupo 560980" transform="translate(38.601 2.991)">
              <g id="Grupo_560979" data-name="Grupo 560979" transform="translate(0)">
                <path id="Trazado_199452" data-name="Trazado 199452" d="M2558.568,1233.816l-12.761-7.368a1.109,1.109,0,0,0-1.5.087l-1.49,1.855a1.151,1.151,0,0,1-1.556.09l-36.229-20.917c-.691-.4-1.254-.078-1.256.716l-.012,42.162,1.879,1.085.009-41.165,52.361,30.231-.009,41.165,1.634.943a.163.163,0,0,0,.244-.141l.025-46.421a2.964,2.964,0,0,0-1.34-2.322Z" transform="translate(-2501.613 -1207.392)" fill="#c07c54"/>
                <path id="Trazado_199453" data-name="Trazado 199453" d="M2559.628,1244.4l-52.361-30.231-.009,41.165,52.361,30.231.009-41.165Z" transform="translate(-2502.53 -1211.846)" fill="#d4d4d3"/>
                <path id="Trazado_199454" data-name="Trazado 199454" d="M2560.631,1245.265l-52.361-30.231-.009,41.165,52.361,30.231.009-41.165Z" transform="translate(-2503.875 -1212.418)" fill="#e8e8e7"/>
                <path id="Trazado_199455" data-name="Trazado 199455" d="M2561.667,1246.3l-52.361-30.231-.009,41.164,52.361,30.231.009-41.165Z" transform="translate(-2505.265 -1213.095)" fill="#fff"/>
                <path id="Trazado_199456" data-name="Trazado 199456" d="M2559.29,1251.359l-.8-.464-1.878-1.084-48.429-27.892-1.879-1.085-.8-.464c-.74-.427-1.347-.081-1.349.769l2.046,37.215a2.965,2.965,0,0,0,1.34,2.321l53.429,30.847c.74.427,1.347.08,1.349-.769l-1.682-37.073a2.966,2.966,0,0,0-1.34-2.322Z" transform="translate(-2504.148 -1215.806)" fill="#dc8f65"/>
              </g>
            </g>
            <g id="Grupo_560982" data-name="Grupo 560982" transform="translate(33.385 5.981)">
              <g id="Grupo_560981" data-name="Grupo 560981" transform="translate(0)">
                <path id="Trazado_199457" data-name="Trazado 199457" d="M2573.8,1242.55l-12.761-7.368a1.109,1.109,0,0,0-1.5.086l-1.49,1.856a1.151,1.151,0,0,1-1.556.09l-36.229-20.916c-.691-.4-1.254-.078-1.256.716l-.012,42.162,1.879,1.085.009-41.165,52.361,30.231-.009,41.165,1.634.943a.163.163,0,0,0,.244-.141l.025-46.422a2.964,2.964,0,0,0-1.34-2.321Z" transform="translate(-2516.847 -1216.126)" fill="#c9a557"/>
                <path id="Trazado_199458" data-name="Trazado 199458" d="M2574.862,1253.13,2522.5,1222.9l-.009,41.165,52.361,30.231.009-41.164Z" transform="translate(-2517.764 -1220.58)" fill="#d4d4d3"/>
                <path id="Trazado_199459" data-name="Trazado 199459" d="M2575.865,1254l-52.361-30.231-.009,41.165,52.361,30.231.009-41.164Z" transform="translate(-2519.109 -1221.152)" fill="#e8e8e8"/>
                <path id="Trazado_199460" data-name="Trazado 199460" d="M2576.9,1255.03l-52.361-30.231-.009,41.165,52.361,30.23.009-41.165Z" transform="translate(-2520.499 -1221.829)" fill="#fff"/>
                <path id="Trazado_199461" data-name="Trazado 199461" d="M2574.524,1260.094l-.8-.464-1.878-1.084-48.429-27.893-1.879-1.085-.8-.463c-.739-.427-1.346-.081-1.349.769l2.046,37.215a2.966,2.966,0,0,0,1.34,2.321l53.429,30.847c.74.428,1.347.081,1.349-.769l-1.682-37.072a2.964,2.964,0,0,0-1.34-2.322Z" transform="translate(-2519.382 -1224.54)" fill="#edc367"/>
              </g>
            </g>
            <g id="Grupo_560984" data-name="Grupo 560984" transform="translate(28.169 8.972)">
              <g id="Grupo_560983" data-name="Grupo 560983" transform="translate(0)">
                <path id="Trazado_199462" data-name="Trazado 199462" d="M2589.035,1251.283l-12.761-7.368a1.11,1.11,0,0,0-1.5.086l-1.49,1.856a1.151,1.151,0,0,1-1.556.09l-36.229-20.917c-.691-.4-1.254-.078-1.256.716l-.012,42.162,1.879,1.085.009-41.165,52.361,30.231-.009,41.165,1.634.943a.163.163,0,0,0,.245-.141l.024-46.421a2.965,2.965,0,0,0-1.341-2.322Z" transform="translate(-2532.081 -1224.859)" fill="#75abd3"/>
                <path id="Trazado_199463" data-name="Trazado 199463" d="M2590.1,1261.864l-52.361-30.231-.009,41.165,52.361,30.231.009-41.165Z" transform="translate(-2532.997 -1229.314)" fill="#d4d4d4"/>
                <path id="Trazado_199464" data-name="Trazado 199464" d="M2591.1,1262.733l-52.361-30.231-.009,41.164,52.361,30.231.009-41.165Z" transform="translate(-2534.343 -1229.885)" fill="#e8e8e7"/>
                <path id="Trazado_199465" data-name="Trazado 199465" d="M2592.134,1263.764l-52.361-30.231-.009,41.165,52.361,30.231.009-41.165Z" transform="translate(-2535.733 -1230.563)" fill="#fff"/>
                <path id="Trazado_199466" data-name="Trazado 199466" d="M2589.758,1268.827l-.8-.464-1.878-1.084-48.43-27.893-1.879-1.085-.8-.464c-.739-.427-1.347-.08-1.349.769l2.046,37.214a2.967,2.967,0,0,0,1.34,2.322l53.429,30.847c.741.428,1.347.08,1.349-.769l-1.682-37.073a2.965,2.965,0,0,0-1.34-2.322Z" transform="translate(-2534.616 -1233.274)" fill="#8eccf2"/>
              </g>
            </g>
            <g id="Grupo_560986" data-name="Grupo 560986" transform="translate(22.953 11.962)">
              <g id="Grupo_560985" data-name="Grupo 560985" transform="translate(0)">
                <path id="Trazado_199467" data-name="Trazado 199467" d="M2604.27,1260.017l-12.761-7.368a1.11,1.11,0,0,0-1.5.086l-1.49,1.856a1.152,1.152,0,0,1-1.556.09l-36.229-20.917c-.691-.4-1.254-.078-1.256.716l-.012,42.162,1.88,1.085.009-41.165,52.361,30.23-.009,41.165,1.633.943a.163.163,0,0,0,.245-.141l.024-46.421a2.965,2.965,0,0,0-1.34-2.322Z" transform="translate(-2547.315 -1233.593)" fill="#c9a557"/>
                <path id="Trazado_199468" data-name="Trazado 199468" d="M2605.33,1270.6l-52.361-30.231-.009,41.165,52.361,30.231.009-41.165Z" transform="translate(-2548.231 -1238.048)" fill="#d4d4d3"/>
                <path id="Trazado_199469" data-name="Trazado 199469" d="M2606.333,1271.467l-52.361-30.231-.009,41.165,52.361,30.23.009-41.165Z" transform="translate(-2549.576 -1238.619)" fill="#e8e8e8"/>
                <path id="Trazado_199470" data-name="Trazado 199470" d="M2607.368,1272.5l-52.361-30.231-.009,41.165,52.361,30.231.009-41.165Z" transform="translate(-2550.967 -1239.297)" fill="#fff"/>
                <path id="Trazado_199471" data-name="Trazado 199471" d="M2604.991,1277.561l-.8-.464-1.878-1.084-48.429-27.892-1.88-1.085-.8-.464c-.739-.426-1.346-.08-1.349.769l2.046,37.214a2.968,2.968,0,0,0,1.34,2.322l53.429,30.847c.74.428,1.347.081,1.349-.769l-1.682-37.073a2.963,2.963,0,0,0-1.34-2.322Z" transform="translate(-2549.849 -1242.008)" fill="#edc367"/>
              </g>
            </g>
            <g id="Grupo_560988" data-name="Grupo 560988" transform="translate(17.737 14.953)">
              <g id="Grupo_560987" data-name="Grupo 560987" transform="translate(0)">
                <path id="Trazado_199472" data-name="Trazado 199472" d="M2619.5,1268.751l-12.761-7.368a1.11,1.11,0,0,0-1.5.086l-1.49,1.856a1.151,1.151,0,0,1-1.556.09l-36.229-20.917c-.691-.4-1.253-.078-1.256.716l-.011,42.162,1.879,1.085.009-41.165,52.361,30.23-.009,41.165,1.633.943a.163.163,0,0,0,.245-.141l.024-46.421a2.964,2.964,0,0,0-1.34-2.322Z" transform="translate(-2562.549 -1242.327)" fill="#88c3ba"/>
                <path id="Trazado_199473" data-name="Trazado 199473" d="M2620.564,1279.332,2568.2,1249.1l-.009,41.165,52.361,30.23.009-41.165Z" transform="translate(-2563.465 -1246.782)" fill="#d3d3d4"/>
                <path id="Trazado_199474" data-name="Trazado 199474" d="M2621.566,1280.2,2569.2,1249.97l-.009,41.165,52.361,30.231.009-41.165Z" transform="translate(-2564.81 -1247.353)" fill="#e8e8e7"/>
                <path id="Trazado_199475" data-name="Trazado 199475" d="M2622.6,1281.231,2570.241,1251l-.009,41.165,52.361,30.231.009-41.165Z" transform="translate(-2566.2 -1248.031)" fill="#fff"/>
                <path id="Trazado_199476" data-name="Trazado 199476" d="M2620.225,1286.3l-.8-.464-1.878-1.084-48.43-27.893-1.879-1.085-.8-.464c-.74-.427-1.347-.08-1.35.769l2.046,37.214a2.967,2.967,0,0,0,1.341,2.322l53.429,30.847c.74.427,1.346.08,1.349-.769l-1.682-37.073a2.964,2.964,0,0,0-1.34-2.322Z" transform="translate(-2565.083 -1250.742)" fill="#9dcdcb"/>
              </g>
            </g>
            <g id="Grupo_560990" data-name="Grupo 560990" transform="translate(12.521 17.943)">
              <g id="Grupo_560989" data-name="Grupo 560989" transform="translate(0)">
                <path id="Trazado_199477" data-name="Trazado 199477" d="M2634.738,1277.485l-12.762-7.368a1.109,1.109,0,0,0-1.5.086l-1.49,1.856a1.151,1.151,0,0,1-1.555.09l-36.229-20.917c-.691-.4-1.254-.078-1.256.716l-.012,42.162,1.879,1.085.009-41.164,52.361,30.23-.009,41.165,1.634.943a.163.163,0,0,0,.245-.141l.024-46.421a2.964,2.964,0,0,0-1.34-2.322Z" transform="translate(-2577.783 -1251.061)" fill="#c9a557"/>
                <path id="Trazado_199478" data-name="Trazado 199478" d="M2635.8,1288.066l-52.361-30.231-.009,41.165,52.361,30.231.009-41.164Z" transform="translate(-2578.698 -1255.516)" fill="#d4d4d3"/>
                <path id="Trazado_199479" data-name="Trazado 199479" d="M2636.8,1288.935l-52.361-30.231-.009,41.165,52.361,30.231.009-41.165Z" transform="translate(-2580.044 -1256.087)" fill="#e8e8e8"/>
                <path id="Trazado_199480" data-name="Trazado 199480" d="M2637.835,1289.965l-52.361-30.231-.009,41.165,52.361,30.231.009-41.165Z" transform="translate(-2581.434 -1256.765)" fill="#fff"/>
                <path id="Trazado_199481" data-name="Trazado 199481" d="M2635.459,1295.029l-.8-.464-1.878-1.084-48.43-27.893-1.879-1.085-.8-.464c-.74-.427-1.347-.08-1.35.769l2.046,37.214a2.966,2.966,0,0,0,1.341,2.321l53.429,30.848c.74.427,1.347.08,1.349-.769l-1.682-37.073a2.964,2.964,0,0,0-1.341-2.321Z" transform="translate(-2580.317 -1259.476)" fill="#edc367"/>
              </g>
            </g>
            <g id="Grupo_560995" data-name="Grupo 560995" transform="translate(65.407 43.069)">
              <g id="Grupo_560994" data-name="Grupo 560994" transform="translate(0)" style="isolation: isolate">
                <g id="Grupo_560991" data-name="Grupo 560991" transform="translate(0.001 24.368)">
                  <path id="Trazado_199482" data-name="Trazado 199482" d="M2593.562,1396.194l-1-.582.084,29.486,1,.582Z" transform="translate(-2592.561 -1395.612)" fill="#5e607e"/>
                </g>
                <g id="Grupo_560992" data-name="Grupo 560992">
                  <path id="Trazado_199483" data-name="Trazado 199483" d="M2472.452,1348.81l1,.583h0l.165-.1.827-.477,14.513-8.379,6.351-3.665,19.349-11.172,0-1.114v-.045l-20.355,11.752-6.35,3.665-13.508,7.8-.827.477Z" transform="translate(-2472.452 -1324.443)" fill="#e3e2e1"/>
                </g>
                <g id="Grupo_560993" data-name="Grupo 560993" transform="translate(1 1.159)">
                  <path id="Trazado_199484" data-name="Trazado 199484" d="M2472.46,1351.619l.082,28.53v.46l0,.486v.009l.824-.477h0l40.174-23.194.04-.023.082-29.536v-.046L2494.319,1339l-6.35,3.665-14.513,8.379-.827.477-.165.1Z" transform="translate(-2472.46 -1327.828)" fill="#d6d6d5"/>
                </g>
              </g>
            </g>
            <g id="Grupo_560998" data-name="Grupo 560998" transform="translate(0 17.943)">
              <g id="Grupo_560997" data-name="Grupo 560997" transform="translate(0)">
                <g id="Grupo_560996" data-name="Grupo 560996">
                  <path id="Trazado_199485" data-name="Trazado 199485" d="M2624.528,1272.57v-.469l.156-.088.776-.44.4.23.554.318.355.208.341.2,2.268,1.31.048.915.216,3.907v.026a.175.175,0,0,0,0,.037.83.83,0,0,0,.006.119c0,.009,0,.02,0,.028a.976.976,0,0,0,.017.122c0,.02.006.043.011.065s.011.063.02.094l.008.037v0c.009.037.02.074.031.114l.008.026c.012.042.026.085.043.131,0,.011.009.02.011.031.017.043.034.083.051.125,0,.006.006.014.009.02a.245.245,0,0,1,.02.042c.012.026.023.051.034.074l.009.017.009.017c.017.037.034.071.053.108l.085.147h0l-2.964-1.708-.341-.2-.355-.2-1.878-1.085-.384-.221-.2-3.714Zm0,0v-.469l.156-.088.776-.44.4.23.554.318.355.208.341.2,2.268,1.31.048.915.216,3.907v.026a.175.175,0,0,0,0,.037.83.83,0,0,0,.006.119c0,.009,0,.02,0,.028a.976.976,0,0,0,.017.122c0,.02.006.043.011.065s.011.063.02.094l.008.037v0c.009.037.02.074.031.114l.008.026c.012.042.026.085.043.131,0,.011.009.02.011.031.017.043.034.083.051.125,0,.006.006.014.009.02a.245.245,0,0,1,.02.042c.012.026.023.051.034.074l.009.017a.045.045,0,0,0,.006.017l.008.017c.014.031.031.06.048.091.026.051.054.1.083.147l-2.964-1.708-.341-.2-.355-.2-1.878-1.085-.384-.221-.2-3.714Zm0,0v-.469l.156-.088.776-.44.4.23.554.318.355.208.341.2,2.268,1.31.048.915.216,3.907v.026a.175.175,0,0,0,0,.037c0,.04,0,.079.006.119,0,.009,0,.02,0,.028a.976.976,0,0,0,.017.122c0,.02.006.043.011.065s.011.063.02.094l.008.037v0c.009.037.02.074.031.114l.008.026c.012.042.026.085.043.131,0,.011.009.02.011.031.017.043.034.083.051.125,0,.006.006.014.009.02a.245.245,0,0,1,.02.042c.012.026.023.051.034.074l.009.017a.045.045,0,0,0,.006.017l.008.017c.014.031.031.06.048.091.026.051.054.1.083.147l-2.964-1.708-.341-.2-.355-.2-1.878-1.085-.384-.221-.2-3.714Zm-34.63-9.768,0-.938.029-9.916v0l0-.884,9.342,5.393,1,.583h0l1.307.756,2.083,1.2,1.881,1.085.352.2.341.2.9.52,1.742,1,1.878,1.085.352.2.344.2,1.239.713,1.4.81,1.878,1.083.355.207.344.2,1.579.912,1.06.614,1.875,1.083.355.2.344.2,1.924,1.111.713.412.932.537.4.23.554.318.355.208.341.2,2.268,1.31.369.213,1.881,1.085.353.205.344.2,3.191,1.841,20.912,12.073v.219l-.011,3.833,0,.495v.557l0,1.105-.011,3.742v.094l0,.492v.576l0,1.088-.012,3.836v.494l0,.557,0,1.106-.011,3.835v.494l0,.557,0,1.106-.011,3.836v.494l0,.554v0l0,1.105v0l-.009,3.833,0,.492v.563l-.005,1.1v0l-.011,4.523h0l-.824-.477h0l-1-.577,0,0-13.576-7.822-39.046-22.5-11.356-6.546-.319-.185h0l-.361-.207v-.06Zm44.737,19.878-4.563-2.637,0,0h0l-2.964-1.708-.341-.2-.355-.2-1.878-1.085-.384-.221-2.253-1.3-.344-.2-.355-.207-.366-.21-.446-.256-1.066-.617-.727-.417-1.912-1.105-.344-.2-.355-.2-1.875-1.083-1.072-.619-1.344-.775a1.466,1.466,0,0,0-.224-.108,1.054,1.054,0,0,0-.344-.062.623.623,0,0,0-.355.111.692.692,0,0,0-.244.327,1.212,1.212,0,0,0-.076.44l-.026,9a2.274,2.274,0,0,0,.182.85,2.631,2.631,0,0,0,.162.335c.028.048.057.1.085.142a2.918,2.918,0,0,0,.27.361,2.151,2.151,0,0,0,.344.321,1.48,1.48,0,0,0,.2.134l2.049,1.182.4.228,1.875,1.085.355.2.344.2,2.856,1.648,15.073,8.7a1.282,1.282,0,0,0,.344.142.667.667,0,0,0,.645-.136.764.764,0,0,0,.227-.429,1.266,1.266,0,0,0,.031-.284v-.193l.011-3.833,0-1.105,0-.557v-.494l.009-2.822a2.51,2.51,0,0,0-.37-1.23A2.589,2.589,0,0,0,2634.634,1282.679Zm-10.107-10.11v-.469l.156-.088.776-.44.4.23.554.318.355.208.341.2,2.268,1.31.048.915.216,3.907v.026a.175.175,0,0,0,0,.037.83.83,0,0,0,.006.119c0,.009,0,.02,0,.028a.976.976,0,0,0,.017.122c0,.02.006.043.011.065s.011.063.02.094l.008.037v0c.009.037.02.074.031.114l.008.026c.012.042.026.085.043.131,0,.011.009.02.011.031.017.043.034.083.051.125,0,.006.006.014.009.02a.245.245,0,0,1,.02.042c.012.026.023.051.034.074l.009.017a.045.045,0,0,0,.006.017l.008.017c.014.031.031.06.048.091.026.051.054.1.083.147l-2.964-1.708-.341-.2-.355-.2-1.878-1.085-.384-.221-.2-3.714Zm0,0v-.469l.156-.088.776-.44.4.23.554.318.355.208.341.2,2.268,1.31.048.915.216,3.907v.026a.175.175,0,0,0,0,.037.83.83,0,0,0,.006.119c0,.009,0,.02,0,.028a.976.976,0,0,0,.017.122c0,.02.006.043.011.065s.011.063.02.094l.008.037v0c.009.037.02.074.031.114l.008.026c.012.042.026.085.043.131,0,.011.009.02.011.031.017.043.034.083.051.125,0,.006.006.014.009.02a.245.245,0,0,1,.02.042c.012.026.023.051.034.074l.009.017a.045.045,0,0,0,.006.017l.008.017c.014.031.031.06.048.091.026.051.054.1.083.147l-2.964-1.708-.341-.2-.355-.2-1.878-1.085-.384-.221-.2-3.714Zm-.588.338.588-.338v-.469l.156-.088.776-.44.4.23.554.318.355.208.341.2,2.268,1.31.048.915.216,3.907v.026a.175.175,0,0,0,0,.037.83.83,0,0,0,.006.119c0,.009,0,.02,0,.028a.976.976,0,0,0,.017.122c0,.02.006.043.011.065s.011.063.02.094l.008.037v0c.009.037.02.074.031.114l.008.026c.012.042.026.085.043.131,0,.011.009.02.011.031.017.043.034.083.051.125,0,.006.006.014.009.02a.245.245,0,0,1,.02.042c.012.026.023.051.034.074l.009.017.009.017c.017.037.034.071.053.108l.085.147h0l-2.964-1.708-.341-.2-.355-.2-1.878-1.085-.384-.221-2.253-1.3v-1.228Z" transform="translate(-2588.989 -1251.061)" fill="#dededd"/>
                  <path id="Trazado_199486" data-name="Trazado 199486" d="M2627.385,1277.408l.048.918-2.3-1.33v-.889Zm-35.042-25.152h0l.824.477.367.21,8.208,4.739,1.006.583,2.128,1.228,2.031,1.173,1.878,1.085.355.2.341.2.952.548,1.69.978,1.878,1.085.353.2.344.2,1.29.744,1.35.781,1.878,1.083.355.2.344.2,1.631.94,1.009.582,1.875,1.085.355.2.344.2,1.972,1.136.665.384.156.091.4.233,1.321.761.355.2.341.2,2.315,1.338.321.184,1.881,1.086.353.2.344.2,23.276,13.439-.008,3.168,0,.492v.559l0,1.105-.011,3.833,0,.494v.56l0,.969v.136l-.011,3.833,0,.494v.56l0,1.105-.011,3.833,0,.495v.557l0,1.1v0l-.012,3.833,0,.495,0,.554v0l0,1.105v0l-.011,3.833v.491l0,.56,0,1.1v0l-.009,3.1v0l0,1.424,0,.04v.915l-1-.58h0l-65.49-37.809Zm20.511,19.077-.026,9a2.326,2.326,0,0,0,.2.9,2.981,2.981,0,0,0,.258.477,2.478,2.478,0,0,0,.71.725.573.573,0,0,0,.065.043l.29.168.344.2,2.3,1.324.341.2,1.878,1.083.355.2.344.2,17.1,9.874a.909.909,0,0,0,.807.119.644.644,0,0,0,.364-.386,1.2,1.2,0,0,0,.077-.44V1295l0-.557v-.495l.011-3.836,0-1.105,0-.557v-.495l.006-1.935a2.742,2.742,0,0,0-1.239-2.142l-6.706-3.87-.341-.2-.355-.207-1.881-1.085-.329-.19h0l-2.3-1.33-.344-.2-.355-.2-1.136-.656-.452-.261-.29-.168-.676-.392-1.963-1.131-.344-.2-.355-.2-1.875-1.085-1.02-.588-1.62-.935-.344-.2-.259-.148a1.054,1.054,0,0,0-.1-.051,1.181,1.181,0,0,0-.244-.091C2613.241,1270.355,2612.858,1270.685,2612.855,1271.333Zm12.277,4.774v-1.228l2.049-1.185.588-.338v4.274l0,.886-.329-.19h0l-2.3-1.33-.344-.2v-.887Z" transform="translate(-2592.23 -1251.847)" fill="#edecec"/>
                  <path id="Trazado_199487" data-name="Trazado 199487" d="M2653.769,1312.853l.344.2.051.031-.051-.028-.344-.2-.355-.2v0Zm2.984.9.449-.256,0,0,.5.29.929.537.355.2.344.2,2.29,1.321.347.2,1.878,1.083v1.341l-1.878-1.083-.27-.156-2.367-1.367-.344-.2-.355-.2-1.878-1.083v0l-.213-.122h0l-.242-.139-.156-.091-.006-.122Zm7.447,5.123v0l-.088-.051Zm0-7.123.344.2,2.3,1.33h0l.329.19,1.881,1.085.355.207v1.114l-.355-.2-1.881-1.085v0l-.267-.153-2.366-1.367-.344-.2-.356-.2v-1.114Zm-10.434,1.1.344.2.051.031-.051-.028-.344-.2-.355-.2v0Zm2.984.9.449-.256,0,0,.5.29.929.537.355.2.344.2,2.29,1.321.347.2,1.878,1.083v1.341l-1.878-1.083-.27-.156-2.367-1.367-.344-.2-.355-.2-1.878-1.083v0l-.213-.122h0l-.242-.139-.156-.091-.006-.122Zm7.447,5.123v0l-.088-.051Zm0-7.123.344.2,2.3,1.33h0l.329.19,1.881,1.085.355.207v1.114l-.355-.2-1.881-1.085v0l-.267-.153-2.366-1.367-.344-.2-.356-.2v-1.114Zm-10.434,1.1.344.2.051.031-.051-.028-.344-.2-.355-.2v0Zm3.433.642,0,0,.5.29.929.537.355.2.344.2,2.29,1.321.347.2,1.878,1.083v1.341l-1.878-1.083-.27-.156-2.367-1.367-.344-.2-.355-.2-1.878-1.083v0l-.213-.122h0l-.242-.139-.156-.091-.006-.122.619-.349Zm7,5.382-.088-.051.088.048Zm0-7.126.344.2,2.3,1.33h0l.329.19,1.881,1.085.355.207v1.114l-.355-.2-1.881-1.085v0l-.267-.153-2.366-1.367-.344-.2-.356-.2v-1.114Zm-11.934-5.464c0-.648.386-.978.9-.85a1.2,1.2,0,0,1,.244.091,1.054,1.054,0,0,1,.1.051l.258.148.344.2,1.619.935,1.02.588,1.875,1.085.355.2.344.2,1.963,1.131.676.392.29.168.452.261,1.136.656.356.2.344.2,2.3,1.33h0l.329.19,1.881,1.085.355.207.341.2,6.705,3.87a2.741,2.741,0,0,1,1.239,2.142l-.006,1.935v.495l0,.557,0,1.105-.011,3.836v.494l0,.557v.026a1.2,1.2,0,0,1-.077.44.644.644,0,0,1-.364.386.909.909,0,0,1-.807-.119l-17.1-9.873-.344-.2-.355-.2-1.878-1.083-.341-.2-2.3-1.324-.344-.2-.289-.168a.517.517,0,0,1-.066-.042,2.47,2.47,0,0,1-.71-.725,2.984,2.984,0,0,1-.259-.477,2.33,2.33,0,0,1-.2-.9Zm24.421,14.727v-.005a1.064,1.064,0,0,0-.008-.131,1.212,1.212,0,0,0-.028-.168,1.981,1.981,0,0,0-.062-.2,1.14,1.14,0,0,0-.06-.142l-.051-.1a1.786,1.786,0,0,0-.148-.233,1.6,1.6,0,0,0-.139-.165.911.911,0,0,0-.074-.073,1.26,1.26,0,0,0-.239-.182l-6.123-3.535-.341-.2-.355-.2-1.881-1.085v0l-.267-.153-2.366-1.367-.344-.2-.356-.2-1.878-1.083v0l-.224-.128-.389-.224-.066-.04h-.006l-1.955-1.128v0l-.344-.2v0l-.355-.2v0l-1.878-1.083-.955-.551-1.685-.972-.159-.093a.484.484,0,0,0-.1-.049c-.029-.011-.057-.023-.085-.031a.646.646,0,0,0-.1-.026.494.494,0,0,0-.171,0,.437.437,0,0,0-.08.026s0,0-.006,0l0,0s-.009,0-.014,0a.412.412,0,0,0-.074.045.517.517,0,0,0-.065.066.181.181,0,0,0-.04.063.115.115,0,0,0-.014.026.446.446,0,0,0-.037.094.665.665,0,0,0-.026.114.653.653,0,0,0-.011.13l-.008,3.725.29.167.352.2.344.2v0l1.949,1.122.69.4.452.261.5.29.929.537.355.2.344.2,2.29,1.321.347.2,1.878,1.083.219.128.136.079.344.2v0l12.135,7v-.259l0-1.105,0-.557,0-.151v-.344Zm-.29,8.141a.238.238,0,0,0,.057-.034s.006,0,.009-.006a.162.162,0,0,0,.026-.02.332.332,0,0,0,.088-.108.375.375,0,0,0,.02-.037.1.1,0,0,0,.02-.048.617.617,0,0,0,.023-.077.086.086,0,0,0,.005-.026.756.756,0,0,0,.017-.145c0-.014,0-.026,0-.037v-.3l.009-2.162v-.071l-12.132-7v0l-.344-.2-.088-.051-.267-.153v0l-1.878-1.083-.27-.156-2.367-1.367-.344-.2-.355-.2-1.878-1.083v0l-.213-.122h0l-.242-.139-.156-.091-.111-.062-1.864-1.077-.051-.028-.344-.2-.355-.2-.29-.167v0h0l-.005,2.538a1.413,1.413,0,0,0,.014.187,1.127,1.127,0,0,0,.043.19,1.115,1.115,0,0,0,.068.19.723.723,0,0,0,.042.094.109.109,0,0,0,.012.029.616.616,0,0,0,.031.063c.011.017.02.034.031.051a.534.534,0,0,0,.031.051.149.149,0,0,0,.026.037s0,0,0,0l0,0a1.054,1.054,0,0,0,.065.094c.037.051.074.1.114.142h0a1.55,1.55,0,0,0,.17.162,1.167,1.167,0,0,0,.159.11l.185.105,2.225,1.284.415.242,1.875,1.082.355.2.344.2,2.646,1.529,13.88,8.012a1.081,1.081,0,0,0,.19.085.557.557,0,0,0,.27.017c.009,0,.017,0,.026-.006A.234.234,0,0,0,2676.4,1329.154Zm-12.2-17.4.344.2,2.3,1.33h0l.329.19,1.881,1.085.355.207v1.114l-.355-.2-1.881-1.085v0l-.267-.153-2.366-1.367-.344-.2-.356-.2v-1.114Zm0,7.123v0l-.088-.051Zm-7.447-5.123.449-.256,0,0,.5.29.929.537.355.2.344.2,2.29,1.321.347.2,1.878,1.083v1.341l-1.878-1.083-.27-.156-2.367-1.367-.344-.2-.355-.2-1.878-1.083v0l-.213-.122h0l-.242-.139-.156-.091-.006-.122Zm-2.984-.9.344.2.051.031-.051-.028-.344-.2-.355-.2v0Zm10.434-1.1.344.2,2.3,1.33h0l.329.19,1.881,1.085.355.207v1.114l-.355-.2-1.881-1.085v0l-.267-.153-2.366-1.367-.344-.2-.356-.2v-1.114Zm0,7.123v0l-.088-.051Zm-7.447-5.123.449-.256,0,0,.5.29.929.537.355.2.344.2,2.29,1.321.347.2,1.878,1.083v1.341l-1.878-1.083-.27-.156-2.367-1.367-.344-.2-.355-.2-1.878-1.083v0l-.213-.122h0l-.242-.139-.156-.091-.006-.122Zm-2.984-.9.344.2.051.031-.051-.028-.344-.2-.355-.2v0Zm8.2-1.534.742-.429,1.136.656.356.2v1.113l-.356-.2-1.878-1.083v0l-.224-.128Zm-5.217,2.432.449-.256,0,0,.5.29.929.537.355.2.344.2,2.29,1.321.347.2,1.878,1.083.219.128.136.079v1.341l-.088-.051-.267-.153v0l-1.878-1.083-.27-.156-2.367-1.367-.344-.2-.355-.2-1.878-1.083v0l-.213-.122h0l-.242-.139-.156-.091-.006-.122Zm-2.984-.9.344.2.051.031-.051-.028-.344-.2-.355-.2v0Zm8.2-1.534.742-.429,1.136.656.356.2.344.2,2.3,1.33h0l.329.19,1.881,1.085.355.207v1.114l-.355-.2-1.881-1.085v0l-.267-.153-2.366-1.367-.344-.2-.356-.2-1.878-1.083v0l-.224-.128Z" transform="translate(-2631.644 -1286.801)" fill="#8d8fbb"/>
                  <path id="Trazado_199488" data-name="Trazado 199488" d="M2656.022,1309.693l21.925,12.659a1.791,1.791,0,0,1,.811,1.406l-.01,3.726-23.553-13.6.01-3.726c0-.516.37-.725.818-.466Z" transform="translate(-2633.711 -1289.544)" fill="#f7f7fa"/>
                  <path id="Trazado_199489" data-name="Trazado 199489" d="M2655.233,1328.6a1.636,1.636,0,0,0,.21.752,1.7,1.7,0,0,0,.6.653l21.926,12.658c.449.26.815.051.818-.464l.007-2.541-20.382-11.765-3.172-1.833Z" transform="translate(-2633.76 -1300.381)" fill="#6a6c89"/>
                </g>
              </g>
              <path id="Trazado_199490" data-name="Trazado 199490" d="M2714.761,1328.6a1.636,1.636,0,0,0,.211.752,7.407,7.407,0,0,0,2.968-1.458l-3.172-1.833Z" transform="translate(-2693.288 -1300.381)" fill="#5e5e79"/>
            </g>
          </g>
          <path id="Trazado_199491" data-name="Trazado 199491" d="M2783.765,1251.062l-.828.409,1.192.689Z" transform="translate(-2782.822 -1233.119)" fill="#dededd"/>
          <path id="Trazado_199492" data-name="Trazado 199492" d="M2590.146,1478.841l.828-.477-.827-1.91Z" transform="translate(-2523.654 -1381.336)" fill="#dededd"/>
        </g>
      </g>
    </g>
  </g>
</svg>
