<svg xmlns="http://www.w3.org/2000/svg" width="820" height="174.699" viewBox="0 0 820 174.699">
  <g id="Grupo_561061" data-name="Grupo 561061" transform="translate(-390 -3932)">
    <rect id="Rect치ngulo_36098" data-name="Rect치ngulo 36098" width="749" height="174.699" rx="12" transform="translate(461 3932)" fill="#dcedee"/>
    <g id="Grupo_148341" data-name="Grupo 148341" transform="translate(390 3955)">
      <g id="Grupo_87976" data-name="Grupo 87976" transform="translate(0 5.783)">
        <path id="Trazado_144139" data-name="Trazado 144139" d="M120.482,204.229a11.375,11.375,0,0,0,7.824-7.981,8.714,8.714,0,0,0-.454-10.516,8.777,8.777,0,0,0-1.545-6.285,8.8,8.8,0,0,0-1.024-4.723,11.134,11.134,0,0,0,.174-4.871c-1.256-6.645.448-10.509,4.183-18.974q.666-1.508,1.384-3.152A43.272,43.272,0,0,0,82.463,88.156c-1,.212-2.01.46-2.99.739A43.266,43.266,0,0,0,66.7,166.077l2.544,1.747c7.753,5.3,11.286,7.719,13.732,14.081a11.154,11.154,0,0,0,2.717,4.066,8.777,8.777,0,0,0,1.612,4.557,8.779,8.779,0,0,0,1.99,6.159,8.711,8.711,0,0,0,5.145,9.184,11.37,11.37,0,0,0,10.849,2.675Z" transform="translate(-48.073 -87.24)" fill="#fff"/>
        <g id="Grupo_87975" data-name="Grupo 87975" transform="translate(7.291 7.29)">
          <g id="Grupo_87974" data-name="Grupo 87974">
            <g id="Grupo_87971" data-name="Grupo 87971" transform="translate(36.43 74.699)">
              <rect id="Rect치ngulo_34040" data-name="Rect치ngulo 34040" width="23.821" height="27.953" rx="5.5" transform="translate(0 6.51) rotate(-15.86)" fill="#8d8382"/>
            </g>
            <path id="Trazado_144140" data-name="Trazado 144140" d="M56.725,140.347a35.98,35.98,0,0,0,14.116,19.731l2.527,1.735c8.2,5.609,13.15,8.995,16.41,17.476a3.851,3.851,0,0,0,4.662,2.336l21.111-6a3.849,3.849,0,0,0,2.738-4.434c-1.674-8.859.718-14.28,4.682-23.263q.657-1.489,1.365-3.109a35.976,35.976,0,1,0-67.611-4.474Z" transform="translate(-55.364 -94.53)" fill="#ffc50c"/>
            <path id="Trazado_144141" data-name="Trazado 144141" d="M98.579,103.6c3.984-1.191,7.842,1.5,10.8,3.859a29.041,29.041,0,0,1,7.374,8.735,25.986,25.986,0,0,1,.449,24c-.318.681-1.209.153-1.116-.47a31.22,31.22,0,0,0-4.783-21.231,25.933,25.933,0,0,0-6.349-6.553c-2.561-1.841-5.6-2.97-7.486-5.619A1.868,1.868,0,0,1,98.579,103.6Z" transform="translate(-55.364 -94.53)" fill="#fff"/>
            <g id="Grupo_87973" data-name="Grupo 87973" transform="translate(37.605 82.844)">
              <g id="Grupo_87972" data-name="Grupo 87972">
                <path id="Trazado_144142" data-name="Trazado 144142" d="M94.292,183.86l22.563-6.41a1.67,1.67,0,0,1,2.121,1.018h0a1.669,1.669,0,0,1-1.269,1.981l-22.563,6.41a1.671,1.671,0,0,1-2.122-1.018h0A1.671,1.671,0,0,1,94.292,183.86Z" transform="translate(-92.969 -177.374)" fill="#504742"/>
                <path id="Trazado_144143" data-name="Trazado 144143" d="M95.9,189.525l22.563-6.41a1.671,1.671,0,0,1,2.122,1.018h0a1.67,1.67,0,0,1-1.27,1.981l-22.563,6.411a1.67,1.67,0,0,1-2.121-1.018h0A1.67,1.67,0,0,1,95.9,189.525Z" transform="translate(-92.969 -177.374)" fill="#504742"/>
                <path id="Trazado_144144" data-name="Trazado 144144" d="M97.827,196.3l22.563-6.41a1.67,1.67,0,0,1,2.122,1.018h0a1.67,1.67,0,0,1-1.27,1.981L98.679,199.3a1.669,1.669,0,0,1-2.121-1.018h0A1.669,1.669,0,0,1,97.827,196.3Z" transform="translate(-92.969 -177.374)" fill="#504742"/>
              </g>
            </g>
          </g>
        </g>
      </g>
      <g id="Grupo_87977" data-name="Grupo 87977" transform="translate(65.877)">
        <path id="Trazado_144145" data-name="Trazado 144145" d="M129.6,99.8l21.77-2.636L148.057,91.7Z" transform="translate(-113.951 -81.457)" fill="#ffc50c"/>
        <path id="Trazado_144146" data-name="Trazado 144146" d="M126.172,98.344l7.681-8.21-6.489-3.165Z" transform="translate(-113.951 -81.457)" fill="#ffc50c"/>
        <path id="Trazado_144147" data-name="Trazado 144147" d="M121.994,96.584l-2.447-15.127-5.6,2.322Z" transform="translate(-113.951 -81.457)" fill="#ffc50c"/>
      </g>
    </g>
  </g>
</svg>
