<svg xmlns="http://www.w3.org/2000/svg" width="505.048" height="317.719" viewBox="0 0 505.048 317.719">
  <g id="Grupo_561043" data-name="Grupo 561043" transform="translate(-179.952 -398.781)">
    <g id="Floor" transform="translate(128.815 267.926)">
      <g id="Grupo_147042" data-name="Grupo 147042" transform="translate(64.685 448.054)">
        <path id="Trazado_195759" data-name="Trazado 195759" d="M556.185,448.314c0,.144-110.034.26-245.738.26-135.75,0-245.762-.116-245.762-.26s110.012-.26,245.762-.26C446.15,448.054,556.185,448.17,556.185,448.314Z" transform="translate(-64.685 -448.054)" fill="#263238"/>
      </g>
    </g>
    <g id="Grupo_147229" data-name="Grupo 147229">
      <g id="Background_Complete" data-name="Background Complete" transform="translate(153.77 360.926)">
        <g id="Grupo_147041" data-name="Grupo 147041">
          <g id="Grupo_146974" data-name="Grupo 146974">
            <g id="Grupo_146969" data-name="Grupo 146969">
              <g id="Grupo_146968" data-name="Grupo 146968">
                <rect id="Rectángulo_44723" data-name="Rectángulo 44723" width="59.458" height="45.992" transform="translate(276.821 139.09)" fill="#ebebeb"/>
              </g>
            </g>
            <g id="Grupo_146971" data-name="Grupo 146971">
              <g id="Grupo_146970" data-name="Grupo 146970">
                <path id="Trazado_195719" data-name="Trazado 195719" d="M281.431,180.891l16.448-25.2L311.332,171.8l8.175-8.554,12.162,17.647Z" fill="#f5f5f5"/>
              </g>
            </g>
            <g id="Grupo_146973" data-name="Grupo 146973">
              <g id="Grupo_146972" data-name="Grupo 146972">
                <path id="Trazado_195720" data-name="Trazado 195720" d="M313.835,157.222a3.643,3.643,0,1,1-3.643-3.643A3.643,3.643,0,0,1,313.835,157.222Z" fill="#f5f5f5"/>
              </g>
            </g>
          </g>
          <path id="Trazado_195721" data-name="Trazado 195721" d="M238.677,203.68,204.507,217.1a160.06,160.06,0,0,0-15.706-47.6l31.253-13.442C232.024,170.721,236.4,186.778,238.677,203.68Z" fill="#ebebeb"/>
          <g id="Grupo_146983" data-name="Grupo 146983" transform="translate(-58 -1)">
            <g id="Grupo_146976" data-name="Grupo 146976">
              <g id="Grupo_146975" data-name="Grupo 146975">
                <path id="Trazado_195722" data-name="Trazado 195722" d="M162.712,96.69,84.183,98.308l2.11,102.405,78.569.353Z" fill="#ebebeb"/>
              </g>
            </g>
            <g id="Grupo_146978" data-name="Grupo 146978">
              <g id="Grupo_146977" data-name="Grupo 146977">
                <path id="Trazado_195723" data-name="Trazado 195723" d="M157.62,100.44,88.9,101.855l1.913,92.876,68.764.9Z" fill="#fafafa"/>
              </g>
            </g>
            <g id="Grupo_146980" data-name="Grupo 146980">
              <g id="Grupo_146979" data-name="Grupo 146979">
                <path id="Trazado_195724" data-name="Trazado 195724" d="M145.934,117.565l-45.636-.8,1.337,64.916,45.6-.939Z" fill="#ebebeb"/>
              </g>
            </g>
            <g id="Grupo_146982" data-name="Grupo 146982">
              <g id="Grupo_146981" data-name="Grupo 146981">
                <path id="Trazado_195725" data-name="Trazado 195725" d="M101.636,181.684l44.913-34.29L100.3,116.767Z" fill="#f5f5f5"/>
              </g>
            </g>
          </g>
          <g id="Grupo_146992" data-name="Grupo 146992">
            <g id="Grupo_146985" data-name="Grupo 146985">
              <g id="Grupo_146984" data-name="Grupo 146984">
                <path id="Trazado_195726" data-name="Trazado 195726" d="M372.747,37.855l-56.487,1.164,1.518,73.661,56.516.254Z" fill="#ebebeb"/>
              </g>
            </g>
            <g id="Grupo_146987" data-name="Grupo 146987">
              <g id="Grupo_146986" data-name="Grupo 146986">
                <path id="Trazado_195727" data-name="Trazado 195727" d="M369.085,40.553l-49.428,1.018,1.376,66.807,49.462.65Z" fill="#fafafa"/>
              </g>
            </g>
            <g id="Grupo_146989" data-name="Grupo 146989">
              <g id="Grupo_146988" data-name="Grupo 146988">
                <path id="Trazado_195728" data-name="Trazado 195728" d="M360.679,52.871,327.853,52.3l.962,46.695,32.8-.676Z" fill="#ebebeb"/>
              </g>
            </g>
            <g id="Grupo_146991" data-name="Grupo 146991">
              <g id="Grupo_146990" data-name="Grupo 146990">
                <path id="Trazado_195729" data-name="Trazado 195729" d="M328.815,98.992l32.307-24.665L327.853,52.3Z" fill="#f5f5f5"/>
              </g>
            </g>
          </g>
          <g id="Grupo_147010" data-name="Grupo 147010" transform="translate(30 -156)">
            <g id="Grupo_147003" data-name="Grupo 147003">
              <g id="Grupo_147002" data-name="Grupo 147002">
                <path id="Trazado_195734" data-name="Trazado 195734" d="M410.879,194.265l-33.81.7.908,44.089,33.827.152Z" fill="#ebebeb"/>
              </g>
            </g>
            <g id="Grupo_147005" data-name="Grupo 147005">
              <g id="Grupo_147004" data-name="Grupo 147004">
                <path id="Trazado_195735" data-name="Trazado 195735" d="M408.688,195.879l-29.585.609.824,39.987,29.605.389Z" fill="#fafafa"/>
              </g>
            </g>
            <g id="Grupo_147007" data-name="Grupo 147007">
              <g id="Grupo_147006" data-name="Grupo 147006">
                <path id="Trazado_195736" data-name="Trazado 195736" d="M403.656,203.252l-19.648-.343.576,27.949,19.633-.4Z" fill="#ebebeb"/>
              </g>
            </g>
            <g id="Grupo_147009" data-name="Grupo 147009">
              <g id="Grupo_147008" data-name="Grupo 147008">
                <path id="Trazado_195737" data-name="Trazado 195737" d="M384.584,230.858l19.337-14.763-19.913-13.186Z" fill="#f5f5f5"/>
              </g>
            </g>
          </g>
          <g id="Grupo_147025" data-name="Grupo 147025">
            <g id="Grupo_147011" data-name="Grupo 147011">
              <path id="Trazado_195738" data-name="Trazado 195738" d="M220.467,62.416a7.294,7.294,0,0,1-1.041-.867l-2.741-2.46c-1.161-1.033-2.546-2.26-4.124-3.572-.789-.653-1.627-1.328-2.521-1.988-.449-.325-.91-.651-1.392-.949a4.081,4.081,0,0,0-1.474-.644,3.376,3.376,0,0,0-1.433.66c-.469.316-.918.657-1.351,1.005-.865.7-1.671,1.411-2.431,2.1-1.517,1.381-2.846,2.669-3.958,3.754-1.054,1.034-1.935,1.9-2.628,2.581a7.146,7.146,0,0,1-1,.911,6.482,6.482,0,0,1,.855-1.051c.579-.651,1.433-1.579,2.513-2.7s2.387-2.44,3.9-3.848c.757-.7,1.561-1.429,2.436-2.142.437-.356.894-.707,1.383-1.039a3.614,3.614,0,0,1,1.735-.749,4.3,4.3,0,0,1,1.731.723c.5.312.969.646,1.424.98.9.675,1.741,1.363,2.527,2.031,1.57,1.339,2.933,2.6,4.064,3.668s2.024,1.96,2.632,2.585A6.315,6.315,0,0,1,220.467,62.416Z" fill="#e0e0e0"/>
            </g>
            <g id="Grupo_147018" data-name="Grupo 147018">
              <g id="Grupo_147013" data-name="Grupo 147013">
                <g id="Grupo_147012" data-name="Grupo 147012">
                  <path id="Trazado_195739" data-name="Trazado 195739" d="M180.428,62.528l.81,39.913,52.048-1.057.191-39.933Z" fill="#ebebeb"/>
                </g>
              </g>
              <g id="Grupo_147015" data-name="Grupo 147015">
                <g id="Grupo_147014" data-name="Grupo 147014">
                  <path id="Trazado_195740" data-name="Trazado 195740" d="M182.333,65.117l.709,34.925,47.2-.958.47-34.949Z" fill="#fafafa"/>
                </g>
              </g>
              <g id="Grupo_147017" data-name="Grupo 147017">
                <g id="Grupo_147016" data-name="Grupo 147016">
                  <path id="Trazado_195741" data-name="Trazado 195741" d="M191.035,71.058l-.412,23.195,32.994-.67-.471-23.177Z" fill="#ebebeb"/>
                </g>
              </g>
            </g>
            <g id="Grupo_147019" data-name="Grupo 147019">
              <path id="Trazado_195742" data-name="Trazado 195742" d="M218.3,77.032c0,.144-5.1.26-11.4.26s-11.4-.116-11.4-.26,5.1-.261,11.4-.261S218.3,76.888,218.3,77.032Z" fill="#e0e0e0"/>
            </g>
            <g id="Grupo_147020" data-name="Grupo 147020">
              <path id="Trazado_195743" data-name="Trazado 195743" d="M218.3,80.636c0,.144-5.1.26-11.4.26s-11.4-.116-11.4-.26,5.1-.26,11.4-.26S218.3,80.492,218.3,80.636Z" fill="#e0e0e0"/>
            </g>
            <g id="Grupo_147021" data-name="Grupo 147021">
              <path id="Trazado_195744" data-name="Trazado 195744" d="M218.3,84.24c0,.143-5.1.26-11.4.26s-11.4-.117-11.4-.26,5.1-.26,11.4-.26S218.3,84.1,218.3,84.24Z" fill="#e0e0e0"/>
            </g>
            <g id="Grupo_147022" data-name="Grupo 147022">
              <path id="Trazado_195745" data-name="Trazado 195745" d="M203.613,87.843a15.973,15.973,0,0,1-4.053.261,15.967,15.967,0,0,1-4.053-.261,16.05,16.05,0,0,1,4.053-.26A16.057,16.057,0,0,1,203.613,87.843Z" fill="#e0e0e0"/>
            </g>
            <g id="Grupo_147023" data-name="Grupo 147023">
              <path id="Trazado_195746" data-name="Trazado 195746" d="M199.917,75.395c-.048,0-.05-.336-.217-.9a3.77,3.77,0,0,0-1.384-1.955,3.6,3.6,0,0,0-3.371-.464,3.546,3.546,0,1,0,3.371,6.164A3.759,3.759,0,0,0,199.7,76.29c.167-.56.169-.9.217-.9a1.894,1.894,0,0,1-.02.944,3.75,3.75,0,0,1-1.358,2.2,3.937,3.937,0,0,1-3.758.623,3.994,3.994,0,0,1,0-7.532,3.94,3.94,0,0,1,3.758.623,3.761,3.761,0,0,1,1.358,2.2A1.906,1.906,0,0,1,199.917,75.395Z" fill="#e0e0e0"/>
            </g>
            <g id="Grupo_147024" data-name="Grupo 147024">
              <path id="Trazado_195747" data-name="Trazado 195747" d="M219.9,87.233a2.261,2.261,0,0,1-.362.753A3.319,3.319,0,0,1,217.8,89.51a1.876,1.876,0,0,1-1.662-.24,1.4,1.4,0,0,1-.354-1.9,1.094,1.094,0,0,1,.47-.387.72.72,0,0,1,.7.085,1.345,1.345,0,0,1,.425,1.122,3.252,3.252,0,0,1-.831,2.093,2.561,2.561,0,0,1-.961.691,1.594,1.594,0,0,1-1.208.006,2.037,2.037,0,0,1-1.172-1.784,3.535,3.535,0,0,1,.437-1.859.649.649,0,0,1,.5-.312.6.6,0,0,1,.5.284,1.932,1.932,0,0,1,.253.792,2.572,2.572,0,0,1-.8,2.159c-.415.378-.738.427-.742.4-.023-.043.261-.158.6-.546a2.464,2.464,0,0,0,.579-1.968,1.645,1.645,0,0,0-.218-.61c-.131-.144-.176-.14-.312.037a3.249,3.249,0,0,0-.315,1.584,1.558,1.558,0,0,0,.886,1.346,1.478,1.478,0,0,0,1.588-.573,2.791,2.791,0,0,0,.709-1.758.9.9,0,0,0-.216-.712c-.106-.108-.336-.017-.481.182a.955.955,0,0,0,.224,1.279,1.5,1.5,0,0,0,1.3.231,3.357,3.357,0,0,0,1.67-1.285C219.686,87.453,219.862,87.212,219.9,87.233Z" fill="#e0e0e0"/>
            </g>
          </g>
          <path id="Trazado_195748" data-name="Trazado 195748" d="M247.1,145.32l-36.069,16.025-.859-27.482L246.2,116.834Z" fill="#ebebeb"/>
          <g id="Grupo_147040" data-name="Grupo 147040" transform="translate(85 -10)">
            <g id="Grupo_147026" data-name="Grupo 147026">
              <path id="Trazado_195749" data-name="Trazado 195749" d="M426.261,119.31a10.958,10.958,0,0,1-1.6-1.329l-4.206-3.776c-1.782-1.586-3.908-3.47-6.33-5.482-1.212-1-2.5-2.039-3.87-3.053-.689-.5-1.4-1-2.137-1.456a6.259,6.259,0,0,0-2.262-.988,5.18,5.18,0,0,0-2.2,1.011c-.719.487-1.409,1.011-2.073,1.544-1.328,1.068-2.565,2.165-3.732,3.221-2.329,2.119-4.369,4.1-6.076,5.762l-4.033,3.961a11,11,0,0,1-1.538,1.4,9.829,9.829,0,0,1,1.313-1.614c.888-1,2.2-2.423,3.856-4.145s3.664-3.744,5.98-5.906c1.161-1.077,2.394-2.193,3.738-3.287.672-.546,1.373-1.086,2.122-1.595a5.552,5.552,0,0,1,2.664-1.15,6.594,6.594,0,0,1,2.658,1.11c.768.478,1.487.991,2.186,1.5,1.385,1.037,2.672,2.093,3.878,3.118,2.409,2.055,4.5,3.987,6.238,5.63s3.107,3.009,4.039,3.968A9.8,9.8,0,0,1,426.261,119.31Z" fill="#e0e0e0"/>
            </g>
            <g id="Grupo_147033" data-name="Grupo 147033">
              <g id="Grupo_147028" data-name="Grupo 147028">
                <g id="Grupo_147027" data-name="Grupo 147027">
                  <path id="Trazado_195750" data-name="Trazado 195750" d="M364.8,119.483l1.244,61.264,79.891-1.622.293-61.295Z" fill="#ebebeb"/>
                </g>
              </g>
              <g id="Grupo_147030" data-name="Grupo 147030">
                <g id="Grupo_147029" data-name="Grupo 147029">
                  <path id="Trazado_195751" data-name="Trazado 195751" d="M367.727,123.456l1.088,53.608,72.456-1.471.721-53.645Z" fill="#fafafa"/>
                </g>
              </g>
              <g id="Grupo_147032" data-name="Grupo 147032">
                <g id="Grupo_147031" data-name="Grupo 147031">
                  <path id="Trazado_195752" data-name="Trazado 195752" d="M381.084,132.577l-.633,35.6,50.644-1.028-.722-35.574Z" fill="#ebebeb"/>
                </g>
              </g>
            </g>
            <g id="Grupo_147034" data-name="Grupo 147034">
              <path id="Trazado_195753" data-name="Trazado 195753" d="M422.932,141.746c0,.221-7.832.4-17.491.4s-17.492-.179-17.492-.4,7.83-.4,17.492-.4S422.932,141.525,422.932,141.746Z" fill="#e0e0e0"/>
            </g>
            <g id="Grupo_147035" data-name="Grupo 147035">
              <path id="Trazado_195754" data-name="Trazado 195754" d="M422.932,147.278c0,.221-7.832.4-17.491.4s-17.492-.178-17.492-.4,7.83-.4,17.492-.4S422.932,147.057,422.932,147.278Z" fill="#e0e0e0"/>
            </g>
            <g id="Grupo_147036" data-name="Grupo 147036">
              <path id="Trazado_195755" data-name="Trazado 195755" d="M422.932,152.809c0,.221-7.832.4-17.491.4s-17.492-.179-17.492-.4,7.83-.4,17.492-.4S422.932,152.588,422.932,152.809Z" fill="#e0e0e0"/>
            </g>
            <g id="Grupo_147037" data-name="Grupo 147037">
              <path id="Trazado_195756" data-name="Trazado 195756" d="M400.391,158.341c0,.22-2.786.4-6.221.4s-6.221-.18-6.221-.4,2.784-.4,6.221-.4S400.391,158.12,400.391,158.341Z" fill="#e0e0e0"/>
            </g>
            <g id="Grupo_147038" data-name="Grupo 147038">
              <path id="Trazado_195757" data-name="Trazado 195757" d="M394.717,139.232c-.073,0-.077-.515-.332-1.375a5.777,5.777,0,0,0-2.125-3,5.443,5.443,0,1,0,0,8.748,5.78,5.78,0,0,0,2.124-3c.255-.86.259-1.377.332-1.375a2.887,2.887,0,0,1-.03,1.451,5.765,5.765,0,0,1-2.083,3.373,6.047,6.047,0,0,1-5.77.957,6.13,6.13,0,0,1,0-11.561,6.047,6.047,0,0,1,5.769.956,5.766,5.766,0,0,1,2.084,3.374A2.882,2.882,0,0,1,394.717,139.232Z" fill="#e0e0e0"/>
            </g>
            <g id="Grupo_147039" data-name="Grupo 147039">
              <path id="Trazado_195758" data-name="Trazado 195758" d="M425.382,157.4a3.476,3.476,0,0,1-.554,1.156,5.1,5.1,0,0,1-2.662,2.338,2.868,2.868,0,0,1-2.551-.369,2.149,2.149,0,0,1-.544-2.917,1.662,1.662,0,0,1,.722-.593,1.1,1.1,0,0,1,1.077.13,2.069,2.069,0,0,1,.653,1.723,5,5,0,0,1-1.276,3.212,3.94,3.94,0,0,1-1.476,1.061,2.451,2.451,0,0,1-1.853.009,3.121,3.121,0,0,1-1.8-2.738,5.42,5.42,0,0,1,.669-2.854,1,1,0,0,1,.764-.479.907.907,0,0,1,.769.437,2.954,2.954,0,0,1,.39,1.214,3.952,3.952,0,0,1-1.226,3.315c-.637.579-1.132.654-1.138.62-.035-.065.4-.241.915-.837a3.772,3.772,0,0,0,.889-3.019,2.54,2.54,0,0,0-.334-.939c-.2-.22-.27-.214-.478.057a5,5,0,0,0-.485,2.432,2.39,2.39,0,0,0,1.36,2.066,2.268,2.268,0,0,0,2.438-.88,4.272,4.272,0,0,0,1.087-2.7,1.387,1.387,0,0,0-.33-1.094c-.163-.165-.515-.026-.738.28a1.463,1.463,0,0,0,.343,1.963,2.3,2.3,0,0,0,1.994.354,5.143,5.143,0,0,0,2.562-1.972C425.063,157.741,425.332,157.372,425.382,157.4Z" fill="#e0e0e0"/>
            </g>
          </g>
        </g>
      </g>
      <g id="Plant" transform="translate(234.924 249.25)">
        <g id="Grupo_147055" data-name="Grupo 147055">
          <g id="Grupo_147043" data-name="Grupo 147043">
            <path id="Trazado_195760" data-name="Trazado 195760" d="M330.156,394.579c-16.884-11.053-21.172-32.213-20.984-51.329.032-3.192-.4-6.545,1.063-9.379s5.007-4.832,7.933-3.558c2.426,1.057,3.54,3.787,4.938,6.034a18.825,18.825,0,0,0,7.751,6.961c2.083,1,4.644,1.588,6.648.433,2.75-1.584,2.986-5.39,2.888-8.563q-.275-8.862-.547-17.728c-.1-3.171-.188-6.407.739-9.441s3.064-5.883,6.1-6.8,6.859.731,7.581,3.819a28.932,28.932,0,0,1,.187,3.948c.122,1.313.78,2.755,2.056,3.092s2.554-.589,3.493-1.54c3.238-3.281,5.387-7.46,7.389-11.612s3.942-8.4,6.865-11.964,7.019-6.431,11.614-6.8,9.567,2.32,10.839,6.75-1.256,9.041-4.043,12.73a71.233,71.233,0,0,1-14.588,14.4,5.855,5.855,0,0,0-2.434,2.711c-.646,2.13,1.436,4.183,3.567,4.827,2.415.729,5.008.422,7.52.654s5.254,1.255,6.26,3.57c1.395,3.212-1.269,6.674-3.917,8.963a61.627,61.627,0,0,1-17.93,10.794c-2.344.911-4.812,1.718-6.678,3.4s-2.946,4.563-1.741,6.769,4.181,2.852,6.646,2.339,4.648-1.891,6.986-2.826c4.375-1.751,10.085-1.586,13.006,2.113a9.927,9.927,0,0,1,1.3,8.848,23.077,23.077,0,0,1-4.679,7.953,61.754,61.754,0,0,1-25.932,18.929c-10.158,3.75-19.626,4.926-29.9,1.495" fill="#05555a"/>
          </g>
          <g id="Grupo_147054" data-name="Grupo 147054">
            <g id="Grupo_147045" data-name="Grupo 147045">
              <g id="Grupo_147044" data-name="Grupo 147044">
                <path id="Trazado_195761" data-name="Trazado 195761" d="M391.96,282.663s-.1.109-.308.3l-.938.857c-.825.753-2.043,1.863-3.569,3.335a119.112,119.112,0,0,0-11.968,13.359c-2.322,2.995-4.727,6.382-7.242,10.063s-5.163,7.646-7.8,11.909a142.575,142.575,0,0,0-7.6,13.746c-1.18,2.455-2.223,5.02-3.286,7.633s-2.131,5.264-3.217,7.945a287.916,287.916,0,0,0-10.7,30.8,139.742,139.742,0,0,0-4.708,26.159,102.142,102.142,0,0,0,.156,17.924c.223,2.108.431,3.741.613,4.843.078.535.14.953.185,1.257.039.284.046.432.046.432s-.533-2.293-1.029-6.512a98.321,98.321,0,0,1-.309-17.968,137.9,137.9,0,0,1,4.62-26.251,282.376,282.376,0,0,1,10.681-30.86l3.221-7.948c1.062-2.607,2.115-5.19,3.3-7.655a141.472,141.472,0,0,1,7.649-13.776c2.649-4.267,5.32-8.221,7.844-11.9s4.958-7.057,7.3-10.047a114,114,0,0,1,12.107-13.285c1.549-1.453,2.786-2.543,3.634-3.271l.969-.823C391.84,282.748,391.96,282.663,391.96,282.663Z" fill="#263238"/>
              </g>
            </g>
            <g id="Grupo_147047" data-name="Grupo 147047">
              <g id="Grupo_147046" data-name="Grupo 147046">
                <path id="Trazado_195762" data-name="Trazado 195762" d="M352.232,335.985a7.675,7.675,0,0,1-.325-1.349c-.183-.873-.41-2.145-.67-3.718-.523-3.148-1.1-7.519-1.725-12.34s-1.278-9.173-1.867-12.3c-.29-1.565-.54-2.83-.726-3.7a7.62,7.62,0,0,1-.233-1.367,7.729,7.729,0,0,1,.415,1.324c.242.86.543,2.117.876,3.678.677,3.121,1.384,7.478,2.01,12.306.613,4.78,1.168,9.105,1.584,12.351.21,1.512.385,2.768.52,3.738A7.6,7.6,0,0,1,352.232,335.985Z" fill="#263238"/>
              </g>
            </g>
            <g id="Grupo_147049" data-name="Grupo 147049">
              <g id="Grupo_147048" data-name="Grupo 147048">
                <path id="Trazado_195763" data-name="Trazado 195763" d="M393.357,327.379a1.462,1.462,0,0,1-.423.079l-1.221.134c-1.059.111-2.591.268-4.479.525-3.775.483-8.967,1.34-14.651,2.537s-10.779,2.525-14.435,3.588c-1.831.519-3.3.979-4.32,1.293l-1.175.357a1.406,1.406,0,0,1-.421.093,1.547,1.547,0,0,1,.39-.185l1.147-.441c1-.369,2.458-.88,4.281-1.442,3.64-1.147,8.737-2.52,14.434-3.732s10.914-2.006,14.711-2.4c1.9-.214,3.437-.321,4.5-.375l1.228-.045A1.415,1.415,0,0,1,393.357,327.379Z" fill="#263238"/>
              </g>
            </g>
            <g id="Grupo_147051" data-name="Grupo 147051">
              <g id="Grupo_147050" data-name="Grupo 147050">
                <path id="Trazado_195764" data-name="Trazado 195764" d="M335.348,381.722a2.512,2.512,0,0,1-.285-.495c-.19-.38-.434-.865-.733-1.462-.634-1.272-1.5-3.134-2.552-5.449-2.1-4.626-4.8-11.1-7.69-18.292s-5.54-13.679-7.556-18.336c-1-2.283-1.817-4.149-2.41-5.506l-.652-1.5a2.635,2.635,0,0,1-.2-.537,2.535,2.535,0,0,1,.285.495c.19.38.433.864.734,1.462.633,1.271,1.5,3.133,2.55,5.448,2.1,4.626,4.8,11.1,7.691,18.294s5.54,13.676,7.556,18.334c1,2.282,1.817,4.149,2.41,5.505l.652,1.5A2.589,2.589,0,0,1,335.348,381.722Z" fill="#263238"/>
              </g>
            </g>
            <g id="Grupo_147053" data-name="Grupo 147053">
              <g id="Grupo_147052" data-name="Grupo 147052">
                <path id="Trazado_195765" data-name="Trazado 195765" d="M389.816,362.949a2.679,2.679,0,0,1-.542.225l-1.585.555-5.839,2c-4.927,1.7-11.705,4.127-19.186,6.828s-14.284,5.084-19.242,6.7c-2.48.81-4.491,1.446-5.889,1.859l-1.613.471a2.819,2.819,0,0,1-.572.132,2.674,2.674,0,0,1,.543-.225l1.585-.555,5.837-2c4.928-1.7,11.706-4.128,19.189-6.83s14.282-5.081,19.24-6.7c2.479-.808,4.491-1.445,5.89-1.859l1.612-.47A2.737,2.737,0,0,1,389.816,362.949Z" fill="#263238"/>
              </g>
            </g>
          </g>
        </g>
      </g>
      <g id="Filing_Cabinet" data-name="Filing Cabinet" transform="translate(260.229 267.665)">
        <g id="Grupo_147093" data-name="Grupo 147093">
          <g id="Grupo_147083" data-name="Grupo 147083">
            <g id="Grupo_147056" data-name="Grupo 147056">
              <path id="Trazado_195766" data-name="Trazado 195766" d="M240.627,207.782l-2.133,240.533h95.279V211.061Z" fill="#455a64"/>
            </g>
            <g id="Grupo_147057" data-name="Grupo 147057">
              <path id="Trazado_195767" data-name="Trazado 195767" d="M243.622,247.753v33.716h45.131V249.346Z" fill="#263238"/>
            </g>
            <g id="Grupo_147058" data-name="Grupo 147058">
              <path id="Trazado_195768" data-name="Trazado 195768" d="M291.957,209.589l-.843,238.725h42.659V211.061Z" fill="#263238"/>
            </g>
            <g id="Grupo_147063" data-name="Grupo 147063">
              <g id="Grupo_147059" data-name="Grupo 147059">
                <path id="Trazado_195769" data-name="Trazado 195769" d="M243.622,210.749v33.716h45.131V212.342Z" fill="#263238"/>
              </g>
              <g id="Grupo_147062" data-name="Grupo 147062">
                <g id="Grupo_147060" data-name="Grupo 147060">
                  <path id="Trazado_195770" data-name="Trazado 195770" d="M259.181,220.024V225h13.808v-5.433Z" fill="#263238"/>
                  <rect id="Rectángulo_44724" data-name="Rectángulo 44724" width="14.26" height="2.037" transform="translate(259.181 229.191)" fill="#263238"/>
                </g>
                <g id="Grupo_147061" data-name="Grupo 147061" opacity="0.4">
                  <path id="Trazado_195771" data-name="Trazado 195771" d="M259.181,220.024V225h13.808v-5.433Z"/>
                  <rect id="Rectángulo_44725" data-name="Rectángulo 44725" width="14.26" height="2.037" transform="translate(259.181 229.191)"/>
                </g>
              </g>
            </g>
            <g id="Grupo_147072" data-name="Grupo 147072">
              <g id="Grupo_147064" data-name="Grupo 147064">
                <path id="Trazado_195772" data-name="Trazado 195772" d="M243.622,328.9v33.716h45.131V330.49Z" fill="#263238"/>
              </g>
              <g id="Grupo_147071" data-name="Grupo 147071">
                <g id="Grupo_147067" data-name="Grupo 147067">
                  <g id="Grupo_147065" data-name="Grupo 147065">
                    <path id="Trazado_195773" data-name="Trazado 195773" d="M259.181,338.172v4.98h13.808V337.72Z" fill="#263238"/>
                  </g>
                  <g id="Grupo_147066" data-name="Grupo 147066">
                    <rect id="Rectángulo_44726" data-name="Rectángulo 44726" width="14.26" height="2.037" transform="translate(259.181 347.34)" fill="#263238"/>
                  </g>
                </g>
                <g id="Grupo_147070" data-name="Grupo 147070" opacity="0.4">
                  <g id="Grupo_147068" data-name="Grupo 147068">
                    <path id="Trazado_195774" data-name="Trazado 195774" d="M259.181,338.172v4.98h13.808V337.72Z"/>
                  </g>
                  <g id="Grupo_147069" data-name="Grupo 147069">
                    <rect id="Rectángulo_44727" data-name="Rectángulo 44727" width="14.26" height="2.037" transform="translate(259.181 347.34)"/>
                  </g>
                </g>
              </g>
            </g>
            <g id="Grupo_147077" data-name="Grupo 147077">
              <g id="Grupo_147073" data-name="Grupo 147073">
                <path id="Trazado_195775" data-name="Trazado 195775" d="M243.622,366.9v33.716h45.131V368.49Z" fill="#263238"/>
              </g>
              <g id="Grupo_147076" data-name="Grupo 147076">
                <g id="Grupo_147074" data-name="Grupo 147074">
                  <path id="Trazado_195776" data-name="Trazado 195776" d="M259.181,376.173v4.98h13.808V375.72Z" fill="#263238"/>
                  <rect id="Rectángulo_44728" data-name="Rectángulo 44728" width="14.26" height="2.037" transform="translate(259.181 385.34)" fill="#263238"/>
                </g>
                <g id="Grupo_147075" data-name="Grupo 147075" opacity="0.4">
                  <path id="Trazado_195777" data-name="Trazado 195777" d="M259.181,376.173v4.98h13.808V375.72Z"/>
                  <rect id="Rectángulo_44729" data-name="Rectángulo 44729" width="14.26" height="2.037" transform="translate(259.181 385.34)"/>
                </g>
              </g>
            </g>
            <g id="Grupo_147082" data-name="Grupo 147082">
              <g id="Grupo_147078" data-name="Grupo 147078">
                <path id="Trazado_195778" data-name="Trazado 195778" d="M243.136,404.9v33.716h45.131V406.49Z" fill="#263238"/>
              </g>
              <g id="Grupo_147081" data-name="Grupo 147081">
                <g id="Grupo_147079" data-name="Grupo 147079">
                  <path id="Trazado_195779" data-name="Trazado 195779" d="M258.694,414.173v4.98H272.5V413.72Z" fill="#263238"/>
                  <rect id="Rectángulo_44730" data-name="Rectángulo 44730" width="14.261" height="2.037" transform="translate(258.694 423.34)" fill="#263238"/>
                </g>
                <g id="Grupo_147080" data-name="Grupo 147080" opacity="0.4">
                  <path id="Trazado_195780" data-name="Trazado 195780" d="M258.694,414.173v4.98H272.5V413.72Z"/>
                  <rect id="Rectángulo_44731" data-name="Rectángulo 44731" width="14.261" height="2.037" transform="translate(258.694 423.34)"/>
                </g>
              </g>
            </g>
          </g>
          <g id="Grupo_147092" data-name="Grupo 147092">
            <g id="Grupo_147088" data-name="Grupo 147088">
              <g id="Grupo_147084" data-name="Grupo 147084">
                <rect id="Rectángulo_44732" data-name="Rectángulo 44732" width="45.131" height="33.716" transform="translate(197.63 287.496)" fill="#455a64"/>
              </g>
              <g id="Grupo_147087" data-name="Grupo 147087">
                <g id="Grupo_147085" data-name="Grupo 147085">
                  <path id="Trazado_195781" data-name="Trazado 195781" d="M213.493,302.691v4.682h12.979v-5.106Z" fill="#263238"/>
                  <rect id="Rectángulo_44733" data-name="Rectángulo 44733" width="13.405" height="1.915" transform="translate(213.493 311.309)" fill="#263238"/>
                </g>
                <g id="Grupo_147086" data-name="Grupo 147086" opacity="0.4">
                  <path id="Trazado_195782" data-name="Trazado 195782" d="M213.493,302.691v4.682h12.979v-5.106Z"/>
                  <rect id="Rectángulo_44734" data-name="Rectángulo 44734" width="13.405" height="1.915" transform="translate(213.493 311.309)"/>
                </g>
              </g>
            </g>
            <g id="Grupo_147089" data-name="Grupo 147089">
              <path id="Trazado_195783" data-name="Trazado 195783" d="M242.761,287.5l44.484-.327-.81,34.043H242.761Z" fill="#263238"/>
              <path id="Trazado_195784" data-name="Trazado 195784" d="M242.761,287.5l44.484-.327-.81,34.043H242.761Z" opacity="0.4"/>
            </g>
            <rect id="Rectángulo_44735" data-name="Rectángulo 44735" width="44.485" height="30.284" transform="translate(241.185 256.885)" fill="#fafafa"/>
            <g id="Grupo_147090" data-name="Grupo 147090">
              <path id="Trazado_195785" data-name="Trazado 195785" d="M230.4,261.706l2.242,25.732,53.027-.269-3.173-25.19a2.99,2.99,0,0,0-3.353-2.561l-21.393,1.864-3.643-2.7a1.664,1.664,0,0,0-1.134-.31l-21.126,1.863A1.515,1.515,0,0,0,230.4,261.706Z" fill="#263238"/>
              <path id="Trazado_195786" data-name="Trazado 195786" d="M230.4,261.706l2.242,25.732,53.027-.269-3.173-25.19a2.99,2.99,0,0,0-3.353-2.561l-21.393,1.864-3.643-2.7a1.664,1.664,0,0,0-1.134-.31l-21.126,1.863A1.515,1.515,0,0,0,230.4,261.706Z" fill="#12263f"/>
            </g>
            <path id="Trazado_195787" data-name="Trazado 195787" d="M215.186,280.738l-1.114-6.7L263.1,270.8l4.307,16.628-51.253-.258Z" fill="#fafafa"/>
            <g id="Grupo_147091" data-name="Grupo 147091">
              <path id="Trazado_195788" data-name="Trazado 195788" d="M208.928,277.478l.868,9.96h52.449l-1.221-9.688a2.99,2.99,0,0,0-3.353-2.561l-21.394,1.865-3.642-2.7a1.659,1.659,0,0,0-1.134-.31l-21.126,1.862A1.515,1.515,0,0,0,208.928,277.478Z" fill="#e8505b"/>
              <path id="Trazado_195789" data-name="Trazado 195789" d="M208.928,277.478l.868,9.96h52.449l-1.221-9.688a2.99,2.99,0,0,0-3.353-2.561l-21.394,1.865-3.642-2.7a1.659,1.659,0,0,0-1.134-.31l-21.126,1.862A1.515,1.515,0,0,0,208.928,277.478Z" fill="#12263f"/>
            </g>
            <path id="Trazado_195790" data-name="Trazado 195790" d="M264.267,275.3h6.964a1.755,1.755,0,0,1,1.71,2.152l-2.256,9.712H267.41Z" fill="#efefef"/>
          </g>
        </g>
      </g>
      <g id="Documents" transform="translate(153.77 332.908)">
        <g id="Grupo_147094" data-name="Grupo 147094" transform="translate(43.368 -36.308)">
          <path id="Trazado_195791" data-name="Trazado 195791" d="M355.995,141.332l-31.1,6.687a2.018,2.018,0,0,1-2.381-1.621L318.3,125.363a2.086,2.086,0,0,1,1.563-2.467l31.1-6.687a2.016,2.016,0,0,1,2.381,1.62l4.208,21.034A2.089,2.089,0,0,1,355.995,141.332Z" fill="#91a8c6"/>
          <path id="Trazado_195792" data-name="Trazado 195792" d="M338.79,129.7l4.76,1.651-3.759,3.448-3.759,3.449-1-5.1-1-5.1Z" fill="#fafafa"/>
        </g>
        <g id="Grupo_147104" data-name="Grupo 147104">
          <g id="Grupo_147095" data-name="Grupo 147095">
            <path id="Trazado_195793" data-name="Trazado 195793" d="M297.056,130.329s.1-.143.315-.406.531-.656.927-1.185a28.35,28.35,0,0,0,4.469-8.826c.431-1.458.777-3.089,1.207-4.822.839-3.476,1.794-7.429,2.849-11.8s2.222-9.158,3.469-14.295a33.32,33.32,0,0,1,1.1-3.9,20.914,20.914,0,0,1,6.109-8.705l.052-.046.027-.023c.2.817.037.222.074.4l-.133-.033-.268-.064-.538-.131-1.08-.263-18.123-4.424-9.586-2.344-4.9-1.2-2.476-.606-.155-.038-.077-.019c-.046,0,.255-.017.11,0l-.036.014-.294.114-.587.23c-.377.185-.772.337-1.137.548a15.671,15.671,0,0,0-6.826,7.071,19.226,19.226,0,0,0-1.481,4.676q-.555,2.4-1.1,4.77c-1.456,6.3-2.86,12.385-4.2,18.179l-1,4.293a31.5,31.5,0,0,1-1.34,4.1,32.275,32.275,0,0,1-4.031,7.174q-.594.8-1.23,1.55L257,120.5l-.079.094c-.215-.682-.042-.185-.083-.335l.03.007.059.014.469.116.934.231,3.645.9,6.852,1.695,20.668,5.148,5.613,1.425,1.457.383c.328.089.492.148.492.148s-.173-.024-.505-.1l-1.468-.334-5.637-1.33-20.708-4.986-6.86-1.663-3.649-.886-.934-.226-.47-.115-.059-.014-.029-.007c-.058-.156.087.339-.137-.352l.077-.093.155-.185q.624-.741,1.208-1.534a31.861,31.861,0,0,0,3.953-7.088,51.7,51.7,0,0,0,2.3-8.33c1.329-5.8,2.724-11.881,4.169-18.188q.543-2.366,1.1-4.772a19.728,19.728,0,0,1,1.515-4.782,16.183,16.183,0,0,1,7.05-7.307c.378-.217.785-.376,1.176-.566l.606-.237.3-.118.038-.015c-.12,0,.207-.019.187-.011l.078.019.155.038,2.476.607,4.9,1.2,9.583,2.352,18.117,4.452,1.079.266.537.132.267.066.134.033c.049.188-.06-.41.117.424l-.026.023-.051.044a20.407,20.407,0,0,0-6,8.5,33.194,33.194,0,0,0-1.093,3.852c-1.268,5.131-2.45,9.913-3.53,14.28l-2.925,11.779c-.443,1.731-.8,3.352-1.252,4.826a28.218,28.218,0,0,1-1.548,3.9,27.128,27.128,0,0,1-3.075,4.915A17.679,17.679,0,0,1,297.056,130.329Z" fill="#263238"/>
          </g>
          <g id="Grupo_147096" data-name="Grupo 147096">
            <path id="Trazado_195794" data-name="Trazado 195794" d="M303.688,87.442a4.713,4.713,0,0,1-1.12-.167c-.713-.141-1.74-.362-3.007-.646-2.534-.571-6.026-1.39-9.866-2.372s-7.3-1.949-9.786-2.7c-1.244-.373-2.247-.687-2.936-.918a4.69,4.69,0,0,1-1.056-.409,4.822,4.822,0,0,1,1.112.214l2.979.759,9.816,2.545,9.824,2.519,2.968.807A4.74,4.74,0,0,1,303.688,87.442Z" fill="#263238"/>
          </g>
          <g id="Grupo_147097" data-name="Grupo 147097">
            <path id="Trazado_195795" data-name="Trazado 195795" d="M303,91.628a4.713,4.713,0,0,1-1.12-.167c-.713-.141-1.74-.362-3.007-.646-2.534-.571-6.026-1.39-9.866-2.372s-7.3-1.949-9.786-2.7c-1.244-.373-2.247-.687-2.936-.918a4.688,4.688,0,0,1-1.056-.409,4.814,4.814,0,0,1,1.112.214l2.979.758,9.816,2.546,9.824,2.519,2.968.807A4.742,4.742,0,0,1,303,91.628Z" fill="#263238"/>
          </g>
          <g id="Grupo_147098" data-name="Grupo 147098">
            <path id="Trazado_195796" data-name="Trazado 195796" d="M302.026,95.814a4.69,4.69,0,0,1-1.12-.168c-.713-.14-1.74-.361-3.007-.645-2.533-.571-6.026-1.39-9.866-2.372s-7.3-1.949-9.785-2.7c-1.245-.373-2.248-.687-2.937-.918a4.717,4.717,0,0,1-1.056-.409,4.813,4.813,0,0,1,1.112.214l2.98.759,9.816,2.545,9.823,2.519,2.968.807A4.741,4.741,0,0,1,302.026,95.814Z" fill="#263238"/>
          </g>
          <g id="Grupo_147099" data-name="Grupo 147099">
            <path id="Trazado_195797" data-name="Trazado 195797" d="M301.131,100a4.719,4.719,0,0,1-1.12-.167c-.713-.141-1.74-.362-3.007-.647-2.533-.57-6.026-1.389-9.866-2.371s-7.3-1.949-9.786-2.7c-1.244-.373-2.247-.687-2.936-.918a4.69,4.69,0,0,1-1.056-.409,4.8,4.8,0,0,1,1.112.214l2.98.759,9.816,2.546,9.823,2.518,2.968.807A4.741,4.741,0,0,1,301.131,100Z" fill="#263238"/>
          </g>
          <g id="Grupo_147100" data-name="Grupo 147100">
            <path id="Trazado_195798" data-name="Trazado 195798" d="M299.776,104.186a4.714,4.714,0,0,1-1.119-.167c-.713-.141-1.741-.362-3.008-.646-2.533-.571-6.026-1.391-9.865-2.372s-7.3-1.949-9.786-2.7c-1.245-.373-2.247-.687-2.937-.918a4.664,4.664,0,0,1-1.055-.409,4.743,4.743,0,0,1,1.111.214l2.98.758,9.816,2.546,9.823,2.519,2.969.807A4.717,4.717,0,0,1,299.776,104.186Z" fill="#263238"/>
          </g>
          <g id="Grupo_147101" data-name="Grupo 147101">
            <path id="Trazado_195799" data-name="Trazado 195799" d="M298.8,108.372a4.715,4.715,0,0,1-1.119-.167c-.713-.142-1.741-.362-3.007-.646-2.534-.571-6.026-1.391-9.866-2.372s-7.3-1.95-9.786-2.7c-1.244-.373-2.247-.687-2.937-.918a4.752,4.752,0,0,1-1.055-.409,4.813,4.813,0,0,1,1.112.214l2.979.758,9.816,2.546,9.824,2.519,2.968.806A4.717,4.717,0,0,1,298.8,108.372Z" fill="#263238"/>
          </g>
          <g id="Grupo_147102" data-name="Grupo 147102">
            <path id="Trazado_195800" data-name="Trazado 195800" d="M297.558,112.715a4.756,4.756,0,0,1-1.12-.168c-.713-.14-1.74-.361-3.007-.646-2.534-.57-6.026-1.39-9.866-2.371s-7.3-1.949-9.786-2.7c-1.244-.373-2.247-.688-2.936-.918a4.664,4.664,0,0,1-1.056-.409,4.81,4.81,0,0,1,1.111.214l2.98.759,9.816,2.545,9.824,2.519,2.968.807A4.742,4.742,0,0,1,297.558,112.715Z" fill="#263238"/>
          </g>
          <g id="Grupo_147103" data-name="Grupo 147103">
            <path id="Trazado_195801" data-name="Trazado 195801" d="M296.645,116.879a11.254,11.254,0,0,1-2.4-.393c-1.469-.31-3.49-.759-5.714-1.322-2.224-.582-4.2-1.192-5.636-1.628a11.408,11.408,0,0,1-2.292-.821,11.2,11.2,0,0,1,2.39.466c1.46.345,3.462.9,5.668,1.478,2.214.56,4.225,1.068,5.67,1.469A11.406,11.406,0,0,1,296.645,116.879Z" fill="#263238"/>
          </g>
        </g>
        <g id="Grupo_147112" data-name="Grupo 147112" transform="translate(-30 -50)">
          <g id="Grupo_147106" data-name="Grupo 147106">
            <path id="Trazado_195802" data-name="Trazado 195802" d="M232.224,215.892l-34.171,13.416a160.062,160.062,0,0,0-15.7-47.6l20.985-9.026a15.272,15.272,0,0,1,20.4,8.9A167.6,167.6,0,0,1,232.224,215.892Z" fill="#fafafa"/>
            <g id="Grupo_147105" data-name="Grupo 147105">
              <path id="Trazado_195803" data-name="Trazado 195803" d="M232.224,215.892s-.036-.152-.084-.433c-.05-.3-.118-.709-.2-1.232-.173-1.074-.44-2.69-.815-4.748A173.755,173.755,0,0,0,227,192.206c-.539-1.8-1.108-3.681-1.759-5.625s-1.3-4-2.154-6a14.94,14.94,0,0,0-4.027-5.354,15.548,15.548,0,0,0-6.355-3.163,15.045,15.045,0,0,0-7.445.206c-.623.156-1.213.429-1.826.639l-1.825.787-3.7,1.6-15.45,6.652.129-.356.856,1.725a166.321,166.321,0,0,1,9.673,23.958,155.191,155.191,0,0,1,5.156,22l-.29-.165,24.823-9.632,6.94-2.664,1.837-.694c.419-.155.649-.227.649-.227s-.192.1-.593.261l-1.785.729-6.862,2.755-24.852,9.87-.247.1-.043-.263a157.106,157.106,0,0,0-5.207-21.922,167.885,167.885,0,0,0-9.666-23.877c-.293-.589-.584-1.177-.854-1.72l-.123-.248.253-.109,15.455-6.64,3.707-1.591,1.826-.784c.634-.217,1.243-.5,1.887-.656a15.507,15.507,0,0,1,7.688-.195,15.981,15.981,0,0,1,6.541,3.28,15.369,15.369,0,0,1,4.125,5.526c.873,2.067,1.483,4.1,2.142,6.051.641,1.952,1.2,3.842,1.73,5.647a162.06,162.06,0,0,1,3.972,17.34c.345,2.073.579,3.673.721,4.783.063.532.112.947.149,1.253A3.163,3.163,0,0,1,232.224,215.892Z" fill="#263238"/>
            </g>
          </g>
          <path id="Trazado_195804" data-name="Trazado 195804" d="M204.494,172.238s5.1,10.463,4.648,10.829c-.414.338,12.661-4.883,12.82-4.965C221.962,178.1,215.177,168.967,204.494,172.238Z" fill="#263238"/>
          <g id="Grupo_147107" data-name="Grupo 147107">
            <path id="Trazado_195805" data-name="Trazado 195805" d="M202.576,186.344a25.423,25.423,0,0,1-4.622,2.236,25.343,25.343,0,0,1-4.826,1.756,25.57,25.57,0,0,1,4.623-2.235A25.482,25.482,0,0,1,202.576,186.344Z" fill="#263238"/>
          </g>
          <g id="Grupo_147108" data-name="Grupo 147108">
            <path id="Trazado_195806" data-name="Trazado 195806" d="M219.543,184.838c.061.131-5.48,2.817-12.373,6s-12.532,5.657-12.592,5.527,5.479-2.816,12.374-6S219.483,184.708,219.543,184.838Z" fill="#263238"/>
          </g>
          <g id="Grupo_147109" data-name="Grupo 147109">
            <path id="Trazado_195807" data-name="Trazado 195807" d="M221.843,190.986c.06.131-5.48,2.817-12.373,6s-12.532,5.657-12.592,5.526,5.478-2.816,12.374-6S221.783,190.855,221.843,190.986Z" fill="#263238"/>
          </g>
          <g id="Grupo_147110" data-name="Grupo 147110">
            <path id="Trazado_195808" data-name="Trazado 195808" d="M224.193,197.108c.061.131-5.48,2.817-12.372,6s-12.533,5.657-12.592,5.526,5.478-2.816,12.373-6S224.133,196.977,224.193,197.108Z" fill="#263238"/>
          </g>
          <g id="Grupo_147111" data-name="Grupo 147111">
            <path id="Trazado_195809" data-name="Trazado 195809" d="M217.585,208.456a13.125,13.125,0,0,1-2.321,1.223c-1.46.695-3.493,1.622-5.75,2.616-3.544,1.56-6.589,2.822-7.736,3.218l-.157.054.034-.149c.086-.364.145-.542.176-.538s.03.193,0,.566l-.123-.1c1.066-.579,4.054-1.973,7.6-3.533,2.257-.994,4.313-1.867,5.812-2.476A13.237,13.237,0,0,1,217.585,208.456Z" fill="#263238"/>
          </g>
        </g>
        <g id="Grupo_147121" data-name="Grupo 147121" transform="translate(-28.009 -27.216)">
          <g id="Grupo_147113" data-name="Grupo 147113">
            <path id="Trazado_195810" data-name="Trazado 195810" d="M375.858,215.029,337.932,198.6h0a31.835,31.835,0,0,0,9.1-12.291l11.074-26.589a15.892,15.892,0,0,1,11.872-9.344h0l35.18,15.235h0a20.6,20.6,0,0,0-8.55,9.62L383.991,204.37a27.865,27.865,0,0,1-8.133,10.659Z" fill="#e8505b"/>
            <path id="Trazado_195811" data-name="Trazado 195811" d="M375.858,215.029,337.932,198.6h0a31.835,31.835,0,0,0,9.1-12.291l11.074-26.589a15.892,15.892,0,0,1,11.872-9.344h0l35.18,15.235h0a20.6,20.6,0,0,0-8.55,9.62L383.991,204.37a27.865,27.865,0,0,1-8.133,10.659Z" fill="#91a8c6"/>
          </g>
          <g id="Grupo_147114" data-name="Grupo 147114">
            <path id="Trazado_195812" data-name="Trazado 195812" d="M389.528,176.633c-.057.132-6.272-2.465-13.879-5.8s-13.729-6.144-13.671-6.276,6.271,2.464,13.88,5.8S389.586,176.5,389.528,176.633Z" fill="#263238"/>
          </g>
          <g id="Grupo_147115" data-name="Grupo 147115">
            <path id="Trazado_195813" data-name="Trazado 195813" d="M387.977,181.857c-.058.132-6.48-2.556-14.344-6s-14.193-6.347-14.135-6.479,6.479,2.556,14.345,6S388.035,181.725,387.977,181.857Z" fill="#263238"/>
          </g>
          <g id="Grupo_147116" data-name="Grupo 147116">
            <path id="Trazado_195814" data-name="Trazado 195814" d="M385.953,186.476c-.058.132-6.481-2.556-14.344-6s-14.193-6.348-14.135-6.479,6.479,2.554,14.344,6S386.01,186.344,385.953,186.476Z" fill="#263238"/>
          </g>
          <g id="Grupo_147117" data-name="Grupo 147117">
            <path id="Trazado_195815" data-name="Trazado 195815" d="M383.928,191.1c-.057.132-6.48-2.556-14.343-6s-14.193-6.348-14.136-6.479,6.479,2.554,14.345,6S383.986,190.963,383.928,191.1Z" fill="#263238"/>
          </g>
          <g id="Grupo_147118" data-name="Grupo 147118">
            <path id="Trazado_195816" data-name="Trazado 195816" d="M381.9,195.714c-.058.132-6.48-2.555-14.343-6s-14.193-6.347-14.136-6.479,6.479,2.556,14.345,6S381.962,195.583,381.9,195.714Z" fill="#263238"/>
          </g>
          <g id="Grupo_147119" data-name="Grupo 147119">
            <path id="Trazado_195817" data-name="Trazado 195817" d="M366.188,194.333a10.771,10.771,0,0,1-2.24-.781c-1.357-.543-3.217-1.326-5.258-2.22s-3.879-1.732-5.2-2.362a10.663,10.663,0,0,1-2.091-1.118,10.851,10.851,0,0,1,2.239.781c1.357.543,3.217,1.326,5.259,2.222s3.878,1.73,5.2,2.36A10.8,10.8,0,0,1,366.188,194.333Z" fill="#263238"/>
          </g>
          <g id="Grupo_147120" data-name="Grupo 147120">
            <path id="Trazado_195818" data-name="Trazado 195818" d="M375.74,204.994c-.046-.018.109-.366.2-1.021a4.236,4.236,0,0,0-.538-2.659,4.027,4.027,0,1,0-2.594,5.922,4.248,4.248,0,0,0,2.319-1.407c.423-.508.574-.857.618-.835a2.262,2.262,0,0,1-.458.959,4.231,4.231,0,0,1-2.392,1.641,4.42,4.42,0,0,1-4.138-1.057,4.474,4.474,0,0,1,3.386-7.727,4.418,4.418,0,0,1,3.582,2.325,4.234,4.234,0,0,1,.415,2.871A2.263,2.263,0,0,1,375.74,204.994Z" fill="#263238"/>
          </g>
          <rect id="Rectángulo_44736" data-name="Rectángulo 44736" width="11.995" height="1.729" transform="translate(364.25 159.375) rotate(23.663)" fill="#263238"/>
        </g>
        <g id="Grupo_147125" data-name="Grupo 147125" transform="translate(78.082 -55)">
          <path id="Trazado_195819" data-name="Trazado 195819" d="M353.907,262.049l-40.943-.958,15.232-20.4h39.953Z" fill="#91a8c6"/>
          <g id="Grupo_147124" data-name="Grupo 147124">
            <g id="Grupo_147122" data-name="Grupo 147122">
              <path id="Trazado_195820" data-name="Trazado 195820" d="M319.042,258.034l32.388.984-4.5-6.614-6.374,2.729-5.039-8.715Z" fill="#12263f"/>
              <path id="Trazado_195821" data-name="Trazado 195821" d="M346.073,246.359a2.1,2.1,0,1,1-2.1-2.1A2.1,2.1,0,0,1,346.073,246.359Z" fill="#12263f"/>
            </g>
            <g id="Grupo_147123" data-name="Grupo 147123" opacity="0.7">
              <path id="Trazado_195822" data-name="Trazado 195822" d="M319.042,258.034l32.388.984-4.5-6.614-6.374,2.729-5.039-8.715Z" fill="#12263f"/>
              <path id="Trazado_195823" data-name="Trazado 195823" d="M346.073,246.359a2.1,2.1,0,1,1-2.1-2.1A2.1,2.1,0,0,1,346.073,246.359Z" fill="#12263f"/>
            </g>
          </g>
        </g>
        <g id="Grupo_147127" data-name="Grupo 147127" transform="translate(-30 -40)">
          <g id="Grupo_147126" data-name="Grupo 147126">
            <path id="Trazado_195824" data-name="Trazado 195824" d="M242.848,142.14l-36.069,16.025-.858-27.482,36.031-17.029Z" fill="#e8505b"/>
            <path id="Trazado_195825" data-name="Trazado 195825" d="M242.848,142.14l-36.069,16.025-.858-27.482,36.031-17.029Z" fill="#91a8c6"/>
          </g>
          <path id="Trazado_195826" data-name="Trazado 195826" d="M208.378,153.327l32.731-15.258-10.638-6.181-4.091,7.2-12.012-5.77Z" fill="#12263f"/>
          <path id="Trazado_195827" data-name="Trazado 195827" d="M226.919,131.889a1.764,1.764,0,1,1-1.764-1.765A1.763,1.763,0,0,1,226.919,131.889Z" fill="#12263f"/>
        </g>
        <g id="Grupo_147130" data-name="Grupo 147130" transform="translate(-30 -40)">
          <g id="Grupo_147128" data-name="Grupo 147128">
            <path id="Trazado_195828" data-name="Trazado 195828" d="M219.786,130.074a23.534,23.534,0,0,0-.489-3.028,12.456,12.456,0,0,0-4.56-6.762,12.275,12.275,0,0,0-11.628-1.725,12.285,12.285,0,0,0-5.684,4.277,12.2,12.2,0,0,0,0,14.475,12.288,12.288,0,0,0,5.685,4.278A12.382,12.382,0,0,0,219.3,133.1a23.538,23.538,0,0,0,.489-3.027,4.513,4.513,0,0,1,.012.8,5.57,5.57,0,0,1-.073.968,8.739,8.739,0,0,1-.231,1.308,12.6,12.6,0,0,1-9.861,9.415,12.723,12.723,0,0,1-6.687-.525,12.73,12.73,0,0,1-5.933-4.427,12.666,12.666,0,0,1,0-15.079,12.728,12.728,0,0,1,5.932-4.426,12.718,12.718,0,0,1,6.686-.525A12.594,12.594,0,0,1,219.494,127a8.739,8.739,0,0,1,.231,1.308,5.581,5.581,0,0,1,.073.969A4.521,4.521,0,0,1,219.786,130.074Z" fill="#263238"/>
          </g>
          <g id="Grupo_147129" data-name="Grupo 147129">
            <path id="Trazado_195829" data-name="Trazado 195829" d="M199.02,139.308c.1.108-3.6,3.54-8.252,7.664s-8.5,7.382-8.6,7.274,3.6-3.538,8.253-7.664S198.925,139.2,199.02,139.308Z" fill="#263238"/>
          </g>
        </g>
      </g>
      <g id="Character" transform="translate(136.686 267.665)">
        <g id="Grupo_147228" data-name="Grupo 147228">
          <path id="Trazado_195830" data-name="Trazado 195830" d="M120.94,187.436c-3.444-1.855-8.6-.718-10.685,2.589a12.182,12.182,0,0,0-1.338,7.749c.269,2.657.94,5.27,1.057,7.938a10.3,10.3,0,0,1-.572,4.247,5.383,5.383,0,0,1-2.861,3.071c-2.054.825-4.616.027-6.445,1.272a3.849,3.849,0,0,0-.572,5.462,4.771,4.771,0,0,0,5.662.954c-1.924,1.792-1.564,5.242.387,7.005a7.258,7.258,0,0,0,7.422.989,14.008,14.008,0,0,0,5.918-5.054,31.562,31.562,0,0,0,5.6-18.49,42.2,42.2,0,0,0-3.941-17.849" fill="#263238"/>
          <g id="Grupo_147133" data-name="Grupo 147133">
            <path id="Trazado_195831" data-name="Trazado 195831" d="M233.252,245.8c-1.155-1.86-9.134,2.584-9.839,2.91-.682.316-1.2-.679-.547-.94.935-.374,10.659-4.548,9.542-6.386-.621-1.018-2.346.265-2.346.265s-8.81,4.577-9.31,3.692,4.577-3.76,6.359-4.6c1.761-.834,2.08-2.011,1.063-2.484-.693-.322-6.212,2.133-7.955,3.008s-6.48,3.361-5.142.236,1.19-6.032.6-6.791a1.064,1.064,0,0,0-1.828.839,12.377,12.377,0,0,1-.727,3.349,8.075,8.075,0,0,1-1.276,2.436c-.656.852-1.246,1.549-1.763,2.129-5.088,1.778-19.6,6.274-33.155,5.037-.491-.045-1.2-1-2.027-2.5l-18.39,5.915q1.035,2.139,2.25,4.57c10.257,20.5,57.814-.766,57.814-.766l-.018-.049a101.645,101.645,0,0,0,10.611-2.709c4.761-1.718,4.613-2.148,4.319-2.667-.793-1.4-8.49,2.705-7.346.863S234.141,247.229,233.252,245.8Z" fill="#eb996e"/>
            <g id="Grupo_147132" data-name="Grupo 147132">
              <path id="Trazado_195832" data-name="Trazado 195832" d="M168.554,254.726l33.292-12.974L222.4,253.873l-36.415,13Z" fill="#263238"/>
              <path id="Trazado_195833" data-name="Trazado 195833" d="M202.792,242.309l3.17-.849a80.028,80.028,0,0,1,16.44,12.413l-.934-.551Z" fill="#fafafa"/>
              <g id="Grupo_147131" data-name="Grupo 147131">
                <path id="Trazado_195834" data-name="Trazado 195834" d="M222.4,253.873a20.208,20.208,0,0,1-2.441-1.856c-1.475-1.182-3.52-2.8-5.828-4.531s-4.449-3.217-6.017-4.27a22.712,22.712,0,0,1-2.512-1.756,14.86,14.86,0,0,1,2.71,1.445c1.626.979,3.811,2.432,6.131,4.164s4.334,3.409,5.753,4.666A15.98,15.98,0,0,1,222.4,253.873Z" fill="#263238"/>
              </g>
            </g>
          </g>
          <g id="Grupo_147165" data-name="Grupo 147165">
            <path id="Trazado_195835" data-name="Trazado 195835" d="M162.669,283.223l-1.454-30.009-.1-1.261,15.834-7.347-5.056-12.387c-5.536-20.9-25.456-21.186-25.456-21.186l-15.187-1.488-6.849,1.488s-12.693,2.191-13.168,20.278a70.69,70.69,0,0,0,6.858,31.9l4.65-2.428a14.766,14.766,0,0,1-2.567,8.253,26.758,26.758,0,0,0-4.092,9.382Z" fill="#1a878e"/>
            <g id="Grupo_147134" data-name="Grupo 147134">
              <path id="Trazado_195836" data-name="Trazado 195836" d="M128.055,227.42c.085-.005.2,1.483.556,3.859a59.473,59.473,0,0,0,5.589,17.827c1.066,2.154,1.819,3.442,1.746,3.486a4.121,4.121,0,0,1-.62-.85c-.376-.562-.875-1.4-1.453-2.467a49.8,49.8,0,0,1-5.627-17.947c-.132-1.2-.2-2.18-.215-2.856A4.062,4.062,0,0,1,128.055,227.42Z" fill="#263238"/>
            </g>
            <g id="Grupo_147135" data-name="Grupo 147135">
              <path id="Trazado_195837" data-name="Trazado 195837" d="M159.1,245.885a8.161,8.161,0,0,0,2.793-2,5.176,5.176,0,0,0,1.223-3.385,4.5,4.5,0,0,0-1.963-3.78,4.209,4.209,0,0,0-3.226-.627l-.252.06-.051-.251c-.488-2.408-.891-4.486-1.157-5.964a13.31,13.31,0,0,1-.339-2.37,13.353,13.353,0,0,1,.643,2.306c.351,1.461.818,3.524,1.34,5.926l-.3-.19a4.65,4.65,0,0,1,3.632.675A4.929,4.929,0,0,1,163.6,240.5a5.437,5.437,0,0,1-1.425,3.626,6.018,6.018,0,0,1-2.143,1.515A2.32,2.32,0,0,1,159.1,245.885Z" fill="#263238"/>
            </g>
            <g id="Grupo_147136" data-name="Grupo 147136">
              <path id="Trazado_195838" data-name="Trazado 195838" d="M161.655,258.3a33.672,33.672,0,0,1-.8-6.337c-.273-3.506-.714-6.319-.571-6.349a24.1,24.1,0,0,1,1.091,6.3A47.7,47.7,0,0,1,161.655,258.3Z" fill="#263238"/>
            </g>
            <g id="Grupo_147137" data-name="Grupo 147137">
              <path id="Trazado_195839" data-name="Trazado 195839" d="M177.051,244.732a11.833,11.833,0,0,1-2.213,1.3c-1.4.735-3.363,1.7-5.563,2.69s-4.224,1.822-5.7,2.384a11.843,11.843,0,0,1-2.437.8,13.13,13.13,0,0,1,2.3-1.137l5.629-2.519,5.616-2.546A13.4,13.4,0,0,1,177.051,244.732Z" fill="#263238"/>
            </g>
            <g id="Grupo_147163" data-name="Grupo 147163">
              <g id="Grupo_147138" data-name="Grupo 147138">
                <path id="Trazado_195840" data-name="Trazado 195840" d="M117.828,230.48a14.98,14.98,0,0,1,.446-5.548,15.033,15.033,0,0,1-.446,5.548Z" fill="#fafafa"/>
              </g>
              <g id="Grupo_147139" data-name="Grupo 147139">
                <path id="Trazado_195841" data-name="Trazado 195841" d="M119.322,236.679a5.288,5.288,0,0,1-2.221-.615c-1.174-.473-2.081-.964-2.028-1.1a5.241,5.241,0,0,1,2.222.614C118.468,236.054,119.376,236.545,119.322,236.679Z" fill="#fafafa"/>
              </g>
              <g id="Grupo_147140" data-name="Grupo 147140">
                <path id="Trazado_195842" data-name="Trazado 195842" d="M124.877,233.715c-.139.015-.335-.912-.209-2.059s.511-2.01.643-1.967-.011.932-.126,2.023S125.024,233.7,124.877,233.715Z" fill="#fafafa"/>
              </g>
              <g id="Grupo_147141" data-name="Grupo 147141">
                <path id="Trazado_195843" data-name="Trazado 195843" d="M123.975,244.049a3.286,3.286,0,0,1,.391-2.336c.555-1.225,1.421-1.927,1.511-1.824.11.1-.527.91-1.037,2.041A16.941,16.941,0,0,1,123.975,244.049Z" fill="#fafafa"/>
              </g>
              <g id="Grupo_147142" data-name="Grupo 147142">
                <path id="Trazado_195844" data-name="Trazado 195844" d="M122.024,249.741a10.51,10.51,0,0,1-2.218-1.256,10.489,10.489,0,0,1-2.16-1.353,4.752,4.752,0,0,1,2.427.906C121.313,248.774,122.117,249.639,122.024,249.741Z" fill="#fafafa"/>
              </g>
              <g id="Grupo_147143" data-name="Grupo 147143">
                <path id="Trazado_195845" data-name="Trazado 195845" d="M130.435,248.573a74.87,74.87,0,0,1-1.765,5.02,7.7,7.7,0,0,1,1.765-5.02Z" fill="#fafafa"/>
              </g>
              <g id="Grupo_147144" data-name="Grupo 147144">
                <path id="Trazado_195846" data-name="Trazado 195846" d="M122.022,256.092a4.411,4.411,0,0,1-2.074-.331c-1.106-.322-1.969-.694-1.929-.831a4.382,4.382,0,0,1,2.074.331C121.2,255.581,122.063,255.954,122.022,256.092Z" fill="#fafafa"/>
              </g>
              <g id="Grupo_147145" data-name="Grupo 147145">
                <path id="Trazado_195847" data-name="Trazado 195847" d="M129.276,220.179a12.82,12.82,0,0,1-4.67,2.151,12.776,12.776,0,0,1,4.67-2.151Z" fill="#fafafa"/>
              </g>
              <g id="Grupo_147146" data-name="Grupo 147146">
                <path id="Trazado_195848" data-name="Trazado 195848" d="M123.083,213.2a12.324,12.324,0,0,1-1.61,2.2,12.314,12.314,0,0,1-1.687,2.144,5.36,5.36,0,0,1,1.272-2.459C121.987,213.855,122.992,213.094,123.083,213.2Z" fill="#fafafa"/>
              </g>
              <g id="Grupo_147147" data-name="Grupo 147147">
                <path id="Trazado_195849" data-name="Trazado 195849" d="M139.088,229.056a8.654,8.654,0,0,1-4.191-3.824,13.633,13.633,0,0,1,2.124,1.881C138.163,228.16,139.168,228.93,139.088,229.056Z" fill="#fafafa"/>
              </g>
              <g id="Grupo_147148" data-name="Grupo 147148">
                <path id="Trazado_195850" data-name="Trazado 195850" d="M148.637,219.506a46.434,46.434,0,0,1-3.363,4.777,10.157,10.157,0,0,1,3.363-4.777Z" fill="#fafafa"/>
              </g>
              <g id="Grupo_147149" data-name="Grupo 147149">
                <path id="Trazado_195851" data-name="Trazado 195851" d="M142.568,237.461a11.667,11.667,0,0,1-4.908,0,11.711,11.711,0,0,1,4.908,0Z" fill="#fafafa"/>
              </g>
              <g id="Grupo_147150" data-name="Grupo 147150">
                <path id="Trazado_195852" data-name="Trazado 195852" d="M151.6,233.976a7.361,7.361,0,0,1-.4-5.43,14.627,14.627,0,0,1,.2,2.715A14.642,14.642,0,0,1,151.6,233.976Z" fill="#fafafa"/>
              </g>
              <g id="Grupo_147151" data-name="Grupo 147151">
                <path id="Trazado_195853" data-name="Trazado 195853" d="M153.941,245.716a14.851,14.851,0,0,1-4.894-2.61,14.923,14.923,0,0,1,4.894,2.61Z" fill="#fafafa"/>
              </g>
              <g id="Grupo_147152" data-name="Grupo 147152">
                <path id="Trazado_195854" data-name="Trazado 195854" d="M160.384,239.77c.069.126-.512.574-1.3,1s-1.478.668-1.547.542.513-.574,1.3-1S160.315,239.644,160.384,239.77Z" fill="#fafafa"/>
              </g>
              <g id="Grupo_147153" data-name="Grupo 147153">
                <path id="Trazado_195855" data-name="Trazado 195855" d="M140.1,250.763a8.764,8.764,0,0,1,2.344-5.547,18.76,18.76,0,0,1-1.184,2.768A18.52,18.52,0,0,1,140.1,250.763Z" fill="#fafafa"/>
              </g>
              <g id="Grupo_147154" data-name="Grupo 147154">
                <path id="Trazado_195856" data-name="Trazado 195856" d="M150.7,255.8a10.491,10.491,0,0,1-2.176-6.575,31.3,31.3,0,0,1,1.024,3.309A31.444,31.444,0,0,1,150.7,255.8Z" fill="#fafafa"/>
              </g>
              <g id="Grupo_147155" data-name="Grupo 147155">
                <path id="Trazado_195857" data-name="Trazado 195857" d="M158.081,252.2c.116.095-.26.723-.559,1.547s-.431,1.542-.58,1.539-.25-.8.092-1.72S157.979,252.1,158.081,252.2Z" fill="#fafafa"/>
              </g>
              <g id="Grupo_147156" data-name="Grupo 147156">
                <path id="Trazado_195858" data-name="Trazado 195858" d="M169.058,243.433A11.867,11.867,0,0,1,164.4,245.1a11.867,11.867,0,0,1,4.654-1.668Z" fill="#fafafa"/>
              </g>
              <g id="Grupo_147157" data-name="Grupo 147157">
                <path id="Trazado_195859" data-name="Trazado 195859" d="M168.554,236.946a6.634,6.634,0,0,1,1.48-4.935,13.174,13.174,0,0,1-.74,2.468A13.167,13.167,0,0,1,168.554,236.946Z" fill="#fafafa"/>
              </g>
              <g id="Grupo_147158" data-name="Grupo 147158">
                <path id="Trazado_195860" data-name="Trazado 195860" d="M165.441,231.521a6.888,6.888,0,0,1-5.3-.667,15.036,15.036,0,0,1,2.647.351A15.261,15.261,0,0,1,165.441,231.521Z" fill="#fafafa"/>
              </g>
              <g id="Grupo_147159" data-name="Grupo 147159">
                <path id="Trazado_195861" data-name="Trazado 195861" d="M161.823,225.067a4.2,4.2,0,0,1,1.306-2.1c.944-1.008,1.939-1.548,2.015-1.432s-.735.826-1.636,1.789S161.95,225.145,161.823,225.067Z" fill="#fafafa"/>
              </g>
              <g id="Grupo_147160" data-name="Grupo 147160">
                <path id="Trazado_195862" data-name="Trazado 195862" d="M155.059,220.292a11.032,11.032,0,0,1-1.073-4.642,11.041,11.041,0,0,1,1.073,4.642Z" fill="#fafafa"/>
              </g>
              <g id="Grupo_147161" data-name="Grupo 147161">
                <path id="Trazado_195863" data-name="Trazado 195863" d="M122.025,270.519c.09.113-.272.55-.807.977s-1.042.684-1.132.571.272-.55.808-.977S121.936,270.406,122.025,270.519Z" fill="#fafafa"/>
              </g>
              <g id="Grupo_147162" data-name="Grupo 147162">
                <path id="Trazado_195864" data-name="Trazado 195864" d="M160.392,276.5a17.868,17.868,0,0,1-6.071-.272,17.868,17.868,0,0,1,6.071.272Z" fill="#fafafa"/>
              </g>
            </g>
            <g id="Grupo_147164" data-name="Grupo 147164">
              <path id="Trazado_195865" data-name="Trazado 195865" d="M136.206,252.3c.073.125-4.028,2.664-9.158,5.673s-9.349,5.347-9.422,5.223,4.027-2.663,9.159-5.673S136.133,252.18,136.206,252.3Z" fill="#263238"/>
            </g>
          </g>
          <path id="Trazado_195866" data-name="Trazado 195866" d="M116.674,276.276c-.48.025-5.784,15.64-.716,26.015.51,1.044,2.279,3.375,4.489,6.768,10.5,16.112,37.126,52.2,37.919,57.742.959,6.715,18.152,77.009,18.152,77.009H190.56l-11.772-80.194-17.533-76.064Z" fill="#ffbe9d"/>
          <path id="Trazado_195867" data-name="Trazado 195867" d="M161.78,382.411a9.1,9.1,0,0,0,2.928-7.205c-.118-4.816-2.935-16.32-2.935-16.32l-4.517,2.767s3.553,9.439,3.727,12.4c.2,3.307-.424,4.388-.424,4.388Z" fill="#eb996e"/>
          <path id="Trazado_195868" data-name="Trazado 195868" d="M125.254,315.333l14.808,55.041L93.789,418.443l9.733,11.577s56.838-46.6,57.87-53.3c1.177-7.654-12.683-62.036-12.683-62.036Z" fill="#ffbe9d"/>
          <g id="Grupo_147180" data-name="Grupo 147180">
            <g id="Grupo_147167" data-name="Grupo 147167">
              <g id="Grupo_147166" data-name="Grupo 147166">
                <path id="Trazado_195869" data-name="Trazado 195869" d="M106.246,428.583h0L95.861,416.291l-2.743,2.594,3.509,4.764c2.419,3.185,10.756,13.734,13.1,15.242C112.346,440.572,106.246,428.583,106.246,428.583Z" fill="#e8505b"/>
              </g>
            </g>
            <g id="Grupo_147170" data-name="Grupo 147170">
              <g id="Grupo_147169" data-name="Grupo 147169">
                <g id="Grupo_147168" data-name="Grupo 147168">
                  <path id="Trazado_195870" data-name="Trazado 195870" d="M110.488,438.688c.1-.088-3.667-4.632-8.421-10.145s-8.693-9.91-8.8-9.821,3.667,4.63,8.422,10.144S110.385,438.777,110.488,438.688Z" fill="#263238"/>
                </g>
              </g>
            </g>
            <g id="Grupo_147173" data-name="Grupo 147173">
              <g id="Grupo_147172" data-name="Grupo 147172">
                <g id="Grupo_147171" data-name="Grupo 147171">
                  <path id="Trazado_195871" data-name="Trazado 195871" d="M95.886,421.923c.066.015.2-.25.34-.7a5.067,5.067,0,0,0,.236-1.878,2.921,2.921,0,0,0-.752-1.781c-.359-.365-.68-.44-.7-.386s.193.242.434.608a3.46,3.46,0,0,1,.53,1.6,9.149,9.149,0,0,1-.086,1.764C95.831,421.609,95.818,421.908,95.886,421.923Z" fill="#263238"/>
                </g>
              </g>
            </g>
            <g id="Grupo_147174" data-name="Grupo 147174">
              <path id="Trazado_195872" data-name="Trazado 195872" d="M106.7,429.541c-.032.144-.53.155-1.123.145s-1.091-.044-1.117-.188.475-.351,1.127-.337S106.728,429.4,106.7,429.541Z" fill="#263238"/>
            </g>
            <g id="Grupo_147175" data-name="Grupo 147175">
              <path id="Trazado_195873" data-name="Trazado 195873" d="M107.288,430.692c-.017.145-.5.25-1.075.235s-1.052-.148-1.061-.292.472-.25,1.075-.234S107.3,430.549,107.288,430.692Z" fill="#263238"/>
            </g>
            <g id="Grupo_147176" data-name="Grupo 147176">
              <path id="Trazado_195874" data-name="Trazado 195874" d="M107.749,431.71c0,.146-.365.274-.816.345s-.843.057-.883-.083.314-.362.8-.437S107.746,431.566,107.749,431.71Z" fill="#263238"/>
            </g>
            <g id="Grupo_147177" data-name="Grupo 147177">
              <path id="Trazado_195875" data-name="Trazado 195875" d="M106.586,429.642a3.723,3.723,0,0,1,.736-1.5,5.128,5.128,0,0,1,1.295-1.323,3.756,3.756,0,0,1,1.007-.5,2.115,2.115,0,0,1,.624-.114.945.945,0,0,1,.712.294.972.972,0,0,1-.239,1.363,6.138,6.138,0,0,1-.933.6,10.015,10.015,0,0,1-1.675.707,4.088,4.088,0,0,1-1.633.326,7.347,7.347,0,0,1,1.5-.674,13.77,13.77,0,0,0,1.568-.781,6.658,6.658,0,0,0,.83-.56c.239-.188.312-.5.187-.626-.134-.162-.465-.143-.794-.038a3.512,3.512,0,0,0-.89.41,5.489,5.489,0,0,0-1.266,1.143C106.989,429.138,106.657,429.684,106.586,429.642Z" fill="#263238"/>
            </g>
            <g id="Grupo_147178" data-name="Grupo 147178">
              <path id="Trazado_195876" data-name="Trazado 195876" d="M106.7,429.354a3.744,3.744,0,0,1,1.645-.4,7.02,7.02,0,0,1,1.859.061,5.146,5.146,0,0,1,1.077.308,2.269,2.269,0,0,1,.556.306.884.884,0,0,1,.261.308.588.588,0,0,1,.006.505,1.546,1.546,0,0,1-1.172.68,3.365,3.365,0,0,1-1.147-.03,7.591,7.591,0,0,1-1.759-.611c-.971-.461-1.366-1.056-1.3-1.093a11.432,11.432,0,0,0,1.45.752,9.105,9.105,0,0,0,1.691.474,3.052,3.052,0,0,0,.982,0,1.2,1.2,0,0,0,.778-.389c.1-.029-.225-.319-.546-.428a5.094,5.094,0,0,0-.969-.306,8.038,8.038,0,0,0-1.748-.165A9.766,9.766,0,0,1,106.7,429.354Z" fill="#263238"/>
            </g>
            <g id="Grupo_147179" data-name="Grupo 147179">
              <path id="Trazado_195877" data-name="Trazado 195877" d="M106.049,428.328c-.135.11-2.677-2.395-5.473-5.741s-4.849-6.2-4.708-6.294,2.435,2.59,5.226,5.922S106.186,428.216,106.049,428.328Z" fill="#263238"/>
            </g>
          </g>
          <g id="Grupo_147195" data-name="Grupo 147195">
            <g id="Grupo_147182" data-name="Grupo 147182">
              <g id="Grupo_147181" data-name="Grupo 147181">
                <path id="Trazado_195878" data-name="Trazado 195878" d="M191.059,443.8h0l-14.737-.162.17,4.624.961.023c4.28.067,21.76.063,24.582-.85C205.18,446.424,191.059,443.8,191.059,443.8Z" fill="#e8505b"/>
              </g>
            </g>
            <g id="Grupo_147185" data-name="Grupo 147185">
              <g id="Grupo_147184" data-name="Grupo 147184">
                <g id="Grupo_147183" data-name="Grupo 147183">
                  <path id="Trazado_195879" data-name="Trazado 195879" d="M202.367,446.719c-.007-.137-5.8-.005-12.934.3s-12.917.654-12.911.791,5.8,0,12.935-.3S202.373,446.854,202.367,446.719Z" fill="#263238"/>
                </g>
              </g>
            </g>
            <g id="Grupo_147188" data-name="Grupo 147188">
              <g id="Grupo_147187" data-name="Grupo 147187">
                <g id="Grupo_147186" data-name="Grupo 147186">
                  <path id="Trazado_195880" data-name="Trazado 195880" d="M181.179,447.557c.057-.042-.08-.31-.368-.7a5.241,5.241,0,0,0-1.422-1.347,3.294,3.294,0,0,0-2-.51c-.546.057-.821.262-.792.314.029.072.331,0,.8.036a3.858,3.858,0,0,1,1.7.573,9.725,9.725,0,0,1,1.427,1.158C180.879,447.406,181.122,447.6,181.179,447.557Z" fill="#263238"/>
                </g>
              </g>
            </g>
            <g id="Grupo_147189" data-name="Grupo 147189">
              <path id="Trazado_195881" data-name="Trazado 195881" d="M192.163,444.043c.1.114-.221.512-.621.973s-.759.83-.9.76.019-.591.462-1.094S192.067,443.932,192.163,444.043Z" fill="#263238"/>
            </g>
            <g id="Grupo_147190" data-name="Grupo 147190">
              <path id="Trazado_195882" data-name="Trazado 195882" d="M193.523,444.29c.11.1-.12.545-.515.989s-.82.736-.947.653.1-.526.515-.99S193.413,444.188,193.523,444.29Z" fill="#263238"/>
            </g>
            <g id="Grupo_147191" data-name="Grupo 147191">
              <path id="Trazado_195883" data-name="Trazado 195883" d="M194.684,444.557c.126.087-.01.456-.25.854s-.509.7-.654.643-.1-.471.164-.9S194.561,444.47,194.684,444.557Z" fill="#263238"/>
            </g>
            <g id="Grupo_147192" data-name="Grupo 147192">
              <path id="Trazado_195884" data-name="Trazado 195884" d="M192.174,444.191a3.646,3.646,0,0,1-.774-1.506,4.8,4.8,0,0,1-.255-1.835,3.522,3.522,0,0,1,.248-1.1,2.1,2.1,0,0,1,.317-.561,1.036,1.036,0,0,1,.718-.379,1,1,0,0,1,.989,1.032,5.718,5.718,0,0,1-.117,1.1,9.6,9.6,0,0,1-.514,1.755,4.067,4.067,0,0,1-.806,1.485,6.779,6.779,0,0,1,.427-1.6,13.006,13.006,0,0,0,.381-1.716,6.25,6.25,0,0,0,.078-1c0-.3-.212-.554-.4-.535-.226.007-.429.277-.558.6a3.351,3.351,0,0,0-.245.952,5.121,5.121,0,0,0,.125,1.7A8.482,8.482,0,0,1,192.174,444.191Z" fill="#263238"/>
            </g>
            <g id="Grupo_147193" data-name="Grupo 147193">
              <path id="Trazado_195885" data-name="Trazado 195885" d="M192,443.927a3.633,3.633,0,0,1,.755-1.538,7.062,7.062,0,0,1,1.283-1.424,5.458,5.458,0,0,1,.971-.656,2.579,2.579,0,0,1,.625-.249,1.021,1.021,0,0,1,.432-.013.624.624,0,0,1,.429.307,1.462,1.462,0,0,1-.2,1.341,3.394,3.394,0,0,1-.784.883,8.249,8.249,0,0,1-1.678,1.005,2.594,2.594,0,0,1-1.781.346,12.759,12.759,0,0,0,1.593-.674,9.813,9.813,0,0,0,1.517-1.035,3.108,3.108,0,0,0,.651-.773A1.129,1.129,0,0,0,196,440.6c.039-.094-.416-.022-.721.164a5.543,5.543,0,0,0-.9.572,8.35,8.35,0,0,0-1.3,1.272C192.424,443.407,192.081,443.965,192,443.927Z" fill="#263238"/>
            </g>
            <g id="Grupo_147194" data-name="Grupo 147194">
              <path id="Trazado_195886" data-name="Trazado 195886" d="M190.715,443.8a36.938,36.938,0,0,1-7.084.373,41.464,41.464,0,0,1-7.081-.4,56.943,56.943,0,0,1,7.084-.122A69.206,69.206,0,0,1,190.715,443.8Z" fill="#263238"/>
            </g>
          </g>
          <g id="Grupo_147208" data-name="Grupo 147208">
            <path id="Trazado_195887" data-name="Trazado 195887" d="M146.978,210.478c-.068-3.146-.106-5.954-.106-5.954s6.166-.651,6.541-6.767,0-20.218,0-20.218l-11.232-5.491-12.355,9.36.72,29.454a8.218,8.218,0,0,0,8.216,8.017h0A8.219,8.219,0,0,0,146.978,210.478Z" fill="#ffbe9d"/>
            <path id="Trazado_195888" data-name="Trazado 195888" d="M130.672,186.124s10.086-.95,11.87-10.1l10.945,10.1a11.805,11.805,0,0,0-2.742-13.078c-6.063-6.3-10.225-4.992-12.6-4.992-2.218,0-13.427,2.377-16.764,15.13-.241.925-.441,3.214-.594,4.252Z" fill="#263238"/>
            <g id="Grupo_147197" data-name="Grupo 147197">
              <path id="Trazado_195889" data-name="Trazado 195889" d="M152.093,187.819a.783.783,0,1,1-.783-.783A.783.783,0,0,1,152.093,187.819Z" fill="#263238"/>
              <g id="Grupo_147196" data-name="Grupo 147196">
                <path id="Trazado_195890" data-name="Trazado 195890" d="M152.851,186.965c-.1.1-.68-.39-1.522-.436s-1.475.361-1.563.248c-.043-.05.061-.236.338-.427a2.081,2.081,0,0,1,2.463.151C152.818,186.723,152.9,186.92,152.851,186.965Z" fill="#263238"/>
              </g>
            </g>
            <g id="Grupo_147199" data-name="Grupo 147199">
              <path id="Trazado_195891" data-name="Trazado 195891" d="M143.022,187.819a.783.783,0,1,1-.782-.783A.783.783,0,0,1,143.022,187.819Z" fill="#263238"/>
              <g id="Grupo_147198" data-name="Grupo 147198">
                <path id="Trazado_195892" data-name="Trazado 195892" d="M143.509,186.965c-.1.1-.679-.39-1.521-.436s-1.476.361-1.564.248c-.043-.05.062-.236.339-.427a2.079,2.079,0,0,1,2.462.151C143.476,186.723,143.559,186.92,143.509,186.965Z" fill="#263238"/>
              </g>
            </g>
            <g id="Grupo_147200" data-name="Grupo 147200">
              <path id="Trazado_195893" data-name="Trazado 195893" d="M146.549,194.083a5.727,5.727,0,0,1,1.379-.172c.214-.012.426-.042.471-.2a1.2,1.2,0,0,0-.12-.68q-.273-.829-.577-1.747c-.4-1.242-.746-2.373-.978-3.2a5.546,5.546,0,0,1-.311-1.354,5.727,5.727,0,0,1,.539,1.282c.292.8.672,1.922,1.073,3.165l.552,1.755a1.356,1.356,0,0,1,.084.88.522.522,0,0,1-.359.3,1.4,1.4,0,0,1-.365.033A5.662,5.662,0,0,1,146.549,194.083Z" fill="#263238"/>
            </g>
            <path id="Trazado_195894" data-name="Trazado 195894" d="M143.766,194.881a35.629,35.629,0,0,0,4.074,1.4,2.332,2.332,0,0,1-2.794.793C143.248,196.316,143.766,194.881,143.766,194.881Z" fill="#fafafa"/>
            <path id="Trazado_195895" data-name="Trazado 195895" d="M146.878,204.524a15.265,15.265,0,0,1-8.1-2.735s1.97,4.5,8.1,4.247Z" fill="#eb996e"/>
            <path id="Trazado_195896" data-name="Trazado 195896" d="M142.24,175.286s2.24,4.33,1.283,7.59l9.8,2.531S155.563,172.979,142.24,175.286Z" fill="#263238"/>
            <path id="Trazado_195897" data-name="Trazado 195897" d="M120.785,187.436s-1.73,13.13,10.177,15.675l-.29-16.987Z" fill="#263238"/>
            <g id="Grupo_147201" data-name="Grupo 147201">
              <path id="Trazado_195898" data-name="Trazado 195898" d="M143.11,171.288a6.937,6.937,0,0,1,3.017.359,13.533,13.533,0,0,1,9.621,10.335,6.937,6.937,0,0,1,.143,3.035c-.116,0-.135-1.155-.61-2.924a14.347,14.347,0,0,0-9.3-9.988C144.253,171.505,143.1,171.4,143.11,171.288Z" fill="#263238"/>
            </g>
            <g id="Grupo_147202" data-name="Grupo 147202">
              <path id="Trazado_195899" data-name="Trazado 195899" d="M146.026,187.436c-.039,0-.019-.428-.215-1.155a4.768,4.768,0,0,0-1.75-2.559,4.659,4.659,0,0,0-4.407-.64,4.586,4.586,0,0,0-2.146,1.619,4.611,4.611,0,0,0,0,5.468,4.577,4.577,0,0,0,2.146,1.62,4.657,4.657,0,0,0,4.407-.64,4.775,4.775,0,0,0,1.75-2.559c.2-.727.176-1.157.215-1.154a1.029,1.029,0,0,1,.019.307,3.844,3.844,0,0,1-.1.879,4.777,4.777,0,0,1-1.734,2.719,4.841,4.841,0,0,1-2.062.94,4.93,4.93,0,0,1-2.6-.2,4.88,4.88,0,0,1-2.307-1.717,4.919,4.919,0,0,1,0-5.863,4.9,4.9,0,0,1,6.966-.974,4.78,4.78,0,0,1,1.734,2.719,3.845,3.845,0,0,1,.1.879A1.034,1.034,0,0,1,146.026,187.436Z" fill="#263238"/>
            </g>
            <g id="Grupo_147203" data-name="Grupo 147203">
              <path id="Trazado_195900" data-name="Trazado 195900" d="M157.073,187.436c-.039,0-.019-.428-.214-1.155a4.768,4.768,0,0,0-1.752-2.559,4.637,4.637,0,0,0-1.967-.856,4.687,4.687,0,0,0-2.439.216,4.591,4.591,0,0,0-2.146,1.619,4.615,4.615,0,0,0,0,5.468,4.587,4.587,0,0,0,2.146,1.62,4.687,4.687,0,0,0,2.439.216,4.637,4.637,0,0,0,1.967-.856,4.769,4.769,0,0,0,1.752-2.559c.2-.727.175-1.157.214-1.154a1.028,1.028,0,0,1,.019.307,3.889,3.889,0,0,1-.1.879,4.775,4.775,0,0,1-1.735,2.719,4.83,4.83,0,0,1-2.062.94,4.927,4.927,0,0,1-2.6-.2,4.877,4.877,0,0,1-2.308-1.717,4.923,4.923,0,0,1,0-5.863,4.9,4.9,0,0,1,6.966-.974,4.772,4.772,0,0,1,1.735,2.719,3.89,3.89,0,0,1,.1.879A1.033,1.033,0,0,1,157.073,187.436Z" fill="#263238"/>
            </g>
            <g id="Grupo_147204" data-name="Grupo 147204">
              <path id="Trazado_195901" data-name="Trazado 195901" d="M147.489,187.586c0,.094-.394.17-.879.17s-.878-.076-.878-.17.393-.169.878-.169S147.489,187.492,147.489,187.586Z" fill="#263238"/>
            </g>
            <g id="Grupo_147205" data-name="Grupo 147205">
              <path id="Trazado_195902" data-name="Trazado 195902" d="M136.606,188.437a27.582,27.582,0,0,1-4.212,1,27.442,27.442,0,0,1-4.278.672,27.656,27.656,0,0,1,4.213-1A27.728,27.728,0,0,1,136.606,188.437Z" fill="#263238"/>
            </g>
            <g id="Grupo_147207" data-name="Grupo 147207">
              <path id="Trazado_195903" data-name="Trazado 195903" d="M130.032,195.641a2.549,2.549,0,0,1-3.2-.435,3.745,3.745,0,0,1-.818-3.284,2.852,2.852,0,0,1,1.029-1.8,2.945,2.945,0,0,1,2.749.171Z" fill="#ffbe9d"/>
              <g id="Grupo_147206" data-name="Grupo 147206">
                <path id="Trazado_195904" data-name="Trazado 195904" d="M128.627,194.654c.007-.08-.3-.13-.665-.4a1.59,1.59,0,0,1,.255-2.748c.406-.2.719-.189.727-.269.017-.059-.311-.218-.854-.081a1.845,1.845,0,0,0-.317,3.418C128.281,194.812,128.633,194.716,128.627,194.654Z" fill="#eb996e"/>
              </g>
            </g>
          </g>
          <g id="Grupo_147226" data-name="Grupo 147226">
            <g id="Grupo_147209" data-name="Grupo 147209">
              <path id="Trazado_195905" data-name="Trazado 195905" d="M117.82,273.192s-10.734,11.143-8.515,34.967S114.413,364,114.413,364s13.8-12.447,20.806-7.133,14.035,9.668,23.151,3.9c12.475-7.9,26.164-2.672,26.164-2.672L162.526,279.2Z" fill="#263238"/>
            </g>
            <g id="Grupo_147225" data-name="Grupo 147225">
              <g id="Grupo_147210" data-name="Grupo 147210">
                <path id="Trazado_195906" data-name="Trazado 195906" d="M131.755,276.022a5.309,5.309,0,0,1-.442,2.357,9.869,9.869,0,0,1-8.936,6.516,5.353,5.353,0,0,1-2.379-.3c.013-.09.916.071,2.354-.068a10.314,10.314,0,0,0,8.619-6.284C131.543,276.916,131.667,276.007,131.755,276.022Z" fill="#455a64"/>
              </g>
              <g id="Grupo_147220" data-name="Grupo 147220">
                <g id="Grupo_147211" data-name="Grupo 147211">
                  <path id="Trazado_195907" data-name="Trazado 195907" d="M122.177,276.328c-.137-.044-.066-.611.159-1.267s.515-1.146.651-1.1.064.616-.158,1.265S122.314,276.371,122.177,276.328Z" fill="#455a64"/>
                </g>
                <g id="Grupo_147212" data-name="Grupo 147212">
                  <path id="Trazado_195908" data-name="Trazado 195908" d="M119.809,285.742A11.457,11.457,0,0,1,120.841,281a5.906,5.906,0,0,1-.261,2.428A5.966,5.966,0,0,1,119.809,285.742Z" fill="#455a64"/>
                </g>
                <g id="Grupo_147213" data-name="Grupo 147213">
                  <path id="Trazado_195909" data-name="Trazado 195909" d="M118.582,295.373a11.481,11.481,0,0,1,.479-4.833,11.438,11.438,0,0,1-.479,4.833Z" fill="#455a64"/>
                </g>
                <g id="Grupo_147214" data-name="Grupo 147214">
                  <path id="Trazado_195910" data-name="Trazado 195910" d="M118.343,305.079a11.433,11.433,0,0,1,.006-4.858,11.476,11.476,0,0,1-.006,4.858Z" fill="#455a64"/>
                </g>
                <g id="Grupo_147215" data-name="Grupo 147215">
                  <path id="Trazado_195911" data-name="Trazado 195911" d="M118.944,314.776a5.781,5.781,0,0,1-.459-2.4,5.886,5.886,0,0,1,.062-2.442,5.92,5.92,0,0,1,.457,2.4A5.989,5.989,0,0,1,118.944,314.776Z" fill="#455a64"/>
                </g>
                <g id="Grupo_147216" data-name="Grupo 147216">
                  <path id="Trazado_195912" data-name="Trazado 195912" d="M120.166,324.415a11.44,11.44,0,0,1-.677-4.812,11.483,11.483,0,0,1,.677,4.812Z" fill="#455a64"/>
                </g>
                <g id="Grupo_147217" data-name="Grupo 147217">
                  <path id="Trazado_195913" data-name="Trazado 195913" d="M121.935,333.962a11.466,11.466,0,0,1-.952-4.762,11.466,11.466,0,0,1,.952,4.762Z" fill="#455a64"/>
                </g>
                <g id="Grupo_147218" data-name="Grupo 147218">
                  <path id="Trazado_195914" data-name="Trazado 195914" d="M124.14,343.415A11.459,11.459,0,0,1,123,338.7a11.417,11.417,0,0,1,1.141,4.716Z" fill="#455a64"/>
                </g>
                <g id="Grupo_147219" data-name="Grupo 147219">
                  <path id="Trazado_195915" data-name="Trazado 195915" d="M125.939,350.554c-.139.035-.39-.48-.56-1.15s-.195-1.243-.056-1.278.39.479.561,1.149S126.079,350.519,125.939,350.554Z" fill="#455a64"/>
                </g>
              </g>
              <g id="Grupo_147221" data-name="Grupo 147221">
                <path id="Trazado_195916" data-name="Trazado 195916" d="M150.809,298.023a18.117,18.117,0,0,1-.4-2.994c-.188-1.854-.434-4.417-.638-7.256s-.3-5.418-.295-7.285a15.487,15.487,0,0,1,.143-3.02,19.727,19.727,0,0,1,.225,3.011c.093,1.859.243,4.424.447,7.258s.391,5.4.485,7.264A16.654,16.654,0,0,1,150.809,298.023Z" fill="#455a64"/>
              </g>
              <g id="Grupo_147222" data-name="Grupo 147222">
                <path id="Trazado_195917" data-name="Trazado 195917" d="M152.471,277.934a18.459,18.459,0,0,1,.353,3.091c.151,1.914.324,4.56.484,7.483.071,1.453.14,2.838.2,4.124a8.136,8.136,0,0,1-.367,3.41,3.432,3.432,0,0,1-1.51,1.768c-.5.254-.824.239-.825.212-.011-.043.289-.1.721-.385a3.461,3.461,0,0,0,1.269-1.725,8.292,8.292,0,0,0,.233-3.255c-.076-1.285-.159-2.669-.244-4.121-.16-2.923-.275-5.572-.332-7.49A18.426,18.426,0,0,1,152.471,277.934Z" fill="#455a64"/>
              </g>
              <g id="Grupo_147223" data-name="Grupo 147223">
                <path id="Trazado_195918" data-name="Trazado 195918" d="M164.883,287.6a3.734,3.734,0,0,1-1.72-.418,8.995,8.995,0,0,1-5.216-6.473,3.733,3.733,0,0,1-.043-1.77,15.1,15.1,0,0,1,.4,1.688,10.048,10.048,0,0,0,5.014,6.222A15.235,15.235,0,0,1,164.883,287.6Z" fill="#455a64"/>
              </g>
              <g id="Grupo_147224" data-name="Grupo 147224">
                <path id="Trazado_195919" data-name="Trazado 195919" d="M184.172,352.788a4.173,4.173,0,0,1-.755-.089l-2.149-.329a64.694,64.694,0,0,0-7.947-.689,38.283,38.283,0,0,0-11.657,1.474c-2.132.612-4.231,1.632-6.509,2.535a17.4,17.4,0,0,1-3.612,1.027,9.253,9.253,0,0,1-3.89-.194c-2.571-.716-4.64-2.275-6.742-3.429a21.694,21.694,0,0,0-6.495-2.318,24.111,24.111,0,0,0-6.253-.313,26.607,26.607,0,0,0-5.361,1.083,23.452,23.452,0,0,0-6.992,3.693,17.816,17.816,0,0,0-1.649,1.4,4.246,4.246,0,0,1-.579.492,4.143,4.143,0,0,1,.5-.567,14.356,14.356,0,0,1,1.6-1.488,22.587,22.587,0,0,1,7-3.885,26.488,26.488,0,0,1,5.438-1.163,24.221,24.221,0,0,1,6.378.271,21.987,21.987,0,0,1,6.656,2.343c2.14,1.174,4.192,2.7,6.63,3.374,2.443.705,4.96.051,7.184-.807,2.24-.88,4.381-1.907,6.554-2.519a37.775,37.775,0,0,1,11.8-1.382,56.627,56.627,0,0,1,7.969.857c.931.169,1.651.312,2.136.426A4.27,4.27,0,0,1,184.172,352.788Z" fill="#455a64"/>
              </g>
            </g>
          </g>
          <path id="Trazado_195920" data-name="Trazado 195920" d="M189.67,263.188c2.387-.514,6.935-2.391,7.037-3.01.188-1.138-4.037.2-5.164.435s-7.412-.9-7.412-.9h0c-1.527-.85-3.039-1.744-4.223-2.462a4.065,4.065,0,0,1-.955-4.221,5.879,5.879,0,0,0,.326-3.8,1.064,1.064,0,0,0-1.938.538,12.364,12.364,0,0,1-1.248,3.2,8.287,8.287,0,0,1-1.7,2.251c-.755.709-1.434,1.294-2.019,1.772-5.3.951-20.342,3.1-33.541-.267a10.447,10.447,0,0,1-4.15-3.347l-14.848,8.942c6.887,21.865,57,7.746,57,7.746L190.56,265.4s7.643-1.865,7.639-2.518C198.191,261.861,192.539,263.146,189.67,263.188Z" fill="#ffbe9d"/>
          <g id="Grupo_147227" data-name="Grupo 147227">
            <path id="Trazado_195921" data-name="Trazado 195921" d="M146.9,210.935a3.02,3.02,0,0,1-.028,1.048,9.023,9.023,0,0,1-.833,2.744,8.9,8.9,0,0,1-2.705,3.3,7.626,7.626,0,0,1-5.005,1.459,7.787,7.787,0,0,1-4.8-2.049,9.388,9.388,0,0,1-2.912-6.372,2.964,2.964,0,0,1,.07-1.047,14.327,14.327,0,0,0,.842,3.722,9.165,9.165,0,0,0,2.323,3.342,7.466,7.466,0,0,0,4.506,1.884,7.293,7.293,0,0,0,4.693-1.328,8.885,8.885,0,0,0,2.656-3.075A14.182,14.182,0,0,0,146.9,210.935Z" fill="#263238"/>
          </g>
        </g>
      </g>
    </g>
  </g>
</svg>
