<svg xmlns="http://www.w3.org/2000/svg" width="453.557" height="444.308" viewBox="0 0 453.557 444.308">
  <g id="Grupo_560838" data-name="Grupo 560838" transform="translate(0 0.62)">
    <g id="Grupo_560811" data-name="Grupo 560811" transform="translate(353.02 92.55)">
      <g id="Grupo_560810" data-name="Grupo 560810" transform="translate(0)">
        <g id="Grupo_560809" data-name="Grupo 560809">
          <path id="Trazado_198897" data-name="Trazado 198897" d="M106.356,168.486l-51.921-.143a3.487,3.487,0,0,0-3.494,3.612L53.21,234.5a3.486,3.486,0,0,0,3.474,3.359l86.686.24a3.487,3.487,0,0,0,3.493-3.34l2.614-62.529A3.485,3.485,0,0,0,146,168.6h0Z" transform="translate(-48.943 -108.843)" fill="#c59e31"/>
          <g id="Grupo_560806" data-name="Grupo 560806" transform="translate(22.95 29.293)">
            <path id="Trazado_198898" data-name="Trazado 198898" d="M79.033,141.24l48.884,10.979-16.482,73.387L56.249,213.212,71.378,145.85Z" transform="translate(-56.249 -141.24)" fill="#fff" stroke="#88a8f9" stroke-linecap="round" stroke-miterlimit="10" stroke-width="1"/>
            <g id="Grupo_560805" data-name="Grupo 560805" transform="translate(11.837 16.599)">
              <line id="Línea_267" data-name="Línea 267" x1="37.027" y1="8.316" transform="translate(10.137)" fill="none" stroke="#88a8f9" stroke-linecap="round" stroke-miterlimit="10" stroke-width="1"/>
              <line id="Línea_268" data-name="Línea 268" x1="37.027" y1="8.316" transform="translate(8.447 7.522)" fill="none" stroke="#88a8f9" stroke-linecap="round" stroke-miterlimit="10" stroke-width="1"/>
              <line id="Línea_269" data-name="Línea 269" x1="37.027" y1="8.316" transform="translate(6.758 15.045)" fill="none" stroke="#88a8f9" stroke-linecap="round" stroke-miterlimit="10" stroke-width="1"/>
              <line id="Línea_270" data-name="Línea 270" x1="37.027" y1="8.316" transform="translate(5.068 22.567)" fill="none" stroke="#88a8f9" stroke-linecap="round" stroke-miterlimit="10" stroke-width="1"/>
              <line id="Línea_271" data-name="Línea 271" x1="37.027" y1="8.316" transform="translate(3.379 30.09)" fill="none" stroke="#88a8f9" stroke-linecap="round" stroke-miterlimit="10" stroke-width="1"/>
              <line id="Línea_272" data-name="Línea 272" x1="37.027" y1="8.316" transform="translate(1.689 37.612)" fill="none" stroke="#88a8f9" stroke-linecap="round" stroke-miterlimit="10" stroke-width="1"/>
              <line id="Línea_273" data-name="Línea 273" x1="37.027" y1="8.316" transform="translate(0 45.135)" fill="none" stroke="#88a8f9" stroke-linecap="round" stroke-miterlimit="10" stroke-width="1"/>
            </g>
            <path id="Trazado_198899" data-name="Trazado 198899" d="M106.833,143.53l-1.532,6.823-6.656-1.495" transform="translate(-82.414 -140.978)" fill="none" stroke="#88a8f9" stroke-linecap="round" stroke-miterlimit="10" stroke-width="1"/>
          </g>
          <g id="Grupo_560808" data-name="Grupo 560808">
            <path id="Trazado_198900" data-name="Trazado 198900" d="M88.8,121.131l49.72-6.174,9.269,74.642-56.129,6.97-8.508-68.513Z" transform="translate(-83.149 -114.957)" fill="#fff" stroke="#88a8f9" stroke-linecap="round" stroke-miterlimit="10" stroke-width="1"/>
            <g id="Grupo_560807" data-name="Grupo 560807" transform="translate(10.492 17.395)">
              <line id="Línea_274" data-name="Línea 274" x1="37.66" y2="4.677" transform="translate(0)" fill="none" stroke="#88a8f9" stroke-linecap="round" stroke-miterlimit="10" stroke-width="1"/>
              <line id="Línea_275" data-name="Línea 275" x1="37.66" y2="4.677" transform="translate(0.95 7.651)" fill="none" stroke="#88a8f9" stroke-linecap="round" stroke-miterlimit="10" stroke-width="1"/>
              <line id="Línea_276" data-name="Línea 276" x1="37.66" y2="4.677" transform="translate(1.9 15.302)" fill="none" stroke="#88a8f9" stroke-linecap="round" stroke-miterlimit="10" stroke-width="1"/>
              <line id="Línea_277" data-name="Línea 277" x1="37.66" y2="4.677" transform="translate(2.85 22.953)" fill="none" stroke="#88a8f9" stroke-linecap="round" stroke-miterlimit="10" stroke-width="1"/>
              <line id="Línea_278" data-name="Línea 278" x1="37.66" y2="4.677" transform="translate(3.8 30.604)" fill="none" stroke="#88a8f9" stroke-linecap="round" stroke-miterlimit="10" stroke-width="1"/>
              <line id="Línea_279" data-name="Línea 279" x1="37.66" y2="4.677" transform="translate(4.75 38.255)" fill="none" stroke="#88a8f9" stroke-linecap="round" stroke-miterlimit="10" stroke-width="1"/>
              <line id="Línea_280" data-name="Línea 280" x1="37.66" y2="4.677" transform="translate(5.701 45.906)" fill="none" stroke="#88a8f9" stroke-linecap="round" stroke-miterlimit="10" stroke-width="1"/>
            </g>
            <path id="Trazado_198901" data-name="Trazado 198901" d="M139.058,122.157l.862,6.939-6.77.841" transform="translate(-131.009 -114.132)" fill="none" stroke="#88a8f9" stroke-linecap="round" stroke-miterlimit="10" stroke-width="1"/>
          </g>
          <path id="Trazado_198902" data-name="Trazado 198902" d="M57.819,171.315l1.339-4.894a3.484,3.484,0,0,1,3.371-2.567l23.539.066a3.485,3.485,0,0,1,3.358,2.585l1.311,4.9a3.485,3.485,0,0,0,3.358,2.586l51.921.144a3.486,3.486,0,0,1,3.473,3.632l-2.614,62.528a3.485,3.485,0,0,1-3.493,3.34L56.7,243.4a3.486,3.486,0,0,1-3.475-3.359l-2.268-62.543a3.486,3.486,0,0,1,3.494-3.612h0A3.484,3.484,0,0,0,57.819,171.315Z" transform="translate(-48.969 -109.357)" fill="#efc33d"/>
          <rect id="Rectángulo_61570" data-name="Rectángulo 61570" width="36.01" height="8.428" rx="1.696" transform="translate(48.577 127.06) rotate(-179.842)" fill="#fff"/>
        </g>
      </g>
    </g>
    <g id="Grupo_560814" data-name="Grupo 560814" transform="translate(0 150.958)">
      <g id="Grupo_560813" data-name="Grupo 560813" transform="translate(0)">
        <g id="Grupo_560812" data-name="Grupo 560812">
          <path id="Trazado_198903" data-name="Trazado 198903" d="M424.879,171.995l-51.921-.144a3.486,3.486,0,0,0-3.493,3.613l2.268,62.542a3.487,3.487,0,0,0,3.474,3.36l86.686.24a3.486,3.486,0,0,0,3.493-3.34L468,175.736a3.487,3.487,0,0,0-3.474-3.632h0Z" transform="translate(-369.448 -166.849)" fill="#c59e31"/>
          <path id="Trazado_198904" data-name="Trazado 198904" d="M376.343,174.824l1.337-4.894a3.487,3.487,0,0,1,3.372-2.567l23.538.065a3.486,3.486,0,0,1,3.358,2.586l1.311,4.9a3.486,3.486,0,0,0,3.358,2.586l51.921.144a3.487,3.487,0,0,1,3.474,3.631L465.4,243.8a3.486,3.486,0,0,1-3.493,3.34l-86.685-.24a3.484,3.484,0,0,1-3.474-3.359L369.477,181a3.486,3.486,0,0,1,3.494-3.612h0A3.487,3.487,0,0,0,376.343,174.824Z" transform="translate(-369.474 -167.363)" fill="#efc33d"/>
          <rect id="Rectángulo_61571" data-name="Rectángulo 61571" width="36.01" height="8.428" rx="1.696" transform="translate(46.595 72.563) rotate(-179.841)" fill="#fff"/>
        </g>
      </g>
    </g>
    <g id="Grupo_560816" data-name="Grupo 560816" transform="translate(237.451 0)">
      <path id="Trazado_198905" data-name="Trazado 198905" d="M183.33,45.87l48.12-13.953,20.946,72.24-54.323,15.751L178.847,53.6Z" transform="translate(-178.847 -31.917)" fill="#fff" stroke="#88a8f9" stroke-linecap="round" stroke-miterlimit="10" stroke-width="1"/>
      <g id="Grupo_560815" data-name="Grupo 560815" transform="translate(11.778 18.317)">
        <line id="Línea_281" data-name="Línea 281" x1="36.448" y2="10.568" transform="translate(0)" fill="none" stroke="#88a8f9" stroke-linecap="round" stroke-miterlimit="10" stroke-width="1"/>
        <line id="Línea_282" data-name="Línea 282" x1="36.448" y2="10.568" transform="translate(2.147 7.405)" fill="none" stroke="#88a8f9" stroke-linecap="round" stroke-miterlimit="10" stroke-width="1"/>
        <line id="Línea_283" data-name="Línea 283" x1="36.448" y2="10.568" transform="translate(4.294 14.81)" fill="none" stroke="#88a8f9" stroke-linecap="round" stroke-miterlimit="10" stroke-width="1"/>
        <line id="Línea_284" data-name="Línea 284" x1="36.448" y2="10.568" transform="translate(6.441 22.214)" fill="none" stroke="#88a8f9" stroke-linecap="round" stroke-miterlimit="10" stroke-width="1"/>
        <line id="Línea_285" data-name="Línea 285" x1="36.448" y2="10.568" transform="translate(8.588 29.619)" fill="none" stroke="#88a8f9" stroke-linecap="round" stroke-miterlimit="10" stroke-width="1"/>
        <line id="Línea_286" data-name="Línea 286" x1="36.448" y2="10.568" transform="translate(10.735 37.024)" fill="none" stroke="#88a8f9" stroke-linecap="round" stroke-miterlimit="10" stroke-width="1"/>
        <line id="Línea_287" data-name="Línea 287" x1="36.448" y2="10.568" transform="translate(12.882 44.429)" fill="none" stroke="#88a8f9" stroke-linecap="round" stroke-miterlimit="10" stroke-width="1"/>
      </g>
      <path id="Trazado_198906" data-name="Trazado 198906" d="M241.284,45.735l1.947,6.716-6.552,1.9" transform="translate(-234.138 -30.335)" fill="none" stroke="#88a8f9" stroke-linecap="round" stroke-miterlimit="10" stroke-width="1"/>
    </g>
    <g id="Grupo_560818" data-name="Grupo 560818" transform="translate(70.209 30.378)">
      <path id="Trazado_198907" data-name="Trazado 198907" d="M313.81,101.1l27.43-41.926,62.941,41.179-30.966,47.331-57.773-37.8Z" transform="translate(-313.81 -59.173)" fill="#fff" stroke="#88a8f9" stroke-linecap="round" stroke-miterlimit="10" stroke-width="1"/>
      <g id="Grupo_560817" data-name="Grupo 560817" transform="translate(15.26 16.751)">
        <line id="Línea_288" data-name="Línea 288" x1="20.777" y2="31.756" transform="translate(0)" fill="none" stroke="#88a8f9" stroke-linecap="round" stroke-miterlimit="10" stroke-width="1"/>
        <line id="Línea_289" data-name="Línea 289" x1="20.777" y2="31.756" transform="translate(6.452 4.221)" fill="none" stroke="#88a8f9" stroke-linecap="round" stroke-miterlimit="10" stroke-width="1"/>
        <line id="Línea_290" data-name="Línea 290" x1="20.777" y2="31.756" transform="translate(12.903 8.442)" fill="none" stroke="#88a8f9" stroke-linecap="round" stroke-miterlimit="10" stroke-width="1"/>
        <line id="Línea_291" data-name="Línea 291" x1="20.777" y2="31.756" transform="translate(19.355 12.663)" fill="none" stroke="#88a8f9" stroke-linecap="round" stroke-miterlimit="10" stroke-width="1"/>
        <line id="Línea_292" data-name="Línea 292" x1="20.777" y2="31.756" transform="translate(25.807 16.884)" fill="none" stroke="#88a8f9" stroke-linecap="round" stroke-miterlimit="10" stroke-width="1"/>
        <line id="Línea_293" data-name="Línea 293" x1="20.777" y2="31.756" transform="translate(32.258 21.105)" fill="none" stroke="#88a8f9" stroke-linecap="round" stroke-miterlimit="10" stroke-width="1"/>
        <line id="Línea_294" data-name="Línea 294" x1="20.777" y2="31.756" transform="translate(38.71 25.326)" fill="none" stroke="#88a8f9" stroke-linecap="round" stroke-miterlimit="10" stroke-width="1"/>
      </g>
      <path id="Trazado_198908" data-name="Trazado 198908" d="M386.986,96.221l5.852,3.828-3.735,5.709" transform="translate(-384.022 -54.931)" fill="none" stroke="#88a8f9" stroke-linecap="round" stroke-miterlimit="10" stroke-width="1"/>
    </g>
    <g id="Grupo_560819" data-name="Grupo 560819" transform="translate(150.725 102.235)">
      <path id="Trazado_198909" data-name="Trazado 198909" d="M240.347,149.2l37.7-25.551v12.322h54.027v25.616H278.051V174.75Z" transform="translate(-240.347 -123.647)" fill="#fff"/>
      <path id="Trazado_198910" data-name="Trazado 198910" d="M255.127,203.952l-37.7,25.551V217.182H163.4V191.566h54.027V178.4Z" transform="translate(-77.631 -117.377)" fill="#fff"/>
    </g>
    <g id="Grupo_560837" data-name="Grupo 560837" transform="translate(57.798 181.245)">
      <g id="Grupo_560832" data-name="Grupo 560832">
        <g id="Grupo_560820" data-name="Grupo 560820" transform="translate(74.726 58.789)">
          <path id="Trazado_198911" data-name="Trazado 198911" d="M246.905,449.04l85.917-11.258a22.559,22.559,0,0,0,19.626-22.366V269.847a22.558,22.558,0,0,0-25.488-22.366L241.044,258.74a22.559,22.559,0,0,0-19.627,22.366V426.674A22.556,22.556,0,0,0,246.905,449.04Z" transform="translate(-221.417 -247.286)" fill="#6e8da7"/>
          <path id="Trazado_198912" data-name="Trazado 198912" d="M241.241,450.571l85.916-11.259a22.559,22.559,0,0,0,19.627-22.366V271.377A22.558,22.558,0,0,0,321.3,249.011l-85.916,11.26a22.557,22.557,0,0,0-19.627,22.365V428.2A22.558,22.558,0,0,0,241.241,450.571Z" transform="translate(-209.44 -247.111)" fill="#adc8d3"/>
        </g>
        <path id="Trazado_198913" data-name="Trazado 198913" d="M277.993,194.555s55.109-3.146,39.542,79.774c0,0-50.2,34.49-90.212-3.7C227.323,270.624,222.811,197.338,277.993,194.555Z" transform="translate(-121.032 -194.538)" fill="#894f3a"/>
        <path id="Trazado_198914" data-name="Trazado 198914" d="M243.494,246.059a9.979,9.979,0,0,0,.438,1.025,7.873,7.873,0,1,0,6.532.652v-1.264a8.981,8.981,0,1,1-6.97-.413Z" transform="translate(-67.652 -188.638)" fill="#fff"/>
        <g id="Grupo_560821" data-name="Grupo 560821" transform="translate(164.95 83.047)">
          <path id="Trazado_198915" data-name="Trazado 198915" d="M244.629,398.59,266.1,353.481l-57.479-84.429-21.072,45.674Z" transform="translate(-187.552 -269.052)" fill="#4da2a8"/>
        </g>
        <path id="Trazado_198916" data-name="Trazado 198916" d="M299.718,264.889,252.7,277.077c-24.833,8.395-38.427,28.745-35.032,42.617l27.871,74.581-1.155,41.743,46.8,3.9a137.082,137.082,0,0,0,23.1-.028l18.989-1.631.026-74.066c18.014-35.295-6.23-81.9-18.046-94.6A16.024,16.024,0,0,0,308.115,265,15.238,15.238,0,0,0,299.718,264.889Z" transform="translate(-129.23 -186.543)" fill="#4da2a8"/>
        <path id="Trazado_198917" data-name="Trazado 198917" d="M441.622,415.491H95.255l13.7-10H427.925Z" transform="translate(-95.255 -170.379)" fill="#c3765a"/>
        <path id="Trazado_198918" data-name="Trazado 198918" d="M253.061,275.265l39.125,56.505,1.177-66.936-18.135,4.7Z" transform="translate(-122.874 -186.488)" fill="#fff"/>
        <path id="Trazado_198919" data-name="Trazado 198919" d="M258.719,235.6l-.907,42.693c.413,4.192,11.22,10.459,22.49,12.293a9.792,9.792,0,0,0,11.143-11.379L286.3,249.594Z" transform="translate(-126.4 -189.835)" fill="#ecb791"/>
        <path id="Trazado_198920" data-name="Trazado 198920" d="M285.547,271.02l-2.335-13.344-24.19-10.39.99,5.351S263.6,261.475,285.547,271.02Z" transform="translate(-121.701 -188.497)" fill="#d3a07b"/>
        <path id="Trazado_198921" data-name="Trazado 198921" d="M234.41,257.248l25.4,11.726a15.628,15.628,0,0,0,15.057-.587,15.464,15.464,0,0,0,6.735-9.621l10.626-31.436-44.5-18Z" transform="translate(-100.951 -192.844)" fill="#ecb791"/>
        <path id="Trazado_198922" data-name="Trazado 198922" d="M303.039,229.024c.386,2.288-39.414,13.31-46.343,6.331-13.589-13.684-12.885,16.605-12.885,16.605s-31.064-49.162,19.726-57.083C283.111,191.824,299.816,209.926,303.039,229.024Z" transform="translate(-111.764 -194.538)" fill="#894f3a"/>
        <path id="Trazado_198923" data-name="Trazado 198923" d="M243.091,236.414a1.466,1.466,0,1,0,1.968-.656A1.467,1.467,0,0,0,243.091,236.414Z" transform="translate(-64.098 -189.835)" fill="#384d71"/>
        <path id="Trazado_198924" data-name="Trazado 198924" d="M241.17,234.342l1.308,10.035a2.624,2.624,0,0,1-1.909,2.87l-4.145,1.136Z" transform="translate(-53.469 -189.98)" fill="#ecb791"/>
        <g id="Grupo_560824" data-name="Grupo 560824" transform="translate(110.293 129.573)">
          <g id="Grupo_560822" data-name="Grupo 560822" transform="translate(0 95.128)">
            <path id="Trazado_198925" data-name="Trazado 198925" d="M213.295,411.434l113.639-2.724-35.485-12.561-157.815,9.832Z" transform="translate(-133.634 -396.149)" fill="#4f6ea4"/>
            <path id="Trazado_198926" data-name="Trazado 198926" d="M279.484,410.318l40.273-10.283-7.152,6.407-32.433,8.478a1.261,1.261,0,0,1-.241.047c-4.013.327-78.741-3.735-80.893-4.262-2.179-.534-2.741-5.169-2.741-5.169S277.179,410.757,279.484,410.318Z" transform="translate(-196.298 -395.704)" fill="#384d71"/>
          </g>
          <g id="Grupo_560823" data-name="Grupo 560823" transform="translate(72.783)">
            <path id="Trazado_198927" data-name="Trazado 198927" d="M127.419,425.078l105.492-4.565c8.35-2.6,8.2-15.848,8.2-15.848L255.9,326.407a14.939,14.939,0,0,0-1.973-11.008c-2.229-3.376-4.549-4.722-8.952-4.594L139.479,315.37c-6.991,1.346-6.6,7.914-8.2,15.847L115.829,413C116.765,420.712,121.954,426.119,127.419,425.078Z" transform="translate(-115.829 -310.797)" fill="#384d71"/>
            <path id="Trazado_198928" data-name="Trazado 198928" d="M170.161,362.083c-2.931,4.921-3.232,11.086-.67,13.773s7.013.875,9.944-4.045,3.231-11.086.67-13.773S173.092,357.164,170.161,362.083Z" transform="translate(-99.352 -305.529)" fill="#4f6ea4"/>
          </g>
        </g>
        <path id="Trazado_198929" data-name="Trazado 198929" d="M289.221,386.327l39.133,27.2,30.38-31.05-22.672-14.892,14.372-23.527,29.088-69.864-23.983,7.056c-18.075,5.764-24.964,11.649-33.236,29.329Z" transform="translate(-249.334 -185.416)" fill="#4da2a8"/>
        <path id="Trazado_198930" data-name="Trazado 198930" d="M313.287,374.8l18.233,16.168L325.5,408.247l-25.751-9.959Z" transform="translate(-213.061 -173.893)" fill="#ecb791"/>
        <rect id="Rectángulo_61572" data-name="Rectángulo 61572" width="46.869" height="18.394" transform="matrix(-0.549, 0.836, -0.836, -0.549, 114.791, 197.996)" fill="#fff"/>
        <path id="Trazado_198931" data-name="Trazado 198931" d="M257.319,251.49a27.157,27.157,0,0,1-11.347-9.384S246.223,257.5,257.319,251.49Z" transform="translate(-78.929 -189.091)" fill="#fff"/>
        <rect id="Rectángulo_61573" data-name="Rectángulo 61573" width="346.367" height="17.331" transform="translate(0 245.112)" fill="#894f3a"/>
        <rect id="Rectángulo_61574" data-name="Rectángulo 61574" width="25.871" height="2.274" transform="matrix(-0.988, -0.158, 0.158, -0.988, 169.492, 43.986)" fill="#dc3faf"/>
        <path id="Trazado_198932" data-name="Trazado 198932" d="M272.876,235.377a9.824,9.824,0,1,0,7.7-11.561A9.824,9.824,0,0,0,272.876,235.377Z" transform="translate(-143.716 -191.207)" fill="#ecb791"/>
        <path id="Trazado_198933" data-name="Trazado 198933" d="M285.057,235.335a9.5,9.5,0,0,0,.438,1.025,7.873,7.873,0,1,0,6.532.653V235.75a8.981,8.981,0,1,1-6.97-.415Z" transform="translate(-155.536 -189.866)" fill="#fff"/>
        <path id="Trazado_198934" data-name="Trazado 198934" d="M285.184,231.921a.214.214,0,0,0-.072-.127c-.041-.057-.06-.129-.1-.184-1.4-1.705-4.24-1.408-4.361-1.394a.245.245,0,1,0,.056.486,5.512,5.512,0,0,1,3.56.877,2.916,2.916,0,0,0-3.127,1.663.246.246,0,0,0,.111.3l.028.012a.246.246,0,0,0,.317-.14,2.459,2.459,0,0,1,3.18-1.245c.591.916.639,2.229.086,3.947a.246.246,0,0,0,.116.291.187.187,0,0,0,.041.017.245.245,0,0,0,.308-.157C285.92,234.412,285.851,232.965,285.184,231.921Z" transform="translate(-145.744 -190.456)" fill="#384d71"/>
        <g id="Grupo_560826" data-name="Grupo 560826" transform="translate(167.927 35.794)">
          <g id="Grupo_560825" data-name="Grupo 560825" transform="translate(0)">
            <path id="Trazado_198935" data-name="Trazado 198935" d="M243.018,245.817a10.073,10.073,0,1,0-4.747-13.434v0a10.07,10.07,0,0,0,4.748,13.432Zm-2.931-12.565a8.062,8.062,0,1,1,3.8,10.751,8.068,8.068,0,0,1-3.8-10.751Z" transform="translate(-237.289 -226.655)" fill="#dc3faf"/>
          </g>
        </g>
        <g id="Grupo_560829" data-name="Grupo 560829" transform="translate(109.767 202.129)">
          <g id="Grupo_560827" data-name="Grupo 560827">
            <path id="Trazado_198936" data-name="Trazado 198936" d="M262.957,406.15s8.952,4.292,20.177-4.32,7.621-8.679,15.221-1.933c5.6,4.975,9.579,5.366,11.767,4.606a1.034,1.034,0,0,0,.531-1.558c-2.091-3.1-8.393-12.24-10.626-13.139-2.7-1.084-11.559.245-11.559.245L266.5,389.46Z" transform="translate(-261.138 -374.353)" fill="#ecb791"/>
            <path id="Trazado_198937" data-name="Trazado 198937" d="M251.569,392.243s22.814-7.292,26.483-5.782c16.212,6.668,18.7,10.353,18.921,12.681a1.184,1.184,0,0,1-1.612,1.181c-4.318-1.629-18.274-6.046-23.124-8.146Z" transform="translate(-234.595 -374.711)" fill="#ecb791"/>
            <path id="Trazado_198938" data-name="Trazado 198938" d="M251.569,394.287s20.53-12.338,24.446-11.711c18.192,2.908,21.614,7.094,22.094,9.229a1.033,1.033,0,0,1-1.158,1.225c-4.268-.553-19.987-2.609-25.282-3.555Z" transform="translate(-235.749 -375.135)" fill="#ecb791"/>
            <path id="Trazado_198939" data-name="Trazado 198939" d="M254.278,398.034s17.18-16.689,21.137-16.971c19.691-1.4,23.2,2.483,23.773,4.358a.8.8,0,0,1-.684,1.023c-3.744.38-20.232,2.035-25.748,2.327Z" transform="translate(-239.859 -375.34)" fill="#ecb791"/>
            <path id="Trazado_198940" data-name="Trazado 198940" d="M261.832,395.873s8.62-9.245,18.94-12.754c6.932-2.356,13.068-4.428,14.2-4.77,11.681-3.507,15.859-2.552,17.352-1.4a1.187,1.187,0,0,1-.132,1.952c-4.739,2.862-25.536,15.348-29.5,16.458Z" transform="translate(-261.832 -375.897)" fill="#ecb791"/>
          </g>
          <g id="Grupo_560828" data-name="Grupo 560828" transform="translate(30.065 3.916)">
            <path id="Trazado_198941" data-name="Trazado 198941" d="M273.774,391.686l-10.911-5.247-4.1.653" transform="translate(-249.47 -378.606)" fill="none" stroke="#384d71" stroke-linecap="round" stroke-miterlimit="10" stroke-width="0.25"/>
            <path id="Trazado_198942" data-name="Trazado 198942" d="M276.068,386.517l-13.141-3.965-5.524.6" transform="translate(-250.251 -379.051)" fill="none" stroke="#384d71" stroke-linecap="round" stroke-miterlimit="10" stroke-width="0.25"/>
            <line id="Línea_295" data-name="Línea 295" x1="7.109" y1="1.29" transform="translate(8.848)" fill="none" stroke="#384d71" stroke-linecap="round" stroke-miterlimit="10" stroke-width="0.25"/>
            <path id="Trazado_198943" data-name="Trazado 198943" d="M281.847,393.83l-4.415-4.4-8.038-.2" transform="translate(-269.393 -378.285)" fill="none" stroke="#384d71" stroke-linecap="round" stroke-miterlimit="10" stroke-width="0.25"/>
          </g>
        </g>
        <g id="Grupo_560830" data-name="Grupo 560830" transform="translate(102.445 212.754)">
          <path id="Trazado_198944" data-name="Trazado 198944" d="M300.7,402.557l5.022,3.247,9.924-17.87-3.871-2.5Z" transform="translate(-300.702 -385.43)" fill="#384d71"/>
          <path id="Trazado_198945" data-name="Trazado 198945" d="M301.62,387.458a5.843,5.843,0,1,0,8.257.322A5.842,5.842,0,0,0,301.62,387.458Z" transform="translate(-295.417 -385.376)" fill="#384d71"/>
          <path id="Trazado_198946" data-name="Trazado 198946" d="M302.61,388.542a4.126,4.126,0,1,0,5.831.228A4.126,4.126,0,0,0,302.61,388.542Z" transform="translate(-295.241 -385.199)" fill="#fff"/>
        </g>
        <path id="Trazado_198947" data-name="Trazado 198947" d="M217.346,364.845l0-8.542,6.225-23.038" transform="translate(-13.281 -178.651)" fill="none" stroke="#384d71" stroke-linecap="round" stroke-miterlimit="10" stroke-width="0.5"/>
        <line id="Línea_296" data-name="Línea 296" x2="13.284" y2="27.026" transform="translate(193.896 94.612)" fill="none" stroke="#384d71" stroke-linecap="round" stroke-miterlimit="10" stroke-width="0.5"/>
        <path id="Trazado_198948" data-name="Trazado 198948" d="M287.282,274.193l-30.455,16.924,46.875,25.94-15.195,11.458,34.88,11.514" transform="translate(-157.094 -185.416)" fill="none" stroke="#384d71" stroke-linecap="round" stroke-miterlimit="10" stroke-width="0.5"/>
        <path id="Trazado_198949" data-name="Trazado 198949" d="M236.424,264.834l15.5,27.651-10.457,15.7,13.5,7.763L238.652,341.1" transform="translate(-65.935 -186.488)" fill="none" stroke="#384d71" stroke-linecap="round" stroke-miterlimit="10" stroke-width="0.5"/>
        <g id="Grupo_560831" data-name="Grupo 560831" transform="translate(162.032 156.308)">
          <line id="Línea_297" data-name="Línea 297" y2="36.425" transform="translate(8.457)" fill="none" stroke="#384d71" stroke-linecap="round" stroke-miterlimit="10" stroke-width="0.5"/>
          <ellipse id="Elipse_4994" data-name="Elipse 4994" cx="2.018" cy="2.018" rx="2.018" ry="2.018" transform="translate(0 7.504)" fill="#eeffe7"/>
          <path id="Trazado_198950" data-name="Trazado 198950" d="M257.027,351.333a2.018,2.018,0,1,0,2.018-2.018A2.019,2.019,0,0,0,257.027,351.333Z" transform="translate(-257.027 -333.121)" fill="#eeffe7"/>
          <path id="Trazado_198951" data-name="Trazado 198951" d="M257.027,359.13a2.018,2.018,0,1,0,2.018-2.017A2.018,2.018,0,0,0,257.027,359.13Z" transform="translate(-257.027 -332.228)" fill="#eeffe7"/>
        </g>
      </g>
      <g id="Grupo_560836" data-name="Grupo 560836" transform="translate(17.456 185.269)">
        <path id="Trazado_198952" data-name="Trazado 198952" d="M393.288,386.218a72.171,72.171,0,0,0-28.4,0S378.829,391.309,393.288,386.218Z" transform="translate(-364.884 -358.013)" fill="#384d71"/>
        <path id="Trazado_198953" data-name="Trazado 198953" d="M390.022,386.924a46.821,46.821,0,0,1-22.686.016A75.305,75.305,0,0,1,390.022,386.924Z" transform="translate(-364.351 -357.872)" fill="#333"/>
        <g id="Grupo_560834" data-name="Grupo 560834" transform="translate(2.5)">
          <ellipse id="Elipse_4995" data-name="Elipse 4995" cx="11.783" cy="16.941" rx="11.783" ry="16.941" transform="translate(0 5.01)" fill="#7cb649"/>
          <path id="Trazado_198954" data-name="Trazado 198954" d="M368.739,366.591c.727,2.714,1.352,5.335,1.826,7.977a51.27,51.27,0,0,1,.853,7.89c.017.328.017.655.016.983s.006.655-.012.981-.013.654-.028.981-.048.65-.064.977a38.89,38.89,0,0,1-.492,3.887,54.385,54.385,0,0,1-2.1,7.737,14.569,14.569,0,0,0,2.222-3.014,20.141,20.141,0,0,0,1.654-3.794l.314-1.041c.1-.352.172-.716.259-1.074l.124-.543.1-.553c.059-.37.135-.738.177-1.113a28.875,28.875,0,0,0,.235-4.543,30.96,30.96,0,0,0-1.483-8.685,27.67,27.67,0,0,0-1.546-3.814A16.665,16.665,0,0,0,368.739,366.591Z" transform="translate(-352.221 -360.103)" fill="#667f51"/>
          <path id="Trazado_198955" data-name="Trazado 198955" d="M373.783,365.382c.285,2.862.563,5.6.773,8.334s.367,5.431.4,8.126-.014,5.379-.218,8.073c-.176,2.708-.554,5.382-.957,8.227a17.233,17.233,0,0,0,.914-1.734c.14-.3.272-.613.408-.923s.24-.639.361-.96c.245-.643.432-1.32.634-1.993.175-.684.361-1.372.495-2.079a39.918,39.918,0,0,0,.769-8.693,45.579,45.579,0,0,0-.962-8.6,39.251,39.251,0,0,0-1.078-4.051A23.059,23.059,0,0,0,373.783,365.382Z" transform="translate(-361.385 -360.242)" fill="#667f51"/>
          <path id="Trazado_198956" data-name="Trazado 198956" d="M386.783,366.591a16.617,16.617,0,0,0-2.053,3.239,27.809,27.809,0,0,0-1.545,3.814,31,31,0,0,0-1.485,8.685,29.145,29.145,0,0,0,.235,4.543c.043.376.119.743.177,1.113l.1.553.125.543c.087.359.161.722.259,1.074l.313,1.041a20.141,20.141,0,0,0,1.655,3.794A14.53,14.53,0,0,0,386.783,398a54.546,54.546,0,0,1-2.1-7.737c-.235-1.288-.386-2.589-.49-3.887-.016-.328-.041-.652-.064-.977s-.018-.654-.028-.981-.012-.654-.012-.981,0-.655.016-.983a51.273,51.273,0,0,1,.853-7.89C385.431,371.926,386.057,369.3,386.783,366.591Z" transform="translate(-379.615 -360.103)" fill="#667f51"/>
          <path id="Trazado_198957" data-name="Trazado 198957" d="M381.862,365.382a23.155,23.155,0,0,0-1.54,3.73,39.267,39.267,0,0,0-1.078,4.051,45.582,45.582,0,0,0-.962,8.6,39.85,39.85,0,0,0,.769,8.693c.133.707.319,1.394.494,2.079.2.673.39,1.35.635,1.993.12.321.237.644.361.96s.267.621.407.923a17.251,17.251,0,0,0,.914,1.734c-.4-2.845-.78-5.519-.957-8.227-.2-2.694-.26-5.379-.218-8.073s.193-5.4.4-8.126S381.578,368.244,381.862,365.382Z" transform="translate(-370.885 -360.242)" fill="#667f51"/>
          <g id="Grupo_560833" data-name="Grupo 560833" transform="translate(7.048)">
            <path id="Trazado_198958" data-name="Trazado 198958" d="M373.546,365.769s3.019.722,4.795-2.735C378.341,363.034,375.393,361.293,373.546,365.769Z" transform="translate(-369.139 -360.549)" fill="#efc33d"/>
            <path id="Trazado_198959" data-name="Trazado 198959" d="M375.75,365.961s2.918-1.06,2.5-4.924C378.246,361.037,374.827,361.208,375.75,365.961Z" transform="translate(-371.366 -360.739)" fill="#efc33d"/>
            <path id="Trazado_198960" data-name="Trazado 198960" d="M382.251,365.816s-3.091.3-4.37-3.374C377.881,362.442,381.042,361.127,382.251,365.816Z" transform="translate(-377.881 -360.598)" fill="#efc33d"/>
            <path id="Trazado_198961" data-name="Trazado 198961" d="M379.476,365.993s-2.743-1.454-1.791-5.223C377.685,360.77,381.049,361.413,379.476,365.993Z" transform="translate(-375.083 -360.77)" fill="#efc33d"/>
          </g>
          <path id="Trazado_198962" data-name="Trazado 198962" d="M377.452,371.571a6.157,6.157,0,0,0-.487.683c-.15.239-.289.486-.421.737a16.2,16.2,0,0,0-.712,1.578l.652-.1a12.892,12.892,0,0,0-.934-1.361c-.168-.211-.342-.416-.525-.607a5.08,5.08,0,0,0-.585-.533,8.916,8.916,0,0,0,.285.907c.107.288.224.563.347.831a14.707,14.707,0,0,0,.808,1.518l.377.616.275-.714a17.74,17.74,0,0,0,.558-1.7c.079-.294.153-.594.215-.9S377.423,371.905,377.452,371.571Z" transform="translate(-362.197 -359.533)" fill="#fff"/>
          <path id="Trazado_198963" data-name="Trazado 198963" d="M371.47,377.592a6.171,6.171,0,0,0-.487.683c-.15.239-.289.486-.421.737a16.078,16.078,0,0,0-.712,1.578l.652-.1a12.839,12.839,0,0,0-.935-1.36c-.167-.212-.341-.416-.525-.607a5.067,5.067,0,0,0-.584-.533,8.813,8.813,0,0,0,.285.906c.107.289.224.564.347.833a14.5,14.5,0,0,0,.808,1.518l.377.616.275-.714a17.755,17.755,0,0,0,.558-1.7c.079-.294.153-.594.214-.9A9.352,9.352,0,0,0,371.47,377.592Z" transform="translate(-349.548 -358.843)" fill="#fff"/>
          <path id="Trazado_198964" data-name="Trazado 198964" d="M373,369.228a8.771,8.771,0,0,0-.288.888c-.081.3-.149.6-.212.9q-.182.909-.278,1.839l.586-.423a8.634,8.634,0,0,0-1.209-.8,6.322,6.322,0,0,0-.641-.3,3.676,3.676,0,0,0-.678-.2,6.342,6.342,0,0,0,.49.7c.171.215.348.412.528.6a9.981,9.981,0,0,0,1.13,1.008l.5.384.08-.808c.062-.619.1-1.244.1-1.875,0-.317,0-.633-.021-.953A9.707,9.707,0,0,0,373,369.228Z" transform="translate(-353.234 -359.801)" fill="#fff"/>
          <path id="Trazado_198965" data-name="Trazado 198965" d="M371.965,387a4,4,0,0,0-.632.363,7.246,7.246,0,0,0-.586.449,10.906,10.906,0,0,0-1.078,1.065l.629.269a17.825,17.825,0,0,0-.5-1.771c-.1-.288-.205-.572-.323-.85a7.746,7.746,0,0,0-.4-.814c-.016.342.006.668.022,1s.057.643.1.958q.127.945.342,1.847l.184.778.445-.509a12.38,12.38,0,0,0,.969-1.264c.152-.228.3-.465.438-.716A7.448,7.448,0,0,0,371.965,387Z" transform="translate(-350.727 -357.914)" fill="#fff"/>
          <path id="Trazado_198966" data-name="Trazado 198966" d="M376.43,381.807a5.656,5.656,0,0,0-.535.605c-.166.213-.322.438-.473.668a14.707,14.707,0,0,0-.826,1.46l.656,0a14.3,14.3,0,0,0-.829-1.495c-.152-.236-.309-.466-.477-.685a5.618,5.618,0,0,0-.542-.619,9.091,9.091,0,0,0,.217.945c.085.3.181.594.282.88a16.2,16.2,0,0,0,.691,1.633l.33.671.325-.669a16.121,16.121,0,0,0,.682-1.6c.1-.281.2-.567.28-.865A9.11,9.11,0,0,0,376.43,381.807Z" transform="translate(-360.023 -358.368)" fill="#fff"/>
          <path id="Trazado_198967" data-name="Trazado 198967" d="M385.774,372.678a5.117,5.117,0,0,0-.583.507c-.183.184-.357.379-.526.581a13.035,13.035,0,0,0-.942,1.305l.651.118a15.913,15.913,0,0,0-.7-1.629c-.13-.261-.267-.516-.416-.762a6.491,6.491,0,0,0-.486-.71,9.755,9.755,0,0,0,.136.976c.059.315.129.622.206.923a17.534,17.534,0,0,0,.548,1.742l.27.723.38-.606a14.673,14.673,0,0,0,.813-1.475c.124-.262.242-.529.351-.81A8.537,8.537,0,0,0,385.774,372.678Z" transform="translate(-379.812 -359.474)" fill="#fff"/>
          <path id="Trazado_198968" data-name="Trazado 198968" d="M382.284,377.974a5.182,5.182,0,0,0-.561.556c-.176.2-.341.408-.5.624a13.609,13.609,0,0,0-.886,1.383l.654.061a15.087,15.087,0,0,0-.762-1.567c-.14-.249-.288-.493-.446-.726a6.02,6.02,0,0,0-.515-.666,9.344,9.344,0,0,0,.176.963c.071.309.155.609.244.9a16.693,16.693,0,0,0,.619,1.693l.3.7.356-.638a15.433,15.433,0,0,0,.749-1.541c.113-.272.221-.548.318-.838A8.92,8.92,0,0,0,382.284,377.974Z" transform="translate(-372.411 -358.838)" fill="#fff"/>
          <path id="Trazado_198969" data-name="Trazado 198969" d="M381.226,370.111a4.754,4.754,0,0,0-.6.474c-.188.173-.367.359-.541.551a12.346,12.346,0,0,0-.977,1.252l.646.153a16.248,16.248,0,0,0-.651-1.666c-.123-.267-.253-.531-.395-.786a6.6,6.6,0,0,0-.466-.736,9.805,9.805,0,0,0,.109.983c.05.318.113.627.181.933a17.971,17.971,0,0,0,.5,1.772l.25.738.4-.585a14.045,14.045,0,0,0,.852-1.428c.13-.254.256-.515.372-.789A8.2,8.2,0,0,0,381.226,370.111Z" transform="translate(-370.216 -359.787)" fill="#fff"/>
          <path id="Trazado_198970" data-name="Trazado 198970" d="M381.532,386.151a5.685,5.685,0,0,0-.519.633c-.162.222-.312.455-.456.692a14.959,14.959,0,0,0-.788,1.5l.655-.032a13.879,13.879,0,0,0-.866-1.45c-.157-.228-.32-.45-.494-.66a5.6,5.6,0,0,0-.557-.591,8.733,8.733,0,0,0,.241.934c.092.3.2.584.3.864a15.617,15.617,0,0,0,.732,1.6l.345.654.31-.685a16.882,16.882,0,0,0,.64-1.641c.094-.285.182-.576.259-.878A9.366,9.366,0,0,0,381.532,386.151Z" transform="translate(-370.811 -357.863)" fill="#fff"/>
          <path id="Trazado_198971" data-name="Trazado 198971" d="M386.676,382.156a5.63,5.63,0,0,0-.535.6c-.167.214-.323.439-.474.669a14.586,14.586,0,0,0-.825,1.46l.655,0a14.492,14.492,0,0,0-.828-1.495c-.152-.236-.309-.466-.477-.685a5.745,5.745,0,0,0-.543-.619,9.692,9.692,0,0,0,.217.945c.086.3.182.594.283.879a15.851,15.851,0,0,0,.691,1.634l.329.671.327-.669a16.4,16.4,0,0,0,.681-1.6c.1-.282.2-.567.281-.865A9.4,9.4,0,0,0,386.676,382.156Z" transform="translate(-381.688 -358.328)" fill="#fff"/>
        </g>
        <g id="Grupo_560835" data-name="Grupo 560835" transform="translate(0 28.205)">
          <path id="Trazado_198972" data-name="Trazado 198972" d="M368.055,411.755h0a56.389,56.389,0,0,0,21.134.171l.928-.171,3.171-25.678-.582.176a47.751,47.751,0,0,1-27.24,0l-.582-.176Z" transform="translate(-364.884 -386.077)" fill="#384d71"/>
        </g>
      </g>
    </g>
  </g>
</svg>
