<svg xmlns="http://www.w3.org/2000/svg" width="365.544" height="405" viewBox="0 0 365.544 405">
  <g id="Grupo_560658" data-name="Grupo 560658" transform="translate(-245.098 -211)">
    <g id="Grupo_560657" data-name="Grupo 560657" transform="translate(245.098 211)">
      <g id="Grupo_560644" data-name="Grupo 560644" transform="translate(0 76.088)">
        <path id="Rectángulo_61533" data-name="Rectángulo 61533" d="M.105,0H7.988a0,0,0,0,1,0,0V2.86a0,0,0,0,1,0,0H.105A.105.105,0,0,1,0,2.754V.105A.105.105,0,0,1,.105,0Z" fill="#b22b49"/>
        <path id="Rectángulo_61534" data-name="Rectángulo 61534" d="M.105,0H7.988a0,0,0,0,1,0,0V2.86a0,0,0,0,1,0,0H.105A.105.105,0,0,1,0,2.754V.105A.105.105,0,0,1,.105,0Z" transform="translate(3.147 5.583)" fill="#6488ad"/>
        <path id="Rectángulo_61535" data-name="Rectángulo 61535" d="M.105,0H7.988a0,0,0,0,1,0,0V2.86a0,0,0,0,1,0,0H.105A.105.105,0,0,1,0,2.754V.105A.105.105,0,0,1,.105,0Z" transform="translate(5.164 10.904)" fill="#a9c2a9"/>
      </g>
      <g id="Grupo_560647" data-name="Grupo 560647" transform="translate(13.039 335.642)">
        <g id="Grupo_560645" data-name="Grupo 560645">
          <path id="Trazado_198510" data-name="Trazado 198510" d="M497.823,883.582l41.189-32.355a2.959,2.959,0,0,0-1.741-5.286H299.564l-31.929,37.641Z" transform="translate(-267.635 -814.224)" fill="#907b67"/>
          <path id="Trazado_198511" data-name="Trazado 198511" d="M648.9,818.6V860.65l39.366-27.6-1.333-29.181Z" transform="translate(-428.309 -796.493)" fill="#e3e4e3"/>
          <path id="Trazado_198512" data-name="Trazado 198512" d="M497.823,810.011l33.7-13.688a1.963,1.963,0,0,0-.688-3.772L309,791.122l-41.37,16.918Z" transform="translate(-267.635 -791.122)" fill="#907b67"/>
          <rect id="Rectángulo_61536" data-name="Rectángulo 61536" width="230.189" height="52.439" transform="translate(0 16.919)" fill="#9a8473"/>
          <path id="Trazado_198513" data-name="Trazado 198513" d="M665.484,815.382l28.572-11.516.095,2.071L665.474,824.1Z" transform="translate(-435.296 -796.493)" fill="#000100" opacity="0.08"/>
        </g>
        <rect id="Rectángulo_61537" data-name="Rectángulo 61537" width="154.436" height="32.327" transform="translate(12.806 27.602)" fill="#f0f0f0"/>
        <g id="Grupo_560646" data-name="Grupo 560646" transform="translate(184.61 30.985)">
          <ellipse id="Elipse_4988" data-name="Elipse 4988" cx="11.619" cy="11.936" rx="11.619" ry="11.936" transform="translate(0.545 0.56)" fill="#303030"/>
          <path id="Trazado_198514" data-name="Trazado 198514" d="M598.878,869.669a12.5,12.5,0,1,1,12.163-12.5A12.347,12.347,0,0,1,598.878,869.669Zm0-23.872a11.381,11.381,0,1,0,11.074,11.377A11.241,11.241,0,0,0,598.878,845.8Z" transform="translate(-586.714 -844.677)" fill="#bdc6aa"/>
        </g>
      </g>
      <g id="Grupo_560649" data-name="Grupo 560649" transform="translate(14.432)">
        <g id="Grupo_560648" data-name="Grupo 560648">
          <path id="Trazado_198515" data-name="Trazado 198515" d="M466.552,211l62.033,36.635c3.232,2.092,1.172,5.912-2.31,5.912l-234.813-5.061L271.5,221.971Z" transform="translate(-270.658 -211)" fill="#507798"/>
          <path id="Trazado_198516" data-name="Trazado 198516" d="M603.637,264.268l-2.027-50.492L653.251,244.3,651.4,281.07Z" transform="translate(-409.774 -212.17)" fill="#e4e4e2"/>
          <path id="Trazado_198517" data-name="Trazado 198517" d="M465.71,296.146l53.622,20.816c2.8,1.089,2.031,4.659-.968,4.519L297.5,311.145l-27.236-15Z" transform="translate(-270.134 -246.883)" fill="#507798"/>
          <path id="Trazado_198518" data-name="Trazado 198518" d="M465.936,211,270.042,222.006l.126,38.257H465.617Z" transform="translate(-270.042 -211)" fill="#6488ad"/>
        </g>
        <path id="Trazado_198519" data-name="Trazado 198519" d="M284.155,262.173l-.093-28,124.562-8.016.117,35.376Z" transform="translate(-275.951 -217.387)" fill="#fff"/>
      </g>
      <rect id="Rectángulo_61538" data-name="Rectángulo 61538" width="229.022" height="53.315" transform="translate(19.077 293.63)" fill="#c9c9c9"/>
      <rect id="Rectángulo_61539" data-name="Rectángulo 61539" width="229.022" height="37.656" transform="translate(13.623 256.093)" fill="#a9c2a9"/>
      <rect id="Rectángulo_61540" data-name="Rectángulo 61540" width="229.021" height="44.873" transform="translate(22.403 211.312)" fill="#6488ad"/>
      <rect id="Rectángulo_61541" data-name="Rectángulo 61541" width="229.021" height="53.428" transform="translate(7.988 160.773)" fill="#b22b49"/>
      <rect id="Rectángulo_61542" data-name="Rectángulo 61542" width="229.022" height="53.428" transform="translate(13.152 107.003)" fill="#f7de8d"/>
      <rect id="Rectángulo_61543" data-name="Rectángulo 61543" width="229.021" height="18.378" transform="translate(18.316 88.422)" fill="#e8cbad"/>
      <rect id="Rectángulo_61544" data-name="Rectángulo 61544" width="229.021" height="18.378" transform="translate(7.988 73.912)" fill="#e8cbad"/>
      <path id="Trazado_198520" data-name="Trazado 198520" d="M499.794,316.1H270.773a19.22,19.22,0,0,0,0-9.188h0l229.021,4.594Z" transform="translate(-255.918 -251.421)" fill="#e3e4e3"/>
      <path id="Trazado_198521" data-name="Trazado 198521" d="M507.093,331.984H278.071a14.475,14.475,0,0,0,0-9.189H507.093Z" transform="translate(-258.994 -258.114)" fill="#dadadb"/>
      <rect id="Rectángulo_61545" data-name="Rectángulo 61545" width="142.188" height="36.944" transform="translate(24.304 169.015)" fill="#f0f0f0"/>
      <g id="Grupo_560650" data-name="Grupo 560650" transform="translate(202.748 219.074)">
        <ellipse id="Elipse_4989" data-name="Elipse 4989" cx="11.234" cy="11.541" rx="11.234" ry="11.541" transform="translate(0.545 0.56)" fill="#373736"/>
        <path id="Trazado_198522" data-name="Trazado 198522" d="M607.306,613.848a12.105,12.105,0,1,1,11.78-12.1A11.957,11.957,0,0,1,607.306,613.848Zm0-23.083A10.986,10.986,0,1,0,618,601.747,10.851,10.851,0,0,0,607.306,590.765Z" transform="translate(-595.527 -589.646)" fill="#beae97"/>
      </g>
      <g id="Grupo_560651" data-name="Grupo 560651" transform="translate(198.034 175.842)">
        <ellipse id="Elipse_4990" data-name="Elipse 4990" cx="11.234" cy="11.541" rx="11.234" ry="11.541" transform="translate(0.545 0.559)" fill="#373736"/>
        <path id="Trazado_198523" data-name="Trazado 198523" d="M599.158,539.126a12.105,12.105,0,1,1,11.779-12.1A11.956,11.956,0,0,1,599.158,539.126Zm0-23.083a10.986,10.986,0,1,0,10.69,10.982A10.851,10.851,0,0,0,599.158,516.043Z" transform="translate(-587.379 -514.924)" fill="#beae97"/>
      </g>
      <g id="Grupo_560652" data-name="Grupo 560652" transform="translate(196.56 127.337)">
        <ellipse id="Elipse_4991" data-name="Elipse 4991" cx="11.234" cy="11.541" rx="11.234" ry="11.541" transform="translate(0.545 0.56)" fill="#373736"/>
        <path id="Trazado_198524" data-name="Trazado 198524" d="M596.611,455.291a12.105,12.105,0,1,1,11.779-12.1A11.957,11.957,0,0,1,596.611,455.291Zm0-23.083A10.986,10.986,0,1,0,607.3,443.19,10.852,10.852,0,0,0,596.611,432.208Z" transform="translate(-584.832 -431.089)" fill="#beae97"/>
      </g>
      <g id="Grupo_560653" data-name="Grupo 560653" transform="translate(201.659 309.982)">
        <ellipse id="Elipse_4992" data-name="Elipse 4992" cx="11.234" cy="11.541" rx="11.234" ry="11.541" transform="translate(0.545 0.56)" fill="#373736"/>
        <path id="Trazado_198525" data-name="Trazado 198525" d="M605.423,770.974a12.105,12.105,0,1,1,11.78-12.1A11.957,11.957,0,0,1,605.423,770.974Zm0-23.083a10.986,10.986,0,1,0,10.69,10.982A10.851,10.851,0,0,0,605.423,747.891Z" transform="translate(-593.644 -746.772)" fill="#beae97"/>
      </g>
      <g id="Grupo_560654" data-name="Grupo 560654" transform="translate(166.491 12.531)">
        <ellipse id="Elipse_4993" data-name="Elipse 4993" cx="11.234" cy="11.541" rx="11.234" ry="11.541" transform="translate(0.545 0.56)" fill="#373736"/>
        <path id="Trazado_198526" data-name="Trazado 198526" d="M544.64,256.86a12.105,12.105,0,1,1,11.78-12.1A11.957,11.957,0,0,1,544.64,256.86Zm0-23.083a10.986,10.986,0,1,0,10.69,10.982A10.851,10.851,0,0,0,544.64,233.777Z" transform="translate(-532.861 -232.658)" fill="#beae97"/>
      </g>
      <path id="Trazado_198527" data-name="Trazado 198527" d="M560.364,426.839s73.151,42.813,121.834-30.49L743.5,435.3s-92.03,38.546-99.08,36.116C592.3,453.442,560.364,426.839,560.364,426.839Z" transform="translate(-377.96 -289.111)" fill="#f0f0f0"/>
      <path id="Trazado_198528" data-name="Trazado 198528" d="M608.625,257.93s13.489,6.175,50.2-12.562l39.313,15.369s-40.376,22.543-44.177,21.232C625.846,272.277,608.625,257.93,608.625,257.93Z" transform="translate(-398.299 -225.484)" fill="#f0f0f0"/>
      <path id="Trazado_198529" data-name="Trazado 198529" d="M652.059,632.276c-22.539-23.584-24.574-56.045-24.574-56.045s-3.845,38.747,9.229,88.927c.522,2.006,7.577,8.008,17.254,15.468C653.757,664.494,652.91,648.385,652.059,632.276Z" transform="translate(-406.025 -364.919)" fill="#000100" opacity="0.07" style="mix-blend-mode: multiply;isolation: isolate"/>
      <path id="Trazado_198530" data-name="Trazado 198530" d="M638.088,552.117s4.973,79.452,85.662,80.063l1.835,68.163s-76.5-52.512-78.268-59.3C634.243,590.865,638.088,552.117,638.088,552.117Z" transform="translate(-410.493 -354.756)" fill="#f0f0f0"/>
      <path id="Trazado_198531" data-name="Trazado 198531" d="M298.2,304.363c-5.051-1.037-10.137-1.891-15.236-2.636-4.827-.7-9.772-1.016-14.564-1.922l8.761,1.656L262.907,298.5a23.663,23.663,0,0,0,6.965,3.359c.031.009.019.053-.013.05l-7.056-.451a.028.028,0,0,0-.013.053c5.57,3.107,9.47,2.906,9.47,2.906l24.017-.459Z" transform="translate(-252.548 -247.875)" fill="#e3e4e3"/>
      <path id="Trazado_198532" data-name="Trazado 198532" d="M633.214,294.469l29.8,11.085v1.1l-55.94-18.247Z" transform="translate(-397.645 -243.622)" fill="#f0f0f0"/>
      <g id="Grupo_560655" data-name="Grupo 560655" transform="translate(87.629 73.87)">
        <path id="Trazado_198533" data-name="Trazado 198533" d="M396.556,338.677s104.622,50.665,108.357,69.389l29.232-24.406S440.611,339.05,396.556,338.677Z" transform="translate(-396.556 -338.677)" fill="#000100" opacity="0.2" style="mix-blend-mode: multiply;isolation: isolate"/>
        <path id="Trazado_198534" data-name="Trazado 198534" d="M538.108,399.871h0A266.914,266.914,0,0,0,452.915,354.8l-56.359-16.12H605.979Z" transform="translate(-396.556 -338.677)" fill="#e3e4e3"/>
      </g>
      <path id="Trazado_198535" data-name="Trazado 198535" d="M293.388,418.059v8.689a8.157,8.157,0,0,1,0,15.527V451.8H339.33V418.059Z" transform="translate(-265.449 -298.261)" fill="#f6f1e3"/>
      <path id="Trazado_198536" data-name="Trazado 198536" d="M303.456,664.765v6.38c3.267.726,5.654,3,5.654,5.7s-2.387,4.975-5.654,5.7v6.991H349.4V664.765Z" transform="translate(-269.692 -402.23)" fill="#f0f0f0"/>
      <rect id="Rectángulo_61546" data-name="Rectángulo 61546" width="1.101" height="28.224" transform="translate(62.615 122.465)" fill="#9a8473"/>
      <rect id="Rectángulo_61547" data-name="Rectángulo 61547" width="5.168" height="28.224" transform="translate(65.992 122.465)" fill="#e8cbad"/>
      <rect id="Rectángulo_61548" data-name="Rectángulo 61548" width="132.166" height="26.555" transform="translate(37.682 307.103)" fill="#f0f0f0"/>
      <rect id="Rectángulo_61549" data-name="Rectángulo 61549" width="132.166" height="26.555" transform="translate(37.682 217.897)" fill="#f0f0f0"/>
      <g id="Grupo_560656" data-name="Grupo 560656" transform="translate(47.97 268.186)" opacity="0.16">
        <rect id="Rectángulo_61550" data-name="Rectángulo 61550" width="3.108" height="15.915" transform="translate(0 0)" fill="#6488ad"/>
        <rect id="Rectángulo_61551" data-name="Rectángulo 61551" width="3.108" height="15.915" transform="translate(7.212 0)" fill="#6488ad"/>
        <rect id="Rectángulo_61552" data-name="Rectángulo 61552" width="3.108" height="15.915" transform="translate(16.468 0)" fill="#6488ad"/>
      </g>
      <rect id="Rectángulo_61553" data-name="Rectángulo 61553" width="4.986" height="22.354" transform="translate(216.446 264.953)" fill="#f7de8d"/>
    </g>
  </g>
</svg>
