<svg xmlns="http://www.w3.org/2000/svg" width="505.001" height="418.385" viewBox="0 0 505.001 418.385">
  <g id="Grupo_560612" data-name="Grupo 560612" transform="translate(-915 -16510)">
    <g id="Grupo_560481" data-name="Grupo 560481" transform="translate(927.31 16527.721)">
      <g id="Grupo_560472" data-name="Grupo 560472" transform="translate(0 79.813)">
        <path id="Trazado_198300" data-name="Trazado 198300" d="M300.254,334.335c-.5-.538-1.018-1.06-1.538-1.579v0h0c-4.863-4.866-10.554-8.982-16.084-12.967-9.056-6.527-17.611-12.692-22.927-21.916-3.55-6.162-5.3-13.3-6.987-20.2-.544-2.219-1.106-4.513-1.72-6.749-3.354-12.2-8.141-19.946-15.068-24.388-5.4-3.466-11.822-4.584-18.027-5.665-5.643-.983-11.478-2-16.4-4.8-5.168-2.941-9.134-7.725-12.97-12.352l-.239-.289c-4.4-5.311-8.5-9.938-14.049-12.752-5.447-2.763-13.331-3.5-18.67,1.085-6.693,5.75-5.637,16.462-1.823,23.981a84.726,84.726,0,0,0,5.341,8.71c2.646,3.949,5.383,8.031,6.939,12.524,2.418,6.982,1.965,14.79,1.526,22.342-.526,9.074-1.071,18.458,3.349,26.528,4.928,9,14.409,13.543,23.577,17.937,7.449,3.57,15.152,7.26,20.413,13.316,7.137,8.215,8.738,18.986,10.433,30.39,1.078,7.25,2.193,14.748,4.862,21.555a47.627,47.627,0,0,0,22.67,24.859,68.789,68.789,0,0,0,27.828,6.654,25.875,25.875,0,0,0,11.033-2.051c12.261-5.9,20.855-23.008,23.008-36.86A57.979,57.979,0,0,0,300.254,334.335Zm-3.552-.93-9.736,59.455-20.086-27.952.046.008,7.941-48.493c2.2,1.672,4.437,3.288,6.659,4.889A134.247,134.247,0,0,1,296.7,333.4Zm-23.5-18.274-.025,0L265.367,362.8,245.28,334.847l.047.008,7.859-47.992a55.005,55.005,0,0,0,4.885,11.944C261.845,305.356,267.3,310.5,273.2,315.131Zm-24.019-43.708c.608,2.209,1.166,4.491,1.706,6.7.359,1.462.723,2.934,1.1,4.407l-8.222,50.215-20.088-27.953.047.008,9.445-57.679c.589.312,1.172.64,1.739,1C241.422,252.3,245.955,259.7,249.179,271.423ZM231.4,246.27l-9.237,56.411-20.087-27.953.046.008,5.587-34.116a92.541,92.541,0,0,0,9.864,2.1C222.479,243.578,227.165,244.41,231.4,246.27Zm-44.318-21.349c3.943,4.757,8.021,9.676,13.488,12.787a30.613,30.613,0,0,0,5.327,2.34l-5.334,32.574-20.087-27.953.047.008,3.773-23.044c.845.97,1.689,1.967,2.547,3Zm-21.976-14.583a18.737,18.737,0,0,1,8.285,2.02,33.454,33.454,0,0,1,9.291,7.477l-3.721,22.726-21.481-29.894A12.75,12.75,0,0,1,165.108,210.338Zm-9.047,3.577,21.1,29.37-18.6-3.046a60.31,60.31,0,0,1-3.138-5.344C152.095,228.318,150.994,219.159,156.061,213.915Zm11.749,42.449c-1.636-4.723-4.441-8.909-7.154-12.956-.229-.342-.458-.689-.688-1.032l18.751,3.071,20.047,27.9L169.809,268.6l-.037.224A40.352,40.352,0,0,0,167.81,256.364Zm1.627,23.066c.171-2.953.343-5.945.351-8.923l30.532,5,20.047,27.9-50.887-8.333C168.825,290.116,169.122,284.863,169.437,279.43Zm3.121,25.516a26.642,26.642,0,0,1-2.763-7.915l52.127,8.536,20.046,27.9-35.415-5.8-.041.251c-3.588-2.172-7.433-4.016-11.214-5.827C185.988,317.628,177.2,313.413,172.558,304.945Zm43.761,30.923a36.484,36.484,0,0,0-6.458-5.754l33.661,5.511,20.047,27.9-37.932-6.211-.037.225C224.056,349.629,221.654,342.008,216.318,335.869Zm9.608,23.4,39.2,6.418,20.047,27.9-54.49-8.923a120.872,120.872,0,0,1-3.488-17.444C226.8,364.573,226.4,361.91,225.926,359.268Zm64.981,57.546c-9.236,4.444-27.858.107-37.2-4.589a45.721,45.721,0,0,1-21.764-23.864c-.216-.553-.409-1.12-.606-1.684l55.385,9.069,11.411,15.879A27.684,27.684,0,0,1,290.907,416.814Zm21.963-35.452c-1.522,9.8-6.343,21.255-13.4,28.891l-10.984-15.286.047.008,9.81-59.912c.177.185.362.363.536.551A56.059,56.059,0,0,1,312.87,381.362Z" transform="translate(-130.597 -208.466)" fill="#0d5155"/>
        <g id="Grupo_560471" data-name="Grupo 560471" transform="translate(0 118.669)">
          <g id="Grupo_560469" data-name="Grupo 560469">
            <g id="Grupo_560468" data-name="Grupo 560468">
              <path id="Trazado_198301" data-name="Trazado 198301" d="M226.187,431.177c-12.98-7.1-23.091-18.459-31.985-30.284s-16.9-24.391-27.05-35.156a117.632,117.632,0,0,0-36.344-26.076,2.5,2.5,0,0,1,.882-4.768c25.952-1.332,52.265,1.193,76.371,10.693,27.443,10.814,51.813,31.464,62.821,58.831,4.165,10.357,7.54,28.519-6.31,32.211C251.995,439.981,237.412,437.318,226.187,431.177Z" transform="translate(-129.338 -334.563)" fill="#1a878e"/>
            </g>
          </g>
          <g id="Grupo_560470" data-name="Grupo 560470" transform="translate(6.261 2.074)">
            <path id="Trazado_198302" data-name="Trazado 198302" d="M269.626,429.621a.942.942,0,0,1-.867-.571c-17.38-40.716-52.318-63.126-78.567-74.757a207.768,207.768,0,0,0-53.37-15.648.941.941,0,1,1,.219-1.87,209.969,209.969,0,0,1,53.913,15.8c26.558,11.767,61.915,34.459,79.536,75.739a.94.94,0,0,1-.5,1.235A.931.931,0,0,1,269.626,429.621Z" transform="translate(-135.99 -336.767)" fill="#0d5155"/>
          </g>
        </g>
      </g>
      <g id="Grupo_560480" data-name="Grupo 560480" transform="translate(298.731 0)">
        <g id="Grupo_560475" data-name="Grupo 560475">
          <g id="Grupo_560473" data-name="Grupo 560473">
            <path id="Trazado_198303" data-name="Trazado 198303" d="M447.375,197.616a22.483,22.483,0,0,1,10.917-15.151c9.159-5.145,22.513-4.367,28.825-12.617,6.247-8.168,3.189-22.592,11.312-28.92,7.378-5.746,20.04-1.585,28.519-5.838,4.231-2.122,6.979-6.136,10.773-8.869s9.734-3.9,14.018-.358a11.333,11.333,0,0,1,3.552,10.829c-.761,3.6-2.993,6.483-5.213,9.226s-4.525,5.54-5.469,9.072c-1.821,6.818,1.722,15.195-.483,21.842-1.748,5.266-6.764,8.354-11.879,10.46s-10.691,3.6-14.867,7.031c-8.03,6.6-9.2,18.769-15.192,27.271-5.481,7.772-15.19,12.143-25.608,11.527-8.089-.477-19.854-4.426-25.556-11.756C446.489,215.539,446.159,203.491,447.375,197.616Z" transform="translate(-446.769 -123.656)" fill="#1a878e"/>
          </g>
          <g id="Grupo_560474" data-name="Grupo 560474" transform="translate(8.247 1.267)">
            <path id="Trazado_198304" data-name="Trazado 198304" d="M456.474,227a.941.941,0,0,1-.68-1.591l95.78-100.12a.942.942,0,1,1,1.361,1.3l-95.781,100.12A.937.937,0,0,1,456.474,227Z" transform="translate(-455.532 -125.003)" fill="#136065"/>
          </g>
        </g>
        <g id="Grupo_560479" data-name="Grupo 560479" transform="translate(40.904 52.648)">
          <g id="Grupo_560477" data-name="Grupo 560477">
            <g id="Grupo_560476" data-name="Grupo 560476">
              <path id="Trazado_198305" data-name="Trazado 198305" d="M512.065,217.029c7.276-1.227,13.893-4.928,20.014-9.047s11.944-8.733,18.485-12.149a58.649,58.649,0,0,1,21.381-6.351,1.245,1.245,0,0,0,.363-2.391c-12.011-4.864-24.82-7.97-37.729-7.43-14.7.615-29.549,6.366-39.2,17.463-3.654,4.2-8.209,12.206-2.286,16.207C498.469,216.964,505.774,218.09,512.065,217.029Z" transform="translate(-490.234 -179.6)" fill="#1a878e"/>
            </g>
          </g>
          <g id="Grupo_560478" data-name="Grupo 560478" transform="translate(1.509 5.843)">
            <path id="Trazado_198306" data-name="Trazado 198306" d="M492.307,209.6a.469.469,0,0,1-.347-.784c28.77-31.7,77.334-21.449,77.821-21.342a.471.471,0,0,1,.358.559.465.465,0,0,1-.56.358c-.481-.105-48.524-10.234-76.924,21.056A.471.471,0,0,1,492.307,209.6Z" transform="translate(-491.838 -185.809)" fill="#0c4d52"/>
          </g>
        </g>
      </g>
    </g>
    <g id="Grupo_560496" data-name="Grupo 560496" transform="translate(1263.18 16610.563)">
      <g id="Grupo_560486" data-name="Grupo 560486" transform="translate(33.49 1.963)">
        <g id="Grupo_560484" data-name="Grupo 560484">
          <rect id="Rectángulo_61421" data-name="Rectángulo 61421" width="35.46" height="239.358" fill="#df5c5b"/>
          <rect id="Rectángulo_61422" data-name="Rectángulo 61422" width="28.018" height="129.036" transform="translate(3.721 8.865)" fill="#fff"/>
          <g id="Grupo_560482" data-name="Grupo 560482" transform="translate(5.498 12.313)">
            <rect id="Rectángulo_61423" data-name="Rectángulo 61423" width="24.465" height="2.893" fill="#df5c5b"/>
            <rect id="Rectángulo_61424" data-name="Rectángulo 61424" width="24.465" height="2.893" transform="translate(0 117.216)" fill="#df5c5b"/>
          </g>
          <g id="Grupo_560483" data-name="Grupo 560483" transform="translate(4.925 181.735)">
            <ellipse id="Elipse_4973" data-name="Elipse 4973" cx="12.805" cy="12.805" rx="12.805" ry="12.805" fill="#c6c6c6"/>
            <ellipse id="Elipse_4974" data-name="Elipse 4974" cx="10.865" cy="10.865" rx="10.865" ry="10.865" transform="translate(1.94 1.94)" fill="#5680ba"/>
          </g>
        </g>
        <g id="Grupo_560485" data-name="Grupo 560485" transform="translate(3.089 230.985)">
          <line id="Línea_243" data-name="Línea 243" x2="5.931" transform="translate(0 4.433)" fill="none" stroke="#121424" stroke-miterlimit="10" stroke-width="0.75"/>
          <line id="Línea_244" data-name="Línea 244" x2="3.448" fill="none" stroke="#121424" stroke-miterlimit="10" stroke-width="0.75"/>
        </g>
      </g>
      <g id="Grupo_560491" data-name="Grupo 560491" transform="translate(0 1.963)">
        <g id="Grupo_560489" data-name="Grupo 560489">
          <rect id="Rectángulo_61425" data-name="Rectángulo 61425" width="35.46" height="239.358" fill="#eab23d"/>
          <rect id="Rectángulo_61426" data-name="Rectángulo 61426" width="28.018" height="129.036" transform="translate(3.721 8.865)" fill="#fff"/>
          <g id="Grupo_560487" data-name="Grupo 560487" transform="translate(5.498 12.313)">
            <rect id="Rectángulo_61427" data-name="Rectángulo 61427" width="24.465" height="2.893" fill="#eab23d"/>
            <rect id="Rectángulo_61428" data-name="Rectángulo 61428" width="24.465" height="2.893" transform="translate(0 117.216)" fill="#eab23d"/>
          </g>
          <g id="Grupo_560488" data-name="Grupo 560488" transform="translate(4.925 181.735)">
            <ellipse id="Elipse_4975" data-name="Elipse 4975" cx="12.805" cy="12.805" rx="12.805" ry="12.805" fill="#c6c6c6"/>
            <ellipse id="Elipse_4976" data-name="Elipse 4976" cx="10.865" cy="10.865" rx="10.865" ry="10.865" transform="translate(1.94 1.94)" fill="#5680ba"/>
          </g>
        </g>
        <g id="Grupo_560490" data-name="Grupo 560490" transform="translate(17.864 231.478)">
          <line id="Línea_245" data-name="Línea 245" x1="2.996" transform="translate(5.91)" fill="none" stroke="#121424" stroke-miterlimit="10" stroke-width="0.75"/>
          <line id="Línea_246" data-name="Línea 246" x2="7.895" transform="translate(0 4.433)" fill="none" stroke="#121424" stroke-miterlimit="10" stroke-width="0.75"/>
        </g>
      </g>
      <g id="Grupo_560495" data-name="Grupo 560495" transform="translate(68.631 0)">
        <g id="Grupo_560494" data-name="Grupo 560494">
          <rect id="Rectángulo_61429" data-name="Rectángulo 61429" width="35.46" height="239.358" transform="translate(0 7.945) rotate(-12.948)" fill="#c5defc"/>
          <rect id="Rectángulo_61430" data-name="Rectángulo 61430" width="28.018" height="129.036" transform="translate(5.613 15.751) rotate(-12.947)" fill="#fff"/>
          <g id="Grupo_560492" data-name="Grupo 560492" transform="translate(8.117 13.231)">
            <rect id="Rectángulo_61431" data-name="Rectángulo 61431" width="24.465" height="2.894" transform="translate(0 5.482) rotate(-12.948)" fill="#c5defc"/>
            <rect id="Rectángulo_61432" data-name="Rectángulo 61432" width="24.465" height="2.893" transform="matrix(0.975, -0.224, 0.224, 0.975, 26.263, 119.718)" fill="#c5defc"/>
          </g>
          <g id="Grupo_560493" data-name="Grupo 560493" transform="translate(43.185 175.884)">
            <ellipse id="Elipse_4977" data-name="Elipse 4977" cx="12.805" cy="12.805" rx="12.805" ry="12.805" transform="matrix(0.538, -0.843, 0.843, 0.538, 0, 21.59)" fill="#c6c6c6"/>
            <ellipse id="Elipse_4978" data-name="Elipse 4978" cx="10.865" cy="10.865" rx="10.865" ry="10.865" transform="translate(4.801 9.306) rotate(-11.966)" fill="#5680ba"/>
          </g>
        </g>
        <path id="Trazado_198307" data-name="Trazado 198307" d="M600.157,439.025l10.835-2.955" transform="translate(-544.05 -203.122)" fill="none" stroke="#121424" stroke-miterlimit="10" stroke-width="0.75"/>
      </g>
    </g>
    <g id="Grupo_560534" data-name="Grupo 560534" transform="translate(1279.584 16688.787)">
      <g id="Grupo_560503" data-name="Grupo 560503" transform="translate(5.616 94.602)">
        <g id="Grupo_560498" data-name="Grupo 560498" transform="translate(0 113.499)">
          <g id="Grupo_560497" data-name="Grupo 560497" transform="translate(17.717)">
            <path id="Trazado_198308" data-name="Trazado 198308" d="M548.9,431.154c-.666,3.629-1.046,5.744-1.046,5.744l10.768,6.683,2.2-8.555C557.069,433.933,552.6,432.425,548.9,431.154Z" transform="translate(-547.857 -431.154)" fill="#a8a5a5"/>
          </g>
          <path id="Trazado_198309" data-name="Trazado 198309" d="M551.132,434.351a20.8,20.8,0,0,1-5.441,1.614c-2.34.2-11.259-3.482-12.243,1.277l21.024,7.351,2.523-1.217-.724,2.073,4.195,1.466s3.242-4.084,2.716-7.444c0,0-3.986,1.67-6.9-.709S551.132,434.351,551.132,434.351Z" transform="translate(-533.447 -430.42)" fill="#a8a5a5"/>
        </g>
        <g id="Grupo_560500" data-name="Grupo 560500" transform="translate(114.276 85.349)">
          <g id="Grupo_560499" data-name="Grupo 560499">
            <path id="Trazado_198310" data-name="Trazado 198310" d="M633.615,408.258c-.364.494-.732.986-1.091,1.485-2.176,3.031-4.184,6.142-6.129,9.316l6.49,4,4.384.727,4.611-9.528S636.656,410.657,633.615,408.258Z" transform="translate(-626.395 -408.258)" fill="#a8a5a5"/>
          </g>
          <path id="Trazado_198311" data-name="Trazado 198311" d="M631.891,422.382a20.828,20.828,0,0,1,.177,5.673c-.4,2.314-6.231,10-1.877,12.166l12.455-18.463-.535-2.75,1.82,1.227,2.486-3.683s-3.125-4.175-6.51-4.52c0,0,.6,4.28-2.441,6.49S631.891,422.382,631.891,422.382Z" transform="translate(-625.892 -407.392)" fill="#a8a5a5"/>
        </g>
        <g id="Grupo_560502" data-name="Grupo 560502" transform="translate(18.029)">
          <path id="Trazado_198312" data-name="Trazado 198312" d="M616.325,338.838a64.972,64.972,0,0,1,3.125,18.21c.135,9.648.95,41.444.95,41.444l36.281,29.079-7.2,12.638s-45.657-26.362-47.831-30.846-8.832-47.831-8.832-47.831L560.34,458.825l-12.229-4.892,25.274-114.687Z" transform="translate(-548.111 -338.838)" fill="#fff"/>
          <g id="Grupo_560501" data-name="Grupo 560501" transform="translate(10.507 3.391)">
            <path id="Trazado_198313" data-name="Trazado 198313" d="M601.49,341.929l3.688,56.965L641.448,428.4" transform="translate(-546.369 -341.52)" fill="none" stroke="#121424" stroke-miterlimit="10" stroke-width="0.75"/>
            <path id="Trazado_198314" data-name="Trazado 198314" d="M590.877,357.926l-3.893-2.664L556.657,453.21" transform="translate(-556.657 -338.46)" fill="none" stroke="#121424" stroke-miterlimit="10" stroke-width="0.75"/>
            <path id="Trazado_198315" data-name="Trazado 198315" d="M597.009,341.6s-1.435,13.934,6.353,13.524" transform="translate(-547.421 -341.596)" fill="none" stroke="#121424" stroke-miterlimit="10" stroke-width="0.75"/>
          </g>
        </g>
      </g>
      <g id="Grupo_560523" data-name="Grupo 560523" transform="translate(0 25.506)">
        <g id="Grupo_560504" data-name="Grupo 560504" transform="translate(5.779 22.718)">
          <path id="Trazado_198316" data-name="Trazado 198316" d="M550.727,344.878c-3.7,3.027-6.188,5.049-6.583,5.368l-.007.006a17.69,17.69,0,0,0-6.988.7c-.972.282-1.094.9-1.06,1.3a.319.319,0,0,0,.4.285c.939-.205,2.8-.289,3.177.312.423.677-6.37,3.88-6.076,4.934.119.423,5.016-1.725,5.016-1.725s-4.812,3.3-4.184,3.733,5.241-1.918,5.241-1.918-4.406,3.872-3.59,4.042,4.647-2.33,4.647-2.33c-1.453,1.587-1.821,2.443-1.885,2.872a.229.229,0,0,0,.339.247c2.231-1.161,5.766-5.748,7.188-7.671h0l.039.084a80.059,80.059,0,0,0,8.252-2.586A69.346,69.346,0,0,1,550.727,344.878Z" transform="translate(-533.579 -291.074)" fill="#b66f4c"/>
          <path id="Trazado_198317" data-name="Trazado 198317" d="M543.657,358.158l3.227,7.992s27.048-11.373,31.5-17.827,9.989-38.574,9.067-41.341-6.916-6.762-9.836-5.686-12.6,38.574-12.6,38.574Z" transform="translate(-531.267 -301.116)" fill="#df5c5b"/>
        </g>
        <g id="Grupo_560508" data-name="Grupo 560508" transform="translate(46.591)">
          <g id="Grupo_560505" data-name="Grupo 560505" transform="translate(3.371)">
            <path id="Trazado_198318" data-name="Trazado 198318" d="M609.016,303.85a8.815,8.815,0,0,0-5.747-2.284,11.078,11.078,0,0,1-7.548-2.9c-1.068-5.835.395-14.665.6-15.891.01-.049.016-.092.027-.141l-14.567,8.191a3.871,3.871,0,0,1,.44,1.6v0a17.768,17.768,0,0,1-.316,4.457c-.22,1.257-.493,2.395-.689,3.154-1.82,2.813-4.495,3.537-8.591,6-5.6,3.367-2.129,12.7-1.152,22.16,1.072,10.374,1.442,24.4,1.442,24.4h35.185c-.934-8.67,1.272-21.579,3.709-35.808C613.032,309.689,611.176,305.88,609.016,303.85Z" transform="translate(-569.516 -282.638)" fill="#b66f4c"/>
            <path id="Trazado_198319" data-name="Trazado 198319" d="M579.6,295.878c7.92,1,11.931-8.457,12.078-8.81a9.342,9.342,0,0,1-5.653,4.055,15.513,15.513,0,0,1-6.061.31c-.016-.006-.032-.006-.048-.011A17.765,17.765,0,0,1,579.6,295.878Z" transform="translate(-567.203 -281.621)" fill="#ac543e"/>
          </g>
          <g id="Grupo_560507" data-name="Grupo 560507" transform="translate(0 15.875)">
            <path id="Trazado_198320" data-name="Trazado 198320" d="M581.332,297.271s8.154,4.711,15.31-1.721c0,0,4.982,2.627,8.424,2.356s10.146,3.08,10.418,11.234-5.435,28.9-3.624,31.525,3.9,6.342,2.99,9.15-41.219,1.811-46.2.272c-2.214-.685-2.156-3.033-1.409-5.432a46.8,46.8,0,0,0,1.8-17.911c-.622-7.3-1.157-15.724-.575-18.148,1.088-4.529,3.805-6.251,5.979-6.975S581.332,297.271,581.332,297.271Z" transform="translate(-566.775 -295.55)" fill="#12263f"/>
            <g id="Grupo_560506" data-name="Grupo 560506" transform="translate(13.994 1.49)">
              <path id="Trazado_198321" data-name="Trazado 198321" d="M578.157,299.426s9.016,6.147,16.392-2.664" transform="translate(-578.157 -296.762)" fill="none" stroke="#121424" stroke-miterlimit="10" stroke-width="0.75"/>
              <path id="Trazado_198322" data-name="Trazado 198322" d="M578.638,326.271l5.1-6.374" transform="translate(-578.047 -291.453)" fill="none" stroke="#121424" stroke-miterlimit="10" stroke-width="0.75"/>
            </g>
          </g>
        </g>
        <g id="Grupo_560522" data-name="Grupo 560522" transform="translate(0 6.528)">
          <g id="Grupo_560518" data-name="Grupo 560518">
            <g id="Grupo_560511" data-name="Grupo 560511" transform="translate(0 58.901)">
              <g id="Grupo_560509" data-name="Grupo 560509" transform="translate(0 0)">
                <rect id="Rectángulo_61433" data-name="Rectángulo 61433" width="51.636" height="31.323" transform="translate(2.646 4.64) rotate(4.846)" fill="#eab23d"/>
                <rect id="Rectángulo_61434" data-name="Rectángulo 61434" width="55.984" height="4.484" transform="translate(0.994 0) rotate(4.846)" fill="#e9a235"/>
                <rect id="Rectángulo_61435" data-name="Rectángulo 61435" width="19.364" height="31.323" transform="matrix(0.996, 0.084, -0.084, 0.996, 34.803, 7.367)" fill="#e9a235"/>
                <rect id="Rectángulo_61436" data-name="Rectángulo 61436" width="11.143" height="3.329" transform="translate(38.41 10.673) rotate(4.846)" fill="#4b330c"/>
                <rect id="Rectángulo_61437" data-name="Rectángulo 61437" width="15.627" height="4.892" transform="translate(10.559 11.039) rotate(4.846)" fill="#fff"/>
                <rect id="Rectángulo_61438" data-name="Rectángulo 61438" width="23.236" height="4.484" transform="translate(33.625 2.767) rotate(4.846)" fill="#d58f28"/>
              </g>
              <g id="Grupo_560510" data-name="Grupo 560510" transform="translate(1.585 31.851)">
                <path id="Trazado_198323" data-name="Trazado 198323" d="M530.168,363.176l10.867,1.379" transform="translate(-530.168 -361.438)" fill="none" stroke="#121424" stroke-miterlimit="10" stroke-width="0.75"/>
                <path id="Trazado_198324" data-name="Trazado 198324" d="M531.157,361.762l6.147.82" transform="translate(-529.941 -361.762)" fill="none" stroke="#121424" stroke-miterlimit="10" stroke-width="0.75"/>
              </g>
            </g>
            <g id="Grupo_560514" data-name="Grupo 560514" transform="translate(3.019 23.291)">
              <g id="Grupo_560512" data-name="Grupo 560512" transform="translate(0)">
                <rect id="Rectángulo_61439" data-name="Rectángulo 61439" width="51.636" height="31.323" transform="translate(2.646 4.64) rotate(4.846)" fill="#eab23d"/>
                <rect id="Rectángulo_61440" data-name="Rectángulo 61440" width="55.984" height="4.484" transform="matrix(0.996, 0.084, -0.084, 0.996, 0.994, 0)" fill="#e9a235"/>
                <rect id="Rectángulo_61441" data-name="Rectángulo 61441" width="19.364" height="31.323" transform="translate(34.803 7.367) rotate(4.846)" fill="#e9a235"/>
                <rect id="Rectángulo_61442" data-name="Rectángulo 61442" width="11.143" height="3.329" transform="translate(38.41 10.673) rotate(4.846)" fill="#4b330c"/>
                <rect id="Rectángulo_61443" data-name="Rectángulo 61443" width="15.627" height="4.892" transform="translate(10.559 11.039) rotate(4.846)" fill="#fff"/>
                <rect id="Rectángulo_61444" data-name="Rectángulo 61444" width="23.236" height="4.484" transform="translate(33.625 2.767) rotate(4.846)" fill="#d58f28"/>
              </g>
              <g id="Grupo_560513" data-name="Grupo 560513" transform="translate(1.842 31.972)">
                <path id="Trazado_198325" data-name="Trazado 198325" d="M532.833,334.358l9.832,1.257" transform="translate(-532.833 -332.561)" fill="none" stroke="#121424" stroke-miterlimit="10" stroke-width="0.75"/>
                <path id="Trazado_198326" data-name="Trazado 198326" d="M533.494,332.9l4.917.626" transform="translate(-532.681 -332.896)" fill="none" stroke="#121424" stroke-miterlimit="10" stroke-width="0.75"/>
              </g>
            </g>
            <g id="Grupo_560517" data-name="Grupo 560517" transform="translate(13.894)">
              <g id="Grupo_560515" data-name="Grupo 560515" transform="translate(0)">
                <rect id="Rectángulo_61445" data-name="Rectángulo 61445" width="35.96" height="21.814" transform="translate(1.843 3.232) rotate(4.846)" fill="#eab23d"/>
                <rect id="Rectángulo_61446" data-name="Rectángulo 61446" width="38.988" height="3.123" transform="translate(0.692 0) rotate(4.846)" fill="#e9a235"/>
                <rect id="Rectángulo_61447" data-name="Rectángulo 61447" width="13.485" height="21.814" transform="translate(24.237 5.13) rotate(4.846)" fill="#e9a235"/>
                <rect id="Rectángulo_61448" data-name="Rectángulo 61448" width="7.76" height="2.318" transform="translate(26.749 7.433) rotate(4.846)" fill="#4b330c"/>
                <rect id="Rectángulo_61449" data-name="Rectángulo 61449" width="10.883" height="3.407" transform="translate(7.353 7.688) rotate(4.846)" fill="#fff"/>
                <rect id="Rectángulo_61450" data-name="Rectángulo 61450" width="16.182" height="3.123" transform="matrix(0.996, 0.084, -0.084, 0.996, 23.417, 1.927)" fill="#d58f28"/>
              </g>
              <g id="Grupo_560516" data-name="Grupo 560516" transform="translate(1.817 21.698)">
                <path id="Trazado_198327" data-name="Trazado 198327" d="M541.657,306.929l6.762.82" transform="translate(-541.657 -305.29)" fill="none" stroke="#121424" stroke-miterlimit="10" stroke-width="0.75"/>
                <path id="Trazado_198328" data-name="Trazado 198328" d="M542.157,305.6l4.713.819" transform="translate(-541.542 -305.596)" fill="none" stroke="#121424" stroke-miterlimit="10" stroke-width="0.75"/>
              </g>
            </g>
          </g>
          <g id="Grupo_560521" data-name="Grupo 560521" transform="translate(36.762 12.211)">
            <path id="Trazado_198329" data-name="Trazado 198329" d="M573.589,342.674c-2.391,1.954-3.941,3.211-4.245,3.457l-.007.006a17.7,17.7,0,0,0-6.988.7c-.973.283-1.094.9-1.059,1.3a.319.319,0,0,0,.4.286c.941-.207,2.8-.29,3.177.311.423.677-6.37,3.881-6.075,4.934.118.424,5.015-1.725,5.015-1.725s-4.811,3.3-4.183,3.733,5.241-1.918,5.241-1.918-4.406,3.872-3.59,4.042,4.646-2.329,4.646-2.329c-1.453,1.586-1.821,2.442-1.885,2.872a.229.229,0,0,0,.339.246c2.233-1.161,5.767-5.747,7.188-7.669h0l.039.085c1.628-.412,3.235-.884,4.826-1.4C575.492,347.289,574.632,344.944,573.589,342.674Z" transform="translate(-558.779 -287.601)" fill="#b66f4c"/>
            <g id="Grupo_560520" data-name="Grupo 560520" transform="translate(12.838)">
              <path id="Trazado_198330" data-name="Trazado 198330" d="M569.221,353.672s2.445,9.921,3.26,11.143,28.536-13.86,31.39-18.752,11.007-34.65,10.736-38.048-3.38-11.468-11.269-9.946S590.555,335.6,590.555,335.6Z" transform="translate(-569.221 -297.879)" fill="#12263f"/>
              <g id="Grupo_560519" data-name="Grupo 560519" transform="translate(5.3 28.902)">
                <path id="Trazado_198331" data-name="Trazado 198331" d="M592.407,346.13s5.84-2.766,7.53-8.76,5.071-15.983,5.071-15.983S607.007,342.442,592.407,346.13Z" transform="translate(-569.201 -321.387)" fill="#121424"/>
                <path id="Trazado_198332" data-name="Trazado 198332" d="M573.532,342.526l16.29-13.831,2-.307" transform="translate(-573.532 -319.781)" fill="none" stroke="#121424" stroke-miterlimit="10" stroke-width="0.75"/>
                <line id="Línea_247" data-name="Línea 247" x1="0.538" y2="5.763" transform="translate(16.29 3.151)" fill="none" stroke="#121424" stroke-miterlimit="10" stroke-width="0.75"/>
              </g>
            </g>
          </g>
        </g>
      </g>
      <g id="Grupo_560533" data-name="Grupo 560533" transform="translate(50.21 0)">
        <g id="Grupo_560531" data-name="Grupo 560531" transform="translate(4.63 4.863)">
          <path id="Trazado_198333" data-name="Trazado 198333" d="M599.484,282.1a2.6,2.6,0,0,0-2.932-1.838,2.222,2.222,0,0,0-.376.152c.173-4.179-.438-8.756-3.342-11.283-6.251-5.435-15.22-3.533-17.122,1.359-2.175,5.593-2.286,12.516-2.213,18.436a7.108,7.108,0,0,0,.291,2.3c.993,2.809,5,4.543,7.705,5.1a11.423,11.423,0,0,0,9.71-2.458,12.624,12.624,0,0,0,4.164-7.088,5.514,5.514,0,0,0,1.7-.167,4.337,4.337,0,0,0,1.971-1.646A3.451,3.451,0,0,0,599.484,282.1Z" transform="translate(-573.484 -265.848)" fill="#b66f4c"/>
          <g id="Grupo_560530" data-name="Grupo 560530" transform="translate(0.651 8.303)">
            <g id="Grupo_560529" data-name="Grupo 560529">
              <g id="Grupo_560526" data-name="Grupo 560526" transform="translate(2.306 4.518)">
                <g id="Grupo_560524" data-name="Grupo 560524">
                  <path id="Trazado_198334" data-name="Trazado 198334" d="M577.495,277.919c0,.907-.359,1.644-.8,1.644s-.8-.736-.8-1.644.36-1.643.8-1.643S577.495,277.011,577.495,277.919Z" transform="translate(-575.889 -276.276)" fill="#121424"/>
                </g>
                <g id="Grupo_560525" data-name="Grupo 560525" transform="translate(6.951)">
                  <path id="Trazado_198335" data-name="Trazado 198335" d="M581.543,277.919c0,.907.359,1.644.8,1.644s.8-.736.8-1.644-.36-1.643-.8-1.643S581.543,277.011,581.543,277.919Z" transform="translate(-581.543 -276.276)" fill="#121424"/>
                </g>
              </g>
              <g id="Grupo_560527" data-name="Grupo 560527" transform="translate(3.571 11.132)">
                <path id="Trazado_198336" data-name="Trazado 198336" d="M576.918,281.655a3.942,3.942,0,0,0,1.21,1.376,3.072,3.072,0,0,0,1.8.6,3.11,3.11,0,0,0,1.787-.617,5.91,5.91,0,0,0,.693-.616c.188-.243.373-.487.539-.739-.248.182-.475.375-.7.562-.253.154-.478.342-.734.471a3.314,3.314,0,0,1-1.587.451,3.231,3.231,0,0,1-1.593-.43A6.85,6.85,0,0,1,576.918,281.655Z" transform="translate(-576.918 -281.655)" fill="#121424"/>
                <path id="Trazado_198337" data-name="Trazado 198337" d="M578.682,284.024a1.308,1.308,0,0,0,.845.286,1.378,1.378,0,0,0,.846-.286,4.374,4.374,0,0,1-.847.1A3.6,3.6,0,0,1,578.682,284.024Z" transform="translate(-576.513 -281.111)" fill="#121424"/>
              </g>
              <g id="Grupo_560528" data-name="Grupo 560528">
                <path id="Trazado_198338" data-name="Trazado 198338" d="M581.025,273.063a1.915,1.915,0,0,1,1.244-.461,3.844,3.844,0,0,1,1.324.188,3.238,3.238,0,0,1,1.167.669,3.38,3.38,0,0,1,.8,1.02.384.384,0,0,1-.6.47l-.033-.031a4.823,4.823,0,0,0-.792-.629,2.81,2.81,0,0,0-.875-.359,3.421,3.421,0,0,0-.948-.092,3.618,3.618,0,0,1-1.013-.058l-.1-.025a.4.4,0,0,1-.172-.692Z" transform="translate(-572.436 -272.601)" fill="#121424"/>
                <path id="Trazado_198339" data-name="Trazado 198339" d="M578.593,273.063a1.915,1.915,0,0,0-1.244-.461,3.845,3.845,0,0,0-1.324.188,3.249,3.249,0,0,0-1.167.669,3.4,3.4,0,0,0-.8,1.02.384.384,0,0,0,.6.47l.033-.031a4.812,4.812,0,0,1,.792-.629,2.82,2.82,0,0,1,.875-.359,3.421,3.421,0,0,1,.948-.092,3.629,3.629,0,0,0,1.014-.058l.1-.025a.4.4,0,0,0,.172-.692Z" transform="translate(-574.014 -272.601)" fill="#121424"/>
              </g>
              <path id="Trazado_198340" data-name="Trazado 198340" d="M578.245,275.446c-.141.618-.246,1.233-.36,1.843s-.231,1.214-.4,1.789c-.041.144-.085.286-.136.424a1.494,1.494,0,0,0-.139.53,1.065,1.065,0,0,0,.575.974,1.3,1.3,0,0,0,1.047.057,2.553,2.553,0,0,0,.83-.5c-.577.216-1.249.386-1.655.08a.632.632,0,0,1-.284-.586,1.156,1.156,0,0,1,.119-.365c.063-.154.117-.307.163-.464a8.779,8.779,0,0,0,.3-1.891A9.948,9.948,0,0,0,578.245,275.446Z" transform="translate(-573.281 -271.948)" fill="#121424"/>
              <path id="Trazado_198341" data-name="Trazado 198341" d="M594.485,279.913a1.369,1.369,0,0,0-.428-1.088,1.273,1.273,0,0,0-1.239-.119,2.337,2.337,0,0,0-1,.73,3.707,3.707,0,0,0-.622,1.049.274.274,0,0,0,.449.3l.018-.018a2.423,2.423,0,0,1,.92-.65.427.427,0,0,1,.386.042,1.027,1.027,0,0,1,.277.427c.14.36.224.782-.084.949a2.054,2.054,0,0,1-1.216.082,1.908,1.908,0,0,0,1.336.18.753.753,0,0,0,.472-.629,1.952,1.952,0,0,0-.079-.728,1.358,1.358,0,0,0-.389-.671.922.922,0,0,0-.841-.173,2.656,2.656,0,0,0-1.2.805l.467.277a2.939,2.939,0,0,1,1.263-1.579,1.028,1.028,0,0,1,.933-.057A1.371,1.371,0,0,1,594.485,279.913Z" transform="translate(-570.076 -271.224)" fill="#121424"/>
            </g>
            <path id="Trazado_198342" data-name="Trazado 198342" d="M575.686,282.885a4.74,4.74,0,0,1,4.055-2.6,5.024,5.024,0,0,1,4.847,3.011S579.65,284.266,575.686,282.885Z" transform="translate(-573.63 -270.84)" fill="#1e0d15"/>
          </g>
        </g>
        <path id="Trazado_198343" data-name="Trazado 198343" d="M604.991,279.714c-.283-2.075-1.93-3.6-3.529-4.821a18.76,18.76,0,0,1-2.972-2.592,3.211,3.211,0,0,1-.669-2.909,5.282,5.282,0,0,0-1.137-4.69,7.077,7.077,0,0,0-5.315-2.191,20.338,20.338,0,0,0-5.756,1.055c-.2.055-.4.1-.6.144a7.746,7.746,0,0,1-5.648-1.041,5.224,5.224,0,0,0-4.786-.358,8.045,8.045,0,0,0-4.255,5.913,16.408,16.408,0,0,0,.609,7.648,29.646,29.646,0,0,0,3.408,7.62,46.312,46.312,0,0,1,1.081-8.579,5.023,5.023,0,0,0,2.057.969c4.79,1.12,5.2-2.345,8.7-3.092s3.942,2.243,3.942,2.243-.137,9.546,1.936,9.783c1.388.16,3.444-2.01,4.907-3.575l0,.077a2.512,2.512,0,0,1,.37-.146,2.61,2.61,0,0,1,2.935,1.843,3.453,3.453,0,0,1-.445,2.865,4.351,4.351,0,0,1-1.973,1.646,5.354,5.354,0,0,1-1.679.168,76.5,76.5,0,0,0-.9,8.175l0,0c2.562.991,5.571-.593,6.836-3.145a9.744,9.744,0,0,0,.038-8.332A4.381,4.381,0,0,0,604.991,279.714Z" transform="translate(-569.63 -261.893)" fill="#1e0d15"/>
        <g id="Grupo_560532" data-name="Grupo 560532" transform="translate(0 13.921)">
          <path id="Trazado_198344" data-name="Trazado 198344" d="M588.52,278.209a4.994,4.994,0,1,1-4.994-4.994A4.995,4.995,0,0,1,588.52,278.209Z" transform="translate(-567.695 -273.215)" fill="none" stroke="#fff" stroke-miterlimit="10" stroke-width="0.442"/>
          <path id="Trazado_198345" data-name="Trazado 198345" d="M579.706,278.209a4.994,4.994,0,1,1-4.994-4.994A4.995,4.995,0,0,1,579.706,278.209Z" transform="translate(-569.718 -273.215)" fill="none" stroke="#fff" stroke-miterlimit="10" stroke-width="0.442"/>
          <line id="Línea_248" data-name="Línea 248" x2="0.838" transform="translate(10.033 4.858)" fill="none" stroke="#fff" stroke-miterlimit="10" stroke-width="0.442"/>
          <line id="Línea_249" data-name="Línea 249" x2="6.568" y2="0.498" transform="translate(20.858 4.903)" fill="none" stroke="#fff" stroke-miterlimit="10" stroke-width="0.442"/>
        </g>
      </g>
    </g>
    <g id="Grupo_560577" data-name="Grupo 560577" transform="translate(1007.846 16510)">
      <g id="Grupo_560554" data-name="Grupo 560554" transform="translate(54.917 0)">
        <g id="Grupo_560547" data-name="Grupo 560547" transform="translate(0)">
          <g id="Grupo_560537" data-name="Grupo 560537" transform="translate(61.38 38.1)">
            <path id="Trazado_198346" data-name="Trazado 198346" d="M366.119,99.344a16.171,16.171,0,0,1-.287-4.057v-.005a3.519,3.519,0,0,1,.4-1.459l-5.782-2.956-6.091,1.948a10.138,10.138,0,0,1,.523,2.466l-.121-1a24.6,24.6,0,0,1-.164,5.064,38.034,38.034,0,0,1-.856,3.715h13.234A38.034,38.034,0,0,1,366.119,99.344Z" transform="translate(-342.95 -90.867)" fill="#e39679"/>
            <g id="Grupo_560536" data-name="Grupo 560536" transform="translate(0 4.787)">
              <path id="Trazado_198347" data-name="Trazado 198347" d="M344.729,122.11c1.254,3.136.358,24.191.358,24.191,6.63.806,31.986,0,31.986,0s-.627-20.965.269-26.072.358-14.963-.269-16.127-8.781-2.957-8.781-2.957a13.021,13.021,0,0,0-.525-3.783,1.483,1.483,0,0,0-1.751-1.053c-4.9,1.065-10.28-.905-11.432-.988-1.254-.089-.985,6.182-.985,6.182s-8.6,0-9.587,5.107S344.729,122.11,344.729,122.11Z" transform="translate(-343.704 -95.319)" fill="#c5defc"/>
              <g id="Grupo_560535" data-name="Grupo 560535" transform="translate(13.761 24.095)">
                <path id="Trazado_198348" data-name="Trazado 198348" d="M356.5,123.263a18.977,18.977,0,0,0,9.655-5.533" transform="translate(-356.503 -117.73)" fill="none" stroke="#121424" stroke-miterlimit="10" stroke-width="0.75"/>
                <path id="Trazado_198349" data-name="Trazado 198349" d="M361.168,124.175a8.008,8.008,0,0,0,3.65-2.032" transform="translate(-356.152 -117.398)" fill="none" stroke="#121424" stroke-miterlimit="10" stroke-width="0.75"/>
              </g>
            </g>
          </g>
          <g id="Grupo_560540" data-name="Grupo 560540" transform="translate(85.079 48.712)">
            <path id="Trazado_198350" data-name="Trazado 198350" d="M405.282,146.436h.03c.068-.659.112-1.32.16-1.981-1.951-.1-3.907-.161-5.862-.241.5,1.462.816,2.379.885,2.577l0,.01a15.921,15.921,0,0,0-1.55,6.084c-.063.914.421,1.216.772,1.316a.284.284,0,0,0,.366-.244c.117-.861.625-2.463,1.249-2.587.705-.14,1.312,6.642,2.3,6.733.395.038.095-4.8.095-4.8s1.3,5.135,1.863,4.744,0-5.053,0-5.053,1.912,4.978,2.31,4.343-.532-4.683-.532-4.683a6.032,6.032,0,0,0,1.848,2.522.2.2,0,0,0,.314-.208C409.242,152.714,406.48,148.276,405.282,146.436Z" transform="translate(-363.253 -97.47)" fill="#d98667"/>
            <g id="Grupo_560539" data-name="Grupo 560539">
              <path id="Trazado_198351" data-name="Trazado 198351" d="M366.635,100.737s28.133,5.913,33.42,9.139,7.795,35.032,8.153,38.885c0,0-5.555.538-7.168.447s-8.511-27.595-8.511-27.595l-23.475-6.988S363.678,102.261,366.635,100.737Z" transform="translate(-365.747 -100.737)" fill="#c5defc"/>
              <g id="Grupo_560538" data-name="Grupo 560538" transform="translate(2.322 1.075)">
                <line id="Línea_250" data-name="Línea 250" x2="0.179" y2="2.061" transform="translate(24.37 17.919)" fill="none" stroke="#121424" stroke-miterlimit="10" stroke-width="0.75"/>
                <path id="Trazado_198352" data-name="Trazado 198352" d="M367.907,101.737s2.866,2.15,3.583,4.569" transform="translate(-367.907 -101.737)" fill="none" stroke="#121424" stroke-miterlimit="10" stroke-width="0.75"/>
              </g>
            </g>
          </g>
          <g id="Grupo_560546" data-name="Grupo 560546">
            <g id="Grupo_560543" data-name="Grupo 560543" transform="translate(22.56 28.302)">
              <path id="Trazado_198353" data-name="Trazado 198353" d="M317.671,92.534l0-.006a15.922,15.922,0,0,0,.706-6.242c-.061-.915-.584-1.148-.944-1.2a.284.284,0,0,0-.33.291c0,.87-.282,2.527-.884,2.734-.68.233-2.205-6.4-3.192-6.357-.4.017.561,4.768.561,4.768s-1.99-4.91-2.494-4.446.688,5.007.688,5.007-2.574-4.67-2.881-3.987,1.165,4.567,1.165,4.567c-1.122-1.6-1.807-2.1-2.175-2.246a.2.2,0,0,0-.283.247c.594,2.191,3.935,6.21,5.373,7.87l-.028.009c.041,1.207.118,2.412.222,3.613q2.869-1.05,5.691-2.264C318.187,93.554,317.766,92.717,317.671,92.534Z" transform="translate(-307.598 -81.754)" fill="#d98667"/>
              <g id="Grupo_560542" data-name="Grupo 560542" transform="translate(2.214 11.862)">
                <path id="Trazado_198354" data-name="Trazado 198354" d="M356.157,101.693s-4.7-1.276-13.1,5.847-12.7,8.467-12.7,8.467S320.14,93.159,318.93,92.823s-9.207,1.747-9.273,2.621,7.458,35.211,16.463,35.614,25.6-11.558,25.6-11.558S358.374,102.835,356.157,101.693Z" transform="translate(-309.657 -92.786)" fill="#c5defc"/>
                <path id="Trazado_198355" data-name="Trazado 198355" d="M344.74,120.439l3.225-1.7-2.777,5.286Z" transform="translate(-307.02 -90.836)" fill="#121424"/>
                <g id="Grupo_560541" data-name="Grupo 560541" transform="translate(0.986 2.097)">
                  <path id="Trazado_198356" data-name="Trazado 198356" d="M347.907,101.987a4.482,4.482,0,0,1,2.24,4.121" transform="translate(-307.768 -94.192)" fill="none" stroke="#121424" stroke-miterlimit="10" stroke-width="0.75"/>
                  <line id="Línea_251" data-name="Línea 251" y1="2.24" x2="8.96" fill="none" stroke="#121424" stroke-miterlimit="10" stroke-width="0.75"/>
                </g>
              </g>
            </g>
            <g id="Grupo_560545" data-name="Grupo 560545">
              <g id="Grupo_560544" data-name="Grupo 560544">
                <path id="Trazado_198357" data-name="Trazado 198357" d="M301.448,65.171l.741,3.654-13.78,11.15a.922.922,0,0,0-.137,1.3l14.642,18.1a.922.922,0,0,0,1.3.137l26.429-21.384a.922.922,0,0,0,.137-1.3l-14.135-17.47-1.088-1.344-1.812-2.24a.923.923,0,0,0-1.3-.138l-10.674,8.638A.918.918,0,0,0,301.448,65.171Z" transform="translate(-286.506 -55.43)" fill="#e69a39"/>
                <rect id="Rectángulo_61451" data-name="Rectángulo 61451" width="34.054" height="26.218" transform="matrix(0.777, -0.629, 0.629, 0.777, 0, 22.194)" fill="#fff"/>
                <path id="Trazado_198358" data-name="Trazado 198358" d="M302.408,66.359l.742,3.654L289.37,81.163a.922.922,0,0,0-.138,1.3l14.643,18.1a.923.923,0,0,0,1.3.138L331.6,79.309a.923.923,0,0,0,.138-1.3L317.6,60.542,316.515,59.2l-1.812-2.24a.922.922,0,0,0-1.3-.137l-10.675,8.637A.925.925,0,0,0,302.408,66.359Z" transform="translate(-286.434 -55.341)" fill="#eab23d"/>
              </g>
              <path id="Trazado_198359" data-name="Trazado 198359" d="M315.1,90.534s-.246-2.078.56-2.651.85-2.251.885-2.734.907-.528,1.22.233.426,4.7-.335,5.756S315.1,90.534,315.1,90.534Z" transform="translate(-284.477 -53.223)" fill="#d98667"/>
            </g>
          </g>
        </g>
        <g id="Grupo_560553" data-name="Grupo 560553" transform="translate(64.935 14.775)">
          <path id="Trazado_198360" data-name="Trazado 198360" d="M373.919,84.006a2.369,2.369,0,0,0-2.66-1.674c.512-15.1-12.077-13.068-12.077-13.068-7.9.686-8.8,9.085-8.745,13.362a2.889,2.889,0,0,0-.629-.292,2.368,2.368,0,0,0-2.669,1.673,3.134,3.134,0,0,0,.406,2.61,3.948,3.948,0,0,0,1.793,1.5,5.151,5.151,0,0,0,1.378.157c1.221,9.874,10.167,8.9,10.167,8.9,7.755.384,9.768-5.034,10.219-8.944a3.618,3.618,0,0,0,.616-.116,3.942,3.942,0,0,0,1.793-1.5A3.134,3.134,0,0,0,373.919,84.006Z" transform="translate(-347.011 -69.172)" fill="#e39679"/>
          <path id="Trazado_198361" data-name="Trazado 198361" d="M351.794,83.424c.645,1.829,2.09,4.837,4.69,5.162,0,0,1.142-2.957,4.1-2.89s3.965,1.546,4.166,3.024c0,0,3.5-.659,4.912-5.427a7.735,7.735,0,0,1,1.357-2.679l.182-.226s2.327,16.709-10.181,16.934c-13.1.235-10.851-17-10.851-17h0A12.657,12.657,0,0,1,351.794,83.424Z" transform="translate(-346.785 -68.334)" fill="#1e0d15"/>
          <g id="Grupo_560552" data-name="Grupo 560552" transform="translate(1.044 8.091)">
            <g id="Grupo_560550" data-name="Grupo 560550" transform="translate(8.936 4.112)">
              <g id="Grupo_560548" data-name="Grupo 560548" transform="translate(6.326)">
                <path id="Trazado_198362" data-name="Trazado 198362" d="M362.177,82.017c0,.826.327,1.494.73,1.494s.73-.669.73-1.494-.327-1.5-.73-1.5S362.177,81.19,362.177,82.017Z" transform="translate(-362.177 -80.521)" fill="#121424"/>
              </g>
              <g id="Grupo_560549" data-name="Grupo 560549">
                <path id="Trazado_198363" data-name="Trazado 198363" d="M357.753,82.017c0,.826-.327,1.494-.73,1.494s-.73-.669-.73-1.494.327-1.5.73-1.5S357.753,81.19,357.753,82.017Z" transform="translate(-356.293 -80.521)" fill="#121424"/>
              </g>
            </g>
            <g id="Grupo_560551" data-name="Grupo 560551" transform="translate(6.837)">
              <path id="Trazado_198364" data-name="Trazado 198364" d="M358.507,77.117a1.731,1.731,0,0,0-1.132-.419,3.483,3.483,0,0,0-1.205.171,2.941,2.941,0,0,0-1.061.607,3.1,3.1,0,0,0-.725.929.35.35,0,0,0,.542.428l.03-.028a4.284,4.284,0,0,1,.721-.572,2.534,2.534,0,0,1,.8-.328,3.105,3.105,0,0,1,.862-.083,3.31,3.31,0,0,0,.922-.054l.092-.023a.367.367,0,0,0,.269-.443A.36.36,0,0,0,358.507,77.117Z" transform="translate(-354.34 -76.697)" fill="#121424"/>
              <path id="Trazado_198365" data-name="Trazado 198365" d="M361.621,77.117a1.728,1.728,0,0,1,1.131-.419,3.485,3.485,0,0,1,1.206.171,2.958,2.958,0,0,1,1.061.607,3.122,3.122,0,0,1,.725.929.35.35,0,0,1-.543.428l-.029-.028a4.327,4.327,0,0,0-.721-.572,2.545,2.545,0,0,0-.8-.328,3.105,3.105,0,0,0-.862-.083,3.31,3.31,0,0,1-.922-.054l-.092-.023a.366.366,0,0,1-.269-.443A.361.361,0,0,1,361.621,77.117Z" transform="translate(-353.802 -76.697)" fill="#121424"/>
            </g>
            <path id="Trazado_198366" data-name="Trazado 198366" d="M360.161,79.787c.13.563.225,1.122.329,1.677s.21,1.1.367,1.628c.037.131.077.261.125.386a1.4,1.4,0,0,1,.127.483.973.973,0,0,1-.525.886,1.175,1.175,0,0,1-.954.052,2.332,2.332,0,0,1-.755-.452c.525.2,1.136.351,1.506.072a.579.579,0,0,0,.259-.533,1.089,1.089,0,0,0-.11-.332,4.477,4.477,0,0,1-.148-.423,7.962,7.962,0,0,1-.274-1.72A9.144,9.144,0,0,1,360.161,79.787Z" transform="translate(-347.163 -76.465)" fill="#121424"/>
            <path id="Trazado_198367" data-name="Trazado 198367" d="M347.982,83.8a1.246,1.246,0,0,1,.39-.989,1.157,1.157,0,0,1,1.128-.109,2.122,2.122,0,0,1,.911.664,3.412,3.412,0,0,1,.567.955.249.249,0,0,1-.409.269l-.017-.017a2.2,2.2,0,0,0-.836-.592.391.391,0,0,0-.353.039.938.938,0,0,0-.25.388c-.128.328-.2.712.075.863a1.869,1.869,0,0,0,1.106.075,1.732,1.732,0,0,1-1.216.163.684.684,0,0,1-.429-.573,1.776,1.776,0,0,1,.071-.662,1.246,1.246,0,0,1,.354-.611.838.838,0,0,1,.766-.158,2.409,2.409,0,0,1,1.089.733l-.425.252a2.675,2.675,0,0,0-1.148-1.436.938.938,0,0,0-.85-.052A1.25,1.25,0,0,0,347.982,83.8Z" transform="translate(-347.982 -76.252)" fill="#121424"/>
            <path id="Trazado_198368" data-name="Trazado 198368" d="M371.7,83.8a1.245,1.245,0,0,0-.389-.989,1.159,1.159,0,0,0-1.129-.109,2.128,2.128,0,0,0-.911.664,3.381,3.381,0,0,0-.565.955.249.249,0,0,0,.409.269l.016-.017a2.194,2.194,0,0,1,.838-.592.389.389,0,0,1,.352.039.95.95,0,0,1,.252.388c.127.328.2.712-.076.863a1.868,1.868,0,0,1-1.106.075,1.734,1.734,0,0,0,1.216.163.682.682,0,0,0,.429-.573,1.752,1.752,0,0,0-.071-.662,1.237,1.237,0,0,0-.354-.611.837.837,0,0,0-.764-.158,2.412,2.412,0,0,0-1.09.733l.426.252a2.669,2.669,0,0,1,1.147-1.436.938.938,0,0,1,.85-.052A1.25,1.25,0,0,1,371.7,83.8Z" transform="translate(-346.426 -76.252)" fill="#121424"/>
            <path id="Trazado_198369" data-name="Trazado 198369" d="M358.032,86.383a7.356,7.356,0,0,0,4.569,0S360.484,90.75,358.032,86.383Z" transform="translate(-347.226 -75.969)" fill="#fff"/>
          </g>
        </g>
      </g>
      <g id="Grupo_560576" data-name="Grupo 560576" transform="translate(0 68.178)">
        <rect id="Rectángulo_61452" data-name="Rectángulo 61452" width="231.158" height="312.869" transform="translate(24.818 37.338)" fill="#fff"/>
        <g id="Grupo_560564" data-name="Grupo 560564" transform="translate(0 52.38)">
          <g id="Grupo_560559" data-name="Grupo 560559" transform="translate(35.932)">
            <rect id="Rectángulo_61453" data-name="Rectángulo 61453" width="208.934" height="282.787" fill="#b1b1b1"/>
            <g id="Grupo_560558" data-name="Grupo 560558" transform="translate(6.128 158.775)">
              <g id="Grupo_560555" data-name="Grupo 560555" transform="translate(65.604)">
                <rect id="Rectángulo_61454" data-name="Rectángulo 61454" width="52.324" height="17.202" transform="translate(6.57)" fill="#fff"/>
                <rect id="Rectángulo_61455" data-name="Rectángulo 61455" width="65.465" height="7.078" transform="translate(0 25.804)" fill="#5c5c5c"/>
              </g>
              <g id="Grupo_560556" data-name="Grupo 560556" transform="translate(0 112.712)">
                <path id="Trazado_198370" data-name="Trazado 198370" d="M292.4,425.57h-8.729" transform="translate(-274.657 -419.657)" fill="none" stroke="#121424" stroke-miterlimit="10" stroke-width="0.75"/>
                <line id="Línea_252" data-name="Línea 252" x2="6.473" fill="none" stroke="#121424" stroke-miterlimit="10" stroke-width="0.75"/>
              </g>
              <g id="Grupo_560557" data-name="Grupo 560557" transform="translate(84.187 2.777)">
                <line id="Línea_253" data-name="Línea 253" x2="13.195" transform="translate(8.186)" fill="none" stroke="#121424" stroke-miterlimit="10" stroke-width="0.75"/>
                <line id="Línea_254" data-name="Línea 254" x2="29.568" transform="translate(0 4.838)" fill="none" stroke="#121424" stroke-miterlimit="10" stroke-width="0.75"/>
                <line id="Línea_255" data-name="Línea 255" x2="11.608" transform="translate(8.98 10.483)" fill="none" stroke="#121424" stroke-miterlimit="10" stroke-width="0.75"/>
              </g>
            </g>
          </g>
          <g id="Grupo_560563" data-name="Grupo 560563" transform="translate(0 153.456)">
            <g id="Grupo_560561" data-name="Grupo 560561">
              <g id="Grupo_560560" data-name="Grupo 560560" transform="translate(244.866)">
                <path id="Trazado_198371" data-name="Trazado 198371" d="M491.746,334.686l-11,7.956-17.46-8.257V318.118L474.1,310.29Z" transform="translate(-463.287 -310.29)" fill="#7fc0f0"/>
                <path id="Trazado_198372" data-name="Trazado 198372" d="M490.886,345.753l-12.87,27.212L463.287,366V332.7l17.46,8.257Z" transform="translate(-463.287 -308.606)" fill="#dce2fe"/>
              </g>
              <path id="Trazado_198373" data-name="Trazado 198373" d="M271.468,335.451v33.824l-35.932-23.729,15.547-23.557Z" transform="translate(-235.537 -309.411)" fill="#eab23d"/>
            </g>
            <g id="Grupo_560562" data-name="Grupo 560562" transform="translate(260.854 35.781)">
              <path id="Trazado_198374" data-name="Trazado 198374" d="M478.157,343.57q2.687,1.345,5.376,2.688" transform="translate(-478.157 -343.57)" fill="none" stroke="#121424" stroke-miterlimit="10" stroke-width="0.75"/>
              <path id="Trazado_198375" data-name="Trazado 198375" d="M479.157,348.07q1.88,1.345,3.763,2.688" transform="translate(-478.082 -343.232)" fill="none" stroke="#121424" stroke-miterlimit="10" stroke-width="0.75"/>
            </g>
            <path id="Trazado_198376" data-name="Trazado 198376" d="M470.627,317.141l2.638-1.688" transform="translate(-217.869 -309.902)" fill="none" stroke="#121424" stroke-miterlimit="10" stroke-width="0.75"/>
            <path id="Trazado_198377" data-name="Trazado 198377" d="M241.657,341.258l3.225-2.688" transform="translate(-235.077 -308.165)" fill="none" stroke="#121424" stroke-miterlimit="10" stroke-width="0.75"/>
          </g>
        </g>
        <g id="Grupo_560575" data-name="Grupo 560575" transform="translate(19.042 0)">
          <g id="Grupo_560568" data-name="Grupo 560568" transform="translate(0)">
            <path id="Rectángulo_61456" data-name="Rectángulo 61456" d="M1.632,0h64.74A1.631,1.631,0,0,1,68,1.631v110.7a1.632,1.632,0,0,1-1.632,1.632H1.632A1.632,1.632,0,0,1,0,112.335V1.632A1.632,1.632,0,0,1,1.632,0Z" transform="translate(7.953 12.258) rotate(-6.145)" fill="#dce2fe"/>
            <rect id="Rectángulo_61457" data-name="Rectángulo 61457" width="68.003" height="113.966" transform="matrix(0.913, -0.408, 0.408, 0.913, 0, 27.772)" fill="#fff"/>
            <g id="Grupo_560565" data-name="Grupo 560565" transform="translate(100.451 19.777)">
              <path id="Trazado_198378" data-name="Trazado 198378" d="M419.775,139.017l-6.181,11.866H349.986a3.309,3.309,0,0,0-3.308,3.308v83.536a3.309,3.309,0,0,0,3.308,3.308h122a3.309,3.309,0,0,0,3.308-3.308V140.545a3.309,3.309,0,0,0-3.308-3.308H422.71A3.308,3.308,0,0,0,419.775,139.017Z" transform="translate(-346.678 -137.237)" fill="#71aedd"/>
              <rect id="Rectángulo_61458" data-name="Rectángulo 61458" width="122.202" height="94.081" transform="translate(3.308 2.791)" fill="#fff"/>
              <path id="Trazado_198379" data-name="Trazado 198379" d="M419.775,144.5l-6.181,11.866H349.986a3.309,3.309,0,0,0-3.308,3.308v83.536a3.309,3.309,0,0,0,3.308,3.308h122a3.309,3.309,0,0,0,3.308-3.308V146.026a3.309,3.309,0,0,0-3.308-3.308H422.71A3.308,3.308,0,0,0,419.775,144.5Z" transform="translate(-346.678 -136.825)" fill="#7fc0f0"/>
            </g>
            <g id="Grupo_560567" data-name="Grupo 560567" transform="translate(49.851 11.461)">
              <path id="Trazado_198380" data-name="Trazado 198380" d="M389.91,138.3l-8.167,10.6-62.621-11.16a3.309,3.309,0,0,0-3.838,2.676l-14.655,82.241a3.307,3.307,0,0,0,2.676,3.837l120.1,21.4a3.309,3.309,0,0,0,3.837-2.677l14.148-79.39,1.089-6.107,1.814-10.177a3.309,3.309,0,0,0-2.677-3.837l-48.508-8.645A3.308,3.308,0,0,0,389.91,138.3Z" transform="translate(-299.543 -128.938)" fill="#e69a39"/>
              <g id="Grupo_560566" data-name="Grupo 560566" transform="translate(4.978)">
                <path id="Trazado_198381" data-name="Trazado 198381" d="M424.551,241.678l-120.306-21.44,14.148-79.39L331.336,129.5l109.721,19.554Z" transform="translate(-304.244 -129.502)" fill="#fff"/>
                <path id="Trazado_198382" data-name="Trazado 198382" d="M317.4,140.847,330.347,129.5l3.407,14.469Z" transform="translate(-303.255 -129.502)" fill="#dce2fe"/>
              </g>
              <path id="Trazado_198383" data-name="Trazado 198383" d="M388.948,143.7l-8.167,10.6-62.621-11.16a3.308,3.308,0,0,0-3.837,2.676l-14.656,82.241a3.308,3.308,0,0,0,2.676,3.837l120.1,21.4a3.309,3.309,0,0,0,3.837-2.677l14.149-79.389,1.088-6.107,1.814-10.178a3.308,3.308,0,0,0-2.676-3.837l-48.509-8.645A3.308,3.308,0,0,0,388.948,143.7Z" transform="translate(-299.615 -128.532)" fill="#eab23d"/>
            </g>
          </g>
          <g id="Grupo_560574" data-name="Grupo 560574" transform="translate(12.943 49.711)">
            <rect id="Rectángulo_61459" data-name="Rectángulo 61459" width="216.822" height="6.443" transform="translate(0 146.579)" fill="#939393" opacity="0.41" style="mix-blend-mode: multiply;isolation: isolate"/>
            <g id="Grupo_560573" data-name="Grupo 560573">
              <rect id="Rectángulo_61460" data-name="Rectángulo 61460" width="216.822" height="146.547" fill="#c6c6c6"/>
              <g id="Grupo_560569" data-name="Grupo 560569" transform="translate(75.679 15.223)">
                <rect id="Rectángulo_61461" data-name="Rectángulo 61461" width="52.324" height="17.202" transform="translate(6.57)" fill="#fff"/>
                <rect id="Rectángulo_61462" data-name="Rectángulo 61462" width="65.465" height="7.078" transform="translate(0 25.804)" fill="#5c5c5c"/>
              </g>
              <g id="Grupo_560570" data-name="Grupo 560570" transform="translate(180.486 136.536)">
                <line id="Línea_256" data-name="Línea 256" x2="26.363" transform="translate(0 4.301)" fill="none" stroke="#121424" stroke-miterlimit="10" stroke-width="0.75"/>
                <line id="Línea_257" data-name="Línea 257" x2="4.956" transform="translate(21.407)" fill="none" stroke="#121424" stroke-miterlimit="10" stroke-width="0.75"/>
              </g>
              <g id="Grupo_560571" data-name="Grupo 560571" transform="translate(88.008 18.448)">
                <line id="Línea_258" data-name="Línea 258" x2="30.118" transform="translate(5.944)" fill="none" stroke="#121424" stroke-miterlimit="10" stroke-width="0.75"/>
                <line id="Línea_259" data-name="Línea 259" x2="42.006" transform="translate(0 5.017)" fill="none" stroke="#121424" stroke-miterlimit="10" stroke-width="0.75"/>
              </g>
              <g id="Grupo_560572" data-name="Grupo 560572" transform="translate(2.549 6.443)">
                <line id="Línea_260" data-name="Línea 260" x2="10.438" fill="none" stroke="#121424" stroke-miterlimit="10" stroke-width="0.75"/>
                <line id="Línea_261" data-name="Línea 261" x2="32.272" transform="translate(0 6.988)" fill="none" stroke="#121424" stroke-miterlimit="10" stroke-width="0.75"/>
              </g>
            </g>
          </g>
        </g>
      </g>
    </g>
    <g id="Grupo_560611" data-name="Grupo 560611" transform="translate(915 16686.316)">
      <g id="Grupo_560584" data-name="Grupo 560584" transform="translate(0 112.81)">
        <g id="Grupo_560579" data-name="Grupo 560579" transform="translate(51.242 91.609)">
          <g id="Grupo_560578" data-name="Grupo 560578" transform="translate(1.798)">
            <path id="Trazado_198384" data-name="Trazado 198384" d="M156.211,423.521l.184,14.96,3.165,3.241,6.269-2.527s1.038-6.283,2.507-15.674Z" transform="translate(-156.211 -423.521)" fill="#e7ba8c"/>
          </g>
          <path id="Trazado_198385" data-name="Trazado 198385" d="M156.025,436.463a.223.223,0,0,0-.373.115c-.173.751-.57,2.439-1.013,4.055a3.56,3.56,0,0,0,1.428,3.512.861.861,0,0,0,.566.2l24.267-.089s1.083-1.672-6.758-3.532-4.871-4.15-7.3-3.816-5.463,3.647-7.823,1.971A26.089,26.089,0,0,1,156.025,436.463Z" transform="translate(-154.54 -422.544)" fill="#221e1e"/>
        </g>
        <g id="Grupo_560581" data-name="Grupo 560581" transform="translate(0 80.849)">
          <g id="Grupo_560580" data-name="Grupo 560580" transform="translate(3.564)">
            <path id="Trazado_198386" data-name="Trazado 198386" d="M115.426,413.52c-3.107,9.951-5.2,16.784-5.2,16.784l1.541,6.439,8.078-1.938,8.782-16.908C124.282,416.3,119.851,414.919,115.426,413.52Z" transform="translate(-110.225 -413.52)" fill="#e7ba8c"/>
          </g>
          <path id="Trazado_198387" data-name="Trazado 198387" d="M110.395,428.942a.224.224,0,0,0-.389-.039c-.451.625-1.471,2.027-2.506,3.345a3.56,3.56,0,0,0-.045,3.79.866.866,0,0,0,.444.4l22.4,9.325s1.647-1.12-4.86-5.875-2.88-5.713-5.246-6.347-6.449,1.245-7.975-1.215A26.039,26.039,0,0,1,110.395,428.942Z" transform="translate(-106.912 -412.36)" fill="#221e1e"/>
        </g>
        <g id="Grupo_560583" data-name="Grupo 560583" transform="translate(6.371)">
          <path id="Trazado_198388" data-name="Trazado 198388" d="M143.632,338.374s-10.347,17.892-12.431,27.717-18.368,58.463-18.368,58.463l12.988,5.578,32.649-63.661.48,67.226,12.683.346s10.152-71.007,10.007-76.714-3.287-18.558-3.287-18.558Z" transform="translate(-112.834 -338.374)" fill="#eab23d"/>
          <g id="Grupo_560582" data-name="Grupo 560582" transform="translate(1.961 19.166)">
            <line id="Línea_262" data-name="Línea 262" x2="0.359" y2="67.064" transform="translate(46.084 7.531)" fill="none" stroke="#121424" stroke-miterlimit="10" stroke-width="0.75"/>
            <line id="Línea_263" data-name="Línea 263" y1="66.705" x2="22.056" fill="none" stroke="#121424" stroke-miterlimit="10" stroke-width="0.75"/>
          </g>
        </g>
      </g>
      <g id="Grupo_560601" data-name="Grupo 560601" transform="translate(27.463 0)">
        <g id="Grupo_560587" data-name="Grupo 560587" transform="translate(30.079 70.63)">
          <g id="Grupo_560586" data-name="Grupo 560586">
            <g id="Grupo_560585" data-name="Grupo 560585">
              <path id="Trazado_198389" data-name="Trazado 198389" d="M206.384,320.638c-.118.19-.242.377-.366.562-4.481,6.853-11.049,12.129-17.052,17.19-.442.371-.885.737-1.332,1.1a8.518,8.518,0,0,1-12.786-2.444c-.423-.748-.832-1.494-1.232-2.231-5.17-9.589-10.211-18.079-12.052-23.04a14.526,14.526,0,0,1-1.018-7.562c.847-4.823,9.152-6.926,11.952-2.982a23.5,23.5,0,0,1,2.54,4.837c1.813,4.49,4.794,13.352,9.037,22.2,7.454-4.69,13.879-8.789,16.638-10.555l1.442-.922,1.128,1.022v.005l2.444,2.226Z" transform="translate(-160.395 -299.169)" fill="#df5c5b"/>
            </g>
          </g>
        </g>
        <g id="Grupo_560592" data-name="Grupo 560592" transform="translate(9.279 52.161)">
          <g id="Grupo_560588" data-name="Grupo 560588" transform="translate(1.988)">
            <path id="Trazado_198390" data-name="Trazado 198390" d="M172.195,301.29c-2.761-1.59-4.651-2.157-6.015-3.748-.156-.527-.525-1.827-.811-3.3a15.509,15.509,0,0,1-.349-3.895v-.005a3.373,3.373,0,0,1,.359-1.409L152.5,282c.01.042.015.081.026.123.224,1.181,1.929,10.447.436,15.4a9.3,9.3,0,0,1-3.57.866,6.54,6.54,0,0,0-4.234,1.774c-1.576,1.537-2.9,4.39-1.9,9.654,2.005,10.526,1.5,23.927.922,30.375l29.966.4s1.143-15.785,2.615-22.911S176.4,303.711,172.195,301.29Z" transform="translate(-142.911 -282.003)" fill="#e7ba8c"/>
            <path id="Trazado_198391" data-name="Trazado 198391" d="M164.54,293.908c-6.913,1-10.577-7.205-10.712-7.512a8.169,8.169,0,0,0,5.013,3.455,13.547,13.547,0,0,0,5.307.172c.014,0,.028-.005.043-.01A15.509,15.509,0,0,0,164.54,293.908Z" transform="translate(-142.083 -281.67)" fill="#d9a573"/>
          </g>
          <g id="Grupo_560590" data-name="Grupo 560590" transform="translate(0 15.519)">
            <path id="Trazado_198392" data-name="Trazado 198392" d="M153.114,296.427s7.489,16.085,11.216,14.578,2-14.54,2-14.54,6.208,3.006,7.317,4.037,6.422,8.085,4.994,15.775-4.677,18.788-1.823,26.082c0,0-20.454,3.726-35.753,0,0,0,3.408-11.337,3.171-14.27s-2.457-22.276-1.664-24.971S145.109,296.712,153.114,296.427Z" transform="translate(-141.063 -296.427)" fill="#fff"/>
            <g id="Grupo_560589" data-name="Grupo 560589" transform="translate(21.421 24.289)">
              <path id="Trazado_198393" data-name="Trazado 198393" d="M160.973,328.288A20.428,20.428,0,0,0,169.194,319" transform="translate(-160.973 -319.003)" fill="none" stroke="#121424" stroke-miterlimit="10" stroke-width="0.75"/>
              <path id="Trazado_198394" data-name="Trazado 198394" d="M165.192,328.666l4.522-5.155" transform="translate(-160.653 -318.661)" fill="none" stroke="#121424" stroke-miterlimit="10" stroke-width="0.75"/>
            </g>
          </g>
          <g id="Grupo_560591" data-name="Grupo 560591" transform="translate(24.849 14.055)">
            <path id="Trazado_198395" data-name="Trazado 198395" d="M164.579,296.6s9.057,7.887,8.581,16.052,1.506,30.124,1.506,30.124,2.933,10.941,2.537,15.538-.4,7.056-.4,7.056,3.408.634,4.835,0-5.43-32.582-4.8-36.07,1.428-14.546.238-19.858-6.186-13.109-12.925-14.377h0a10.144,10.144,0,0,0,.395,1.464Z" transform="translate(-164.159 -295.067)" fill="#df5c5b"/>
            <line id="Línea_264" data-name="Línea 264" x2="0.269" y2="17.035" transform="translate(13.088 19.765)" fill="none" stroke="#121424" stroke-miterlimit="10" stroke-width="0.75"/>
          </g>
        </g>
        <g id="Grupo_560600" data-name="Grupo 560600">
          <path id="Trazado_198396" data-name="Trazado 198396" d="M154.107,294.872l-.287,1.675,2.269,7.981a49.169,49.169,0,0,1,1.729,18.76l-3.988,39.4c.08.713-12.526.079-21.166-3.568,0,0,7.611-27.746,7.849-33.374s3.012-25.051,3.012-25.051S146.536,295.486,154.107,294.872Z" transform="translate(-132.421 -228.865)" fill="#df5c5b"/>
          <g id="Grupo_560599" data-name="Grupo 560599">
            <g id="Grupo_560594" data-name="Grupo 560594" transform="translate(12.541)">
              <g id="Grupo_560593" data-name="Grupo 560593">
                <path id="Trazado_198397" data-name="Trazado 198397" d="M272.794,246.471a44.214,44.214,0,1,0,0,62.528A44.214,44.214,0,0,0,272.794,246.471Zm-57.6,57.6a37.242,37.242,0,1,1,52.669,0A37.242,37.242,0,0,1,215.2,304.069Z" transform="translate(-140.055 -233.521)" fill="#7fc0f0"/>
                <ellipse id="Elipse_4979" data-name="Elipse 4979" cx="37.242" cy="37.242" rx="37.242" ry="37.242" transform="translate(64.232 6.972)" fill="#66aae0" opacity="0.23"/>
                <path id="Trazado_198398" data-name="Trazado 198398" d="M218.621,304.274l-64.657,66.352a5.751,5.751,0,0,1-8.237-8.027c.069-.071.154-.153.225-.218l68.189-62.718a3.216,3.216,0,0,1,4.48,4.611Z" transform="translate(-144.094 -228.566)" fill="#7fc0f0"/>
                <rect id="Rectángulo_61463" data-name="Rectángulo 61463" width="11.787" height="6.467" transform="translate(66.221 71.132) rotate(45)" fill="#fff"/>
              </g>
              <path id="Trazado_198399" data-name="Trazado 198399" d="M207.53,313.886c-.095,1.094-3.472,4.191-4.828,5.395l-2.444-2.226v-.005a4.394,4.394,0,0,1,2.753-2.925s-.476-2.973,0-3.329c.324-.243,1.813,1.384,1.955,1.536-.085-.19-1.445-3.31-.409-3.082C205.628,309.487,207.649,312.522,207.53,313.886Z" transform="translate(-139.832 -227.775)" fill="#e7ba8c"/>
            </g>
            <g id="Grupo_560598" data-name="Grupo 560598" transform="translate(0 69.059)">
              <g id="Grupo_560595" data-name="Grupo 560595" transform="translate(23.469 47.077)">
                <path id="Trazado_198400" data-name="Trazado 198400" d="M163.09,346.356c-.251-.24-2.183-2.082-5.11-4.891-.651.976-1.3,1.953-1.94,2.937-.239.409-.472.819-.7,1.233-.378.7-.738,1.413-1.093,2.126a68.959,68.959,0,0,0,6.583,2.656l.01-.014,2.273-4.02Z" transform="translate(-154.252 -341.465)" fill="#e7ba8c"/>
                <path id="Trazado_198401" data-name="Trazado 198401" d="M159.909,349.229s3.871,6.487,6.238,7.972a.2.2,0,0,0,.308-.191,5.791,5.791,0,0,0-1.456-2.63s3.158,2.444,3.873,2.353-2.859-3.769-2.859-3.769,3.843,2.37,4.412,2.038-3.389-3.541-3.389-3.541,4.1,2.213,4.227,1.854c.317-.9-5.357-4.159-4.95-4.719.359-.5,1.962-.293,2.762-.047a.273.273,0,0,0,.36-.221c.055-.345-.014-.892-.837-1.2a14.764,14.764,0,0,0-7.542-.976Z" transform="translate(-153.823 -341.12)" fill="#e7ba8c"/>
              </g>
              <g id="Grupo_560597" data-name="Grupo 560597">
                <path id="Trazado_198402" data-name="Trazado 198402" d="M146.91,297.709s9.275,3.687,8.918,7.611-9.627,26.486-9.627,26.486l18.07,16.441s-4.518,7.016-5.945,7.254-24.019-15.816-25.565-19.383S135.137,302.228,146.91,297.709Z" transform="translate(-132.438 -297.709)" fill="#df5c5b"/>
                <g id="Grupo_560596" data-name="Grupo 560596" transform="translate(3.664 1.227)">
                  <path id="Trazado_198403" data-name="Trazado 198403" d="M154.4,350.481s-10.49-6.993-17.415-12.71l-1.144,5.178Z" transform="translate(-135.844 -295.896)" fill="#121424"/>
                  <line id="Línea_265" data-name="Línea 265" x1="11.969" y1="10.826" transform="translate(8.07 31.117)" fill="none" stroke="#121424" stroke-miterlimit="10" stroke-width="0.75"/>
                  <line id="Línea_266" data-name="Línea 266" x1="0.605" y2="5.581" transform="translate(9.347 26.813)" fill="none" stroke="#121424" stroke-miterlimit="10" stroke-width="0.75"/>
                  <path id="Trazado_198404" data-name="Trazado 198404" d="M144.823,298.855s4.842-.538,4.125,8.786" transform="translate(-135.163 -298.85)" fill="none" stroke="#121424" stroke-miterlimit="10" stroke-width="0.75"/>
                </g>
              </g>
            </g>
          </g>
        </g>
      </g>
      <g id="Grupo_560610" data-name="Grupo 560610" transform="translate(23.428 29.826)">
        <g id="Grupo_560609" data-name="Grupo 560609" transform="translate(21.175 4.087)">
          <path id="Trazado_198405" data-name="Trazado 198405" d="M171.318,284.59c-.014-1.517-.042-3.1-.138-4.708a34.178,34.178,0,0,0-2.093-10.912c-1.745-4.248-9.623-5.765-15-.908-2.5,2.257-2.964,6.271-2.745,9.924a1.89,1.89,0,0,0-.328-.125,2.276,2.276,0,0,0-2.535,1.656,3.013,3.013,0,0,0,.437,2.5,3.792,3.792,0,0,0,1.752,1.409,4.881,4.881,0,0,0,1.488.118,11.042,11.042,0,0,0,3.758,6.133,9.993,9.993,0,0,0,8.533,1.993c2.359-.537,5.837-2.122,6.66-4.6a6.253,6.253,0,0,0,.218-2.012C171.323,284.908,171.318,284.752,171.318,284.59Z" transform="translate(-148.369 -265.042)" fill="#e7ba8c"/>
          <g id="Grupo_560608" data-name="Grupo 560608" transform="translate(1.002 7.161)">
            <g id="Grupo_560602" data-name="Grupo 560602" transform="translate(6.749 7.619)">
              <path id="Trazado_198406" data-name="Trazado 198406" d="M169.917,283.547a2.2,2.2,0,0,1-.618.1,2.431,2.431,0,1,1-.09-4.862,2.266,2.266,0,0,1,.57.058C169.875,280.447,169.9,282.03,169.917,283.547Z" transform="translate(-154.72 -278.78)" fill="#d9a573"/>
              <path id="Trazado_198407" data-name="Trazado 198407" d="M155.574,281.467a2.432,2.432,0,1,0,2.386-2.477A2.432,2.432,0,0,0,155.574,281.467Z" transform="translate(-155.574 -278.765)" fill="#d9a573"/>
            </g>
            <g id="Grupo_560605" data-name="Grupo 560605" transform="translate(10.624 3.349)">
              <g id="Grupo_560603" data-name="Grupo 560603" transform="translate(6.857)">
                <path id="Trazado_198408" data-name="Trazado 198408" d="M165.549,276.821c.015.794.342,1.432.729,1.424s.69-.656.676-1.45-.341-1.432-.729-1.424S165.535,276.027,165.549,276.821Z" transform="translate(-165.549 -274.769)" fill="#121424"/>
                <path id="Trazado_198409" data-name="Trazado 198409" d="M167.609,274.932a2.041,2.041,0,0,1-.464.623,1.671,1.671,0,0,1-.727.394l-.012,0a.26.26,0,0,1-.126-.5.251.251,0,0,1,.069-.008,1.519,1.519,0,0,0,1.116-.592l0-.005a.083.083,0,0,1,.14.089Z" transform="translate(-165.508 -274.811)" fill="#121424"/>
              </g>
              <g id="Grupo_560604" data-name="Grupo 560604" transform="translate(0 0.164)">
                <path id="Trazado_198410" data-name="Trazado 198410" d="M161.3,276.9c.015.8-.287,1.444-.676,1.451s-.714-.63-.728-1.424.287-1.444.675-1.45S161.286,276.107,161.3,276.9Z" transform="translate(-159.12 -274.925)" fill="#121424"/>
                <path id="Trazado_198411" data-name="Trazado 198411" d="M159.327,275a1.518,1.518,0,0,0,1.137.549.26.26,0,1,1,.03.519.237.237,0,0,1-.068,0l-.013,0a1.668,1.668,0,0,1-.742-.366,2.085,2.085,0,0,1-.486-.6.084.084,0,0,1,.137-.1Z" transform="translate(-159.175 -274.964)" fill="#121424"/>
              </g>
            </g>
            <g id="Grupo_560606" data-name="Grupo 560606" transform="translate(12.588 9.745)">
              <path id="Trazado_198412" data-name="Trazado 198412" d="M166.274,280.756a3.463,3.463,0,0,1-1.036,1.224,2.693,2.693,0,0,1-1.562.551,2.731,2.731,0,0,1-1.575-.511,5.094,5.094,0,0,1-.616-.528c-.169-.209-.335-.42-.483-.637.219.155.421.321.623.48.223.13.424.292.65.4a2.888,2.888,0,0,0,1.4.369,2.842,2.842,0,0,0,1.387-.4A6.035,6.035,0,0,0,166.274,280.756Z" transform="translate(-161.001 -280.756)" fill="#121424"/>
              <path id="Trazado_198413" data-name="Trazado 198413" d="M164.287,283.158a1.152,1.152,0,0,1-.735.265,1.2,1.2,0,0,1-.745-.237,3.794,3.794,0,0,0,.742.069A3.108,3.108,0,0,0,164.287,283.158Z" transform="translate(-160.864 -280.574)" fill="#121424"/>
            </g>
            <g id="Grupo_560607" data-name="Grupo 560607" transform="translate(9.315)">
              <path id="Trazado_198414" data-name="Trazado 198414" d="M161.939,272.183a1.666,1.666,0,0,0-1.1-.382,3.345,3.345,0,0,0-1.157.186,2.826,2.826,0,0,0-1.009.6,2.968,2.968,0,0,0-.68.906.336.336,0,0,0,.529.4l.028-.026a4.1,4.1,0,0,1,.683-.564,2.414,2.414,0,0,1,.76-.329,2.984,2.984,0,0,1,.828-.1,3.192,3.192,0,0,0,.885-.068l.088-.024a.352.352,0,0,0,.139-.608Z" transform="translate(-157.958 -271.691)" fill="#121424"/>
              <path id="Trazado_198415" data-name="Trazado 198415" d="M164.928,272.125a1.668,1.668,0,0,1,1.081-.423,3.349,3.349,0,0,1,1.162.143,2.84,2.84,0,0,1,1.031.565,2.977,2.977,0,0,1,.713.88.336.336,0,0,1-.513.421l-.029-.026a4.157,4.157,0,0,0-.7-.538,2.448,2.448,0,0,0-.771-.3,2.976,2.976,0,0,0-.832-.065,3.192,3.192,0,0,1-.888-.034l-.089-.02a.353.353,0,0,1-.161-.6Z" transform="translate(-157.438 -271.699)" fill="#121424"/>
            </g>
            <path id="Trazado_198416" data-name="Trazado 198416" d="M163.57,274.716c.134.539.236,1.076.345,1.606s.222,1.058.383,1.559q.055.189.126.368a1.329,1.329,0,0,1,.13.463.937.937,0,0,1-.487.862,1.136,1.136,0,0,1-.916.066,2.236,2.236,0,0,1-.735-.421c.508.18,1.1.316,1.449.042a.554.554,0,0,0,.24-.516,1.044,1.044,0,0,0-.112-.317c-.056-.133-.106-.268-.15-.4a7.688,7.688,0,0,1-.295-1.649A8.8,8.8,0,0,1,163.57,274.716Z" transform="translate(-148.305 -271.47)" fill="#121424"/>
            <path id="Trazado_198417" data-name="Trazado 198417" d="M149.3,279.285a1.2,1.2,0,0,1,.356-.958,1.115,1.115,0,0,1,1.083-.125,2.048,2.048,0,0,1,.888.622,3.257,3.257,0,0,1,.561.908.24.24,0,0,1-.387.266l-.016-.016a2.116,2.116,0,0,0-.816-.554.376.376,0,0,0-.338.043.9.9,0,0,0-.235.378c-.116.317-.184.688.088.828a1.8,1.8,0,0,0,1.065.053,1.672,1.672,0,0,1-1.166.179.657.657,0,0,1-.423-.543,1.719,1.719,0,0,1,.056-.638,1.21,1.21,0,0,1,.329-.593.806.806,0,0,1,.733-.166,2.3,2.3,0,0,1,1.061.685l-.4.25a2.572,2.572,0,0,0-1.13-1.361.9.9,0,0,0-.819-.033A1.2,1.2,0,0,0,149.3,279.285Z" transform="translate(-149.301 -271.211)" fill="#121424"/>
          </g>
        </g>
        <path id="Trazado_198418" data-name="Trazado 198418" d="M176.313,287.006c-.718-3.619-2.473-7.24-1.764-10.859a12.5,12.5,0,0,0-13.737-14.822c-3.9.462-8.4,2.465-9.727,6.155-1.146,3.173-3.867,5.527-6.768,7.244s-6.073,2.954-8.932,4.747-5.47,4.31-6.364,7.558c-1.161,4.2.851,8.771,3.967,11.82,2.725,2.668,6.187,4.41,9.674,5.994a11.133,11.133,0,0,1,2.1-2.512,6,6,0,0,1,2.212-1.2,6.705,6.705,0,0,1,3.5-1.169,9.175,9.175,0,0,0,3.582-.866c1.436-4.8-.124-13.646-.419-15.264a4.634,4.634,0,0,1-1.474-.118,3.762,3.762,0,0,1-1.75-1.408,3,3,0,0,1-.438-2.5,2.279,2.279,0,0,1,2.535-1.656,1.977,1.977,0,0,1,.283.105,3.847,3.847,0,0,0,3.2,1.828c3.865-.118,3.507-8.62,3.507-8.62s9.2,4.142,12.45,2.547a46.067,46.067,0,0,1,.723,6.162c.095,1.608.124,3.192.138,4.709,0,.161.005.318.005.475a6.227,6.227,0,0,1-.219,2.012c-.8,2.421-4.148,3.986-6.5,4.556a15.68,15.68,0,0,0,.352,3.892c.285,1.484.662,2.8.818,3.32,1.365,1.584,3.253,2.144,6.008,3.729.043.024.09.052.133.081a12.8,12.8,0,0,0,3.429-5.96C177.626,293.718,176.97,290.3,176.313,287.006Z" transform="translate(-128.688 -261.244)" fill="#121424"/>
      </g>
    </g>
  </g>
</svg>
