<svg xmlns="http://www.w3.org/2000/svg" width="515.087" height="330.261" viewBox="0 0 515.087 330.261">
  <g id="Grupo_561060" data-name="Grupo 561060" transform="translate(6546 -1414.594)">
    <g id="Grupo_560643" data-name="Grupo 560643" transform="translate(-6977.869 790.197)">
      <path id="Trazado_198435" data-name="Trazado 198435" d="M1630.981,945.965a191.678,191.678,0,0,0,49.827-129.185c0-106.25-86.133-192.382-192.382-192.382s-192.382,86.133-192.382,192.382a191.677,191.677,0,0,0,49.827,129.185Z" transform="translate(-764.44 0)" fill="#ecf2fd"/>
      <path id="Trazado_198436" data-name="Trazado 198436" d="M943.824,2020.759a109.031,109.031,0,1,0-163.183,0Z" transform="translate(-284.248 -1074.794)" fill="#ecf2fd"/>
      <ellipse id="Elipse_4980" data-name="Elipse 4980" cx="224.664" cy="12.065" rx="224.664" ry="12.065" transform="translate(462.625 930.529)" fill="#d9e2f7"/>
      <path id="Trazado_198437" data-name="Trazado 198437" d="M660.43,2944.133c-3.75-7-18.158-23.415-45.1-28.508-4.408-.833-14.2-2.683-17.743-.221-7.048,4.893,24.415,23.976,20.331,26.519-4.342,2.7-41.394-17.409-47.685-14.143-2.955,1.534,25.553,14.011,24.767,30.938a18.209,18.209,0,0,1-3.327,9.281H668.63S669.671,2961.369,660.43,2944.133Z" transform="translate(-122.207 -2025.513)" fill="#1a878e"/>
      <path id="Trazado_198438" data-name="Trazado 198438" d="M3457.047,2226.624h-99.109a5.126,5.126,0,0,1-5.119-5.119v-65.587a5.126,5.126,0,0,1,5.119-5.119H3410.1a3.128,3.128,0,0,0,1.819-.579l12.074-8.56a5.093,5.093,0,0,1,2.961-.943h30.09a5.125,5.125,0,0,1,5.12,5.119v75.67A5.126,5.126,0,0,1,3457.047,2226.624Zm-99.109-73.852a3.149,3.149,0,0,0-3.145,3.145V2221.5a3.149,3.149,0,0,0,3.145,3.145h99.109a3.149,3.149,0,0,0,3.145-3.145v-75.67a3.149,3.149,0,0,0-3.145-3.145h-30.09a3.128,3.128,0,0,0-1.819.58l-12.074,8.56a5.092,5.092,0,0,1-2.96.943Z" transform="translate(-2583.845 -1341.322)" fill="#fff"/>
      <g id="Grupo_560625" data-name="Grupo 560625" transform="translate(840.589 847.012)">
        <path id="Trazado_198439" data-name="Trazado 198439" d="M4156.717,2574.766c.768,0,1.389-.993,1.389-2.217v-17.021c0-1.224-.621-2.217-1.389-2.217h-39.245c-.768,0-1.389.993-1.389,2.217v17.021c0,1.225.621,2.217,1.389,2.217h1.81v2.541h-1.81c-.768,0-1.389.993-1.389,2.217v17.021c0,1.225.621,2.217,1.389,2.217h1.81v2.75h-1.81c-.768,0-1.389.993-1.389,2.217v17.021c0,1.224.621,2.217,1.389,2.217h1.813c0,.012,0,.022,0,.033v2.927h-1.81c-.768,0-1.389.993-1.389,2.217v17.021c0,1.224.621,2.217,1.389,2.217h39.245c.768,0,1.389-.993,1.389-2.217v-17.021c0-1.224-.621-2.217-1.389-2.217h-1.81V2623c0-.011,0-.021,0-.033h1.813c.768,0,1.389-.993,1.389-2.217v-17.021c0-1.224-.621-2.217-1.389-2.217h-1.81v-2.75h1.81c.768,0,1.389-.992,1.389-2.217v-17.021c0-1.224-.621-2.217-1.389-2.217h-1.81v-2.541Z" transform="translate(-4099.611 -2553.311)" fill="#a2b7da"/>
        <rect id="Rectángulo_61472" data-name="Rectángulo 61472" width="35.624" height="6.367" rx="3.184" transform="translate(3.198 19.687)" fill="#44598a"/>
        <g id="Grupo_560621" data-name="Grupo 560621" transform="translate(0 0)">
          <path id="Rectángulo_61473" data-name="Rectángulo 61473" d="M10.727,0H31.294A10.728,10.728,0,0,1,42.021,10.728v0A10.728,10.728,0,0,1,31.294,21.455H10.727A10.727,10.727,0,0,1,0,10.728v0A10.727,10.727,0,0,1,10.727,0Z" fill="#c7d5f0"/>
          <rect id="Rectángulo_61474" data-name="Rectángulo 61474" width="2.873" height="16.458" rx="1.437" transform="translate(36.047 2.499)" fill="#ecf2fd"/>
          <rect id="Rectángulo_61475" data-name="Rectángulo 61475" width="2.873" height="16.458" rx="1.437" transform="translate(30.888 2.499)" fill="#ecf2fd"/>
          <rect id="Rectángulo_61476" data-name="Rectángulo 61476" width="2.873" height="16.458" rx="1.437" transform="translate(25.729 2.499)" fill="#ecf2fd"/>
          <rect id="Rectángulo_61477" data-name="Rectángulo 61477" width="2.873" height="16.458" rx="1.437" transform="translate(20.569 2.499)" fill="#ecf2fd"/>
          <rect id="Rectángulo_61478" data-name="Rectángulo 61478" width="6.726" height="1.774" rx="0.887" transform="translate(2.154 3.306)" fill="#68b367"/>
        </g>
        <rect id="Rectángulo_61479" data-name="Rectángulo 61479" width="35.624" height="6.367" rx="3.184" transform="translate(3.198 68.097)" fill="#44598a"/>
        <rect id="Rectángulo_61480" data-name="Rectángulo 61480" width="35.624" height="6.367" rx="3.184" transform="translate(3.198 43.683)" fill="#44598a"/>
        <g id="Grupo_560622" data-name="Grupo 560622" transform="translate(0 23.997)">
          <path id="Rectángulo_61481" data-name="Rectángulo 61481" d="M10.728,0H31.294A10.728,10.728,0,0,1,42.021,10.728v0A10.728,10.728,0,0,1,31.294,21.455H10.727A10.727,10.727,0,0,1,0,10.728v0A10.728,10.728,0,0,1,10.728,0Z" fill="#c7d5f0"/>
          <rect id="Rectángulo_61482" data-name="Rectángulo 61482" width="2.873" height="16.458" rx="1.437" transform="translate(36.047 2.499)" fill="#ecf2fd"/>
          <rect id="Rectángulo_61483" data-name="Rectángulo 61483" width="2.873" height="16.458" rx="1.437" transform="translate(30.888 2.499)" fill="#ecf2fd"/>
          <rect id="Rectángulo_61484" data-name="Rectángulo 61484" width="2.873" height="16.458" rx="1.437" transform="translate(25.729 2.499)" fill="#ecf2fd"/>
          <rect id="Rectángulo_61485" data-name="Rectángulo 61485" width="2.873" height="16.458" rx="1.437" transform="translate(20.569 2.499)" fill="#ecf2fd"/>
          <rect id="Rectángulo_61486" data-name="Rectángulo 61486" width="6.726" height="1.774" rx="0.887" transform="translate(2.154 3.306)" fill="#68b367"/>
        </g>
        <g id="Grupo_560623" data-name="Grupo 560623" transform="translate(0 48.202)">
          <path id="Rectángulo_61487" data-name="Rectángulo 61487" d="M10.727,0H31.294A10.728,10.728,0,0,1,42.021,10.728v0A10.728,10.728,0,0,1,31.294,21.455H10.727A10.727,10.727,0,0,1,0,10.728v0A10.727,10.727,0,0,1,10.727,0Z" fill="#c7d5f0"/>
          <rect id="Rectángulo_61488" data-name="Rectángulo 61488" width="2.873" height="16.458" rx="1.437" transform="translate(36.047 2.499)" fill="#ecf2fd"/>
          <rect id="Rectángulo_61489" data-name="Rectángulo 61489" width="2.873" height="16.458" rx="1.437" transform="translate(30.888 2.499)" fill="#ecf2fd"/>
          <rect id="Rectángulo_61490" data-name="Rectángulo 61490" width="2.873" height="16.458" rx="1.437" transform="translate(25.729 2.499)" fill="#ecf2fd"/>
          <rect id="Rectángulo_61491" data-name="Rectángulo 61491" width="2.873" height="16.458" rx="1.437" transform="translate(20.569 2.499)" fill="#ecf2fd"/>
          <rect id="Rectángulo_61492" data-name="Rectángulo 61492" width="6.726" height="1.774" rx="0.887" transform="translate(2.154 3.306)" fill="#68b367"/>
        </g>
        <g id="Grupo_560624" data-name="Grupo 560624" transform="translate(0 72.616)">
          <path id="Rectángulo_61493" data-name="Rectángulo 61493" d="M10.728,0H31.294A10.728,10.728,0,0,1,42.021,10.728v0A10.727,10.727,0,0,1,31.294,21.455H10.727A10.727,10.727,0,0,1,0,10.728v0A10.728,10.728,0,0,1,10.728,0Z" fill="#c7d5f0"/>
          <rect id="Rectángulo_61494" data-name="Rectángulo 61494" width="2.873" height="16.458" rx="1.437" transform="translate(36.047 2.499)" fill="#ecf2fd"/>
          <rect id="Rectángulo_61495" data-name="Rectángulo 61495" width="2.873" height="16.458" rx="1.437" transform="translate(30.888 2.499)" fill="#ecf2fd"/>
          <rect id="Rectángulo_61496" data-name="Rectángulo 61496" width="2.873" height="16.458" rx="1.437" transform="translate(25.729 2.499)" fill="#ecf2fd"/>
          <rect id="Rectángulo_61497" data-name="Rectángulo 61497" width="2.873" height="16.458" rx="1.437" transform="translate(20.569 2.499)" fill="#ecf2fd"/>
          <rect id="Rectángulo_61498" data-name="Rectángulo 61498" width="6.726" height="1.774" rx="0.887" transform="translate(2.154 3.306)" fill="#68b367"/>
        </g>
        <rect id="Rectángulo_61499" data-name="Rectángulo 61499" width="16.473" height="2.75" transform="translate(38.823 45.452)" fill="#829ec5"/>
        <rect id="Rectángulo_61500" data-name="Rectángulo 61500" width="16.473" height="2.542" transform="translate(38.823 21.455)" fill="#829ec5"/>
        <rect id="Rectángulo_61501" data-name="Rectángulo 61501" width="16.471" height="2.959" transform="translate(38.823 69.657)" fill="#829ec5"/>
      </g>
      <g id="Grupo_560626" data-name="Grupo 560626" transform="translate(630.372 895.968)">
        <path id="Trazado_198440" data-name="Trazado 198440" d="M2214.264,3006.381h-58.224a4.18,4.18,0,0,1-4.176-4.175v-20.527a4.181,4.181,0,0,1,4.176-4.175h58.224a4.18,4.18,0,0,1,4.176,4.175v20.527A4.18,4.18,0,0,1,2214.264,3006.381Zm-58.224-26.9a2.2,2.2,0,0,0-2.2,2.2v20.527a2.2,2.2,0,0,0,2.2,2.2h58.224a2.2,2.2,0,0,0,2.2-2.2v-20.527a2.2,2.2,0,0,0-2.2-2.2Z" transform="translate(-2151.865 -2977.504)" fill="#fff"/>
        <rect id="Rectángulo_61502" data-name="Rectángulo 61502" width="4.553" height="21.64" transform="translate(38.88 10.102) rotate(-90)" fill="#fff"/>
        <rect id="Rectángulo_61503" data-name="Rectángulo 61503" width="4.553" height="21.64" transform="translate(38.88 16.715) rotate(-90)" fill="#fff"/>
        <rect id="Rectángulo_61504" data-name="Rectángulo 61504" width="4.553" height="21.64" transform="translate(38.88 23.327) rotate(-90)" fill="#fff"/>
      </g>
      <g id="Grupo_560627" data-name="Grupo 560627" transform="translate(768.232 683.16)">
        <path id="Trazado_198441" data-name="Trazado 198441" d="M3408.791,1162.442h-58.224a4.18,4.18,0,0,1-4.176-4.175V1137.74a4.18,4.18,0,0,1,4.176-4.176h58.224a4.18,4.18,0,0,1,4.175,4.176v20.526A4.18,4.18,0,0,1,3408.791,1162.442Zm-58.224-26.9a2.2,2.2,0,0,0-2.2,2.2v20.526a2.2,2.2,0,0,0,2.2,2.2h58.224a2.2,2.2,0,0,0,2.2-2.2V1137.74a2.2,2.2,0,0,0-2.2-2.2Z" transform="translate(-3346.392 -1133.565)" fill="#fff"/>
        <rect id="Rectángulo_61505" data-name="Rectángulo 61505" width="4.553" height="21.64" transform="translate(38.88 10.102) rotate(-90)" fill="#fff"/>
        <rect id="Rectángulo_61506" data-name="Rectángulo 61506" width="4.553" height="21.64" transform="translate(38.88 16.715) rotate(-90)" fill="#fff"/>
        <rect id="Rectángulo_61507" data-name="Rectángulo 61507" width="4.553" height="21.64" transform="translate(38.88 23.327) rotate(-90)" fill="#fff"/>
      </g>
      <g id="Grupo_560628" data-name="Grupo 560628" transform="translate(821.07 754.302)">
        <path id="Trazado_198442" data-name="Trazado 198442" d="M3866.625,1778.874H3808.4a4.18,4.18,0,0,1-4.175-4.175v-20.526A4.18,4.18,0,0,1,3808.4,1750h58.224a4.18,4.18,0,0,1,4.176,4.175V1774.7A4.18,4.18,0,0,1,3866.625,1778.874Zm-58.224-26.9a2.2,2.2,0,0,0-2.2,2.2V1774.7a2.2,2.2,0,0,0,2.2,2.2h58.224a2.2,2.2,0,0,0,2.2-2.2v-20.526a2.2,2.2,0,0,0-2.2-2.2Z" transform="translate(-3804.226 -1749.997)" fill="#fff"/>
        <rect id="Rectángulo_61508" data-name="Rectángulo 61508" width="4.553" height="21.64" transform="translate(38.88 10.102) rotate(-90)" fill="#fff"/>
        <rect id="Rectángulo_61509" data-name="Rectángulo 61509" width="4.553" height="21.64" transform="translate(38.88 16.715) rotate(-90)" fill="#fff"/>
        <rect id="Rectángulo_61510" data-name="Rectángulo 61510" width="4.553" height="21.64" transform="translate(38.88 23.327) rotate(-90)" fill="#fff"/>
      </g>
      <path id="Trazado_198443" data-name="Trazado 198443" d="M2758.771,979.789h-99.109a5.125,5.125,0,0,1-5.119-5.119V909.083a5.125,5.125,0,0,1,5.119-5.119h52.165a3.13,3.13,0,0,0,1.82-.579l12.073-8.56a5.093,5.093,0,0,1,2.961-.943h30.091A5.125,5.125,0,0,1,2763.89,899v75.67A5.125,5.125,0,0,1,2758.771,979.789Zm-99.109-73.852a3.149,3.149,0,0,0-3.146,3.145V974.67a3.149,3.149,0,0,0,3.146,3.145h99.109a3.149,3.149,0,0,0,3.145-3.145V899a3.149,3.149,0,0,0-3.145-3.145H2728.68a3.128,3.128,0,0,0-1.819.579l-12.074,8.56a5.09,5.09,0,0,1-2.961.943Z" transform="translate(-1966.157 -238.383)" fill="#fff"/>
      <path id="Trazado_198444" data-name="Trazado 198444" d="M3314.711,1768.978l-4.584-5.418-2.829-3.345,1.258-.787-16.421-39.033,17.652-43.615,1.7-4.972,9.046-.266,2.948-66.906a2.754,2.754,0,0,0-1.121-2.483,2.805,2.805,0,0,0-.312-.177l-.077-.038a3.178,3.178,0,0,0-1.155-.4l.216-5.773.154-.646a9.045,9.045,0,0,0,3.054-1.811,9.952,9.952,0,0,0,3.124-4.407c1.156-3.714,2.668-8.475-.138-12.108s-8.575-7.325-12.771-6.642-.194,5.517-.894,5.745c-.607.2-2.312,1.574-2.444,2.582a.762.762,0,0,0,.06.429,9.445,9.445,0,0,0,.721,1.274c-.449.373-1,.838-1.6,1.335-2.037,1.7-4.651,3.6-5.278,3.978-1.112.67,2.093,3.64,1.975,4.267-.106.575-1.937,8.934,3.868,8.741l-1.131,3.819-.481.037a8.129,8.129,0,0,0-.8.174,8.559,8.559,0,0,0-4.4,2.89l-5.256,6.517-19.678,15.725-28.3,6.764.129.678c-.61.144-1.058.244-1.289.272-.936.1-4.449-1.5-6.608-1.944-.956-.2-1.649-.164-1.744.331a.881.881,0,0,0,.553,1.018c.9.5,2.5.67,2.221,2.043-.317,1.546-2.038.627-4.116.366a6.323,6.323,0,0,0-1.833,0c-1.013.164-1.073,1.061-.592,2.145.852,1.939,3.388,4.483,5.248,4.6,1.957.122,5.533-1.132,7.659-1.965.9.238,1.926.444,1.833,1.55-.135,1.557-1.97.854-4.085.841a6.511,6.511,0,0,0-1.838.217c-1,.28-.951,1.168-.341,2.178,1.083,1.806,3.927,4.01,5.807,3.912,2.8-.154,8.544-3.409,9.054-3.7l.275.856,26.323-5.819-7.011,16.847a1.063,1.063,0,0,0,.98,1.517h.182l-1.117,2.608-45.62,106.389.375.109-1.552,1.738-18.255,1.758a2.749,2.749,0,0,0-2.413,2.27l-.025.159a2.226,2.226,0,0,0,1.795,2.6l23.483,4.288a2.7,2.7,0,0,0,2.785-1.381l3.429-6.2,1.2-2.176.438.128,27.484-43.222,23,37.448,2.239-1.4-1.618,9.229a1.066,1.066,0,0,1-.625.782l-8.03,3.466a1.077,1.077,0,0,0-.541.519l-1.166,2.434a.876.876,0,0,0,.809,1.3l13.181-.52a1.038,1.038,0,0,0,.662-.281l13.031-12.123A.961.961,0,0,0,3314.711,1768.978Z" transform="translate(-2460.151 -836.527)" fill="#213b85" opacity="0.18" style="mix-blend-mode: multiply;isolation: isolate"/>
      <path id="Trazado_198445" data-name="Trazado 198445" d="M2381.206,1500.271l-6.874-3.355a3.455,3.455,0,0,1-1.9-3.645l1.907-12.059a7.237,7.237,0,0,0-6.017-8.278l-122.212-19.329a7.947,7.947,0,0,0-9.091,6.608l-25.775,162.969a7.946,7.946,0,0,0,6.607,9.09l122.212,19.329a7.236,7.236,0,0,0,8.278-6.017l14.792-93.525a3.455,3.455,0,0,1,2.88-2.874l8.011-1.252a6.2,6.2,0,0,0,5.177-5.205l5.416-35.958A6.2,6.2,0,0,0,2381.206,1500.271Z" transform="translate(-1573.934 -733.423)" fill="#213b85" opacity="0.18" style="mix-blend-mode: multiply;isolation: isolate"/>
      <g id="Grupo_560631" data-name="Grupo 560631" transform="translate(635.101 714.383)">
        <path id="Trazado_198446" data-name="Trazado 198446" d="M3399.639,2181.806c1.238,1.806,4.273,4.01,6.145,3.911,2.921-.161,8.773-3.724,8.773-3.724l.115-.031.749-.164,1.818-.394c-.493-1.66-1.493-4.827-2.017-6.489l-.683.254c-.044.014-.092.035-.136.05-1.778.649-3.07,1.161-3.531,1.274-.909.209-4.723-.953-6.956-1.138-.99-.081-1.671.031-1.666.53s.313.763.755.936c.993.39,2.617.366,2.62,1.749,0,1.557-1.9.854-4.013.841a6.341,6.341,0,0,0-1.82.217C3398.82,2179.908,3398.942,2180.8,3399.639,2181.806Z" transform="translate(-3259.877 -2085.957)" fill="#eec6a9"/>
        <path id="Trazado_198447" data-name="Trazado 198447" d="M3536.223,1972.2l14.513-15.761,2.117,17.961-9.419,8.246-30.906,6.965-3.037-7.449Z" transform="translate(-3357.536 -1892.693)" fill="#d29b38"/>
        <g id="Grupo_560629" data-name="Grupo 560629" transform="translate(0 0)">
          <path id="Trazado_198448" data-name="Trazado 198448" d="M2355.9,1485.425l3.328-36.211a6.2,6.2,0,0,0-3.783-6.291l-7.057-2.951a3.456,3.456,0,0,1-2.1-3.53l1.207-12.149a7.236,7.236,0,0,0-6.486-7.917l-123.125-12.231a7.947,7.947,0,0,0-8.693,7.122l-16.311,164.187a7.948,7.948,0,0,0,7.123,8.693l123.124,12.231a7.237,7.237,0,0,0,7.917-6.486l9.36-94.223a3.456,3.456,0,0,1,2.709-3.036l7.925-1.713A6.2,6.2,0,0,0,2355.9,1485.425Z" transform="translate(-2192.837 -1404.105)" fill="#fff"/>
          <path id="Trazado_198449" data-name="Trazado 198449" d="M2469.63,1578.438l-53.886-5.353a2.922,2.922,0,0,1-2.619-3.2l.515-5.182a2.922,2.922,0,0,1,3.2-2.619l53.885,5.353a2.922,2.922,0,0,1,2.619,3.2l-.515,5.182A2.922,2.922,0,0,1,2469.63,1578.438Z" transform="translate(-2387.689 -1543.842)" fill="#ecf2fd"/>
          <path id="Trazado_198450" data-name="Trazado 198450" d="M2392.706,2295.636l-46.992-4.668a1.46,1.46,0,0,1-1.309-1.6l.293-2.958a1.461,1.461,0,0,1,1.6-1.309l46.993,4.668a1.461,1.461,0,0,1,1.309,1.6l-.294,2.957A1.46,1.46,0,0,1,2392.706,2295.636Z" transform="translate(-2326.905 -2183.422)" fill="#ecf2fd"/>
          <path id="Trazado_198451" data-name="Trazado 198451" d="M2579.5,2413.283l-95.864-9.523a1.62,1.62,0,0,1-1.452-1.772l.262-2.64a1.62,1.62,0,0,1,1.772-1.452l95.863,9.523a1.62,1.62,0,0,1,1.451,1.772l-.262,2.64A1.62,1.62,0,0,1,2579.5,2413.283Z" transform="translate(-2448.784 -2283.196)" fill="#ecf2fd"/>
          <path id="Trazado_198452" data-name="Trazado 198452" d="M2439.347,2498.432l-112.607-11.186a1.754,1.754,0,0,1-1.571-1.919l.236-2.374a1.754,1.754,0,0,1,1.918-1.572l112.607,11.187a1.753,1.753,0,0,1,1.572,1.918l-.236,2.375A1.753,1.753,0,0,1,2439.347,2498.432Z" transform="translate(-2309.889 -2357.046)" fill="#ecf2fd"/>
          <path id="Trazado_198453" data-name="Trazado 198453" d="M2429.61,2596.451,2317,2585.265a1.754,1.754,0,0,1-1.572-1.918l.236-2.375a1.753,1.753,0,0,1,1.918-1.572l112.607,11.187a1.754,1.754,0,0,1,1.572,1.918l-.236,2.374A1.753,1.753,0,0,1,2429.61,2596.451Z" transform="translate(-2301.275 -2443.753)" fill="#ecf2fd"/>
          <path id="Trazado_198454" data-name="Trazado 198454" d="M2419.873,2694.47l-112.608-11.187a1.754,1.754,0,0,1-1.572-1.919l.236-2.374a1.753,1.753,0,0,1,1.918-1.571l112.607,11.186a1.755,1.755,0,0,1,1.572,1.918l-.236,2.375A1.754,1.754,0,0,1,2419.873,2694.47Z" transform="translate(-2292.661 -2530.459)" fill="#ecf2fd"/>
          <rect id="Rectángulo_61511" data-name="Rectángulo 61511" width="116.669" height="5.893" rx="2.946" transform="translate(12.318 158.099) rotate(5.673)" fill="#ecf2fd"/>
          <rect id="Rectángulo_61512" data-name="Rectángulo 61512" width="82.098" height="50.522" rx="25.261" transform="translate(43.012 40.777) rotate(5.673)" fill="#1a878e"/>
        </g>
        <g id="Grupo_560630" data-name="Grupo 560630" transform="translate(117.855 19.153)">
          <path id="Trazado_198455" data-name="Trazado 198455" d="M3216.058,3298.683l23.853,4.288a2.462,2.462,0,0,0,2.667-1.381l2.893-6.2,1.949-4.171-10.827-2.084-2.222,2.755-18.1,1.758a2.462,2.462,0,0,0-2.218,2.27h0l-.011.16A2.461,2.461,0,0,0,3216.058,3298.683Z" transform="translate(-3214.031 -3090.741)" fill="#1a2a43"/>
          <path id="Trazado_198456" data-name="Trazado 198456" d="M3859.5,3234.654l13.136-.52a.95.95,0,0,0,.638-.281l11.985-12.123a.95.95,0,0,0,.02-1.316l-5.052-5.418-3.57-3.83a.948.948,0,0,0-1.256-.118l-5.791,4.246a.95.95,0,0,0-.385.682l-.907,10.182a.95.95,0,0,1-.558.782l-7.731,3.466h0a.952.952,0,0,0-.5.519l-.956,2.434A.949.949,0,0,0,3859.5,3234.654Z" transform="translate(-3784.134 -3021.499)" fill="#1a2a43"/>
          <path id="Trazado_198457" data-name="Trazado 198457" d="M3890.71,2348.356l-23.139.682,15.852-13.857Z" transform="translate(-3792.146 -2246.878)" fill="#d29b38"/>
          <path id="Trazado_198458" data-name="Trazado 198458" d="M3399.085,2425.788l11.548,3.3,23.755-43.222,26.23,37.448,11.277-7.467-19.788-39.032L3466,2333.2l1.983-7.751-6.911-3.562-.925-.94-4.362-4.436-1.917-1.95-1.948-1.981-13.9-.454-.45,1.313-2.04,5.962Z" transform="translate(-3377.728 -2226.483)" fill="#2d3d6d"/>
          <path id="Trazado_198459" data-name="Trazado 198459" d="M3888.793,2384.739l10.395,12.694,1.983-7.751-6.911-3.562-.925-.94Z" transform="translate(-3810.919 -2290.718)" fill="#1a2a43"/>
          <path id="Trazado_198460" data-name="Trazado 198460" d="M3714.846,2329.464c5.131-.435,18.32-1.541,19.2-1.563l1.051-1.328,1.364-1.724-3.282-.226-16.3-1.122Z" transform="translate(-3657.047 -2236.548)" fill="#1a2a43"/>
          <path id="Trazado_198461" data-name="Trazado 198461" d="M3321.84,2124.149c1.019,1.939,3.774,4.483,5.646,4.6,2.92.182,9.149-2.672,9.149-2.672l.117-.017.763-.075,1.853-.179c-.3-1.706-.918-4.968-1.244-6.68l-.708.172c-.046.01-.094.024-.141.033-1.841.437-3.185.794-3.656.852-.927.1-4.579-1.5-6.775-1.944-.973-.2-1.663-.164-1.717.331a.971.971,0,0,0,.641,1.018c.941.5,2.556.67,2.4,2.043-.184,1.546-1.984.626-4.084.365a6.329,6.329,0,0,0-1.832,0C3321.248,2122.169,3321.266,2123.065,3321.84,2124.149Z" transform="translate(-3309.048 -2054.879)" fill="#eec6a9"/>
          <path id="Trazado_198462" data-name="Trazado 198462" d="M3920.344,1774.129l-1.479,7.045,11.581-.5-.4-8.17.4-2.637Z" transform="translate(-3837.521 -1746.81)" fill="#eec6a9"/>
          <path id="Trazado_198463" data-name="Trazado 198463" d="M3925.634,1774.129l-.789,3.757c3.038.241,8.56-4.029,10.492-5.38l.4-2.637Z" transform="translate(-3842.81 -1746.81)" fill="#dba17e"/>
          <path id="Trazado_198464" data-name="Trazado 198464" d="M3887.172,1659.249a14.127,14.127,0,0,1-3.256,2.772c-.358.229-.732.449-1.127.664a28.63,28.63,0,0,1-6.212,2.435c-7.854,2.155-6.525-7.815-6.462-8.445s-3.4-3.6-2.343-4.267a59.974,59.974,0,0,0,4.935-3.978c.556-.5,1.071-.962,1.488-1.334a13.177,13.177,0,0,1,1.009-.86c1.988-1.194,5.314-.2,8.215,1.61,3.223,2.005,5.923,5.017,5.692,7.16A7.921,7.921,0,0,1,3887.172,1659.249Z" transform="translate(-3792.147 -1636.984)" fill="#eec6a9"/>
          <path id="Trazado_198465" data-name="Trazado 198465" d="M3920.211,1644.452a5.714,5.714,0,0,1-1.749.237h0c-2.541-.039-5.026-1.588-6.4-2.613.556-.5,1.071-.962,1.488-1.334a10.544,10.544,0,0,1-.831-1.274.8.8,0,0,1-.1-.429c1.234-.238,2.355-.442,2.557-.492a61.706,61.706,0,0,1,6.4.568,3.046,3.046,0,0,1,1.194,2.375C3922.834,1642.605,3922.281,1643.822,3920.211,1644.452Z" transform="translate(-3831.504 -1630.629)" fill="#dba17e"/>
          <path id="Trazado_198466" data-name="Trazado 198466" d="M3934.049,1588.9a8.861,8.861,0,0,1-2.744,4.407,6.285,6.285,0,0,1-3.434,1.89.926.926,0,0,1-.318-.092c-.978-.475-2.332-2.608-2.971-3.934a3.879,3.879,0,0,1-.359-.948.516.516,0,0,1,.163-.39,1.916,1.916,0,0,1,.156-.161c.786-.737,2.771-1.786,3.144-3.947.478-2.75-4.112-1.157-4.112-1.157-.29-.147-.566-.293-.831-.44h0a15.258,15.258,0,0,1-4.909-3.947,10.513,10.513,0,0,1-.831-1.274.8.8,0,0,1-.1-.428c.046-1.008,1.632-2.385,2.221-2.582.681-.229-3.74-5.061.4-5.746s10.225,3.009,13.344,6.642S3934.885,1585.181,3934.049,1588.9Z" transform="translate(-3835.783 -1570.062)" fill="#2d3d6d"/>
          <path id="Trazado_198467" data-name="Trazado 198467" d="M3719.722,2076.856l-8.785,26.631a1.157,1.157,0,0,0,1.111,1.517H3733.7l-4.414-11.87-2.447-20.429Z" transform="translate(-3653.538 -2014.695)" fill="#fff"/>
          <path id="Trazado_198468" data-name="Trazado 198468" d="M3723.96,2638.029l-9.074,34.479,18.162,37.886-1.554,1.029-26.506-37.6Z" transform="translate(-3648.327 -2514.776)" fill="#1a2a43"/>
          <path id="Trazado_198469" data-name="Trazado 198469" d="M3491.132,1843.432h0a7.624,7.624,0,0,0-4.146,2.89l-4.694,6.517-18.321,15.725-27.715,6.764,2.144,7.753,31.509-3.3,13.693-9.4.048,13.631a61.569,61.569,0,0,0,2.862,18.338l1.1,3.478,21.56,6.62-2.823-66.907a3.029,3.029,0,0,0-1.335-2.483,3.065,3.065,0,0,0-.327-.177l-.079-.039a3.447,3.447,0,0,0-2.134-.413c-.081.01-.161.021-.241.027l-10.313.8A7.6,7.6,0,0,0,3491.132,1843.432Z" transform="translate(-3410.609 -1810.969)" fill="#f9b131"/>
        </g>
      </g>
      <path id="Trazado_198470" data-name="Trazado 198470" d="M2020.411,1359.062l-.512-36.36a6.2,6.2,0,0,0-4.427-5.856l-7.328-2.19a3.456,3.456,0,0,1-2.466-3.288l-.082-12.208a7.236,7.236,0,0,0-7.285-7.188l-123.728.83a7.947,7.947,0,0,0-7.893,8l1.107,164.991a7.947,7.947,0,0,0,8,7.893l123.728-.83a7.237,7.237,0,0,0,7.188-7.285l-.635-94.685a3.456,3.456,0,0,1,2.374-3.305l7.7-2.54A6.2,6.2,0,0,0,2020.411,1359.062Z" transform="translate(-1269.23 -590.529)" fill="#213b85" opacity="0.18" style="mix-blend-mode: multiply;isolation: isolate"/>
      <g id="Grupo_560632" data-name="Grupo 560632" transform="translate(586.77 694.146)">
        <path id="Trazado_198471" data-name="Trazado 198471" d="M1930.335,1294.761l-2.2-36.3a6.2,6.2,0,0,0-4.694-5.644l-7.422-1.846a3.455,3.455,0,0,1-2.616-3.169l-.65-12.191a7.236,7.236,0,0,0-7.612-6.841l-123.555,6.592a7.947,7.947,0,0,0-7.512,8.359l8.79,164.76a7.946,7.946,0,0,0,8.359,7.512l123.555-6.592a7.237,7.237,0,0,0,6.841-7.612l-5.045-94.553a3.456,3.456,0,0,1,2.217-3.412l7.574-2.9A6.2,6.2,0,0,0,1930.335,1294.761Z" transform="translate(-1774.056 -1228.762)" fill="#fff"/>
        <path id="Trazado_198472" data-name="Trazado 198472" d="M1946.765,1398.432l-46.677,2.49a1.7,1.7,0,0,1-1.789-1.607l-.244-4.584a1.7,1.7,0,0,1,1.608-1.789l46.677-2.49a1.7,1.7,0,0,1,1.789,1.607l.245,4.584A1.7,1.7,0,0,1,1946.765,1398.432Z" transform="translate(-1883.741 -1371.789)" fill="#ecf2fd"/>
        <rect id="Rectángulo_61513" data-name="Rectángulo 61513" width="94.153" height="7.992" rx="3.996" transform="matrix(0.999, -0.053, 0.053, 0.999, 33.012, 37.739)" fill="#ecf2fd"/>
        <path id="Trazado_198473" data-name="Trazado 198473" d="M2024.618,1672.293l-108.207,5.773a1.838,1.838,0,0,1-1.933-1.738l-.23-4.309a1.838,1.838,0,0,1,1.738-1.934l108.207-5.773a1.839,1.839,0,0,1,1.934,1.738l.23,4.31A1.838,1.838,0,0,1,2024.618,1672.293Z" transform="translate(-1898.066 -1614.043)" fill="#ecf2fd"/>
        <path id="Trazado_198474" data-name="Trazado 198474" d="M2032.684,1823.478l-108.208,5.773a1.838,1.838,0,0,1-1.933-1.738l-.23-4.309a1.838,1.838,0,0,1,1.738-1.933l108.207-5.773a1.839,1.839,0,0,1,1.934,1.738l.23,4.31A1.838,1.838,0,0,1,2032.684,1823.478Z" transform="translate(-1905.201 -1747.78)" fill="#ecf2fd"/>
        <path id="Trazado_198475" data-name="Trazado 198475" d="M2040.749,1974.663l-108.207,5.773a1.838,1.838,0,0,1-1.933-1.738l-.23-4.31a1.838,1.838,0,0,1,1.738-1.933l108.207-5.773a1.838,1.838,0,0,1,1.934,1.738l.23,4.309A1.839,1.839,0,0,1,2040.749,1974.663Z" transform="translate(-1912.335 -1881.518)" fill="#ecf2fd"/>
        <path id="Trazado_198476" data-name="Trazado 198476" d="M2048.815,2125.848l-108.207,5.773a1.838,1.838,0,0,1-1.933-1.738l-.23-4.309a1.838,1.838,0,0,1,1.738-1.934l108.207-5.773a1.838,1.838,0,0,1,1.934,1.738l.23,4.309A1.839,1.839,0,0,1,2048.815,2125.848Z" transform="translate(-1919.47 -2015.254)" fill="#ecf2fd"/>
        <path id="Trazado_198477" data-name="Trazado 198477" d="M2056.881,2277.033l-108.207,5.773a1.838,1.838,0,0,1-1.933-1.738l-.23-4.309a1.839,1.839,0,0,1,1.738-1.934l108.207-5.772a1.838,1.838,0,0,1,1.934,1.738l.229,4.31A1.838,1.838,0,0,1,2056.881,2277.033Z" transform="translate(-1926.605 -2148.991)" fill="#ecf2fd"/>
        <path id="Trazado_198478" data-name="Trazado 198478" d="M2064.946,2428.218l-108.207,5.773a1.838,1.838,0,0,1-1.933-1.738l-.23-4.309a1.839,1.839,0,0,1,1.738-1.934l108.207-5.772a1.839,1.839,0,0,1,1.934,1.738l.229,4.31A1.838,1.838,0,0,1,2064.946,2428.218Z" transform="translate(-1933.74 -2282.728)" fill="#ecf2fd"/>
        <path id="Trazado_198479" data-name="Trazado 198479" d="M2073.013,2579.4l-108.207,5.772a1.837,1.837,0,0,1-1.933-1.737l-.23-4.31a1.838,1.838,0,0,1,1.738-1.933l108.207-5.773a1.839,1.839,0,0,1,1.934,1.738l.23,4.31A1.838,1.838,0,0,1,2073.013,2579.4Z" transform="translate(-1940.875 -2416.464)" fill="#ecf2fd"/>
      </g>
      <path id="Trazado_198480" data-name="Trazado 198480" d="M672.373,1244.449,536.1,1323.727a.677.677,0,0,1-.924-.247l-101.8-176.33a.676.676,0,0,1,.248-.924l136.276-79.278a7.748,7.748,0,0,1,10.584,2.836l94.732,164.081A7.748,7.748,0,0,1,672.373,1244.449Z" transform="translate(-1.247 -390.557)" fill="#204057"/>
      <path id="Trazado_198481" data-name="Trazado 198481" d="M1345.952,1394.568l-18.877-92.786a3.455,3.455,0,0,1,1.692-3.7l7.066-3.976a6.2,6.2,0,0,0,3.027-6.687l-7.512-35.58a6.2,6.2,0,0,0-5.472-4.893l-7.613-.737a3.456,3.456,0,0,1-3.054-2.751l-2.434-11.963a7.236,7.236,0,0,0-8.534-5.649l-121.247,24.667a7.947,7.947,0,0,0-6.2,9.372l32.893,161.683a7.947,7.947,0,0,0,9.372,6.2L1340.3,1403.1A7.237,7.237,0,0,0,1345.952,1394.568Z" transform="translate(-658.809 -531.905)" fill="#213b85" opacity="0.18" style="mix-blend-mode: multiply;isolation: isolate"/>
      <g id="Grupo_560633" data-name="Grupo 560633" transform="translate(505.503 688.534)">
        <path id="Trazado_198482" data-name="Trazado 198482" d="M1242.578,1354.948l-16.916,4.595-102.487,27.836a7.948,7.948,0,0,1-9.755-5.586l-43.248-159.223a7.952,7.952,0,0,1,5.586-9.755l13.229-3.592,70.593-19.174,35.585-9.664a7.236,7.236,0,0,1,8.879,5.089l3.2,11.78a3.453,3.453,0,0,0,3.225,2.546l7.643.245a6.205,6.205,0,0,1,5.775,4.532l9.791,35.02a6.2,6.2,0,0,1-2.59,6.869l-6.794,4.425a3.448,3.448,0,0,0-1.449,3.8l24.819,91.374A7.241,7.241,0,0,1,1242.578,1354.948Z" transform="translate(-1069.893 -1180.13)" fill="#fff"/>
        <rect id="Rectángulo_61514" data-name="Rectángulo 61514" width="117.779" height="13.262" rx="6.631" transform="translate(13.913 47.872) rotate(-15.196)" fill="#1a878e"/>
        <path id="Trazado_198483" data-name="Trazado 198483" d="M1323.639,1672.952l-62.863,17.074a2.637,2.637,0,0,1-3.236-1.854l-15.916-58.6a2.637,2.637,0,0,1,1.854-3.236l62.863-17.074a2.638,2.638,0,0,1,3.236,1.854l15.916,58.6A2.637,2.637,0,0,1,1323.639,1672.952Z" transform="translate(-1221.723 -1559.657)" fill="#ecf2fd"/>
        <path id="Trazado_198484" data-name="Trazado 198484" d="M1457.7,2266.888l-49.079,13.331a1.263,1.263,0,0,1-1.55-.888l-1.1-4.063a1.263,1.263,0,0,1,.888-1.55l49.078-13.331a1.263,1.263,0,0,1,1.55.888l1.1,4.063A1.263,1.263,0,0,1,1457.7,2266.888Z" transform="translate(-1367.143 -2135.676)" fill="#ecf2fd"/>
        <path id="Trazado_198485" data-name="Trazado 198485" d="M1921.633,1576.41,1882.642,1587a1.54,1.54,0,0,1-1.89-1.083l-.958-3.528a1.541,1.541,0,0,1,1.083-1.89l38.991-10.59a1.54,1.54,0,0,1,1.891,1.083l.958,3.528A1.541,1.541,0,0,1,1921.633,1576.41Z" transform="translate(-1786.275 -1524.877)" fill="#ecf2fd"/>
        <path id="Trazado_198486" data-name="Trazado 198486" d="M1953.189,1692.591l-38.991,10.59a1.541,1.541,0,0,1-1.891-1.083l-.958-3.528a1.54,1.54,0,0,1,1.083-1.89l38.991-10.591a1.54,1.54,0,0,1,1.89,1.083l.958,3.528A1.54,1.54,0,0,1,1953.189,1692.591Z" transform="translate(-1814.189 -1627.65)" fill="#ecf2fd"/>
        <path id="Trazado_198487" data-name="Trazado 198487" d="M1984.746,1808.772l-38.991,10.591a1.54,1.54,0,0,1-1.89-1.083l-.958-3.528a1.541,1.541,0,0,1,1.083-1.891l38.991-10.59a1.54,1.54,0,0,1,1.89,1.083l.958,3.528A1.54,1.54,0,0,1,1984.746,1808.772Z" transform="translate(-1842.104 -1730.422)" fill="#ecf2fd"/>
        <path id="Trazado_198488" data-name="Trazado 198488" d="M2016.3,1924.953l-38.99,10.59a1.541,1.541,0,0,1-1.891-1.083l-.958-3.528a1.541,1.541,0,0,1,1.083-1.89l38.991-10.59a1.54,1.54,0,0,1,1.89,1.083l.958,3.528A1.54,1.54,0,0,1,2016.3,1924.953Z" transform="translate(-1870.018 -1833.195)" fill="#ecf2fd"/>
        <path id="Trazado_198489" data-name="Trazado 198489" d="M1550.442,2232.759l-110.04,29.889a1.876,1.876,0,0,1-2.3-1.319l-.782-2.88a1.877,1.877,0,0,1,1.319-2.3l110.04-29.888a1.876,1.876,0,0,1,2.3,1.319l.782,2.88A1.876,1.876,0,0,1,1550.442,2232.759Z" transform="translate(-1394.855 -2105.467)" fill="#ecf2fd"/>
        <path id="Trazado_198490" data-name="Trazado 198490" d="M1580.564,2343.659l-110.039,29.889a1.876,1.876,0,0,1-2.3-1.319l-.782-2.88a1.877,1.877,0,0,1,1.319-2.3l110.04-29.888a1.876,1.876,0,0,1,2.3,1.319l.782,2.88A1.876,1.876,0,0,1,1580.564,2343.659Z" transform="translate(-1421.501 -2203.568)" fill="#ecf2fd"/>
        <path id="Trazado_198491" data-name="Trazado 198491" d="M1610.686,2454.559l-110.04,29.889a1.876,1.876,0,0,1-2.3-1.319l-.783-2.88a1.876,1.876,0,0,1,1.319-2.3l110.04-29.889a1.876,1.876,0,0,1,2.3,1.319l.782,2.88A1.876,1.876,0,0,1,1610.686,2454.559Z" transform="translate(-1448.146 -2301.669)" fill="#ecf2fd"/>
        <path id="Trazado_198492" data-name="Trazado 198492" d="M1791.229,2654.491l-69.665,18.922a1.053,1.053,0,0,1-1.292-.74h0a1.053,1.053,0,0,1,.74-1.292l69.665-18.922a1.052,1.052,0,0,1,1.292.74h0A1.053,1.053,0,0,1,1791.229,2654.491Z" transform="translate(-1645.179 -2482.506)" fill="#ecf2fd"/>
      </g>
      <path id="Trazado_198493" data-name="Trazado 198493" d="M1225.662,1435.565,1123.175,1463.4a7.949,7.949,0,0,1-9.755-5.586l-43.248-159.223a7.926,7.926,0,0,1,1-6.4l17.816-6.944,70.593-19.174,6.123,15.708,4.844,12.427,5.614,14.4,2.463,6.316,2.613,6.7,2.463,6.312,2.614,6.707,2.459,6.313,2.618,6.707,2.459,6.312,10.955,28.1,2.463,6.312,2.385,6.119,2.459,6.308,2.384,6.115,2.46,6.313Z" transform="translate(-564.391 -567.618)" fill="#213b85" opacity="0.18" style="mix-blend-mode: multiply;isolation: isolate"/>
      <g id="Grupo_560635" data-name="Grupo 560635" transform="translate(431.869 693.081)">
        <path id="Trazado_198494" data-name="Trazado 198494" d="M654.19,1407.368l-138.37,61.771a.676.676,0,0,1-.893-.342l-83-185.923a.676.676,0,0,1,.342-.893l138.37-61.771a7.748,7.748,0,0,1,10.233,3.916l77.233,173.008A7.748,7.748,0,0,1,654.19,1407.368Z" transform="translate(-431.869 -1219.535)" fill="#4b87b2"/>
        <g id="Grupo_560634" data-name="Grupo 560634" transform="translate(55.286 47.963)">
          <path id="Trazado_198495" data-name="Trazado 198495" d="M988.767,1672.19l-59.724,26.672a2.86,2.86,0,0,1-3.778-1.445l-14.109-31.593a2.86,2.86,0,0,1,1.445-3.777l59.724-26.672a2.86,2.86,0,0,1,3.777,1.445l14.109,31.592A2.86,2.86,0,0,1,988.767,1672.19Z" transform="translate(-910.907 -1635.126)" fill="#f8f7f6"/>
          <path id="Trazado_198496" data-name="Trazado 198496" d="M978.226,1742.926a.616.616,0,0,1-.252-1.178l54.2-24.205a.616.616,0,0,1,.5,1.125l-54.2,24.205A.612.612,0,0,1,978.226,1742.926Z" transform="translate(-969.912 -1707.983)" fill="#242d43"/>
          <path id="Trazado_198497" data-name="Trazado 198497" d="M1016.026,1827.568a.616.616,0,0,1-.252-1.178l54.2-24.206a.616.616,0,0,1,.5,1.125l-54.2,24.205A.613.613,0,0,1,1016.026,1827.568Z" transform="translate(-1003.349 -1782.857)" fill="#242d43"/>
          <path id="Trazado_198498" data-name="Trazado 198498" d="M1053.826,1912.211a.616.616,0,0,1-.252-1.179l54.2-24.205a.616.616,0,0,1,.5,1.125l-54.2,24.205A.613.613,0,0,1,1053.826,1912.211Z" transform="translate(-1036.786 -1857.731)" fill="#242d43"/>
        </g>
      </g>
      <g id="Grupo_560640" data-name="Grupo 560640" transform="translate(603.738 881.271)">
        <g id="Grupo_560636" data-name="Grupo 560636" transform="translate(0.704 31.824)">
          <rect id="Rectángulo_61515" data-name="Rectángulo 61515" width="6.55" height="26.265" transform="translate(46.539 7.481)" fill="#a4b6d3"/>
          <rect id="Rectángulo_61516" data-name="Rectángulo 61516" width="44.961" height="26.265" transform="translate(1.577 7.481)" fill="#fff"/>
          <path id="Trazado_198499" data-name="Trazado 198499" d="M2086.61,3256.152h-10.272a1.937,1.937,0,0,1-1.931-1.932h0a1.936,1.936,0,0,1,1.931-1.931h10.272a1.936,1.936,0,0,1,1.931,1.931h0A1.937,1.937,0,0,1,2086.61,3256.152Z" transform="translate(-2057.416 -3237.704)" fill="#44598a"/>
          <rect id="Rectángulo_61517" data-name="Rectángulo 61517" width="46.539" height="9.365" fill="#e3b34f"/>
          <rect id="Rectángulo_61518" data-name="Rectángulo 61518" width="8" height="9.365" transform="translate(46.539)" fill="#d29b38"/>
          <path id="Trazado_198500" data-name="Trazado 198500" d="M1940.851,3207.052l44.961,4.518v-4.518Z" transform="translate(-1939.274 -3197.688)" fill="#a4b6d3" opacity="0.5"/>
          <rect id="Rectángulo_61519" data-name="Rectángulo 61519" width="17.241" height="8.447" transform="translate(15.438 21.029)" fill="#c7d5f0"/>
        </g>
        <g id="Grupo_560637" data-name="Grupo 560637" transform="translate(3.763 25.632)">
          <rect id="Rectángulo_61520" data-name="Rectángulo 61520" width="26.375" height="6.275" fill="#d8e1f2"/>
          <path id="Trazado_198501" data-name="Trazado 198501" d="M2197.468,3073.372v4.044h.849v1.116h-16.1v-6.276h16.1v1.116Z" transform="translate(-2155.843 -3072.256)" fill="#8fa4c2"/>
          <rect id="Rectángulo_61521" data-name="Rectángulo 61521" width="14.006" height="4.044" transform="translate(27.618 1.116)" fill="#d8e1f2"/>
          <rect id="Rectángulo_61522" data-name="Rectángulo 61522" width="14.006" height="1.006" transform="translate(27.618 1.116)" fill="#a4b6d3"/>
          <rect id="Rectángulo_61523" data-name="Rectángulo 61523" width="13.036" height="3.456" transform="translate(1.91 1.41)" fill="#fff"/>
          <rect id="Rectángulo_61524" data-name="Rectángulo 61524" width="1.569" height="3.456" transform="translate(16.064 1.41)" fill="#fff"/>
          <circle id="Elipse_4981" data-name="Elipse 4981" cx="1.728" cy="1.728" r="1.728" transform="translate(19.349 1.41)" fill="#fff"/>
          <circle id="Elipse_4982" data-name="Elipse 4982" cx="1.125" cy="1.125" r="1.125" transform="translate(19.952 2.012)" fill="#8fa4c2"/>
        </g>
        <g id="Grupo_560638" data-name="Grupo 560638" transform="translate(0 0)">
          <path id="Trazado_198502" data-name="Trazado 198502" d="M1957.129,2850.156H1921.08v11.121H1965v-11.121Z" transform="translate(-1921.08 -2850.156)" fill="#fff"/>
          <path id="Trazado_198503" data-name="Trazado 198503" d="M1968.5,2946.515h-36.048v8.278h44.2v-8.278Z" transform="translate(-1931.137 -2935.395)" fill="#fff"/>
          <path id="Trazado_198504" data-name="Trazado 198504" d="M2087.14,2850.156v11.121h-19.086l20.274,3.343v4.935h8.278v-8.278h-1.593v-11.121Z" transform="translate(-2051.092 -2850.156)" fill="#a4b6d3"/>
        </g>
        <g id="Grupo_560639" data-name="Grupo 560639" transform="translate(5.242 19.399)">
          <rect id="Rectángulo_61525" data-name="Rectángulo 61525" width="26.199" height="6.234" fill="#80d885"/>
          <path id="Trazado_198505" data-name="Trazado 198505" d="M2208.658,3019.351v4.016h.843v1.108h-15.99v-6.233h15.99v1.109Z" transform="translate(-2167.311 -3018.242)" fill="#68b367"/>
          <rect id="Rectángulo_61526" data-name="Rectángulo 61526" width="13.912" height="4.017" transform="translate(27.434 1.109)" fill="#d8e1f2"/>
          <rect id="Rectángulo_61527" data-name="Rectángulo 61527" width="13.912" height="0.999" transform="translate(27.434 1.109)" fill="#a4b6d3"/>
          <rect id="Rectángulo_61528" data-name="Rectángulo 61528" width="12.949" height="3.433" transform="translate(1.897 1.4)" fill="#fff"/>
          <rect id="Rectángulo_61529" data-name="Rectángulo 61529" width="1.558" height="3.433" transform="translate(15.957 1.4)" fill="#fff"/>
          <circle id="Elipse_4983" data-name="Elipse 4983" cx="1.717" cy="1.717" r="1.717" transform="translate(18.872 4.393) rotate(-76.718)" fill="#fff"/>
          <circle id="Elipse_4984" data-name="Elipse 4984" cx="1.118" cy="1.118" r="1.118" transform="translate(19.819 1.999)" fill="#80d885"/>
        </g>
        <path id="Trazado_198506" data-name="Trazado 198506" d="M1927.183,3125.908l46.539,3.441v-3.441Z" transform="translate(-1926.478 -3094.084)" fill="#d29b38"/>
      </g>
      <g id="Grupo_560642" data-name="Grupo 560642" transform="translate(864.764 807.135)">
        <rect id="Rectángulo_61530" data-name="Rectángulo 61530" width="13.925" height="20.09" transform="translate(16.022 0) rotate(19.329)" fill="#1a878e"/>
        <rect id="Rectángulo_61531" data-name="Rectángulo 61531" width="15.555" height="20.09" transform="matrix(0.582, -0.813, 0.813, 0.582, 1.033, 13.981)" fill="#c7d5f0"/>
        <rect id="Rectángulo_61532" data-name="Rectángulo 61532" width="13.925" height="20.09" transform="translate(17.411 2.983) rotate(45)" fill="#f8f8f8"/>
        <path id="Trazado_198507" data-name="Trazado 198507" d="M4209.614,2324.951h-22.436l-4.358-29.925h31.153Z" transform="translate(-4182.82 -2284.957)" fill="#fff"/>
        <g id="Grupo_560641" data-name="Grupo 560641" transform="translate(8.378 14.849)">
          <path id="Trazado_198508" data-name="Trazado 198508" d="M4268.495,2391.023l-11.947.033a1.138,1.138,0,0,0-1.134,1.2l.61,11.754a1.14,1.14,0,0,0,1.143,1.08l10.791-.03a1.14,1.14,0,0,0,1.136-1.087l.544-11.756A1.139,1.139,0,0,0,4268.495,2391.023Zm-9.717,11.761a.924.924,0,0,1-.923-.918l-.021-7.592a.923.923,0,0,1,.917-.923h0a.923.923,0,0,1,.919.918l.022,7.592A.924.924,0,0,1,4258.777,2402.784Zm3.538-.009a.923.923,0,0,1-.923-.918l-.021-7.594a.923.923,0,0,1,.918-.923h0a.924.924,0,0,1,.92.918l.02,7.594A.923.923,0,0,1,4262.315,2402.775Zm3.538-.01a.924.924,0,0,1-.923-.918l-.021-7.593a.923.923,0,0,1,.917-.923h0a.923.923,0,0,1,.92.918l.022,7.594A.924.924,0,0,1,4265.853,2402.765Z" transform="translate(-4255.412 -2384.724)" fill="#c7d5f0"/>
          <path id="Trazado_198509" data-name="Trazado 198509" d="M4271.747,2339.484l-1.509-.307-.257-1.017a.587.587,0,0,0-.454-.434l-6.228-1.269a.589.589,0,0,0-.589.223l-.633.834-1.509-.307a1.409,1.409,0,1,0-.563,2.761l11.179,2.277a1.409,1.409,0,1,0,.563-2.761Zm-3.245-.641a.383.383,0,0,1-.375.306.4.4,0,0,1-.076-.007l-3.947-.8a.383.383,0,0,1,.075-.759.423.423,0,0,1,.078.008l3.946.8A.385.385,0,0,1,4268.5,2338.843Z" transform="translate(-4258.478 -2336.445)" fill="#c7d5f0"/>
        </g>
      </g>
      <circle id="Elipse_4985" data-name="Elipse 4985" cx="13.662" cy="13.662" r="13.662" transform="translate(612.311 647.445) rotate(-45)" fill="#f9b131"/>
      <circle id="Elipse_4986" data-name="Elipse 4986" cx="8.374" cy="8.374" r="8.374" transform="translate(930.207 874.781)" fill="#c7d5f0"/>
      <circle id="Elipse_4987" data-name="Elipse 4987" cx="8.374" cy="8.374" r="8.374" transform="matrix(0.237, -0.971, 0.971, 0.237, 458.832, 704.602)" fill="#c7d5f0"/>
    </g>
  </g>
</svg>
